<?xml version="1.0" encoding="UTF-8"?>
<svg id="Lager_2" data-name="Lager 2" xmlns="http://www.w3.org/2000/svg" viewBox="0 0 711.32 852.67">
  <defs>
    <style>
      .cls-1 {
        fill: #adadad;
      }
    </style>
  </defs>
  <g id="Lager_1-2" data-name="Lager 1">
    <path class="cls-1" d="M348.51,182.56c-.06-.48-1.19-3.44-1.62-3.56-7.42-.4-12.73,3.41-12.88,11.06-1.97-3.54-5.73-12.26-10.79-10.86-4.64,1.28-2.28,16.65-2.72,21.35-.35,3.79-2.67,8.49-2.51,12.04.26,5.92,2.51,14.25,2.56,20.93.04,5.11-2.76,25.49.62,27.62,1.53.96,9.83,2.65,11.19,1.78,3.36-5.18-2.04-7.72-2.79-12.42-1.14-7.17,2.28-16.15,2-22.93-.2-4.89-5.5-12.77-3.08-19.52,8.43,2.2,10.86-7.72,19.5-6.02,5.34,1.05,4.35,16.15,5.49,20.31.28,1.02,2.48,1.21,3.29,2.92,4.76,10.13-.09,34.8,3.24,44.76,4.86,14.54,7.6,1.92,12.98,1.93,1.87,0,10.15,5.25,10.46,6.71l-4.6,5.29-6.35-2.9c-1.11,3.05-.75,6.58-1.93,9.58s-4.26,4.17-5.5,6.5c-2.1,3.93-2.84,12.73.96,15.93l24.02-14.95c9-1.47,10.82,5.26,14.05,11.91,3,.52,4.98-2.79,7.38-3.5,1.47-.43,4.01.68,5.43-.35,1.2-.87.67-10.33,5.07-14.14,1.4-1.21,4.26-1.78,5.01-2.99,1.47-2.37.64-10.61,4.18-11.83s10.33,1.7,14.79,1.88c8.13.33,18.52-2.16,27.04-2.04,2.44.03,11.1,2.53,12.61.42,1.21-2.82,1.16-5.56-.25-8.27-6.21-1.69-11.6,3.43-17.52,3.49-3.47.03-6.99-2.66-8.86-2.63s-2.67,2.52-4.99,2.98c-5.12,1.02-12.1-1.63-19.55.44-5.12,1.43-7.76,5.9-14.71,2.91-2.03-.87-3.72-7.62-6.23-8.89-2.11-1.07-8.43,3.55-10.54-3.4-2.67-8.76,5.15-17.12-4.24-22.65l.78-6.4-4.98,3,2-6.47-5.77-4.01c2.7-4,5.55-15.65-1.79-15.52-4.47.08-2.95,14.78-6.44,16.51s-9.59-.57-13.54-.44l.03-24.06c9.83-7.48,6.38,10.48,18.46,2.45,2.72-1.81,11.77-10.07,11.81-13.13.07-4.99-6.95-5.35-3.5-14.56,1.51-4.02,9.04-10.47,13.27-10.81,1.53-.12,3.02.71,4.57.49,4.44-.63,7.89-5.45,13.87-2.92,7.73,3.28,1.79,11.47,1.96,16.03.08,2.24,1.75,3.29,2.01,4.99.7,4.53.76,9.77-3.46,12.45-.29.13-1.49-2.35-1.49-2.5v-16l-11.44-8.49c-1.8.38-5.23,11.07-5.02,13.13,1.11,11.06,9.55,10.58,16.39,15.43,1.16.82,8.33,8.47,8.63,9.37,1.21,3.6.04,8.66.45,12.55.38,3.64,1.99,8.71,2.02,12.06.06,6.69-2.9,14.16,1.94,20.97,4.44,6.23,14.31,0,19.54.39,2.29.17,3.66,2.07,4.98,2.09,3.13.03,11.25-8.78,15.83-6.87l14.61,25.17c5.41,4.54,12.1-.26,17.56-.38,2.84-.07,5.33,1.15,7.95,1.13,3.91-.03,20.24-.57,22.55-2.53,3.28-2.78-3.88-20.08-2.92-21.41l11-3.52,6.48-14.64c4.95-.93,5.14,1.55,7.52,2.51s4.7.07,6.99,4c1.86,3.19-1,6.6,1.54,9.61,1.98-.39,5.65.59,7.17-.28,2.66-1.53,6.94-17.51,14.83-21.65,1.93-1.01,14.31-3.74,16.96-4.05,10.3-1.19,23.67,10.27,32.74,14.1,7.69,3.25,20.67,2.56,28.7.36,1.33-.37,2.7-2.2,3.46-2.2.88,0,3.71,3.1,6.32,1.45,1.39-.88.66-4.57,6.18-1.77-.14,1.92-4.13,2.26-4.98,3-.71.62,2.56,1.27,2.8,3.7.19,1.93-.49,3.49-1.81,4.84-3.19.88-12.79-.23-14.75,1.7-.44.43-4.71,7.91-4.86,8.71-.74,3.85,2.61,8.8-1.35,12.59-1.82,1.12-3.61-1.85-5.73-2.35-3.59-.85-9.47-.27-12.25,2.34-1.98,1.86-2.61,6.31-5.76,7.25-5.23,1.55-11.53-3.51-15.62-.87-2.32,1.5-.98,22.55-11.66,17.57-.5-.23-8.25-6.38-8.68-6.83-2.04-2.12-3.42-7.19-3.36-10.12s2.65-16.51,3.7-19.37c6.36-17.42,22.07-5.02,21.34,8.83,3.12,2.59,7.13-7.85,6.96-10.44s-5.37-11.06-7.44-12.59c-5.42-4.01-14.94-5.3-20.93-1.87-2.58,1.48-3.15,5.42-5.2,7.8-4.82,5.61-15.23,8.8-10.2,18.39,1.27,2.42,3.62,2.85,5.33,4.67,3.06,3.28,6,10.08.44,12.56-4.65,2.08-5.45-5.54-8.67-7.34-.44-.25-8.52-2.94-9.06-3.02-1.14-.17-10.02,2.54-10.24,3.34-1.35,4.96,10.15,6.9,12.88,8.1,7.98,3.51,15.04,10.1,12.12,19.38,4.81.76,4.26-6.28,8.64-7.84l13.91,4.79c4.3,4.16,4.15,20.95,7.43,22.56,1.12.55,5.25.96,5.92.38.62-.53,3.98-13.9,3.1-15.9,2.99.95,16.43,2.2,17.54,3.99,1.84,2.96-4.6,11.86-6.85,13.7s-7.58,1.97-8.5,5.01c-.26.85-.94,13.26-.76,14.37.83,5.3,6.85,4.92,6.41,9.18-1,9.8-18.29,19.19-27.41,13.84-2.6-4.72,3.43-10.64,3.31-14.4-.07-2.37-3.74-9.54-4.49-13.43-.97-5.04,1.18-12.96-7.74-13.14-2.51-.05-5.9,2.87-7.53,2.38-.33-.1-5.55-3.46-5.73-3.75-1.82-2.82-.02-12.15-6.84-7.78.46,5.43.88,7.6-4.42,10.55,8.76,3.53,7.25,10.38,3.85,17.85-3.87,8.48-4.12,5.73-11.35,5.84-5.79.09-10.74,1.43-16,1.89-1.37.12-6.71-.43-8-1-7.48-3.3-2.87-8.82-6.99-14.09-6.05-2.59-11.4-2.93-16.84,1.18-3.73,2.82-4.1,7-7.13,8.89-2.74,1.71-10.67,6.28-13.54,7.44-7.43,2.99-13.35-.91-13.93-.48-.53.4-.55,3.44-4.02,4.53s-13.29-.99-13.71,2.92c-.92,8.52,8.31,2.49,10.64,1.96,4.89-1.1,9.49,4.93,9.03,9.57l2.99-.51c-1.55,2.6-4.47,2.14-6.53,3.47-2.3,1.49-5.22,7.64-7.11,7.96-6.72-5.43-11.12-13.17-21.42-10.49-3.71,5.46,2.62,13.33,7.14,15.98,2.45,1.44,9.83,1.84,8.81,5.96-.56,2.24-6.72,2.96-8.81,4.19-4.59,2.71-7.63,11.24-13.88,2.73l-.67-27.29,8.47-8.5c-7.89-6.01-15.8-13.09-17.93,2.05-1.49,10.61,3.04,22.58,3.96,32.94.55,6.2-2.56,12.04-2.63,18.17-.05,4.67,2.5,9.76,2.61,12.95.07,2.06-2.25,4.86-2.42,8.24-.19,3.71,1.6,7.46,1.49,11.65-.12,4.24-2.41,8.8-2.13,12.98.24,3.55,3.23,6.64,3.58,9,.95,6.48-.15,15.38.5,22,1.91,19.54,4.07,39.35,5.98,59.02.36,3.72,2.14,13.9,2.08,16.03-.06,2.32-1.95,3.46-2.11,5.04-.2,1.88,1.8,3.5,2.1,5.88.41,3.19-1.24,6.73-.89,8.84.29,1.75,2.45,3.21,2.5,4.22s-1.59,2.06-1.25,3.57c.66,2.91,4.33,2.64-.13,7.56l.71,33.35c1.77,2,5.45-5.8,5.95-6.33.83-.87,2.22-.54,2.68-.97,3.04-2.89,7.11-9.82,12.36-5.16-1.87,3.06-1.3,6.66-2.21,9.75-.83,2.83-5.8,4.54-2.79,9.7-3.78.26-12.39,3.2-13.55,6.96-1.95,6.34,1.4,24.93-1.38,28.63-1.47,1.96-4.83,1.13-4.11,5.87.38,2.46,6.11,6.87,6.84,12.32.92,6.94-4.57,13.54.64,20.27,2.05,2.65,5.01,2.94,6.28,4.22s1.4,4.58,3.3,6.21c2.53,2.17,12.82,6.44,16.22,4.54,2.26-1.27.31-5.23,4.75-4.01v7.01c-.82.81-8.6-2.87-11.49,2-1.33,2.25.31,6.03-1.61,9.38s-9.51,6.15-10.39,7.61c-.81,1.35-.36,3.51-1,5-2.68,6.34-4.69,8.58-3.45,16.44.94,5.92,9.86,16.11,7.46,21.52-1.89,4.23-7.94,3.44-11.07,1.06-.98-.74-.86-2.29-2.23-2.98-2.12-1.06-8.1-2.29-10.46-1.83-.9.18-14.86,7.44-15.47,8.06-1.64,1.66-2.43,6.3-5.32,8.18-.67.44-13.87,6.1-14.7,6.32-.9.24-1.78.41-2.72.31-9.16-4.68-20.1-6.06-23.23-17.14-4.96-4.37-18.53,1.78-16.06-11.21.44-2.31,5.38-11.01,4.75-11.72l-5.01-1.03c1.37-3.36.84-7.08,1.36-10.33.23-1.46,1.71-2.82,1.7-4.12,0-.52-1.86-.42-2.05-1.19-.88-3.51,1.68-6.94-.69-11.06-1.06-1.85-3.88-2.3-4.11-4.95-.13-1.47,3.12-9.49,3.56-12.07,1.24-7.37-.33-9.53-.75-15.77s2.69-18.96-9.08-15.05c-8.56,2.85.73,24.37-1.92,31.87-.4,1.13-2.58.83-3.52,1.65-3.95,3.45-7.17,10.86-4.98,16.02.73,1.7,8.72,7.62,10.49,9.78,2.33,2.84,1.35,5.52,2.21,7.02.41.71,2.9.72,3.6,2.91,1.82,5.71-3.5,6.8-3.79,10.86-.25,3.6,2.65,7.19,2.95,10.05.98,9.26-15.55,11.72-12.99-2.06.6-3.25,5.37-4.47,4.82-8.79-.06-.49-2.64-7.72-2.92-8.15-2.41-3.69-7-6.52-9.57-8.93-1.51-1.41-2.65-4.42-4.86-5.66l-1.31.19c-5.08,6.81-14.06-3.59-1.18-.21.64-3.2-.64-6.45-.7-9.39-.02-.93,1.31-2.07,1.33-3.09.07-3.57-5.12-4.57-3.62-8.51,4.67,2.78,10.93-6.64,12.27-10.33.69-1.91-.3-3.26.24-4.62.63-1.61,4.09-3.42,3.49-6.05l-2.9-.06c.06-5.1.12-9.27-2.12-13.94-2.92,2.85-6.04,2.1-8.98-.52-.52-2.09,8.24-4.04,6.99-8.47l-6.43-2.07c-1.21,2.93-4.63,3.46-7.56,4.05l-2.01-8.99c5.32-.75,9.57-5.16,15.23-1.99,2.15,1.2,1.23,4.6,6.76,1.99l1.99,8.58,1.33.29c7.75-5.49,26.04-.27,32.13-6.93.88-.97,3.71-5.35,3.57-6.42-.6-4.36-6.81,2.47-7.25,2.72-4.39,2.46-25.89,4.03-29.27.77-5.73-5.53.36-12.14.56-17.54.36-9.75-1.5-21.42-1.1-32.01.17-4.53,2.18-10.61,2.08-14.91-.14-5.98-4.46-12.6-5.02-19.06-1.29-14.98-1.9-29.95-3.03-44.98-.42-5.53-3.31-19.09-1.47-23.48s6.05-2.32,8.98-.05c2.48-1.56,1.95-6.38-.51-7.53-1.73-.8-6.23,2.07-9.02-.92-.29-.31-2.83-7.56-2.86-7.98-.3-4.35,4.47-8.43,4.93-13.04.51-5.12-1.68-9.32-2.02-14.03-.45-6.31-1.56-19.32-1.06-25.04.41-4.79,4.22-10.03,4.11-13.98s-5.4-8.05-6.02-12.03c-.83-5.28,2.12-9.24,1.89-13.8-.16-3.27-2.46-6.39-2.87-9.2-.77-5.21.47-11.42-.17-16.83-.43-3.69-2.82-7.81-2.94-11.14-.21-5.86,4.85-9.65,4.13-16.01-.66-5.8-5.18-7.55-10.41-6.5-3.89,3.68.7,6.06,1.28,9.59s1.02,15.33.95,19.06c-.05,2.72-1.39,13.14-2.84,14.96-3.89,4.91-13.59-7.64-21.35-5.35-5.56,1.64-4.12,6.23-5.71,10.79,3.97-2.45,6.67.53,9.99,2.5l-7.46,2.51-2.03-3-4.08,6.06c-12.39,1.72-17.23-5.71-15.92-17.1,3.84-2.08,2.93-5.51,7.92-3.05l1.1-.88c-1.08-4.36,6.76-14.05,6.53-16.48-.48-5.13-8.87-4.76-11.62-8.49-2.39-3.26-1.8-8.43-6.74-10.35-2.12-.83-3.44.35-4.96.05-4.39-.87-12.28-4.51-15.22-4.84-2.3-.26-17.03,1.63-20.96,2.04-9.72,1.02-16.19,2.39-18.58,13.03-.17.17-3.74-2.18-4.04-2.69-.8-1.33-1.8-11.38-1.93-13.81-.27-4.97-.58-12.64.77-17.21,1-3.37,5.05-7.27,5.79-10.24.44-1.77.48-1.82-1.06-3.02-4.15.8-5.12,6.59-7.07,7.91-2.3,1.56-7.39.73-9.47,3.78-1.19,5.07,12.4,23.13-.52,25.23-13.35,2.17-16.21-2.84-27.42,9.59-4.84,5.37-3.92,8.82-6.6,13.4s-10.1,4.81-14.88,4.02c-.52-.09-9.43-3.6-9.88-3.87-1.87-1.13-2.2-6.11-3.24-8-1.21-2.2-4.01-3.23-5.16-5.83-1.94-4.38-.81-7.92-1.29-11.62-.45-3.46-4.84-12.66,1.74-14.49,9.38-2.61,6.52,15.32,13.77,17.53,10.55-1.2,7.05-14.05,9.3-21.38.78-2.54,9.84-17.6,11.79-20.21,1.65-2.21,3.37-3.21,5.51-4.72-.2-6.55-3.58-8.35-7.11-12.84.71-4.64,5.52-2.36,8.01-5,.07-2.03-11.13-8.32-13.61-8.48-4.14-.27-7.35,4.27-9.72,3.81-.94-.18-4.12-3.49-4.44-4.54-2.35-7.76,7.47-17.88,3.57-25.56s-9.78,2.84-10.54,8.02c-1.02,7.01,2.85,9.45,2.86,14.74.01,5.71-1.31,14.36-7.61,16.26-3.88-3.62-9.05-6.09-14.49-5.75-.98,4.75,2.04,6.61,4.98,9.54l5.53-2.56,2.37,1.59c-2.02,4.91-1.09,11.34-2.81,16-1.53,4.14-7.39,7.92-8.61,11.38-3.05,8.67,4.88,16.24-9.85,14.92-3.32-.3-12.71-3.6-14.11-3.52-.97.05-3.64,2.76-5.5,3.21-6.22,1.52-3.66-4.51-4.03-6.96-.77-5.18-4.54-6.1-6.98-9.1-6.9-8.48-8.25-32.25-.05-40.06,2.37-2.26,14.08-8.29,14.87-9.64l.27-1.28c-1.91-4.5-2.12-13.49-5.72-16.44-2.37-1.95-4.19.33-3.49-5.97-4.62-1.98-8.38-2.08-13.24-1.04l-2.66-7.07-2.98,2,.82-2.88c-3.28.06-2.44-3.39.11-1.14.48-2.68,4.97-10.28,7.02-11.38,1.78-.96,10.82.17,12.04,1.42,2.03,2.09-2.52,1.59-1.99,2.97,9.43.48,13.89,4.75,9.43,14.05,5.91,5.11,13.54,1.1,20.5,2.48,7.31-3.34,9.51-8.56,14.09-14.04.68-.82,1.98-1.05,2.66-1.8s.49-2.58,1.75-3.73c4.45-4.09,22.68-1.48,28.29.85,6.56,2.72,14.77,17.43,19.81,16.88,2.98-.32,2.15-5.65,3-7.65,1.64-3.89,8.95-3.53,5.49-10.02l11.99,5.02c.98,2.67-4.96,4.5-4.98,5.48l6.61,7.38c9.51-4.65,20.54-2.6,30.93-2.81,3.93-.08,1.83-.72,6.98-.11s7.53-1.76,11.03-1.9c4.17-.17,9.25.02,13.94-.13,3.68-.12,7.14,2.85,10.49-1.42v-15c0-1.66,4.7-4.6,5.03-7.05.85-6.31-8.15-17.89,5.97-16.45-3.14,14.6,3.31,14.47,12.24,20.97,1.87,1.36,2.01,5.24,6.09,3.92,6.48-2.09-1.3-20.9-5.1-24.41l6.74-8c-1.04-3.67,1.43-8.97,1.05-11.93s-4.2-3.51-4.03-6.55h3c-1.66-7.51-2.7-14.41,3-20.49l10.99.5c-2.06-5.91,9.6-7.11,13.54-7.04,4.58.08,7.67,4.1,10.17,4.82,4.93,1.41,9.23-2.26,12.5,4.5,2.71,5.59.67,14.89-2.38,20.04-1.79,3.04-9.83,3.51-9.83,1.17,0-5.43.67-12.92,0-18ZM404.16,224.72c.95-.85,1.98-2.84,2.35-4.13-.74-3.91-10.09,2.48-8,6.47.29.32,5.19-1.94,5.65-2.34ZM346.19,228.22c-1.98.17-4.12,2.6-4.46,4.56.57,4.6-1.23,10.58-1.11,14.68.17,6.12,3.34,15.68,3.36,22.11.02,5.17-6.25,16.09,2.04,16.04,11.56-.06,6.02-22.87,5.51-29.06-.74-8.94.13-18.26-2.94-27.07-.65-.75-1.31-1.36-2.4-1.26ZM293.8,256.35c-.94,1.14-3.1,6.23-.75,6.71,5.77-1.6,11.95-.43,17.68-2.27,3.33-1.07,5.84-3.03,1.52-4.97-1-.45-12.84-1.84-14.2-1.73-.92.07-3.69,1.57-4.25,2.26ZM564.5,254.07l-8.83,3.16c.4,6.22-3.56,10.52-5.24,16.36s.67,8.59-6.43,13.48c-6.5,4.47-10.42.26-16.98-.05-2.12-.1-16.78,1.08-17.52,1.55-.81.52-1.07,2.25-2.06,2.93-3.33,2.29-8.25.23-11.95.56-1.31-4.9,3.35-1.84,5-4.99h-8.99s1.99,4.98,1.99,4.98c-4.55,2.37-4.89-.93-6.29-1.7-1.02-.56-2.43.03-3.43-.55-.62-.36-.67-1.97-2.64-2.85-7.77-3.48-18.81,0-23.14,7.11-.84-3.22-8.93-2.3-11.94-1.94-2.05.24-3.62,1.9-6.06,2.01-3.61.16-6.93-2.63-10.4-.97-2.03,7.46,2.22,12.35,3.85,18.46.88,3.3.51,6.31,1.11,8.89.86,3.69,6.05,6.96.93,11.04-5.61,4.45-11.14.5-15.33,2.64-7.77,3.97-3.76,12.89-10.96,17.07-12.44,7.23-10.76-1.48-17.4-2.98-4.42-1-10.56.76-14.58-.42-2.88-.84-4.47-5.65-6.77-7.23-9.67-6.67-13.97-.78-22.33-.66-2.11.03-12.1-1.28-12.61-3.42-1.05-4.42,15.32-6.66,18.11-7.06l2.89-35.42c-10.83-.91-21.69-4.24-32.52-4.99-4.22-.29-24.88-.64-27.04.93-1.01.74-1.71,1.72-1.44,3.05l4.03-.6c2.6,3.85,2.99,8.1-2.64,8.6-3.7.33-3.39-1.35-5.48-2.41-1.22-.62-3.03-.45-3.91-1.09-1.2-.87-.93-3.31-1.96-4.04-4.3-3.06-22.07,4.44-27.63,5.46-7.16,1.32-17.85.71-24.72,2.28-2,.46-3.38,2.63-5.26,2.82-4.99.48-12.68-8.51-16.44-2.04,3.2.19,3.31,3.46,4.99,5.53,4.49,5.52,9.2,6.91,7.77,15.75-.75,4.64-5.1,7.54-3.76,12.74,4.02.28,5.21-3.11,9.46-3.06,6.3.08,3.04,5.73,12.91,4.94,9.07-.73,7.43-4.23,12.71-7.28,6.7-3.87,7.13,1.21,11.62,2.21,15.4,3.41,12.06,3.73,24.59,10.41,13.41,7.15,34.11,9.87,49.22,9.81,6.65-.02,13.09-8.18,19.47-3.49,3.84,2.83,4.63,9.7,6.24,13.75.97,2.43,6.2,10.89,4.68,12.64-.29.33-3.35-.02-4.43,2.07s-.73,11.57-.02,14.06c1.6,5.6,8.75,5.79,6.1,14.01-.77,2.39-3.34,3.47-4.03,4.96-2.2,4.76,1.88,14.71,2.49,19.98,3.91-.2,1.52-4.4,7.36-3.97,7.94.59,8.18,8.33,17.06,6.91,5.5-.88,4.58-4.7,7.09-7.91,1.13-1.45,2.93-1.92,3.9-3.1,6.64-8.15-2.87-15.67-3.39-22.55-.3-4.04,2.48-7.87,2.65-11.03s-2.21-8.84-2.08-13.49c.25-8.98,3.76-10.95,7.76-18,1.28-2.25,2.18-6.94,3.64-8.36,4.21-4.09,14.42-.8,20.4-1.6,3.65-.49,7.08-2.89,10.35-3.65,10.11-2.34,24.92-2.84,32.73-9.27,6.95-5.72,9.73-10.6,20.22-12.78s25.59,3.61,33.83.83c1.75-.59,3.56-2.66,5.08-2.82,1.75-.18,3.45,1.46,5,1.46,4.09,0,8.98-1.4,13.37-.7-1.52-2.67-4.35-2.46-6.42-5.07-5.02-6.38-4.58-12.98-1.01-19.84.32-.62,5.57-8.6,5.95-9.05,2.16-2.54,4.9-2.02,6.47-3.53,3.28-3.16,5.03-12.5,5.01-16.99-.01-3.84-2.95-8.21-2.01-12.5ZM331.83,272.73c-.72-.47-.92-2.28-1.88-2.6-4.28-1.4-3.9,5.15-2.13,7.63,1.91,2.68,8.29,5.21,11.68,4.3-.34-6.09-3.75-6.8-7.67-9.33ZM308.16,272.2c-1.96.66-2.09,3.96-3.68,5.34-2.7,2.34-8.28.35-8.97,5.01.84,4.03,15.6-1.01,18.58-1.41,2.54-1.79-.27-10.84-5.93-8.93ZM273.39,284.95c1.34-2.07-.94-7.93-3.85-8.5-2.91-.92-3.62,2.79-5.68,4.46-6.69,5.45-7.84-1.51-13.42-4.27-.86-.43-9.7-3.52-10.3-3.51-7.48.15-10.98,8.63-17.4,11.62l-1.25,2.81c1.03,3.39,24.3-.02,28.41-.6,1.96-.28,3.49-1.72,5.19-1.89,3.01-.3,16.1,3.27,18.29-.12ZM104.15,280.21l-1.54,1.49,3.83,13.93c24.29,7.61,16.63-20.14-2.29-15.42ZM191.62,336.95c7.21,1.47,10.65-6.75,15.71-10.61.22-5.34-3.76-18.84-11.38-14.34-8.05,4.75-7.33,17.38-4.33,24.94ZM94.22,315.2c-2.29.62-4.96,8.09-4.52,10.12.21.97,6.38,10.18,7.24,10.81,2.76,2.03,7.23.99,7.58-2.59.29-2.96-2.56-5.96-2.6-7.97s2.2-4.07,1.46-6.79c-.68-2.5-6.99-4.16-9.15-3.57ZM187.5,346.07c-7.36,1.98-2.88,12.48-.69,17.22.52,1.13,1.49,4.11,3.18,3.83,3.98-.98,10.72-8.84,5.83-11.86-4.55-2.82-7.63-.97-8.32-9.19ZM296.29,362.83c1.38-1.28.65-5.24-.79-6.26-6.56-1.28-30.11-10.5-35-8.02-3.03,1.54-.98,6.45-8.72,3.74-5.88-2.06-12.89-13.18-12.27.77-2.29.36-2.49-2.32-5.02-1.63-1.5.41-5.07,3.49-5.04,5.16,4.91,8.95,8.65,3.33,14.51,3.43,15.57.28,29.68,6.48,46.83,4.83.92-.09,4.92-1.48,5.51-2.03ZM317.51,406.06v-15.5c0-.37-1.99-2.1-2.72-2.32-5.93-1.79-10.68,7.31-11.29,12.31.11,1.41,5.08-.42,6.74.24,3.31,1.32,3.11,6.16,7.27,5.27ZM354.5,416.07c1.68-6.06,1.37-12.74-2.49-17.98-1.7,0-1.99,7.15-1.84,8.83.1,1.13,1.98,11.49,4.33,9.15ZM410.02,442.31c-11.43,4.88-3.89,13.77-3.58,20.32.14,2.95-1.76,6.77-1.91,9.95-.69,14.26-1.65,29.91,9.48,40.47,5.89-4.85,2.32-13.14,3.71-19.27.82-3.59,5.45-7.68,5.46-13.02,0-3.27-3.3-22.08-4.34-25.52-.6-1.98-7.3-12.81-8.82-12.92ZM433.5,457.06c2.46-14.14-9.5-10.42-4.07-1.67.55.88,3.59,2.19,4.07,1.67ZM388.5,462.06l-2.03-5.46-13.96-7.53c-.28,7.95,8.57,13.61,15.99,12.99ZM385.76,516.8c.56.58,1.95,1.13,2.77.78,5.87-3.89,10.37-27.33,1.42-28.55-2.96-.4-11.94,3.55-12.48,6.55-.47,2.58,6.4,19.23,8.29,21.22ZM399.52,663.06c6.82.16,11.36,4.08,12.33-5.14.54-5.13-2.07-8.15-2.31-11.41s3.58-9.01,4.02-13.91c1.65-18.29-3.5-42-2.66-60.87.25-5.6,2.84-11.52,3.34-17.46.3-3.62-.82-9.09-.52-12.42s8.45-16.28,2.29-17.79c-1.74-.43-7.15,10.24-7.8,12.18-3.32,9.83.39,24.74-7.67,31.33-.81.66-2.7,2.35-3.53,2.28-8.02-.65,1.61-36.28-8.1-40.74-.98-.17-1.92.64-2.45,1.38-4.31,5.98,3.26,28.38,4.07,36.05,1.51,14.3-2.16,21.87,2.78,37.23,2.54,7.89,4.69,15.92,7.17,23.83,1.71,5.44,4.76,9.57,5.06,16,.27,5.89-1.37,3.89-3.41,6.56-3.44,4.52-2.76,7.35-2.6,12.89ZM363.5,546.07c-5.9,2-7.59,13.09-.44,13,4.77-.06,1.77-10.37.44-13ZM365.45,572.11l-3.78.13c-2.04,4.2-4.41,8.92,1.51,10.7,5-1.57,2.64-6.99,2.27-10.83ZM366.37,587.21c-5.83-3.66-9.63,8.34-2.34,7.8,4.2-.31,4.05-6.72,2.34-7.8ZM363.52,614.06c6.65-1.35,4.74-13.63-2.01-12.99l2.01,12.99ZM381.37,607.21c-9.44-1.76-7.1,4.33-7.9,10.82l-6.96,1.77c-2.13,7.67-.02,26.95,11.52,19.28l-.11-6.07,3.9-2.17c2.11-2.95.85-22.81-.46-23.62ZM440.52,645.07c-3.38,6-1.07,9.88-.97,15.45s-1.33,12.93,1.46,17.52c4.29-.06,2.18-26.27,1.21-30.2-.25-1-.29-3.01-1.7-2.77ZM392.5,664.07c.25-7.18,5.66-14.37-3.48-18-3.48,4.14-.83,12.22,1.39,16.57.54,1.05-.52,1.88,2.09,1.43ZM363.51,653.06l-3.08.6-1.9,28.41,2.88-.96c6.75,12.07,6.61-8.93,7.1-14.04-1.98,1.98-5.64-3.44-5.82-4.69-.07-.52,2.32-6.92.82-9.32ZM414.93,685.64c3.06,2.28,11.97,8.46,15.29,9.22,3.97.9,19.92-.26,15.36-6.35-2.9-3.88-5.24-.67-8.54-.4-13.44,1.09-9.94-3.41-18.05-10.01-4.87-3.96-7.75-5.02-13.96-5.03-2.22,1.96.91,1.79,1.44,2.74.93,1.68.54,3.19,2.49,5.32,1.14,1.25,4.25,3.24,5.97,4.52ZM406.22,724.76c3.08-7.8,14.57-14.24,8.13-23.04-2.63-3.59-5.99-3.18-10.11-2.42-8.1,1.48-7.24,6.3-9.82,12.7-4.57-2.35-12.1.54-8,5.65s7.2-3.3,10.39-2.48c4.23,1.85,1.69,4.16,1.79,6.47.13,3,5.22,5.58,7.62,3.13ZM453.42,743.15c-2.53-.66-5.3-1-7.46.87.07,3.86-6.62,19.55,2.3,15.3,4.83-2.3,2.17-6.8,2.41-7.13.26-.37,2.2-.32,2.71-1.74.34-.97.37-6.94.05-7.3ZM393.49,803.06c1.18-.79,3.07-9.64.04-11.56-2.33-1.47-3.59,1.34-5.47,1.47-3.62.25-10-5.48-12.09-.89l-.46,5.98c4.24-1.56,9.84.17,13.72,2.31.52.29,1.83,4.33,4.27,2.69Z"/>
    <path class="cls-1" d="M343.17,96.4c2.48,2.5,6.57,12.05,2.32,14.21-3.44,1.75-5.75-2.7-8.24-3.79-8.53-3.74-12.57,8.11-20.7,7.21-.91-2.67-1.85-13.7-5.53-12.96-2.93.59-1.3,9.66.06,11.92.93,1.53,8.77,8.32,10.39,8.69,2.42.55,20.99-.66,22.78-1.38.43-.17,5.03-3.51,5.23-3.77,2.24-2.89.9-7.59,7.92-6.38,3.74,6.71-1.89,6.46-3.4,8.9-2.26,3.65,4.34,14.17,6.08,18.04l8.33-2.13c.74-.86-.37-16.12.15-19.35,1.14-7.13,5.07-4.39,7.51.39.65,1.28,4.99,11.87,5.02,12.54.18,4.25-7.75,6.59-5.12,11.53,3.11,5.85,14.06-.19,18.88.94,3.87,7.03,2.14,25.31-4.42,30.46-9.1,7.13-22.1,6.14-30.88-.95-2.83-2.29-2.28-4.9-4.09-6.91-1.6-1.78-9.64-3.94-8.95-7.01,1.49-6.66,13.99,3.24,16.56-.52-.05-2.56-1.76-14.47-4.12-15-10.95,6.15-8.05-6.65-20.7-4.78-16.69,2.47,1.36,15.76-3.88,25.61l-6.96-.49c-.46-2.18-3.37-5.36-3.67-7.12-.42-2.47,1.37-5.58.55-9.52-.18-.87-4.66-9.7-5.33-10.67-1.6-2.33-4.52-2.76-6.1-4.4-6.85-7.13-13.76-14.78-10.51-25.34.78-2.54,7.24-11.36,9.68-11.38,2.78.27,2.96,3.89,3.5,6.06,2.79,2.04,9.68-11.38,18.72-8.23,1.43.5,7.9,4.53,8.93,5.57ZM370.81,157.35c-8.45,10.5,16.62,16.39,13.67,1.24-.26-1.33-.73-2.35-1.96-3.03-2.8-1.35-9.69-.71-11.7,1.79Z"/>
    <path class="cls-1" d="M350.51,55.06c.47-2.76-.35-5.82.43-9.07,1.02-4.29,8.34-14.83,12.35-16.66,3.35-1.53,6.06.06,7.56-.39,2.07-.62,2.5-6.33,9.66-2.88v-4.99s3.06.44,3.06.44c3.14,8.39-1.06,5.6-5.38,5.93-1.18.09-5.59.18-5.66,1.62,1.55,0,2.99.38,4.34,1.16,2.97,1.72,12.75,7.91,14.89,9.83,2.51,2.25,10.9,15.47,12.42,15.91,4.36-.68,9.45-1.12,13.25-3.48s8.63-10.86,10.49-11.59c10.08-3.95,19.8,4.74,8.96,12.08-4.52.78-7.96-12.63-11.21,6.74-.96,5.7-.64,11.5-1.28,17.22-5.86,3.37-12.82-1.79-18.66.8-1.94.86-1.51,5.72-5.28,7.76-1.67.91-14.7,3.84-16.22,3.38-3.57-1.08-2.36-5.69-3.38-8.63-1.64-4.73-7.48-11.28-3.07-15.92s6.63,7.98,12.71,5.28c4.54-2.02,4.66-9.17,1.79-12.29-1.11-1.21-6.12-2.27-8.11-3.38-1.61-.9-2.53-2.66-4.37-3.63-11.54-6.08-14.89,2.22-24.06,4.51-1.94.48-3.53.06-5.21.26-.71,4.11-3.88,11.5-2.13,15.55,2.74,6.32,18.55,7.38,12.58,16.4-2.63,3.97-8.35,5.15-12.75,3.84-2.01-.6-4.56-4.75-6.79-6.2-7.56-4.93-13.6-3.09-21.97-2.02l-4.11-10.41-7.72-1.26c-.97-8.5,3.45-16.49,8.6-22.91l18.76.02,1.01,1.96-1.41,2.4c.77,5,12.03,3.1,15.93,2.63Z"/>
    <path class="cls-1" d="M680.16,277.41c2.65,2.75,6.01,8.73,5.36,12.65,1.54.31.98-1.77,2.03-2.44,1.47-.93,3.31-1,4.92-2.09,2.65-1.78,3.71-5.57,7.99-4.43l1.15,5.86,3.89.6-11.01,3.52,1.15,3.84,15.36-.86c1.9,5.51-5.18,5.5-8.94,4.95-1.33-.2-9.36-2.2-10.32-2.6-1.46-.6-2.64-4.18-5.22-4.34.1,1.93,1.08,3.25.96,5.34-.38,6.84-12.82,31.41-20.99,23.17-2.79-2.81.05-11.33.11-15.02.04-2.16-1.07-4.09-1.13-6.05-.12-3.66,3.31-7.3-1.91-9.01-6.45-2.12-8.27,4.74-14.04,5.56-3.2-6.51,8.25-16.83,13.25-15.86,2.27.44,3.35,3.05,5.74,2.86-1.25-8.55,5.66-11.87,11.66-5.65ZM671.14,286.28c-5.48,2.12,1.19,15.91,4.86,14.78,4.08-3.97-.87-8.77-.7-13.34l-.74-1.17c-.12-.12-3.15-.38-3.42-.27Z"/>
    <path class="cls-1" d="M451.5,208.07c-.09,2.68-.64,6.8,2.7,7.79,6.97,2.08,20.58-8.27,15.29,6.2-7.68-3.65-16.29,4.44-13.94,11.96.49.45,8.5-1.11,9.71-1.7,2.44-1.2,2.39-4.54,5.23-4.25.45.33,2.19,7.41,2.93,8.4.16.22,2.29,2.08,3.38,3.25,1.93,2.07,4.99,1.73,3.53,6.64-1.77,5.96-6.08,0-7.86-.74-4.94-2.04-9.77.7-14.33,2.31-3.13-1.23-2.93-5.35-4.59-7.4-1.3-1.6-3.94-2.05-5.56-3.44-4.96-4.28-2.91-7.73-3.72-13.28-.62-4.29-5.52-12.78,3.11-11.85.3-2.84.83-4.44,4.12-3.88Z"/>
    <path class="cls-1" d="M425.17,117.4c-.73-.94-3.21-1.34-3.54-2.96-1.91-5.31,23.91-10.85,15.9-15.9-3.63-2.29-9.8.86-5.98-9.44,1.72-1.17,11.96,7.28,12.79,8.7,1.09,1.89.27,9.95-.27,12.33-.61,2.66-5.05,13.99-6.35,16.65-.66,1.34-2.51,3.72-3.92,4.12-5.5,1.57-3.6-3.43-4.58-6.05-.76-2.03-2.73-5.74-4.06-7.45Z"/>
    <path class="cls-1" d="M410.5,113.06c-.41,5.39,5,4.94,7.26,8.25,1.78,2.61,4.39,12.62-.7,12.75l-7.05-3.83c-9.62,10.12-6.4,4.99-11.79.13-1.82-1.63-5.85-1.74-7.18-3.33-2.28-2.72-4.21-13.79,1.5-12.57s5.64,9.07,10.43,8.64c3.83-.35,4.31-6.63,5.49-9.46l2.05-.59Z"/>
    <path class="cls-1" d="M461.44,54.12l5.18,14.22c.21,2.04,4.72,4.79,4.9,5.44.38,1.4.33,6.98-.94,7.84-6.72,4.6-9.56-11.93-15.02-14.01-2.24-.85-5.05,1.84-6.74,2.09-2.9.43-13.51.36-14.86-2.61l1.21-3.07,18.34,1.04c-1.65-3.02-1.28-4.94,1.5-6.97l2.49,2.98,1.08-6.94h2.86Z"/>
    <path class="cls-1" d="M367.32,814.22c1.65,2.71-1.62,2.77-2.12,4.05-.84,2.12-.92,9.63-.43,12.02s3.87,3.4,1.59,7.07c-3.11,5.01-7.49-3.47-11.67-3.45l.7-11.12-4.72-2.85-.19-3.23c3.09-2.17,14.64-6.1,16.85-2.48Z"/>
    <path class="cls-1" d="M404.72,91.28c.66-.94,11.43-2.01,13.15-1.9,8.22.56,7.69,7.94,9.54,14.09-3.95,4.99-6.44-1.76-8.92-2.9-5.8-2.67-8.93,3.7-11.99,2.05s-3.41-9.03-1.78-11.34Z"/>
    <path class="cls-1" d="M234.64,239.92c.44.69,5.86,1.12,7.82,2.69,2.25,1.8,3.86,7.17,7.03,8.96-5.74,6.01-5.81-1.65-12.06-.92l-1.42-3.58c-2.68,3.66-4.14,7.03-9.5,5.99l3.15-17.83,3.88-.73,1.11,5.42Z"/>
    <path class="cls-1" d="M493.79,229.76c2.01,1.19,5.76.37,7.77,3.73,4.79,7.99-9.86,12.26-14.06,6.58l4.06-.45.94-6.57c-2.04-.06-4.65-.38-6.1,1.41-1.83,2.25,1.37,13.42-5.87,1.08l3.97-3.48-4.01.48,5.01-2.5-2-2.98c3.46-1.26,5.7-1.24,8.92.61.62.36.83,1.76,1.36,2.07Z"/>
    <path class="cls-1" d="M102.82,383.44c-.41.37-.12,1.84-.58,2.3-.73.74-3.42.97-4.43,2.16-3.67.58-3.16-15.65-.3-17.39.45-.27,7.93-.29,9.04-.05,4.01.87,6.97,4.49,5.53,8.68-3.85,1.1-6.22,1.51-9.27,4.3Z"/>
    <path class="cls-1" d="M672.21,207.41c.5.34.69,1.85,1.23,2.14.91.49,2.36-.6,3.38-.34,3.23.83,4.13,10.85,2.68,13.87-5.41-3.48-5.6,5.12-9.48,3.98-4.08-1.19,1.6-7.51.82-9.7l-6.34-3.78,2.96-7.09c1.5-1.05,3.45.03,4.74.92Z"/>
    <path class="cls-1" d="M28.41,302l-2.12.08-.77,2.98,5.99-1.99v5.98c-3.85.23-7.61,1.54-11.55,1.06-2-.24-2.98-1.51-4.13-1.72-1.59-.29-4.17,1.02-6.31-.35,2.09-6.5,12.5-3.78,10-13l8.02,1.48.88,5.46Z"/>
    <path class="cls-1" d="M599.19,340.39c2.15,1.68,4.79,17.81,3.87,20.71-.37,1.17-1.13,2.15-2.05,2.94-8.09-6.3-8.54-14.68-6.03-24.03.72-1.28,3.48-.19,4.21.38Z"/>
    <path class="cls-1" d="M406.5,25.06c-3.17-.94-3.41-1.7-2.99-5-2.61-.96-7.61,1.11-9.39.77-2.12-.41-2.86-4.94-6.61-2.77v-4s4.47,2,4.47,2c4.01-2.6-2.49-9.4,3.94-9.01s8.44,13.12,10.58,18Z"/>
    <path class="cls-1" d="M486.69,627.85c-.2-.1-.23-1.48-.85-1.8-3.38-1.72-7.44-1.1-3.66-7.03,5.29-1.33,9.16,2.67,12.93,3.03,1.61.15,11.7-2.81,12.4.53,1.23,5.81-11.66,2.39-13.45,2.51-2.7.18-5.01,3.93-7.37,2.76Z"/>
    <path class="cls-1" d="M516.51,255.07c-1.62,2.52-4.81,2.08-7.36,4.13-1.82,1.47-2.84,4.91-5.13,4.88-2.76-2.23-15.79-5.71-10.09-10.1,3.06-2.36,17.43,3.07,22.58,1.09Z"/>
    <path class="cls-1" d="M582.5,225.08l-2.11,2.45c-.15,3.47,4.34,8.38-1.12,10.87-7.12,3.25-4.56-6.22-9.74-1.33l-4.01-5.51,4.97,1.5c3.07-3.58,4.35-8.42,8.53-11l3.49,3.01Z"/>
    <path class="cls-1" d="M527.51,755.07l-.99,4.99,2.99-.5c-.75,1.3-5.58,7.8-4.99,8.5,1.62,1.91,2.26-1.95,2.49-2.02,1.69-.56,3.09-.17,2.5,2.01-9.31,5.33-12.11-1.77-10.01-10.31l8.02-2.66Z"/>
    <path class="cls-1" d="M242.79,389.78c1.16.75,4.17.68,5.72,1.29l-3.02,4.99c-3.19-3.59-4.61-2.02-8.87-2.11l-2.26-6.75-3.22-.12c-1.69-.18-.63-6.35,4.9-4.08,4.04,1.66,5.15,5.76,6.75,6.8Z"/>
    <path class="cls-1" d="M467.43,102.96l-4.36.98c-2.08-4.32-4.79-2.73-9.05-2.87-2.92-.36,3.73-8.82,8.75-7.86,5.65,1.08,4.47,5.51,4.67,9.75Z"/>
    <path class="cls-1" d="M334.28,834.88l-4.4,4.07c-4.23-2.27-6.83-1.99-11.37-.89-3.78-9.23,14.85-8.2,15.98-5.48l-.22,2.3Z"/>
    <path class="cls-1" d="M304.51,54.06l-.58,5.12c-2.69,1.21-16.13,4.87-12.96-2.08,1.49-3.27,2.97-.79.55-7.03,1.51-.2,2.35-.03,3.56.92,3.69,2.92,1.01,4.66,9.44,3.07Z"/>
    <path class="cls-1" d="M650.26,342.26c13.65-1.17-5.34,17.62-7.65,8.11.23-3.7,3.83-7.78,7.65-8.11Z"/>
    <path class="cls-1" d="M490.05,219.51c-1.14-1.33-2.3-3.85-2.49-3.98-1.47-1-4.18.49-4.05-1.46l7.36-3.94,6.62,7.4-3.58,5.48c-1.61.34-2.9-2.38-3.86-3.51Z"/>
    <path class="cls-1" d="M697.19,255.75c-2.47,3.23-9.94,4.46-9.72-2.2.35-10.41,13.82-3.17,9.72,2.2Z"/>
    <path class="cls-1" d="M108.51,407.06c-.18-2.17-.24-5.51,2-6.54.67-.31,13.28-1.13,13.99,1.06-2.3,6.97-6.54,3.29-10.46,3.5-2.16.12-3.36,2.22-5.53,1.97Z"/>
    <path class="cls-1" d="M481.21,710.38c3.47,2.81,5.45,13.72-1.54,11.53l-1.06-2.52c5.51-6.35-1.23-6.58-7.1-6.32v-2.99c3.47.08,6.6-2.21,9.71.3Z"/>
    <path class="cls-1" d="M242.54,401.03l3.97.04c.83,3.04-2.46,4.17-3.29,6.28-1.04,2.65,2.62,4.18-3.77,4.2l-2.02-5.9,3.62-1.52.45-3.05-4-3,3.5-2,1.53,4.95Z"/>
    <path class="cls-1" d="M520.26,745.31c.23.11.24,1.43,1.02,1.68,1.9.61,4.18.59,6.12,1.19l.11,3.88c-2.92.84-3.84-2.19-5.7-2.78-1.44-.46-15.33-.84-15.27-2.71,3.01-3.84,6.39-1.31,9.59-.81,1.37.21,2.8-1.11,4.14-.45Z"/>
    <path class="cls-1" d="M457.51,49.06c1.64-6.86,11.69-5.23,12.86,1.53l-5.34,3.48c-2.33-3.82-2.03-5.94-7.52-5.01Z"/>
    <path class="cls-1" d="M456.42,122.98c-5.09,3.89-11.41-8.56-4.4-11.92,3.53.22,1.99,4.07,2.69,6.28.41,1.29,4.15,3.76,1.71,5.63Z"/>
    <path class="cls-1" d="M693.21,265.87c-.94.65-2.82-.63-3.23,2.12l1.52,6.07c-.84.96-5.79-5.01-7.01-5.53-1.03-.44-1.78,1.22-3.06,1.1-1.35-.12-6.25-4.84-1.61-4.39.89.09,1.97,1.32,3.14,1.37,2.49.1,9.59-1.07,9.56-4.55l1.49,2.01c-.38.51-.25,1.41-.81,1.79Z"/>
    <path class="cls-1" d="M456.51,472.06c-.4-3.06,3.32-1.4,2.03-5.5-.11-.34-5.02-1.39-5.04-4.49l8.99-1.02c1.97,6.09,1.15,10.37-5.98,11Z"/>
    <path class="cls-1" d="M465.5,448.07l.59,5.96-1.17,2c-2.58.64-9.12-2.1-8.49-5.44l1.6-2.52c3.94,2.81,3.59,1.35,7.47.01Z"/>
    <path class="cls-1" d="M384.52,849.06l2.48-3.99c5.07,1.94,8.24,6.53,1,7.35-3.08.35-5.55.9-6.33-2.82-.05-.23-.69-5.49,1.32-4.53l1.53,3.99Z"/>
    <path class="cls-1" d="M499.44,383.13c.75.5.93,4.42-.58,5.02-3.08.33-5.67,1.53-8.41,2.37-4.25,1.31-3.09-3.54.08-4.95,1.52-.68,3.23-.17,4.23-.58.62-.25,1.94-3.67,4.67-1.87Z"/>
    <path class="cls-1" d="M414.36,1.21c4.31,6.92-8.65,11.24-7.55,2.49.56-4.42,6.38-4.37,7.55-2.49Z"/>
    <path class="cls-1" d="M283.6,480.96c-2.62-3.72,5.03-10.44,8.47-4.89,1.66,4.45-6.52,7.65-8.47,4.89Z"/>
    <path class="cls-1" d="M495.5,575.06c.81,2.35,2.33,12.86-2.4,10.92-4.08-3.58-4.01-10.66,2.4-10.92Z"/>
    <path class="cls-1" d="M151.81,413.37c1.47-1.18,4.94-2.2,6.27-.35,1.64,12.48-13.22,5.91-6.27.35Z"/>
    <path class="cls-1" d="M119.51,378.07l.94-9.42,2.48-.5c4.29,4.18,4.19,11.52-3.41,9.92Z"/>
    <path class="cls-1" d="M477.51,679.05c-6.06,2.46-10.5,2.82-16.99,2.01-.56-2.61.55-1.56,1.43-2.09,4.93-2.99,5.05-1.09,9.17-.98,2.3.06,5.18-2.37,6.39,1.07Z"/>
    <path class="cls-1" d="M497.37,401.93c-2.11.72-9.73.26-9.84-2.36-.13-3.09,7.54.65,7.87.41l2.12-3.9c-5.72.87-2.64-4.06,1.48-3,2.88.74-1.7,7.03-1.63,8.85Z"/>
    <path class="cls-1" d="M334.25,672.33c3.41,3.6.6,9.61-4.74,8.74l.46-9.03c.93-1.53,3.39-.64,4.28.3Z"/>
    <path class="cls-1" d="M332.25,808.81c-3.39,3.27-9.14.21-7.65-4.65l6.89-.6c2.1,1,2.37,3.69.75,5.26Z"/>
    <path class="cls-1" d="M325.5,525.05c-2.27-.52-8.87,8.41-9.94,3.43-1.31-6.03,6.58-3.84,6.97-8.41l2.98,4.98Z"/>
    <path class="cls-1" d="M499.53,698.06c-1.22-2.99-5.44-5.58-1.52-8.97l8.48,5.48-6.96,3.49Z"/>
    <path class="cls-1" d="M120.42,394.98c-3.8.91-8.77-1.22-5.97-5.46,4.47-6.76,7.97,4.27,5.97,5.46Z"/>
    <path class="cls-1" d="M289.5,205.06c-2.39-1.25-7.37-9.91-5.91-11.91l3.27-.89c5.58,2.51.67,6.29.8,8.14.1,1.47,2.36,2.75,1.84,4.66Z"/>
    <path class="cls-1" d="M496.5,815.06l.98-4.55c3.67,1.76,2.96-3.6,6.56-.48,1.3,1.82.24,4.43-1.48,5.51l-6.06-.48Z"/>
    <path class="cls-1" d="M330.51,795.06c-.51-3.13.89-1.55,2.52-1.95,4.38-1.06,8.73-3.83,11.47.47l-2.04,2.09-11.95-.61Z"/>
    <path class="cls-1" d="M482.17,583.2c1.31-.34,2.03-.29,2.88.83,1.39,1.99-.21,5.53-2.07,7.03-4.3-.52-4.64-6.85-.81-7.86Z"/>
    <path class="cls-1" d="M480.51,519.06c1.8-.12,3.83-.16,5.08,1.41,4.69,5.84-7.39,9.66-5.08-1.41Z"/>
    <path class="cls-1" d="M76.17,359.16c5.22-1.74,8.29,7.08.89,5.92-3.91-.62-4.11-3.9-.89-5.92Z"/>
    <polygon class="cls-1" points="302.39 184.18 303.54 187.43 301.38 190.87 297.66 190.92 296.95 186.08 302.39 184.18"/>
    <path class="cls-1" d="M467.14,516.28l5.35,2.28-3.89,4.06c-4.68-.18-5.62-4.28-1.46-6.34Z"/>
    <path class="cls-1" d="M508.5,740.06c-2.64.38-3.01-2.14-3.01-4-.55-.54-7.95,3.47-6.98-.98,5.64-3.02,10.06-2.28,9.99,4.98Z"/>
    <path class="cls-1" d="M318.5,839.06v6s-7-1-7-1c-.02-4.28,3.23-5.26,7-5Z"/>
    <path class="cls-1" d="M4.37,266.92c-7.31,1.2-3.63-3.93-1.84-7.85,4.44.02,3.1,5.18,1.84,7.85Z"/>
    <path class="cls-1" d="M555.5,664.06c-4.71-.38-7.86-1.66-7.98-7,4.24,2.63,7.58-.5,7.98,7Z"/>
    <path class="cls-1" d="M518.4,500.97c-4.06.61-6.98,5.97-8.89-.9,4.32.71,5.43-.63,7.49-3.99l1.4,4.89Z"/>
    <path class="cls-1" d="M138.51,340.07c4.45-1.65,6.69,7.29,3.48,7.99-2.82.62-4.04-6.13-3.48-7.99Z"/>
    <polygon class="cls-1" points="306.41 472.16 306.42 477.98 301.5 478.07 301.5 472.06 306.41 472.16"/>
    <path class="cls-1" d="M557.5,370.07l2.01,5.99-5.44.94c-3.85-1.67,1.81-8.11,3.43-6.93Z"/>
    <path class="cls-1" d="M644.61,235.96c-.79-2.21-2.1-4.38.47-5.83l5.4,2.43c-1.33,2.7-2.54,4.28-5.87,3.4Z"/>
    <path class="cls-1" d="M482.5,579.07c.85.65-3.27,4.84-3.55,4.94-2.1.76-4.02-1.94-4.42-3.47-.78-2.92,6.98-.92,7.98-1.47Z"/>
    <path class="cls-1" d="M473.5,457.07l-2.95-.03c-1.87-3.32.75-4.75.97-7.97,6.89-.23,1.26,3.76,1.97,8Z"/>
    <path class="cls-1" d="M441.51,71.06l.05,2.91,3.95.1c.55,1.77-2.42,3.69-3.52,4-.27.08-.95-3.53-4.48-2.01-.71-.58,1.83-5.93,4-5Z"/>
    <polygon class="cls-1" points="73.15 387.18 77.51 388.58 73.87 392.98 70.76 390.58 73.15 387.18"/>
    <path class="cls-1" d="M340.85,813.46c-.46.28-.44,3.54-2.78.53-4.46-5.72,3.28-5.98,6.41-2.43-.89,1.34-2.38,1.14-3.63,1.9Z"/>
    <path class="cls-1" d="M694.5,406.08l-1.99,1.98,2.71.29,3.28,3.72-5.9-.1c-.44-2.62-.38-4.47-3.11-5.38l1.02-2.52,3.98,2.01Z"/>
    <path class="cls-1" d="M84.5,276.07c1.69,9.61-7.98,5.75-4.56.93l4.56-.93Z"/>
    <path class="cls-1" d="M313.42,558.01c-2.77-.2-.54,1.73-2.4,3.03-3.8-.83-5.34-2.66-1.91-5.89l3.43.39.88,2.48Z"/>
    <path class="cls-1" d="M476.5,413.05l-6.99,2.01.43-4.06,1.19-.82c2.45-.54,5.61-.32,5.37,2.87Z"/>
    <path class="cls-1" d="M517.27,302.31c-.96-.96-3.84-1.45-5.2-1.26-7.55,1.05.4,18.13,6.28,9.36.61-1.77.24-6.78-1.08-8.1ZM500.5,305.07l-7.41.91-.59,3.08,7.03-.47.97-3.52ZM253.34,324.88c5.46-19.35-13.27-3.54-4.55.48l4.55-.48ZM293.5,326.06c.83-2.89-7.21-5.76-7.99-4.99-.42,5.19,4.01,5.39,7.99,4.99ZM458.25,327.82c4-8.52-8.54-5.65-11.74-1.24-.8,3.71,9.85,2.91,11.74,1.24Z"/>
    <path class="cls-1" d="M191.62,336.95c-2.99-7.56-3.71-20.2,4.33-24.94,7.63-4.5,11.6,8.99,11.38,14.34-5.06,3.86-8.5,12.07-15.71,10.61Z"/>
    <path class="cls-1" d="M556.02,300.07c2.73-.64,5.32,7.65,8.98,7.65,4.12,0,3.9-8.35,9.77-7.48,2.96.44,10.07,5.96,9.61,9.09-.22,1.52-3.09,5.22-4.6,5.59-1.84.46-3.41-.79-4.77-.66-6.36.61-10.07,2.3-16.75-.46-5.87-2.43-6.09-9.3-2.24-13.74Z"/>
    <path class="cls-1" d="M104.15,280.21c18.92-4.72,26.58,23.03,2.29,15.42l-3.83-13.93,1.54-1.49Z"/>
    <path class="cls-1" d="M410.5,223.06c-3.34-.66-.61-4.2-1.06-4.86-.53-.78-6.28-2.28-7.3-2.11-.94.16-1.67,3.38-3.13,3.95-2.11-1.86-2.99-4.47-2.3-7.22.11-.46,3.76-8.13,4.06-8.49,5.78-7.06,13.46,6.88,12.57,11.99-.37,2.1-2.87,4.29-2.84,6.74Z"/>
    <path class="cls-1" d="M187.5,346.07c.69,8.22,3.77,6.37,8.32,9.19,4.89,3.02-1.85,10.88-5.83,11.86-1.69.29-2.66-2.7-3.18-3.83-2.19-4.74-6.67-15.24.69-17.22Z"/>
    <path class="cls-1" d="M293.8,256.35c.56-.68,3.34-2.18,4.25-2.26,1.36-.11,13.2,1.28,14.2,1.73,4.32,1.94,1.81,3.9-1.52,4.97-5.73,1.84-11.91.67-17.68,2.27-2.35-.48-.19-5.56.75-6.71Z"/>
    <path class="cls-1" d="M308.16,272.2c5.66-1.9,8.46,7.14,5.93,8.93-2.98.4-17.74,5.44-18.58,1.41.69-4.66,6.27-2.67,8.97-5.01,1.59-1.38,1.72-4.68,3.68-5.34Z"/>
    <path class="cls-1" d="M416.55,224.1c.5-.41,3.1-.05,3.97.46,3.3,1.92,1.13,10.18,2.57,13.47l-1.22,1.89c-2.08.22-6.39,1.02-7.22-1.49-.87-1.83,1.34-13.86,1.9-14.33Z"/>
    <path class="cls-1" d="M506.51,340.07c2.78,6.06-10.97,13.18-13.57,7.99.08-7.06,7.57-8.87,13.57-7.99Z"/>
    <path class="cls-1" d="M388.5,462.06c-7.43.62-16.27-5.04-15.99-12.99l13.96,7.53,2.03,5.46Z"/>
    <path class="cls-1" d="M393.66,332.92c-3.46-9.77,11.1-10.4,11.74-3.18.29,3.2-9.14,5.74-11.74,3.18Z"/>
    <path class="cls-1" d="M363.5,546.07c1.34,2.63,4.34,12.94-.44,13-7.16.09-5.46-11,.44-13Z"/>
    <path class="cls-1" d="M354.5,416.07c-2.34,2.34-4.22-8.02-4.33-9.15-.15-1.68.13-8.83,1.84-8.83,3.86,5.24,4.17,11.92,2.49,17.98Z"/>
    <path class="cls-1" d="M365.45,572.11c.38,3.84,2.73,9.26-2.27,10.83-5.92-1.77-3.56-6.5-1.51-10.7l3.78-.13Z"/>
    <path class="cls-1" d="M366.37,587.21c1.71,1.08,1.86,7.49-2.34,7.8-7.29.54-3.49-11.46,2.34-7.8Z"/>
    <path class="cls-1" d="M422.51,380.06c.07-4.33-1.38-8.17,3.5-9.97,3.3,3.71,1.97,9.97-3.5,9.97Z"/>
    <path class="cls-1" d="M433.5,457.06c-.48.52-3.52-.79-4.07-1.67-5.43-8.75,6.53-12.47,4.07,1.67Z"/>
    <path class="cls-1" d="M404.16,224.72c-.45.4-5.36,2.66-5.65,2.34-2.09-3.99,7.26-10.38,8-6.47-.37,1.29-1.4,3.28-2.35,4.13Z"/>
    <path class="cls-1" d="M671.14,286.28c.27-.11,3.3.15,3.42.27l.74,1.17c-.17,4.57,4.77,9.36.7,13.34-3.66,1.13-10.34-12.65-4.86-14.78Z"/>
    <path class="cls-1" d="M517.27,302.31c1.31,1.31,1.68,6.33,1.08,8.1-5.88,8.77-13.83-8.31-6.28-9.36,1.36-.19,4.25.31,5.2,1.26Z"/>
    <path class="cls-1" d="M458.25,327.82c-1.89,1.67-12.54,2.47-11.74-1.24,3.2-4.41,15.74-7.28,11.74,1.24Z"/>
    <path class="cls-1" d="M253.34,324.88l-4.55.48c-8.72-4.02,10.01-19.83,4.55-.48Z"/>
    <polygon class="cls-1" points="500.5 305.07 499.53 308.59 492.5 309.06 493.1 305.98 500.5 305.07"/>
    <path class="cls-1" d="M293.5,326.06c-3.98.4-8.41.2-7.99-4.99.78-.77,8.82,2.1,7.99,4.99Z"/>
    <path class="cls-1" d="M334.49,192.07c.17.16,1.07,3.82,1.08,4.53.03,3.41-3.82,4.67-5.06,3.46-.87-.85,1.84-9.96,3.98-7.99Z"/>
  </g>
</svg>