<?xml version="1.0" encoding="UTF-8"?>
<svg id="Lager_2" data-name="Lager 2" xmlns="http://www.w3.org/2000/svg" viewBox="0 0 1688.11 1026.16">
  <defs>
    <style>
      .cls-1 {
        fill: none;
      }

      .cls-2 {
        fill: #adadad;
        fill-rule: evenodd;
      }
    </style>
  </defs>
  <g id="Lager_1-2" data-name="Lager 1">
    <g>
      <path class="cls-1" d="M1623.63,821.17c-6.12,10.97-11.03,21.87-15.36,32.29-4.33,10.42-8.09,20.39-11.81,29.61-3.72,9.24-7.41,17.79-11.38,25.49-.99,1.93-2.03,3.74-3.03,5.62l-1.58,2.64-.79,1.33-.39.66-.37.56c-1.92,3.02-4.09,5.98-6.45,8.79-4.7,5.65-10.18,10.66-15.84,14.6-2.83,1.97-5.71,3.67-8.55,5.05-1.42.66-2.83,1.3-4.22,1.81-.69.25-1.39.54-2.07.73.19-.07.15-.03.15-.04l-1.34-3.51c-14.79-38.86-28.8-77.35-39.84-115.98-5.52-19.31-10.29-38.64-14.03-57.99-1.02-4.84-1.77-9.67-2.61-14.51-.89-4.84-1.5-9.67-2.2-14.51-1.42-9.67-2.39-19.35-3.15-29.06-.75-9.71-1.18-19.43-1.32-29.15-.08-4.86-.06-9.72.02-14.58.1-4.86.36-9.75.52-14.62.93-19.56,2.95-39.38,5.61-59.44,2.64-20.06,5.99-40.39,9.4-61.03,3.41-20.64,6.91-41.59,9.98-62.94l2.2-16.09,1.93-16.27c.34-2.7.59-5.45.85-8.2l.78-8.23c.25-2.75.55-5.47.71-8.26l.47-7h0s8.85-2.06,8.85-2.06l74.08-17.4-4.68,75.96-1.94,31.4-.97,15.7-.48,7.8c-.15,2.44-.3,4.4-.47,5.85l-.13.99c-.02.1-.06.36-.04.26,0-.03.02-.04,0-.03-.01,0,0,0,0,0,.02,0,0,0,0,0,0,0,0,0,0,0l-.51.36-.97.66-1.15.75-1.35.85-6.52,4.03-13.39,8.25-107.1,66.04-26.77,16.51-6.62,4.08c-2.14,1.32-4.17,2.54-6.14,3.7-1.95,1.14-3.82,2.2-5.61,3.17-1.77.94-3.49,1.83-5.1,2.56-3.23,1.49-6.1,2.57-8.64,3.22-1.27.34-2.55.62-4.08.86-1.51.24-3.18.44-5,.59-3.63.31-7.9.4-12.7.41l-15.43-.09c-20.85-.16-41.41-.39-61.59-1.26-10.12-.39-20.09-1.05-30.02-1.78l-7.4-.65-3.7-.33-3.67-.39-7.34-.79-7.28-.92c-2.44-.28-4.84-.65-7.24-1.01-2.4-.37-4.82-.69-7.2-1.09-4.75-.84-9.54-1.6-14.22-2.59-2.34-.49-4.72-.89-7.04-1.45l-6.97-1.59-1.74-.4-1.7-.45-3.4-.89-3.4-.89c-1.14-.28-2.27-.59-3.38-.94-17.93-5.22-35.38-11.82-51.36-20.33-8.1-4.1-15.62-8.9-22.94-13.83-3.5-2.62-7.17-5.08-10.42-7.89l-2.51-2.04c-.84-.68-1.7-1.34-2.46-2.09l-4.72-4.31c-6.05-5.9-11.81-11.99-16.52-18.63l-1.84-2.44c-.64-.8-1.1-1.69-1.67-2.53l-3.29-5.08c-1-1.76-1.95-3.56-2.95-5.33-.47-.9-1.03-1.74-1.45-2.69l-1.3-2.79-1.32-2.78c-.22-.47-.45-.92-.66-1.39l-.57-1.45-2.33-5.8c-.37-.98-.68-2.01-1.02-3l-1.88-5.59-1.07-3.82-.53-1.91-.42-2-1.68-8-1.68-8-.42-2c-.14-.67-.3-1.31-.36-2.09l-.5-4.45-2.02-17.79c-.05-.35-.07-.77-.09-1.2l-.06-1.27-.11-2.54-.22-5.07-.44-10.14-.22-5.07c-.03-.87-.09-1.64-.1-2.59v-2.9s0-11.62,0-11.62v-11.62s0-2.9,0-2.9l.02-3.03.07-6.32.28-25.27.58-52.35,1.13-101.66-280.75,642.6-2.38-11.7c-3.84-21.16-5.28-43.49-5.2-66.37.06-22.9,1.58-46.34,3.61-70.22l27-292.04,31.63-341.3,3.39-36.54c.08-.49-.02-.51-.08-.65l-.18-.38-.36-.75-.73-1.5-1.45-3-2.9-6.01-11.62-24.03-2.9-6.01-.73-1.5-.36-.75c0-.18-.14-.23-.45-.12l-.74.15-5.81,1.21c-7.61,1.6-14.44,2.99-20.82,4.38-6.39,1.58-12.41,3.66-18.08,6.3-5.69,2.63-11.06,5.72-16.31,9.47-5.25,3.65-10.36,8.1-15.47,13.26-5.1,5.18-10.2,11.38-15.26,18.68-2.52,3.76-5.04,7.62-7.52,11.99-1.25,2.08-2.46,4.44-3.69,6.67-.16.26-.29.61-.43.95l-.41,1.02-.81,2.03-1.63,4.07-13.02,32.55-13.02,32.55-.81,2.03-.41,1.02-.2.56-.78,2.17-1.56,4.35-3.12,8.7c-4.14,11.6-8.37,23.17-12.39,34.81-16.39,46.46-32.08,93.17-47.11,140.09-15.05,46.91-29.46,94.03-43.24,141.34-27.5,94.62-52.31,190.03-74.58,286.02l70.42-5.17c-7.65-19.74-13.52-40.43-17.97-61.8-4.4-21.4-7.33-43.49-9.5-66-4.28-45.1-5.19-91.92-8.25-140.08-.74-12.03-1.71-24.18-2.81-36.37l-.94-9.17-.47-4.59-.06-.57-.03-.3-.07-.5-.26-2.02-.52-4.04-2.09-16.14c-.18-1.36-.32-2.66-.55-4.06l-.73-4.26-1.46-8.52-1.46-8.52c-.51-2.81-.91-5.76-1.56-8.39l-3.58-16.15c-.6-2.68-1.18-5.42-1.81-8.04l-2.06-7.46-4.13-14.92c-.33-1.3-.72-2.37-1.1-3.49l-1.15-3.36-2.29-6.71-2.29-6.71c-.38-1.11-.76-2.27-1.15-3.33l-1.18-3.15-9.47-25.27-20.11-53.67-.66-1.77-.33-.88c-.11-.24-.22-.82-.34-.35l-1.45,2.8-2.91,5.6-5.82,11.2-11.64,22.4-11.64,22.4-5.82,11.2-.73,1.4c-.12.19-.25.57-.38.91l-.38,1.04-1.54,4.14-3.08,8.29-24.61,66.32-55.57,149.77-24.6,66.31c-4.08,11.02-8.13,21.8-12.29,32.36-2.07,5.3-4.21,10.46-6.34,15.63-2.19,5.09-4.36,10.19-6.65,15.13-4.56,9.91-9.33,19.54-14.53,28.65-5.21,9.09-10.78,17.74-16.77,25.85-5.96,8.18-12.53,15.46-19.46,22.51-3.55,3.5-7.28,6.97-11.26,10.42-1.94,1.73-4.03,3.44-6.05,5.16-2.11,1.71-4.16,3.43-6.33,5.14-17.15,13.76-36.62,27.3-56.41,43.54-4.94,4.08-9.9,8.3-14.83,12.83-1.23,1.12-2.46,2.24-3.69,3.42l-.92.88c-.11.11-.03.03-.06.05h0s0,0,0,0h0s-3.64-14.36-3.64-14.36c-1.91-7.68-3.41-15.56-4.99-23.4l-2.08-11.9c-.71-3.96-1.23-8.01-1.86-12.01-2.34-16.09-4.24-32.38-5.7-48.94-1.48-16.55-2.67-33.29-3.74-50.2l-3.08-51.1c-2-34.12-3.93-68.24-5.8-102.36-7.42-136.5-13.62-273.07-18.6-409.68L0,104.71c4.99,137.06,11.21,274.07,18.66,411.01,1.87,34.24,3.81,68.47,5.82,102.7l3.1,51.41c1.1,17.25,2.33,34.66,3.9,52.21,1.55,17.54,3.6,35.26,6.19,53.05.7,4.45,1.28,8.89,2.07,13.36l2.35,13.39c1.78,8.94,3.5,17.87,5.71,26.81l1.58,6.7c.54,2.23,1.18,4.46,1.77,6.69l2.58,9.55c1.16,4.08,2.44,8.16,3.82,12.1l8.13,23.82.51,1.49.58,1.37,1.17,2.74,2.33,5.49,4.67,10.97c3.07,7.42,6.33,14.35,9.51,21.47l9.75,21.61,17.86,39.59,24.08-52.72,5.6-12.26,2.67-5.85,1.34-2.92.67-1.46c.22-.47.45-1.02.67-1.38l5.3-9.55,1.32-2.39c.11-.2.22-.41.33-.59l.36-.47.71-.94,2.84-3.78c3.68-5.31,7.85-9.38,11.85-13.87,1.04-1.06,2.07-2.12,3.13-3.14l2.22-2.12c.89-.87,1.84-1.73,2.79-2.59,3.75-3.46,7.77-6.88,11.92-10.3,16.64-13.73,35.91-27.17,55.58-42.87,2.46-1.94,4.93-4,7.39-6.01,2.47-2.1,4.94-4.12,7.41-6.31,4.93-4.27,9.85-8.82,14.69-13.6,9.63-9.71,18.82-20.05,26.77-30.93,8.03-10.85,15.22-22.07,21.72-33.44,6.49-11.38,12.18-22.91,17.48-34.41,2.67-5.76,5.12-11.5,7.58-17.24,2.36-5.73,4.74-11.46,6.96-17.14,4.49-11.38,8.72-22.67,12.83-33.77l24.61-66.32,42.85-115.5,4.27,49.76c2.97,45.94,3.84,93.51,8.43,142.34,2.35,24.41,5.59,49.14,10.69,73.94,5.16,24.79,12.13,49.63,21.55,73.86l43.35,111.56,27.08-116.73c21.95-94.65,46.42-188.72,73.54-282.03,13.58-46.65,27.8-93.11,42.64-139.37,14.83-46.27,30.3-92.33,46.46-138.15l18.23-51.06-22.55,243.32-27.05,292.59c-2.11,24.86-3.8,50.29-3.88,76.32-.08,26.02,1.5,52.74,6.39,79.74l.93,5.06,1.07,5.07.54,2.53.27,1.27c.02.14.15.62.23.94l.27,1.06,2.16,8.45,1.08,4.23c.35,1.41.87,2.87,1.3,4.3l2.7,8.62c.47,1.42.86,2.91,1.39,4.27l1.55,4.12,3.1,8.24c.27.68.5,1.4.79,2.04l.87,1.93,1.74,3.86,3.48,7.71,3.73,7.17,1.86,3.58c.62,1.19,1.23,2.42,1.9,3.47l3.94,6.56,1.97,3.28.49.82.51.75,1.02,1.5c2.72,3.99,5.42,8.09,8.16,11.95l16.7,23.85,8.83,12.61,2.26,3.23,1.13,1.61c.2.45.36.31.51-.02l.46-.7,3.69-5.56,14.77-22.25,7.39-11.13,3.69-5.56,1.85-2.78.92-1.39c.15-.26.31-.39.46-.77l.46-1.05,184.96-423.36,9.59,23.79,2.05,4.32c.67,1.45,1.51,2.83,2.26,4.25,1.55,2.81,3.08,5.64,4.69,8.42l5.23,8.15c.9,1.34,1.71,2.74,2.68,4.02l2.86,3.86c7.5,10.43,16.15,19.7,25.14,28.38l6.9,6.3c1.14,1.07,2.34,2.03,3.53,3.01l3.58,2.92c4.73,4.01,9.73,7.46,14.66,11.08,10.04,6.83,20.29,13.25,30.88,18.66,21.08,11.17,43.08,19.46,65.4,25.95,1.39.43,2.79.81,4.2,1.17l4.21,1.1,4.21,1.1,2.11.55,2.09.48,8.36,1.91c2.79.65,5.58,1.14,8.36,1.72,5.58,1.17,11.15,2.07,16.72,3.04,2.79.47,5.56.85,8.35,1.27,2.78.42,5.57.84,8.34,1.17l8.32,1.05,8.3.9,4.15.44,4.13.37,8.26.73c10.98.82,21.93,1.53,32.77,1.95,21.71.93,43.1,1.16,64.19,1.32l16.02.09c5.68,0,11.91-.09,18.73-.66,3.4-.28,6.95-.68,10.61-1.27,3.65-.58,7.51-1.38,11.3-2.39,7.61-2,14.55-4.72,20.84-7.63,3.16-1.46,6.1-2.97,8.96-4.49,2.82-1.52,5.51-3.05,8.09-4.56,2.54-1.5,5.01-2.99,7.33-4.42l6.77-4.17,26.77-16.51,107.1-66.04,13.39-8.25,6.86-4.24,1.97-1.24,2.15-1.4,1.12-.74,1.17-.8,1.2-.84.71-.51.78-.57c4.21-3.12,8.18-6.57,11.69-10.44,3.52-3.85,6.56-8.13,9.06-12.7,2.49-4.58,4.42-9.46,5.84-14.49.72-2.51,1.29-5.07,1.77-7.65.12-.64.24-1.29.34-1.97l.26-1.68.38-2.91c.43-3.75.65-7.02.83-9.82l.49-7.89.97-15.7,1.94-31.4,10.81-175.21-170.88,40.14-52.39,12.31-7.66,1.8-1.91.45-.96.22c-.17.03-.35.05-.3.26l-.02.49-.17,3.92-.68,15.68-.68,15.68-.28,7.92-.07,1.98-.13,1.97-.27,3.93-.58,8.7c-.13,2.45-.41,4.94-.64,7.41l-.71,7.43c-.24,2.48-.45,4.95-.77,7.45l-1.77,14.97-2.06,15.07c-2.9,20.17-6.3,40.59-9.73,61.33-3.42,20.74-6.9,41.79-9.74,63.32-2.85,21.51-5.11,43.44-6.18,65.78-.2,5.6-.48,11.19-.59,16.81-.09,5.63-.11,11.25-.02,16.88.17,11.25.67,22.48,1.53,33.69.87,11.2,2,22.39,3.62,33.48.79,5.54,1.51,11.11,2.51,16.59.95,5.49,1.82,11.02,2.96,16.45,4.22,21.83,9.52,43.25,15.53,64.27,12.02,42.04,26.8,82.44,41.83,121.95l4.27,11.17,2.82,7.34,1.41,3.67,1.74,3.18,6.98,12.69,3.49,6.35,1.74,3.17c.15.71.93.6,1.51.76l1.83.34,14.43,2.68c2.36.5,4.84.73,7.26,1.08,1.21.2,2.46.24,3.71.33l3.73.25c10.03.42,20.43-.75,30.57-3.24,2.54-.64,5.02-1.3,7.7-2.21,1.84-.57,3.59-1.23,5.36-1.88,3.52-1.32,6.91-2.82,10.22-4.39,6.59-3.2,12.75-6.87,18.53-10.88,11.54-8.05,21.59-17.4,30.33-27.84,4.37-5.23,8.42-10.73,12.13-16.56l.7-1.09.62-1.03,1.23-2.05,2.44-4.11c1.49-2.73,3.04-5.49,4.45-8.22,5.65-10.94,10.21-21.69,14.33-31.9,4.12-10.23,7.76-19.89,11.49-28.83,3.72-8.94,7.49-17.16,11.59-24.52l-64.48-36.15Z"/>
      <path class="cls-2" d="M1478.65,887.88c-2.24-6.43-2.32-8.16-3.84-13.14,1.11.03,4.19,6.22-1.15-8.24.76,1.25,1.82,3.66,2.6,4.91,2.91,9.33,3.35,12.73,2.66,13.5,5.11,14.87,5.91,12.21,12.14,30.5-3.9-7.83-9.35-22.26-12.4-27.52Z"/>
      <path class="cls-2" d="M1624.65,886.21c3.39-10.65,5.19-18.57,10.33-31.73-.99.41-.18-2.56,1.34-6.55.72-2,1.69-4.24,2.63-6.45.91-2.21,1.91-4.36,2.69-6.19,3.04-4.17,3.09-2.93,1.87.51-.6,1.72-1.56,3.98-2.47,6.44-.48,1.22-.97,2.49-1.47,3.75-.49,1.26-.93,2.52-1.37,3.71-1.64,4.37-2.15,6.98-2.6,8.13-.75,1.92-2.51,5.7-3.27,7.74-.35.95-1.42,4.41-2.82,8.47-1.39,4.07-3.12,8.74-4.87,12.17Z"/>
      <path class="cls-2" d="M1453.41,705.53c0-6.6.6-4.73,1.31-2.73.31-6.29-.6-4.93-.71-13.3.47,1.25.93,2.79,1.33,5.56.4,2.77.74,6.77,1.1,12.97-1.01-.93-2.16,2.57-3.03-2.5Z"/>
      <path class="cls-2" d="M773.69,351.26c-1.03-.97-1.84-4.93-2.84-5.76-.94-.78-1.99.73-2.87-.27-.81-.92-1.36-4.51-2.12-5.69-.57-.88-1.33.39-1.91-.18-3.46-3.29-6.22-14.41-10.48-9.2-.31-11.05-2.68-8.38-4.25-11.39-.38-.73-.48-4.9-.93-5.58-1.14-1.76-1.7-1.99-2.12-5.67-.46-3.44-1,8.78-1.46,5.34.08-12.15-2.18-15.94-3.49-19.54-.42-1.16-.08-12.26-1.44-.13.34,1.26,1.78-3.57.69,5.56-1.68.78-2.11-5.31-1.1-19.32,2.48-6.21,6.07-2.25,7.89.73,2.05,3.39,4.92-.53,6.92,3.38.52,1.03.63,4.8,1.17,5.61.83,1.22,1.97-.89,2.87.27.57.72.88,4.69,1.41,5.61.64,1.13,1.47-.74,2.15.2.7.98,1.16,4.8,1.88,5.67.85,1.04,1.96-.47,2.87.27,1.88,1.54,3.61,6.53,5.46,8.75,1.44,1.72,3.16.23,4.29,3.15.56,1.44.59,5.24,1.17,5.58.51.32,1.3-2.18,1.92-2.57,1.41-.85,2.07,2.07,2.86,3.01.3.36.88-2.62.97-2.66.31-.11.25,2.62.7,2.81,2.41,1.14,5.12,3.6,7.37,8.93,1.44-9.01,1.46-14.19,3-27.19-3.46-22.83-12.65-24.82-19.28-18.26.66-12.54-2.1-6.25-2.32-13.94.59-6.37,1.18-12.72,1.77-19.08-3.06-.26-3.9-5.99-6.67-6.09.36-7.77-1.55-3.05-1.14-11.1-.9-1.31-2.98,3.93-1.87-8.42,1.94-3.22,2.73,4.12,4.27,5.89.68.78,1.68-1.05,2.39.22.51.92.82,4.94,1.41,5.63,1.5,1.73,3.4-.6,5.02.47,3.01,1.98,6.88,8.88,9.76,9.15.42.04.91-3.58,1.21-2.64,0,.02,0,.35-.03.83-.03.49-.06,1.14-.1,1.79-.07,1.31-.15,2.66-.13,2.83.08.9.55-.13.72.07,1.67,2.19,3.6.07,5.01,3.21,1.05,2.38,1.32,12.97,3.32,5.81,1.37-8.34,1.24-16.65,2.5-21.74.08-11.69-.58-17.22-1.82-19.39-3.98-7.01-10.5,1.98-15.77-1.46-2.08-1.36-3.75-6.38-5.69-8.77-2.48-3.03-5.26-2.61-7.39-6.16-.46-.78-.69-4.91-1.17-5.61-1.29-1.93-2.26-.62-2.6-5.74-.55-2.04-1.13,2.71-1.69,2.59-1.17-5.65-2.98-9.67-4.99-13.14-1.96-3.93-4.3-5.32-6.4-7.06-.36-3.11-1.38-3.96-2.37-4.6-.99-.63-1.95-1.03-2.25-2.79-.25-1.47-1.21.16-.99-2.37,1.52-4.08,3.18-6.44,4.93-7.57.87-.58,1.77-.87,2.7-1.09.93-.23,1.89-.39,2.9-.89,1.43-.68,2.86-2.42,4.06-3.42,1.2-.97,2.16-1.13,2.57,2.09,2.11-3.89,3.79-3.72,5.35-1.85,1.57,1.79,3.02,5.3,4.87,5.97,2.13.74,4.42-.03,6.82-1.91,2.39-1.86,4.88-4.82,7.35-7.91.89-7.51,1.77-14.8,2.73-24.25.93-13.96.65-18.45-.16-19.34-.81-.87-2.13,1.74-3.33,2.44-1.08.64-2.12.58-3.19,1.09-1.07.5-2.16,1.57-3.32,4.15-.71-2.01-1.5,8.8-2.22,8.29.58-8.88-1.08-3.95-1.62-5.89-.74-.2-1.46,5.55-2.18,7.86.19-6.7-1.08-4.98-1.71-4.93-.86.06-2.11.57-3.1,2.23-.51.88-1.37,4.35-1.89,4.78-1.19,1.02-2.23.68-3.32.73-1.08.03-2.2.45-3.48,2.38-.76,1.23-1.15,6.76-1.91,7.6-.47.08.41-6.46-.64-3.46-.93,1.71-1.7,2.21-2.45,2.59-.75.37-1.47.63-2.27,1.55-.7.83-1.62,3.24-2.31,4.12-.82,1.06-1.54,1.35-2.39,2.46-.81,1.07-.78,1.75-1.17,2.2-.38.45-.6-.28-.99.32-.79,1.21-2,3.69-2.88,5.08-.73,1.19-2.3,4.61-2.14,2.34,2.77-6.57,5.49-12.5,7.99-17.34,2.51-4.92,4.8-8.78,6.9-13.29.6-1.28,1.38-4.33,1.95-5.44.91-1.76,1.51-.91,2.39-2.36.41-.68,1.23-4.03,1.66-4.95.88-1.88,1.72-2.85,2.55-3.52.83-.68,1.66-1.05,2.54-2.01,1.25-1.37,2.49-2.45,3.73-3.65,1.24-1.21,2.5-2.55,3.79-4.66.16-.25.32-.47.49-.66.16-.16.28-.17.43-.22.29-.07.6-.06.92-.05.64.03,1.33.06,1.94-.52.71-.67,1.34-2.97,1.97-3.11.46-.1.94,2.66,1.4,2.76.85.19,1.78-1.54,2.68-2.51.45-.49.91-.79,1.38-.59.23.1.47.32.72.7.12.19.25.42.37.7.03.07.07.13.09.23.01.13.02.26.03.4.02.28.04.58.06.88.81-1.32,1.91-3.62,3.07-5.64,1.15-2.01,2.36-3.76,3.34-3.73.51.02.79,1.88,1.08,3.32.29,1.43.61,2.44,1.21.59.65-1.99,1.57-6.28,2.59-12.73-.01-3.7-.46-8.17-1.41-13.34-3.37-9.99-4.88-7.43-6.61-5.72-.79.77-1.57,3.62-2.35,4.15-2.39,1.58-4.91,2.41-6.8,4.7-.26.33-.66,3.73-.99,4.25-.61.95-1.06-1.81-1.59-1.69-.21.06-.45.32-.69.66-.12.17-.24.37-.37.58-.23.48-.45.96-.68,1.44-.93,2-1.83,3.86-2.56,4.66-.6.63-1.06-.9-1.7.14-1,1.58-2.06,3.77-3.11,5.89-1.04,2.13-2.07,4.18-3.02,5.65-.91,1.39-1.55,1.59-2.47,3.26-1.03,1.88-2.34,5.59-3.33,7.28-.22.38-.37.28-.52.15l-.05-.05-.03-.02s0-.03-.07.03c-.21.18-.42.34-.61.5-.39.33-.73.65-.99.96-1.55,1.88-2.1,3.67-3.31,5.45-2.56,3.78-4.44,7.13-6.21,10.32-1.51,2.77-3.06,5.61-5.18,9.5-.69,1.3-1.34,2.99-2.23,4.68-.89,1.68-2.02,3.27-3.58,4.56-.47-3.92-.11-7.28,1.38-12.97,1.61-6.17,3.86-12,6.19-17.39.67-1.53-.01-2.32.81-3.94.51-1,1.23-1.9,1.94-2.71.71-.8,1.39-1.56,1.77-2.37,1.77-3.7,2.93-7.09,4.08-10.54,1.16-3.45,2.32-6.95,4.5-10.87,1.77-3.4,6.64-7.6,8.99-10.83,2.81-3.85,3.08-6.89,5.81-10.82.6-.85,1.27-1.73,1.99-2.61.72-.87,1.48-1.74,2.26-2.63l.29-.33c.1-.12.2-.23.26-.25l.43-.26c.29-.18.57-.35.84-.52.14-.09.27-.17.4-.25l.2-.13s.07-.05.09-.05v.03c.04.08.07.15.1.2.31.45.8-1.07,1.2-.86.61.32,1.29,1.86,2.16,3,.85,1.15,1.89,1.91,2.9.93.46-.45.87-2.8,1.37-2.79.72.01,1.87,3.23,2.75,3.04,1.5-.31,2.46-4.17,3.93-4.42.8-.15,1.8.69,2.78,1.09.97.41,1.91.38,2.44-1.38-2.4-7.19-1.22-6.59-3.22-12.75-2.54-7.2-3.61-8.58-4.56-9.83-.97-1.23-2.42-.67-2.62-.11-.14.4.37,3.29,0,3.25-.19-.02-.5-.68-.78-1.31l-.11-.24-.03-.06s-.08.03-.12.04l-.26.11c-.35.15-.68.29-.98.42-.6.27-1.06.51-1.29.7-1.28,1.08.49,1.48-.96,2.65-1.05.78-5.84,2.66-6.73,3.51-1,.93.48,1.16-.69,2.12-.51.42-1.77,1.05-3.05,1.7-1.27.66-2.52,1.36-3.13,1.84-1.59,1.23-2.67,2.44-3.64,3.55-.96,1.13-1.79,2.2-2.7,3.37-1.83,2.34-4.22,4.75-8.7,8.9,1.2.14.13,1.54-1.35,3.2-.73.86-1.56,1.77-2.3,2.6-.37.41-.71.81-.99,1.17-.07.09-.14.18-.2.26-.06.07-.14.26-.21.38-.13.27-.25.52-.35.75-1.29,3.04-.1,4.2-1.2,6.9-.46,1.15-1.15,2.44-1.94,3.81-.77,1.39-1.65,2.86-2.51,4.31-.84,1.48-1.67,2.95-2.39,4.33-.71,1.39-1.3,2.71-1.71,3.84-1.04,2.9-1.68,5.55-2.28,8.13-.59,2.59-1.15,5.11-1.84,7.79-2.16,8.1-3.93,15.22-4.31,21.01-2.14,5.22-2.23,8.92-2.63,12.74-.32,3.81-.9,7.65-2.52,12.22-.02-2.73-.21-5.09-.39-7.36-.17-2.28-.33-4.48-.12-7.22.13-1.7,1.21-5.07,1.32-6.7.06-1.02-.9-.49-.98-1.36-.13-1.3.11-4.92.6-7.85.78-4.92,2.28-9.27,3.09-13.01,1.24-5.62,2.22-11.14,2.95-16.58.9-1.82,1.72-3.47,2.44-5,.71-1.55,1.35-2.95,1.9-4.27.55-1.32,1-2.56,1.41-3.73.2-.58.39-1.15.56-1.7.17-.52.34-1.21.46-1.42,1.03-2.49,1.25-4.22,2.72-7.03,1.51-2.99,4.5-7.07,6.95-10.3,2.46-3.21,4.26-5.67,2.91-6.1,3.75-2.77,6.29-4.51,7.55-5.79.52-.43.35-.48-.16-.34-.5.16-1.33.52-2.17.88-1.66.73-3.25,1.55-2.28.58,3.16-1.73,5.28-2.75,6.48-3.45,1.21-.71,1.51-1.1,1.23-1.31-1.04-.79,1.14-2.63,3.47-4.33,2.29-1.72,4.75-3.32,3.6-4.18,2.07-.85,3.16-1.41,4.29-2.01,1.12-.6,2.37-1.19,4.93-2-2.35-.24-.45-1.4,1.75-2.66,2.22-1.25,4.73-2.61,3.14-3.35-5.41,1.1-8.91,1.99-12.61,2.99-3.69,1.05-7.59,1.98-13.23,4.13-5.23,2.98-9.27,6.28-12.45,9.41-3.2,3.13-5.53,6.23-7.29,9-1.16,1.55.8.05,2.9-1.45,2.11-1.5,4.38-2.94,3.48-1.81-.4.6-3.03,2.52-5.25,4.44-2.24,1.88-4.1,3.72-3.38,3.62.43.93-.17,2.52-1.08,4.4-.9,1.9-2.15,4.02-3.08,5.97-1.21,2.44-3.12,5.9-3.64,7.67-.58,2.05.77,1.67.03,3.91-.45,1.41-2.66,5.36-3.17,6.98-1.43,4.24-1.96,7.58-2.61,10.86-.39,2.16-.16,3.28-.37,5.16-.1.94-.31,2.08-.73,3.63-.38,1.84-.98,4.06-1.84,6.86,1.76-3.12,2.66-3.75,2.6-2.1-2.8,7.63-3.63,12.71-3.92,16.68-.26,3.98.07,6.95.25,10.18-1.39,5.19-1.38,7.61-1.16,9.49.23,1.87.69,3.24.65,5.71-.05,2.39-.96,7.09-.88,9.26.04,1.27.27,1.95.38,3.13.44,4.37,1.42,8.34,1.73,11.31.1.92.94.85-.25,3.46-1.4-.2-2.67-.61-3.77-1.38-1.1-.76-2.04-1.88-2.89-3.28-.85-1.4-1.59-3.08-2.37-4.78-.78-1.7-1.6-3.42-2.65-4.71.53-3.05.21-4.49.81-7.75-1.27.65-1.15-2.1-1.02-4.7.11-2.56.22-4.94-1.47-2.43,1.4-5.9,1.55-8.79,1.33-10.7-.19-1.87-.77-2.77-.63-5.38.04-.71.31-2.11.61-3.57.3-1.44.64-2.89.75-3.75.47-3.58.54-5.99.58-8.31.06-2.3.09-4.5.67-7.7.23-1.26.67-2.92,1.18-4.7.52-1.77,1.08-3.65,1.55-5.25.95-3.24,1.5-5.73.07-5.01,0-.86,3.95-7,2.95-6.35-.34-1.32,1.12-4.97,2.52-8.28,1.38-3.34,2.7-6.32,1.68-6.84,1.92-3.02,3.11-5.15,3.41-6.3.3-1.15-.29-1.27-1.9-.06-3.14,2.94-6.2,7.14-9.2,11.84-3.02,4.7-5.98,9.84-9.26,14.79,1.48-3.68,1.5-4.8.74-4.54-.75.29-2.3,1.86-3.82,3.85-.42.84-.81,1.61-1.18,2.33-.36.75-.69,1.45-1,2.1-.31.65-.59,1.25-.86,1.82-.13.29-.27.54-.38.84-.11.3-.22.6-.33.89-.86,2.28-1.52,4.04-2.25,5.97-1.47,3.82-3.22,8.19-7.34,18.46-2.85,8.94-3.68,12.79-3.77,15-.08,2.19.56,2.74.83,4.72.25,1.94-.04,5.51-.37,9-.33,3.5-.7,6.93-.73,8.92-.03,1.77,1.05,1.29,1.34,2.52.15.61.1,1.64-.35,3.53-.14.52-.19.87-.31,1.35-.11.46-.24.97-.4,1.53-.31,1.13-.73,2.47-1.27,4.08-3.62,7.68-.4-2.92-1.11-3.3-2.28,2.81-2.94.94-3.38-1.68-.22-1.31-.38-2.8-.65-3.98-.09-1.58-.3-2.85-1.01-2.85,3.39-10.44,2.15-11.56-2.67-1.08-.23.6-.46,1.18-.67,1.73-.09.24-.18.47-.26.7-.06.17-.12.33-.17.49-.22.64-.43,1.23-.62,1.78-.38,1.09-.69,2-.96,2.78-.54,1.57-.91,2.65-1.28,3.73-.75,2.16-1.49,4.31-3.6,10.39-3.35,13.88-1.41,15.92-.61,20.19.84,4.61,1.06,11.17,4.5,7.42-1.89,7.02-.47,4.47.9,3.23-.47,9.74,3.94,8.52,5.67,13.59.27.79-.62,4.75-.45,5.64.66,3.34,2.66,3.17,3.18,6.9.1.65-.94,4.73-.89,5.45.07,1.39,1.24-.72,1.36.47.47,4.87,1.3,9.29,1.19,14.86-.06,3.1.41,3.71.74,6.02.14.96-.61,4.41-.62,5.53-.02,2.34,1.68.62-1.47,11.02-2.83,3.21-1.74-4.94-2.79-6.71-.32-.51-1.86,2.46-2.24,2.12-3.07-2.64-3.12-14.07-7.81-11.32-.09-10.04-3.28-9.88-7.78-8.43-4.14,9.21-3.4,14.5-7.49,23.48-.09-4.05-2.5-.89-3.41-1.15-3.57-1.1,1.25-24.55-4.26-21.74,1.41-7.28,2.55-15.99.79-14.24-3.99,9.62-6.01,18.88-9.29,28.77.62,5.12-.73,14.66,1.96,15.13-1.36,10.66.6,11.29.74,17.59.06,2.89-.57,7.94-.72,11.32-.13,3.03.11,4.47.1,5.8,0,2.72.7,4.05,1.87,3.5-.98,8.05.09,11.6,2.3,12.25-2.18,17.44,3.49,16.3-.16,37.23-4.44,3.18-6.68-.1-8.08-5.42-.65-2.52-.5-6.93-.91-8.91-.25-1.2-1.49.48-1.83-.59-.26-.86.14-4.09.08-5.72-.17-4.62-1.86-3.95-2.88-6.69-.26-.67.44-4.47.31-5.64-.82-7.09-4.99-4.46-6.14-10.65.1-2.78,1.71-9.45,1.36-11.09-.24-1.16-1.32.34-1.82-.6-3.6,9.33-3.29,12.23-7.63,23.48-2.01,7.22-1.55,8.61-3.69,16.13-.04,1.13-1.32,5.13-2.43,8.86-1.11,3.73-2.09,7.17-1.64,7.12-.51,4.58-1.36,9.97.51,8.8-1.41,7.21-.47,9.04,1.57,6.22-.8,5.08.05,6.16,1.34,6.17-2.55,11.05-.37,8.71.15,11.53.19,1.04-.34,4.16-.25,5.64.04.9.85-.55.92.28.02.24-.94,5.14-.91,5.46.47,4.54,1.61,7.27,2.99,6.64-.58,4.48-1.89,11.77.93,6.01-.24,2.09-2.19,8.4-1.47,8.11,2.39-1.46-.1,9.19,2.77,6.55-2.14,9.03.8,6.48.03,11.42-.55,3.71,1.68.99-1.48,10.93-3.03,6.67-2.69,1.47-3.99,1.66-2.13.32-4.89,1.46-7.22.7-.76-.25-1.53-.59-2.3-.68-1.81-.23-2.9-1.42-3.36-3.86-.74-3.84-.53-9.99-4.05-4.07-10.2,33.14-5.86,27.49-4.17,30.17.92,1.45.43,6.18,2.69,3.64-.79,9.83.75,13.6,3.15,15.13-.54,3.17,0,3.54-1.11,8.21.62,1.49,2.14.66.28,8.58,1.09.26,3.01-1.61-.71,11.15-2.59,6.35-1.18-2.39-1.79-3.34-3.99,1.25-7.83-3.58-10.26-8.6,1.68-8.89.39-11.72-3.46-.99-3.3,11.63-2.98,14.15-5.52,24.04,2.13-1.02-1.01,15.7,3.66,3.86-2.8,15.57.46,13.74.88,20.09.08,1.17-.71,4.78-.53,5.51.21.91,1.07-.35,1.39.38-.7,7.34-.33,12.11-.09,16.93.24,4.9.73,9.02.85,14.36.1,4.08.11,8.33-.02,12.92-.11,4.6-.39,9.55-.92,15-.27,2.72.77,3.91-2.28,13.46-2.05-6.46-6.94-4.83-10.46-5.54.82-8.55-1.06-8.56-1.89-11.76-.89-3.47-1.24-8.99-3.03-9.28.78-9.34-.27-13.28-2.29-14.76.72-5.45.02-5.98-.18-8.53-.64-7.71-1.14-16.11-2.88-20.63.41-4.6,1.03-9.78-.64-8.71-4.11,12.99-4.6,19.24-8.36,34.65-1.27,11.79,3.15,8.15,1.83,20.34.78-.28,2.24-4.62,3.01-4.87.04,5.78.92,8.37,1.65,11.74,1.03,4.87,1.03,11.63,3.27,12.16-.16,6.6.23,11.67,2.36,11.88-.7,7.2-1.5,14.92.59,14.24-.89,6.67-.39,9.36-.54,13.92-.55,6.26,1.27,5.85-1.21,16.56-4.2,9.92-5.26-.42-8.94,6.2.72-3.6.71-5.06.36-5.54-2.98,4.27-3.33-7.97-6.1-4.31.31-5.03.18-8.75-1.25-8.77-.34-.96,1.89-9.32.84-8.24-.91-.28-1-2.94-.09-8.47-2.22.7-.37-16.09-4.91-4.07-4.87,18.42-3.97,20.04-6.61,32.2,1.49-1.4,1.18,2.49.15,8.5,3.44-6.28,1.9,7.5,4.3,6.69-.61,4.52-1.48,9.85-.95,11.01,3.08-3.05,1.63,11.14,2.59,14.68.27.99,1.45-1.22,2.08-1.5.63-.28.69,1.38-1.15,10.13-3.44,1.85-5.39-2.84-8.24-4.78.9-7.83-.49-8.58-2.07-8.91.13-6.4,1.4-19.1-1.42-14.43-3.24,12.38-4.44,18.82-5.06,23.68-.63,4.85-.74,8.09-1.75,14.1.79,2.98,1.75,4.76,2.09,8.91.24,2.84-.2,8.47.07,11.24.08.8.16,1.58.29,2.12l5.09,19.94-15.71-19.16c-1.42-1.74-2.61-2.8-3.42-2.47-1.86-4.67-2.7-5.61-3.51-6.46-.41-.43-.81-.83-1.33-1.67-.26-.42-.55-.95-.88-1.64-.32-.7-.66-1.57-1.06-2.66l-1.82.62c-1.31-3.32-2.42-5.75-3.42-7.74-1-1.99-1.91-3.53-2.72-5.11-1.37-3.02-2.18-3.21-3.27-4.83-.55-.81-1.17-1.98-1.96-4.06-.83-2.06-1.7-5.06-2.8-9.49,3.66-.9,6.5-5.03,10.7-2.7,1.5.82,3.39,3.76,5.3,6.44,1.95,2.67,3.82,5.1,5,5.03.83,1.74,1.76,4.07,2.57,5.7.79,1.64,1.55,2.55,1.78,1.53-.94-3.17-1.72-6.19-1.07-5.35-.9-3.3-1.7-6.05-2.43-8.46-.69-2.42-1.29-4.51-1.84-6.44-.58-1.92-1.12-3.69-1.66-5.48-.27-.9-.54-1.8-.82-2.74-.25-.94-.5-1.92-.77-2.95-.64-.65-2.19-6.34-2.92-7.72-.57-1.08.12,3.06-.12,2.82-.01-.01-.11-.33-.26-.8-.14-.47-.33-1.09-.52-1.73-.38-1.26-.78-2.56-.86-2.72-1.45-2.95-2.51-2.56-4.87-10.21-1.32-.58-2.8-1.65-4.49-7.61-.75-1.01.29,5.08-.74,2.93-1.28-5.35-2.07-4.13-3.43-10.65-2.18-2.64-3.93-2.24-6.17-7.53-.44-1.06-1.53-6.44-2.09-8.18-.85-2.7-1.27,1.92-2.17-8.15.87-.19.82-4.97,1.73-5.8.88-.8,2.56,2.72,2.95,2.47.29-.19-.06-3.31.39-2.83.44.45,1.4,4.63,1.84,5.36,1.87,3.07,3.12.03,4.85,2.21.46.57,1.29,4.44,1.83,5.29.57.92.88-.88,1.43-.18,1.59,2.05,3.69,7.44,5.54,11.16,1.84,3.73,3.53,5.77,4.17,1.25-3.21-22.22-5.07-31.48-7.19-42.87-1.72-.68-4.28-10.25-6.4-13.17-1.86-2.57-3.46,2.87-5.57-10.58l-1.91.13c-1.31-6.95-2.6-11.35-4.06-10.77-1.74-6.83-3.73-15.91-5.07-21.75-.5-2.26-1.29-.05-1.61-8.15,1.85-6.58,5.49-5.81,7.4-5.86.99-.03,2.17.9,3.12-.15,2.37-2.65,5.52,9.09,7.57,2.38-.02-14.81-1.59-22.8-2.42-35.49-1.14-2.52-2.22-6.83-3.32-10.37-1.12-3.53-2.27-6.28-3.52-5.69-1.1-7.05-2.45-11.03-3.79-14.27-1.33-3.24-2.61-5.75-3.69-9.82-1.14-4.17-2.61-9.33-3.87-16,2.45-5.64,5.45-8.35,8.14-3.4.77,1.42,1.44,5.02,1.67,5.33.4.52.27-2.69.48-2.78.29-.13.7,2.51,1.19,2.65.69.17,1.4-1.09,2.15-.17,2.13,2.61,5.17,16.5,6.59,7.73-.63-9.87-1.51-13.17-2.28-21.89-2.28-11.59-5.59-14.7-6.84-10.34-.58-3.97-1.35-8.58-1.86-7.97-.63.14-1.26.28-1.88.42-1.11-5.9-2.01-5-2.93-4.29-1.1-4.62-2.19-5.56-3.22-6.91-1.07-1.31-2.02-2.91-3.25-7.95-1.22-.09-2.28,1.37-3.89-6.69.78-3.62,1.72-6.77,2.63-10.31.88-3.55,1.83-7.51,2.26-13.31,1.26,2.57,2,2.5,2.71,1.47.73-1.07,1.19-2.83,1.9-3.46.82-.75,2.22.64,2.95-.33.36-.5.55-1.61.38-3.98-.18-2.36-.65-6.06-1.92-11.33-1.23-4.72-2.15-7.83-2.93-10.09-.84-2.22-1.5-3.65-2.16-5.1-1.33-2.9-2.54-5.88-5.54-15.41-.52,1.42-1.88-.52-3.03-1.47-.59-.48-1.09-.73-1.36-.26-.14.25-.21.61-.22,1.33-.03.82.01,1.88.14,3.22-1.15-.09-2.27-.11-3.19.68-.92.78-1.65,2.37-2.07,5.32-2.05-3.43-2.4.31-4.49-3.37.23,2.21.12,3.51-.17,4.34-.15.41-.34.7-.56.92l-.08.08s-.03,0-.04.06l-.04.22c-.06.29-.12.6-.18.91-.12.6-.25,1.22-.38,1.88-1.04,5.1-2.23,10.62-2.74,14.29-1.03,3.14-1.13,4.81-1.31,6.61-.18,1.8-.44,3.7-1.72,7.08-1.19,2.14-1.7,1.82-2,.66-.3-1.16-.37-3.21-.78-4.21-.73-1.82-2.07-3.28-2.94-5.9-.85-2.67-1.17-6.64.8-15.26-.22-.4-.41-1.01-.55-1.77-.07-.37-.13-.84-.19-1.25-.06-.39-.1-.82-.14-1.29-.15-1.85-.14-4.23.02-6.84.11-1.93.92-5.59,1.24-7.84.32-2.24.15-3.08-1.84.8-2.98,7.41-5.54,14.19-7.49,19.85-.24.71-.48,1.4-.7,2.07-.22.66-.44,1.32-.65,2.03-.42,1.38-.8,2.67-1.13,3.86-.67,2.38-1.17,4.38-1.49,5.94-.73,3.57-.31,4.39.41,4.5.73.09,1.75-.53,2.35-.22-.52,4.39-.81,8.92-.6,12.17.2,3.26.89,5.27,2.11,5.14-.38,2.11-.93,4.7-1.15,6.41-.22,1.72-.09,2.55.82,1.37-1.58,7.11-2.21,12.19-1.13,14.09-.81,4.25-1.54,8.2-.52,9-1.48,5.29-1.42,7.76-1.36,10.14.01.59.03,1.18.02,1.8.01.05-.03.23-.05.37-.03.15-.06.3-.08.45-.06.3-.12.61-.18.93-.13.63-.28,1.3-.44,2.01-.67,2.85-1.67,6.41-3.31,11.31-5.19,10.44-3.36.82-5.01,1.07-.64.09-2.56,3.84-3.48,4.54-3.28,2.51-5.63.5-6.98-2.59-.32-.74.55-4.85.33-5.71-.36-1.37-1.69.08-2.25-.84-1.42-2.29-1.4-8.52-3-9.85-.62-.51-1.43-.43-2.53,1.98-.75,1.65.7-2.73.73-2.65-.13-.5-.51-.56-.9-.33-1.23.69-2.61,1.43-5.33,6.77-6.23,16.48-5.88,19.1-10.07,31.27.77,1.35-.8,7.63-1.1,11.25,4.86-4.13.69,14.14,5.92,10.95-1.55,7.4-.92,7.5.07,8.79-1.72,8.45-2.12,14.14-1.21,17.05-3.26,12.46-.86,12.97-5.02,27.31-.28,3.38-.7,7.05-2.5,13.65-.7,4.46,1.05,3.74-5.81,21.18-4.81,1.87-8.57-.07-12.43-1.69-.87.15,1.77-7.08.33-5.71-3.95,3.07-1.43-8.32-2.27-12.5-.21-1.03-.55-3.46-1.3-3.4-.73.06-.92-2.99-5.6,9.58-3.86,10.01-1.51,6.9-3.64,13.25-2.02,3.59-2.38,8.33-4.08,13.06-.06,4.96,1.9,5.67,1.14,12.1.25,2.09,2.2-1.99,2.98-1.82-.76,4.89-1.68,10.59-1.62,14,.02,1.19,1.2-.49,1.35.5.31,1.93-.86,7.87-1.17,11.31-.33,3.61,1.69,2.31-2.49,13.85-.65-.66-5.07,6.48-5.75,6.69-.59.18.54-3.55-.09-3.02-.11.08-2.49,4.65-2.72,4.88-.72.76-.5-.93-1.11-.45-2.45,1.93-5.35,5.65-6.71,6.2-3.55,1.46-3.46-6.09-8.8-.72-1.22-.23.38-5.07-3.29,1.56-8.24,17.25-6.04,16.07-12.64,30.02-2.66,7.92-.52,6.08.71,6.49,1.56.57.19,5.74-1.02,10.53-.57,2.41-1.21,4.66-1.36,6.19-.15,1.53.17,2.34,1.38,1.77-1.35,3.03-2.11,5.31-2.71,7.22-.61,1.9-.97,3.47-1.41,5.15-.44,1.67-.94,3.46-1.9,5.76-1.01,2.27-2.46,5.07-4.71,8.83-4.75,4.66-2.04-.54-4.22.44-2.3,1-8.25,6.97-9.82,6.75-.99-.1.51-3.01-.09-3.68-.42-.48-2.55,1.18-3.26.95-.95-.31,2.65-6.44-4,.28-4.69,5.62-7.33,8.49-9.53,11.3-.56.69-1.1,1.37-1.67,2.07-.59.67-1.2,1.36-1.85,2.1-.66.74-1.38,1.53-2.19,2.39-.83.84-1.76,1.76-2.82,2.79-3.32,5.36-3.95,8.48-5.7,12.42-1.75,3.94-4.68,8.73-13.06,16.87-4.16,4.02-.67,3.18-11.99,11.68-11.52,8.04-14.47,8.3-15.47,6.85-7.41,4.46-10.26,4.86-13.12,5.27-2.86.42-5.74.8-12.99,5.43-6.22,4.78-11.22,8.63-16.83,13.81-2.01,1.93-3.73,3.6-5.12,5.2-.72.83-1.39,1.6-2.02,2.34-.65.77-1.25,1.51-1.8,2.25-1.11,1.47-2.11,2.86-3.09,4.21-.96,1.38-1.87,2.77-2.87,4.16-.58.82-1.1,1.54-1.57,2.24-.45.74-.86,1.4-1.22,2-.73,1.22-1.31,2.22-1.81,3.13-1.01,1.77-1.65,3.41-2.64,5.72-.59,1.37-1.25,2.89-1.95,4.53-.74,1.76-1.54,3.63-2.36,5.57-1.7,3.9-3.56,8.48-5.44,13-1.23,2.92-3.13,7.32-4.26,10.12-1.12,2.75-2.21,5.7-3.45,8.94-.7.6-1.5,1.06-2.27,1.57-.69.67-1.43,1.26-2.23,1.76-.2.13-.41.24-.61.36-.21.11-.43.21-.59.4-.35.34-.72.67-1.1.98-.38.31-.77.6-1.18.88l-.15.1c-.02.05-.06-.06-.09-.12l-.1-.2c-.13-.27-.26-.54-.4-.82-.27-.56-.54-1.14-.82-1.73-2.7-6.5-5.37-13.04-7.63-19.04-2.17-5.98-4.09-11.48-5.65-16.09-.86-2.55-.16-1.61-.9-4.01-.6-2.1-2.71-7.84-3.35-10.06-1.05-3.69-1.97-6.94-2.71-9.98-.65-3.11-1.2-5.94-1.71-8.63-.48-2.64-.94-5.18-1.41-7.77-.22-1.27-.47-2.53-.66-3.82-.19-1.28-.38-2.59-.58-3.95-.32-1.14-.62-2.2-.9-3.2-.24-.91-.47-1.76-.68-2.57-.4-1.55-.73-2.93-1.03-4.19-.62-2.51-.98-4.58-1.5-6.69-1.64-6.8-2.79-9.95-3.78-13.18-.99-3.24-1.99-6.53-3.49-13.57-1.78-11.88-1.56-16.91-1.81-22.11-.13-2.21.03-3.29-.11-5.54-.13-2.22.02-3.3-.1-5.54-.17-4.49.11-8.81.02-11.09-.05-1.32.18-1.39.13-2.78-.13-2.22-.9-8.41-1.01-10.91-.08-2.23.77-.4.11-5.53.09-4.02-.93-14.64-.39-16.45-1.54-18.59-1.98-31.94-3.18-49.12-1.02-14.99-2.77-29.6-3.52-46.36-.42-29.67.33-51.47-.92-87.59.48-19.66.37-43.4-2.13-84.76-.74-8.13-2.12-15.64-2.83-27.23-1.36-22.23-.46-33.93-.99-49.23-.21-6.43-1.02-16.3-1.28-21.84-.77-16.65-1.18-32.82-2.03-49.17-1.42-27.53-3.36-51.03-4.76-76.43-.65-6.61-1.39-11.61-1.73-24.54-.95-6.6-1.49-13.99-1.84-21.84-1.56-17.38-2.9-39.01-4.5-54.54-.96-4.64-1.36-20.62-2.49-21.8-.24,6.31.17,3.02.54,8.18.54.34.53,11.61.85,16.4,1.25,7.84,1.95,23.27,2.8,35.46.88,12.77,2.08,25.35,2.59,40.94.96,4.95,1.57,17.13,2.33,27.28.68,9.17,1.64,19.91,2.24,30.02,1.38,23.17,2.56,51.25,3.43,71.01,1.02,23.19,1.48,36.24,1.99,51.9.16,5.27-.82,2.22-.18,10.97.32,6.38.63,12.73.94,19.11.35,9.45-1.15,5.61-.99,13.75.55,6.8,1.39,5.68,1.79,16.34.73,4.08,1.65,2.97,2.24,10.82-.11,6.62.98,21.96,1.48,32.79-.07,8,.11,17.78.66,30.09-.46,14.54.18,35.85.26,52.01.03,6.43-.44,10.84.13,19.18-.54,9.97-1.35,18.34-.39,38.37.62,9.08,1.48,9.61,2.17,16.3.85,13.35,2,21.82,2.76,32.73,1.25,17.9,1.17,30.55,2.2,46.52.06,3.62.03,6.95.04,10.07.02,3.13,0,6.07-.03,8.92-.09,5.71-.04,11.07.15,16.94.09,4.35.98,11.43.75,13.83-.99-.69-1.48.68-1.72,3.07.68,4.85,1.06,7.94,1.44,11.03.37,3.09.72,6.18,1.58,11.01,1.5,6.11,2.74,9.89,4.05,14.3.67,2.2,1.45,4.54,2.26,7.41.84,2.86,1.67,6.26,2.78,10.52.43,2.23.78,4.25,1.07,6.09.34,2.17.66,4.14.95,5.96.32,1.94.57,3.78.87,5.51.3,1.76.58,3.43.86,5.08.98,3.47,1.82,6.61,2.6,9.59.39,1.5.76,2.95,1.13,4.36.09.36.18.71.27,1.07l.31,1.02c.21.68.42,1.35.62,2.02,1.66,5.38,3.33,10.77,5.59,17.42,1.13,5.04,3.09,11.61,7.44,22.87,3.27,7.43,5.86,13.06,8.28,18.24.3.65.6,1.29.9,1.93.24.04.46-.1.69-.14.45-.14.9-.27,1.36-.41.24-.05.43-.19.72-.16.29.05.59.09.89.14.6.1,1.21.2,1.85.31.36-.16.88,0,1.32.03.46.05.89.08,1.3.08.95-2.21,1.87-4.36,2.76-6.44.91-2.09,1.8-4.13,2.66-6.1,1.7-3.96,3.3-7.58,4.79-10.98.74-1.69,1.46-3.35,2.17-4.97.69-1.54,1.36-3.06,2.02-4.55.65-1.46,1.28-2.89,1.91-4.3.62-1.4,1.23-2.77,1.81-4.02,1.14-2.49,2.27-4.93,3.39-7.36.27-.62.55-1.15.83-1.67l.83-1.57c.55-1.03,1.1-2.06,1.65-3.1.56-1.01,1.09-2.09,1.66-3.02.58-.9,1.17-1.81,1.76-2.74,1.19-1.81,2.36-3.72,3.69-5.44l-.66-1.05c1.28-1.46,2.31-2.68,3.16-3.75.86-1.06,1.56-1.93,2.15-2.71.15-.2.29-.39.42-.57.11-.16.22-.32.32-.48.2-.31.38-.6.57-.89.37-.58.7-1.15,1.1-1.74,1.59-2.34,3.77-5.29,11.09-11.53,3.5-2.08-.37,1.88,3.46-.07,4.27-2.92,6.28-3.54,8.09-4.01,1.81-.47,3.45-.75,7.08-2.89,1.07.85,4.22-.21,8.47-2.27-1.6,3.18,5.16-1.27,12.42-6.08,15.95-12.1,23.99-19.6,29.72-25.81,5.73-6.25,9.39-11.08,16.56-19.14-1.04-.73,1.35-4.03,6.23-9.87,3.72-1.2,10.77-6.59,7.56-.74,1.54-1.25,3.17-2.57,4.46-3.62,1.28-1.05,2.31-1.74,2.75-1.6-.53,1.09-1.06,2.2-1.42,3.11-.36.9-.6,1.57-.45,1.86.14.28.65.17,1.66-.59.99-.77,2.49-2.18,4.66-4.45,3.46-3.96,6.04-7.66,8.33-10.87.56-.81,1.1-1.59,1.62-2.34.48-.78.95-1.53,1.39-2.25.88-1.46,1.69-2.82,2.42-4.11.73-1.29,1.39-2.5,2-3.64.57-1.16,1.08-2.27,1.56-3.32.95-2.1,1.75-4,2.51-5.8,1.28-3.05,2.3-6.24,3.25-9.1.96-2.87,1.64-5.51,2.12-7.57.08-.33,2.21-4.74,2.31-5.17.92-4.48-.91-5.79-.17-9.55.31-1.59.47-2.91.55-4.1.06-1.19.05-2.25.04-3.3-.02-2.11-.03-4.22.54-7.41-.46-.43-1.72.92-2.06.65-.34-.27.27-2.14,3.29-9.1,3.76-2.44,2.99,5.01,5.42,5.48,1.88.35,7.67-6.88,8.9-5.16.39.52-.48,3.49.19,3.14,1.78-.9,7.26-9.57,6.65-6.29-.1.52.28-.09.69-.82.2-.37.41-.76.58-1.07.16-.31.29-.51.29-.51.33.22.31.83.88.37,1.39-1.08,2.17-1.61,4.14-4.34,6.19-15.03,7.77-21.55,11.1-31.57.36-5.35.25-9.75,2.68-19.53-1.41-.38-.64-5.34.66-11.43,4.69-3.1,1.32,16.39,10.18.86-1.14,7.13,1.27,6.83,7.4-8.91,4.9-12.57,5.9-19.01,7.21-23.58,4.44-15.47,6.19-27.47,7.64-35.07,3.76-19.76,4.35-29.93,6.4-41.39l-1.57-.58c.72-5.13,2.5-13.46,2.11-16.72-.21-1.74-2.02.34-2.48-.92-.3-.84.48-4.43.33-5.72-.61-5.26-5.96.61-1.77-15.23,4.07-6.63,2.3,2.63,2.15,6.64,6.87-5.81,3.11,18.25,11.15,9.95-3.63,13.54,4.86-1.77,3.27,7.05,3.65-6.53,5.73-7.2,5.96-3.63,2.71-5.97,4.16-7.36,8.01-17.44,2.13-5.94,3.77-11.35,5.02-15.87.59-2.16,1.31-4.72,1.21-5,.08-.8.15-1.48.21-2.01.2-1.76.15-2.84.26-4.15.05-.54.46-2.16.52-2.78.25-2.87.21-5.34.38-8.26.17-2.93.56-6.32,1.77-11.34-.03-3-.3-5.63,1.18-11.45,1.01-.89,1.68-.52,2.39-.33.7.21,1.43.26,2.46-1.02-.71,3.18-.72,5.23-.54,6.98.6-1.28.7-.38.89.12.19.5.45.65,1.35-2.02.36-.3.91-2.15,1.57-4.45.66-2.29,1.43-5.05,2.09-6.81.82-4.32,1.5-7.9,2.23-11.74.4-2.05.83-4.16,1.32-6.36.12-.55.25-1.1.38-1.68.13-.48.26-1.44.4-1.08.28.15.57.37.88.68.38-1.54.93-2.31,1.58-2.68.64-.36,1.46-.35,2.14-.28,1.42.09,2.92.28,3.64-3.41.81.96,1.45,1.69,2.08,2.11.62.42,1.2.54,1.72.34,1.04-.42,1.86-2.16,2.34-5.63,1.45,3.62,1.8,2.03,2.34.93.26-.54.55-.94.99-.39.42.65.99,2.24,1.88,5.46-.02.3-.05.56-.09.81-.03.24-.08.47-.15.73-.13.49-.28.9-.46,1.26-.35.72-.77,1.24-1.21,1.78-.87,1.07-1.79,2.26-2.37,4.87-.23,1.07-.17,4.14-.36,5.26-.39,2.4-.96,4.04-1.57,5.47-.61,1.42-1.26,2.64-1.82,4.04-1.14,2.76-1.88,6.36-1.81,12.41.78,4.1,1.54,6.83,2.09,9.27.57,2.42,1.21,4.47,1.73,7.04,2.18,5.31,4.4,9.84,6.3,14.24.6,1.47,1.51,1.38,2.16,7.88-.07.76-.19,1.25-.34,1.69-.15.49-.34.78-.55.94-.43.32-.95.12-1.48-.08-1.05-.4-2.1-.8-2.35,2.96-.21-1.05-.42-1.94-.63-2.68-.22-.84-.4-1.05-.59-1.35-.38-.52-.73-.62-1.02-.31-.14.15-.27.4-.38.75-.02.09-.05.18-.08.28-.02.09-.05.19-.06.4-.03.36-.06.76-.07,1.2-.06,1.77,0,4.22.27,7.36,2.13,19.06,3.96,22.14,5.75,34.64,1.36,1.38,2.62,6.76,3.89,11.76,1.25,5.01,2.48,9.66,3.88,9.53,1.36,8.65,3.14,10.97,4.2,16.16.29,1.43.54,4.38.75,5.44.41,1.98,1.3.03,1.59,8.14-3.1-.93-9.91-13.99-11.62,3.26-1.47-5.98-2.73-.13-3.34,5.64.2,9.31,1.02,14.61,1.58,27.41,1.48,7.54,2.99,12.85,4.6,18.05,1.58,5.2,3.16,10.27,4.79,17.31l1.68-.12c.94,5.67,1.96,7.75,3,9.73,1.03,1.98,2.06,3.86,3.09,9.12.74,1.93,1.39-5.11,2.19,5.3-3.59-1.34-5.85-6.51-9.11-13.02.68,9.86-1.41.23-2.15.18-.63,9.34-2.46,3.52-3.6,8.68-.98-4.25-2.86-13.41-3.1-5.33.18,5.11.52,7.91,1.01,11.16.49,3.25.97,6.95,1.68,13.88,1.05,4.09,2.13,8.15,3.27,12.07,1.2,3.92,2.42,7.69,3.62,11.21,1.17,3.52,2.51,6.78,3.69,9.68,1.21,2.9,2.33,5.45,3.42,7.53.46.87.46-1.14.94-.17.15.3,1.31,5.03,1.51,5.41.46.83.35-6,2.22,5.26-1.12,2.64-2.99,0-4.49-1.5-1.5-1.48-2.65-1.79-2.28,5.7-1.34-3.56-2.58-6.05-3.3-5.95-.36.05-.59.75-.64,2.28-.03,1.53.05,3.9.55,7.28,1.18,5.86,2,9.14,2.82,12.08.88,2.94,1.72,5.55,2.87,10.09,7.33,19.69,16.06,34.67,22.62,44.45l23.38,34.84,1.7-36.68c.04-.8.03-1.43.03-2.04-.01-1.55-1.93,2.2.71-8.25,2.37-9.43,1.75-3.33,2.03-2.33.28,1.02.18,5.05.62,5.74.35.56,1.87-2.59,2.49-2.22,1.64.97,1.91,5.84,5.22-4.38,4.31-17.58,3.19-18.88,5.25-29.54-1.2.08-1.97-1.13.25-11.16,2.42.08,6.09-5.8,8.75-3.48.76,1.01-.91,9.62,1.69,3.21,3.22-11.68,3.15-13.68,6.22-26.47,1.24-6.19.09-5.1.37-8.33.1-1.16,1.4-6.73,1.53-8.04.25-2.43-.56-1.17-.49-2.94.09-2.4.34-6.13.37-8.32.03-2.37-1.61-.64,1.04-10.99,1.72-4.41.58,4.25,1.89,3.3,3.74-3.18,3.92,8.98,8.34-.68,1.47-6.61,3.36-14.16,5.93-23.74,1.85-10.11.82-12.33,3.43-24.42-1.37,2.66-.18-2.8.02-5.61.4-5.6-.04-7.32.06-11.27.03-1.51,1-6.89.97-8.21-.04-1.57-.78-1.75-.92-3.05-.44-4.44-1.34-7.51-.1-16.99-1.62,2.4-.96-3.08-1.08-5.97-.11-2.45-2.52.5,1.58-13.71.9,3.98,4.51-2.91,5.59-1.27.81,1.24-.79,10.05.81,8.72,2.84-7.54,3.25-9.8,6.54-20.8,6.11-28.36,1.99-30.06,3.8-47.14,4.63-7.11,4.31,2.83,7.14,2.09,1.29-.34,4.2-6.4,4.77-4.29,1.25-1.78,4.37-12.74,5.79-15.32,1.39-2.82,2.94-6.45,3.39-4.68,3.1-11.65,2.78-6.59,5.35-15.44,5.16-18.94,3.19-20.24,6.65-34.99-.79-1.7-.55-7.34.02-11.39.2-1.51.02-3.18,1.76-8.02,1.53,1.96,3.73.84,7.25-6.28,2.71-6.07,4.12-16.69,6.77-20.73-.67,6.55,1.15,7.22-.79,16.9.11,2.1,2.08-4.27,2.19-2.16.84,3.78-1.7,26.43,8.26-3.09,5.04-18.65,2.63-20.24,3.5-27.42,1.55-12.59,1.13-19.07-2.75-18.05,2.59-8.13-1.42-.81,2.02-10.79,2.61.6,5.71.24,10.95-7.87,2.5-5.47,2.9-8.55,5.59-15.33,1.49-2.07,2.44-2.15,5.91-12.37,4.26-14.16,5.44-21.38,4.71-24.25,2.45-10.23-.85-7.64,2.32-19.34,4.37-10.17.71,1.11,2.04.71.64,1.53.56,6.66,1.44,8.85.88,2.19,2.59,1.4,6.94-8.84,4.79-14.28,6.05-20.75,4.68-21.4,2.95-10.36.98-9.98,2.24-16.51,1.81-8.01.19-7.78.05-11.52-.03-.83,1.14-4.63,1.16-5.37.16-4.06-3.41,2.1.05-8.67,5.65-11.72,1.53,5.69,5.19,1.87-.13,1.79-.69,4.67-.48,5.62.36,1.54,3.15-1.76,3.4-1.67.29.11-.8,3.19-.24,2.81,1.52-1.05,4.31-5.08,6.61-9.19.65-1.86,1.27-3.61,1.85-5.25.28-.83.55-1.62.81-2.4.13-.39.26-.77.38-1.15.04-.13.02-.07.03-.11v-.04s.02-.08.02-.08c.06-.42.07-.83.04-1.25-.05-.83-.23-1.68-.46-2.55-.46-1.77-1.14-3.56-1.37-5.53-.14-1.29-.92-2.36.19-4.7.42,1.26.75,3.01,1.14,4.58.38,1.58.83,2.99,1.34,4,.19.38.54.39.59.49.21.42.08,1.03.47,1.51.19.25.5.63.78.9.14.14.27.24.38.28.1.05.16.1.2,0,.35.02,0-1.18-.02-1.92-.03-.41.06-1.96.07-2.69,0-.66-.2-1.39-.23-2.05-.02-.35.16-1.57.17-2.2,0-.79-.08-1.5-.12-2.22-.03-.72-.02-1.47.32-2.46.59-.77.76.26.88,1.34.13,1.08.2,2.21.65,1.88.93-1.44,1.83-3.92,2.9-6.88,1.08-2.93,2.22-6.29,4.03-9.04.45-1.64.89-3.29,1.34-4.94,1.54-1.62,2.66-3.9,3.88-6.18.62-1.13,1.27-2.23,2.08-3.22.41-.48.85-.92,1.35-1.32l.19-.15c.06-.05.15-.12.13-.07.02.04.03.08.04.14.02.11.04.26.05.46-.73,2.58-1.45,4.25-2.22,5.97-.77,1.7-1.59,3.48-2.49,5.84-1.28,3.37-2.87,8.02-4.52,12.32-.59,1.51-1.56,3.98-2.59,6.63-.84,2.15-1.61,4.18-2.16,5.69-1.18,3.26-2.11,5.79-2.88,7.65.06-.15.5-1.16,1.07-2.28.57-1.14,1.28-2.46,1.88-3.56.9-1.62,1.29-2.52,2.04-3.79.11-.19.38-.24.53-.47,1.25-1.96,2.7-4.38,4-6.27,1.3-1.87,2.45-3.13,3.03-1.97-1.64,2.53-3.03,5.33-4.33,7.71-.78,5.39,1.92,2.37,2.32,6.14.24.5.78.21,1.2.23.43.02.73.42.48,2.45-.16-.9-.41-.76-.69-.36-.28.4-.58,1.06-.85,1.36-1.16-1.03-2.81-1.3-4.46-.88-1.65.39-3.27,1.29-4.3,1.69,0-.99-.37,3.37-.45,5-.1,2-.17,3.48-.26,5.27-.2,3.16-.76,8.74-.77,10.92,0,.92.48-.87.48.04,0,5.57.2,6.52.68,8.29.24.87-.14,4.46-.03,5.5.4,3.75,1.16,5.6,1.63,8.4.49,2.88,1.32,4.32,1.14,11.08-2.52,6.52-3.67-5.19-5.97-.55-.83,6.27-1.59-.22-2.44,10.77-1.8,14.83.29,19.78-.4,32.91-1.65,14.84-.68,15.34-1.32,24.6.49,4.34,1.56,8.06,1.86,11.17.28,2.95.99,6.33.17,13.74-2.26,4.6-5-8.11-7.94,10.26-2.33,23.92.32,20.5.08,32.95,2.81,1.94,3.31,16.51,5.39,22.47-1.45,5.39-3.2,14.38-4.38,16.08-.62.88-1.02-1.77-1.42-2.87-.58-1.62-1.22-2.62-1.65-5.65-1.46,6.21-2.9,6.08-4.35,10.58-2.04,29.53.02,26.44,1.75,33.12,1.21,4.67,2.16,11.42,3.52,14.05-1.36,10.97-3.2,17.27-4.39,18.83-.76.99-1.15-2.21-1.9-2.91-2.49-2.38-5.37,4.44-7.45,7.54-.67,7.27-1.35,14.54-2.02,21.78,1.61,24.56,7.93,23.2,9.57,47.58,2.47,2.9,3.53,13.56,4.91,22.43.14,5.05,1.86,1.37.65,13.79-1.32-3.5-3.64.39-5.24-3.23-.37-.82-.17-3.78-.45-5.53-.78-4.83-1.88-1.15-3.11-.29-3.47,2.42-8.56-3.96-11.26,4.45-.88,2.73-2.29,3.08-3.17,13.44-2.17,29.31.48,32.08,1.46,44.08-1.62,16.5-1.89,25.53-2.32,35.49-1.72,10.18-3.33,19.29-4.46,38.21.45,4.46,1.21,6.92,1.25,14.06,3.28,5,6.07,18.98,9.07,25.76,1.12,2.49,2.61.02,3.04,11.29-2.37,1.4-5.49,7.28-7.8,2.47-.55-1.15-.8-5.68-1.43-5.68-1.56,0-2.64,6.86-3.56,11.15-.25,1.13-.63.74-.94,1.32-.31.58-.57,2.13-.48,7.17-.14,9.93.4,15.2,1.02,18.54.6,3.34,1.34,4.78,1.89,7.16.19.82.52,1.08.81,2.07.29.99.53,2.71.67,6.48-.96.52-2,1.08-2.61-5.65-1.48,5.47-3.66.51-5.67-2.64-1.01-1.57-1.98-2.68-2.8-1.74-.41.47-.79,1.45-1.12,3.14-.33,1.69-.61,4.09-.75,7.42-.39,1.33-1.63-3.95-.94,5.95.21,3.73.42,6.77.68,9.29.28,2.52.57,4.49.85,6.07.55,3.15,1.19,4.73,1.76,5.86.59,1.14,1.16,1.85,1.76,3.31.58,1.45,1.23,3.64,2,7.73.67-.69,1.82,1.1,3,3.55,1.23,2.46,2.49,5.57,3.24,7.59.61,1.63,1,2.21,1.46,2.77,1.49,1.78,2.41.07,3.64.83.61.38,1.3,1.37,2.17,3.69.42,1.16.96,2.65,1.54,4.57.3.96.61,2.02.94,3.2.16.59.34,1.21.52,1.86.26.88.52,1.81.81,2.78.4,2.59.82,5.29,1.21,7.85.1.65.19,1.29.29,1.92.12.64.24,1.27.36,1.88.24,1.23.45,2.41.64,3.51.74,4.37,1,7.44.02,7.11.19.63.37,1.24.55,1.85.21.58.41,1.15.61,1.71.4,1.12.79,2.2,1.17,3.24.76,2.07,1.46,3.99,2.13,5.8.64,1.84,1.39,3.38,2.06,4.91.68,1.51,1.33,2.96,1.97,4.37.64,1.4,1.26,2.77,1.89,4.14.67,1.29,1.34,2.58,2.02,3.91.68,1.33,1.38,2.7,2.12,4.14.73,1.44,1.48,2.98,2.36,4.45,4.42,5.11,5.54,3.89,9.55,7.83,3.3,8.91,2.28,12.26-4.65,4.71,3.97,7.34,2.56,7.32,2.99,9.8.22,1.25.92,3.17,3.13,6.92,1.1,1.88,2.58,4.24,4.54,7.23,2.02,3.03,4.48,6.64,7.64,11.11,3.88,4.71,6.61,7.66,8.98,9.9,1.16,1.08,2.15,1.9,3.03,2.55.44.32.86.61,1.25.85.2.12.39.23.58.35l.28.16.14.08.07.04.05-.15c2.26-6.34,3.82-11.74,7-19.64,7.62-13.86,9.17-16.08,15.45-27.93,3.15-6.71,2.4-7.89,1.83-9.26-.29-.68-.53-1.41-.29-2.85.24-1.55.96-4.19,2.59-8.47,4.49-9.72,5.01-9.72,4.53-7.19-.47,2.51-1.97,7.63-1.25,7.46.93-.22,4.83-7.93,6.2-9.4,5.96-13.39,9.54-22.08,13.5-31.49.66-1.84,1.2-3.4,1.63-4.74.05-.15.12-.36.14-.46.03-.11.05-.21.08-.31.05-.2.09-.4.14-.59.08-.38.15-.72.21-1.04.23-1.27.24-2.12.16-2.76-.16-1.29-.71-1.8-.72-3.43-.02-3.15,1-8.54.86-11.56-.04-.9-1.18.21-1.32-.58-.19-1.06.77-4.56.65-5.68-.38-3.59-1.55-5.76-1.55-9.63,0-1.25-2.16,1.42,1.96-8.09,3.46-5.98,2.18.07,1.33,3.56,3.05-6.31,3.33-4.4,4.17-4.15-.12,1.57-.84,4.55-.65,5.68.7,4.25,4.44,3.82,7.48,3.27.55-.1,3.01-4.31,3.51-4.43.95-.23-1.51,6.2.44,3.18,3.26-6.95,3.47-4.83,5.92-9.35,3.57-8.05,4.24-10.77,8.54-20.14,1.16-7.73.74-14.83,1.51-20.23.26-7.46-2.56-6.9-.9-15.32-.16-1.52-2.75,4.18-2.63,1.84,3.39-12.75-3.92-5.28-.91-18.31-2.58.05-4.47-2.97-6.16-5.67-.32-.51,1.06-4.85.87-5.59-.22-.84-2.3,2.43-2.63,1.84-.31-.57.08-3,.87-5.59,3.72-7.5,3.84-4.29,3.73-1.36,5.77-10.25,1.65,4.57,7.24-5.78-3.44,12.53,2.57,7.03,4.63,7.99.18,1-3.39,8.88-2.19,7.99.89-.89,3.52-6.98,3.29-4.53-.67,4.58-.07,7.4.89,9.35.76,1.54,1.31,3.91,2.43,4.04.91.11,2.55-1.83,4.17-4.15-3.01,9.63,1.87,3.29,3.52,4.53.4.3-.11,2.53.23,3.08,2.29,3.82,5.16,4.71,13.39-9.07,3.98-8.62,3.88-9.78,7.44-17.64,2.58-9.55,2.35-13.94,2.83-19.66.23-2.76.97-6.61.86-8.57-.13-2.42-1.66-1.72-1.98-3.85-.45-2.95,1.11-10.64-.02-11.95-.25-.29-1.6,1.52-2.2,2.03,1.78-7.67.15-9.58-.68-12.23-.37-1.19-3.58,3.1-.01-5.97,3.7-5.53,4.64-4.55,1.99,3.85,1.79-3.59,3.8-7.8,4.16-7.13-2.65,8.97-1.29,10.82,2.43,7.03-3.26,9.09.89,2.79,1.77,3.75.82.9,1.41,1.55,2.64,1.15,1.45-.48.75,3.92,1.98,3.85,2.01-.11,6.76-6.8,9.87-10.61,5.66-12.37,6.07-15.12,9.19-22.84.77-6.28.8-11.39.64-14.65-.08-1.71-.87-1.59-.89-3.37,0-.77,1.45-4.54,1.53-5.3.13-1.23-1.08.43-1.1-.48-.06-3.28.65-8.85.2-11.85-.39-2.62-1.25-4.39-1.77-6.74-.54-2.46-.83-5.28-1.77-6.74-2.06-3.21-1.6-9.33-5.07-8.18,1.79-7.05-.73-4.94-1.77-6.74-.72-1.26-2.82-.8,1.52-11.27,5.25-4.94,5.49.55,9.01.95.93-.37-1.8,5.96-.87,5.59,3.89-6.64.79,2.98,2.86,1.25.17,2,3.78-6.25,3.95-4.24-.62,2.12-2.02,6.36-2.19,8-.15,1.42,1.9-3,1.97-2.13,0,0-.03.09-.08.22-.05.14-.13.33-.22.56-.18.46-.42,1.07-.66,1.68-.48,1.23-.98,2.5-1.01,2.64-1.27,5.46,3.13-1.25,4.17-1.16-2.04,6.9,0,4.09,2.42,1.06-1.9,5.14-1.47,6.01-1.74,8.19,3.97-.85,2.74,7.64,7.69.38-1.41,3.74-4.06,9.78-2.4,7.9,3.51-.17,4.37,7.52,11.64-3.86,4.22-9.23,4.32-10.92,8.54-20.15,1.87-6.09,2.59-10.08.42-8.76,3.25-9.57,2.09-10.24,2.39-13.87.31-3.69,1.46-9.19,1.08-11.46-.11-.72-1.39.63-1.32-.58.11-1.87,1.58-6.66,1.53-8.29-.06-2.14-1.51-1.54-1.54-3.66-.03-2.03,1.25-6.84,1.09-8.47-.45-4.53-3.54-3.57-4.19-7.8-.13-.81.05-2.82.18-4.59.1-1.72.25-3.46.16-3.96-.08-.42-1.4,2.46-1.47,2.16-.24-1.02-.16-2.81-.04-4.69.12-1.87.27-3.83.09-5.01-.24-1.63-.75-2.47-1.25-3.19-.5-.73-.99-1.35-1.14-2.73-.35-3.13.64-8.24,1.41-12.23.4-2.03-2.67,2.81,1.91-7.96,3.46-7.17,4.81-8.78,5.43-8.45.62.34.54,2.55,1,3.32.87,1.48,1.33,3.98,1.88,5.95.54,1.99,1.15,3.49,2.16,3.39-1.65,5.31-1.4,6.64-.93,7.53.43.74,2.57-3,3.15-2.41.3.3.3,3.1.1,4.56-.17,1.22-.73,3.89-2.18,7.39.37,1.05,2.89-4.61,2.83-2.28-.84,2.97-2.47,7.22-1.59,7.22.45,2.33,2.01,1.07,3.6-.46-.08,1.12-2.12,5.37-.79,4.2,1.53-.11,2.24,1.95,3.13,3.68.86,1.79,1.91,3.25,3.44,3.47.08,1.08-.57,3.02.17,3.21,1.45-.83,2.65-.96,3.59.18.93-1.82,1.5-3.31,1.91-4.72.4-1.4.63-2.71.77-3.97.28-2.54.15-4.79.33-7.19.17-2.26.62-5.14.92-7.5.44-3.46.22-5.68,1.82-10.77.29-2.82.19-4.89.59-7.95.14-1.08,1.08-3.99,1.31-5.41.29-1.73-.13-2.31.11-3.86,1.21-7.52,2.67-14.86,3.8-21.9.57-3.5.55-6.33,1.5-10.63.54-2.43,1.81-5.96,2.21-8.05.66-3.48.91-6.13,1.17-8.85.27-2.73.55-5.53,1.39-9.61.52-2.51,1.43-5.89,2.35-9.27.91-3.37,1.82-6.74,2.27-9.08.51-2.63,0-2.73.68-5.75.7-3.12,2.8-9.64,3.41-12.6,1-4.92,1.13-7.4,1.89-10.91.76-3.52,2.16-8.12,5.9-17.69.02.12.04.25.06.36v.1s0,.21,0,.21c-.01.15-.03.3-.04.45-.06.63-.11,1.22-.16,1.78-.14,1.32-.27,2.48-.38,3.53-.28,2.33-.59,4.6-.93,6.77-.67,4.35-1.42,8.27-2.12,11.6-.51,2.29-1.07,4.78-1.66,7.42-.61,2.66-1.25,5.45-1.89,8.26-1.26,5.47-2.47,10.78-3.5,15.59-1.03,4.86-.21,4.53.94,3.25-2.63,6.39-3.39,9.74-3.92,12.74-.54,2.99-.88,5.69-2.45,10.24.45-.12.39,1.21.33,2.54-.06,1.33-.12,2.67.25,2.72-1.61,5.1-2.4,8.96-3.29,12.92,0,1.89-.47,5.11-1.07,8.67-.6,3.58-1.31,7.5-1.86,11.06-.56,3.57-.96,6.77-1.07,9.19-.11,2.42.06,4.07.58,4.7.68-1.82,1.43-3.69,2.18-5.58l.56-1.42.14-.36.07-.18.04-.09s0,.04,0,.06v.55c.03.71.04,1.41.06,2.08.26-.47.52-1.55.77-2.86.25-1.3.5-2.83.75-4,.71-1.96,1.46-3.64,2.26-5.2,1.21-2.28,2.57-4.05,3.8-6.69,1.08-2.26,2.1-4.13,3.12-5.62.5-.74,1.05-1.39,1.59-1.92.27-.26.55-.5.83-.69.44-.8.88-1.54,1.32-2.21.7-1.06,1.41-1.71,2.13-2.17.74-.46,1.47-.72,2.16-1.11,1.49-.85,3-2.53,4.48-2.74,1.5-.22,2.92,1.12,4.12,7.12.36-1.67.72-2.25,1.08-2.05.38.15.76,1.04,1.13,2.35.27.97.68,2.38,1.09,5.06.43,2.62.72,6.86,1.31,12.01.65,9.6.25,11.56-.41,11.91-.65.33-1.56-.81-1.86,1.73-.16,1.02-.27,2.61-.28,4.3.03,1.63.11,3.45.17,5.18-.48-1.72-.87-2.88-1.19-3.63-.33-.74-.52-1.18-.74-1.26-.41-.19-.69.75-.98,1.67-.57,1.88-1.11,3.51-2.61-2.51-.21,4.29-.74,5.75-1.43,5.71-.69-.05-1.54-1.58-2.37-3.67-.59.42.11,5.78-.07,7.57-.98-5.84-1.53-6.69-2.02-6.71-.49-.02-.93.7-1.53-1.74-.08,2.43-.25,4.33-.49,5.72-.25,1.4-.62,2.31-1.07,2.78-.45.47-.99.51-1.57.16-.55-.35-1.13-1.09-1.74-2.18-.13,2.65-.54,3.66-1.07,4.1-.53.43-1.16.28-1.75.38-.6.1-1.15.45-1.56,1.64-.41,1.18-.66,3.2-.68,6.45-.47.23-1.15-5.09-1.53-3.13-.13,2.84-.58,3.86-1.09,4.69-.51.81-1.06,1.44-1.45,2.98-.19.77-.13,2.95-.3,3.85-.29,1.52-.89.76-.85,3.04.28,1.38.55,2.58.83,3.64.3,1.06.64,1.97.95,2.77.6,1.61,1.37,2.75,2.04,3.61,1.35,1.73,2.82,2.2,4.15,2.48l.14.23.07.11s.07.14.1.21c.15.3.29.6.42.88.28.56.54,1.09.79,1.58.51.98.95,1.81,1.39,2.52.92,1.41,1.66,2.35,2.32,3.07,1.31,1.44,2.29,1.97,3.61,3.42,2.02,2.31,4.24,4.61,6.42,6.7,2.16,2.02,4.06,3.69,6.31,5.46,2.22,1.79,4.43,3.86,7.19,6.66,2.04,1,4.34,2.33,6.68,3.67,1.17.67,2.35,1.34,3.51,1.97,1.2.61,2.43,1.14,3.6,1.62,1.1.45,2.1.68,3.14.99.86.26,1.88.77,2.96,1.41,1.08.64,2.22,1.42,3.44,2.1,2.39,1.4,4.66,2.76,6.06,3.1.97.23.19-1.79.7-2.17.56-.41,2.12,1.02,8.7,7.28-.4,2.29-2.73,2.19-5.19,1.94-2.45-.24-5.02-.62-5.68,1.34-.59-.34-1.55-.95-2.43-1.58-.87-.64-1.72-1.24-2.23-1.42-.66-.24,1.4,2.43,1.21,2.52-.9.46-3.49-.8-5.38-1.31-1.89-.51-3.08-.26-1.05,3.39-6.06-6.28-4.52-2.6-3.83-.41-9.04-9.89-1.03,1.45-1.46,1.25,0,0-.91-.91-1.88-1.88-.97-.97-2-1.99-2.22-2.18-4.65-4.72-4.58-.13-5.14.35,0,0-.47-.45-1-.92-.53-.47-1.12-.95-1.34-1.02-2.91-.87-8.77-2.96-7.41,1.7.16.54.8,2.03,1.87,3.99,1.07,1.96,2.52,4.43,4.54,6.64,1.91,2.28,3.66,4.31,5.26,6.11.4.45.79.9,1.18,1.3.41.4.8.78,1.18,1.16.78.74,1.51,1.44,2.21,2.1,1.4,1.31,2.67,2.44,3.82,3.42,1.15.98,2.17,1.84,3.17,2.5,3.93,2.71,6.31,3.75,8.72,5.15,1.02.62,2.05,1.13,3.03,1.61.98.47,1.92.92,2.83,1.35,1.81.84,3.48,1.57,5.06,2.22.79.32,1.55.64,2.31.91.77.25,1.52.49,2.27.73,1.48.46,2.93.88,4.37,1.28,1.51.42,4.43,1.77,5.64,2.02,2.03.36,1.77-.78,3.74-.42,2.03.37,6.33,2.22,8.39,2.63,3.64.62,3.98-1.04,7.03-.84,1.22.08,3.33.68,5.47,1.3.53.15,1.07.3,1.6.45.54.12,1.06.24,1.56.35,1,.21,1.89.36,2.57.39,1.43.06,1.92-.43,3.3-.42,1.64,0,3.5-.12,5.48-.12,2.01-.05,4.16-.01,6.36.41.48-.45.1-1.42,1.14-1.55.52-.06,1.39.08,2.89.6.76.26,1.66.63,2.78,1.07,1.13.43,2.46.96,4.02,1.62,2.14,2.32.23,3.03-1.39,3.86-1.61.83-2.93,1.79.65,4.7.2.73-4.14-.92-7.87-2.34-.31.54,4.02,2.5,1.91,2.41-.76-.22-1.44-.4-2.06-.56-.61-.18-1.16-.32-1.65-.44-.98-.23-1.74-.35-2.31-.37-1.15-.04-1.58.3-1.67.81-.2,1.04.94,2.8.2,3.72-2.49-.44-6.55-1.8-8.41-1.88-2.08.07,6.3,4.07,4.24,4.14-2.75-1.04-4.51-1.58-5.61-1.78-1.09-.22-1.51-.11-1.62.2-.22.61.85,1.91.52,2.37-.91,1.33-9.57-1.32-1.93,3.86-6.26-2.4-8.73-1.73-6.94.69.47.64,1.49,1.66,3.1,2.89,1.6,1.26,3.86,2.52,6.7,3.89,2.69,1.29,5.08,2.51,7.29,3.39,2.21.9,4.17,1.66,5.93,2.3,1.76.64,3.32,1.17,4.71,1.6,1.4.38,2.64.68,3.74.91,4.41.92,6.71.82,9.33,1.12,1.68.14,1.15-.39,3.14-.2,3.1.29,6.09.56,8.87.73,1.61.11,4.85.58,5.83.53,1.39-.09-.63-1.39.49-1.61,1.37-.28,6.78.71,8.69.57,5.11-.41,8.45-1.23,12.07-1.8,3.3-.6,3.72-1.74,6.28-2.5,1.07-.32,4.64.11,5.67-.18,3.11-.9,2.96-2.75,6.33-3.61,1.08-.28,4.73,0,5.59-.35,2.29-.93-1.35-2.97,8.64-2.37-1.51-.8-1.93-1.48-.39-1.72,1.54-.24,5.02.02,11.39.8,1.48,2.61-.5,4.86-2.84,7.03-2.33,2.18-5.02,4.28-4.75,6.64-3.76-.26-4.62-.15-5.63.26-2.64,1.05-2.78,3.12-.81,4.73-10.15-.57-4.3,2.22-6.37,3.77-1.84,1.4-8.02,1.58-6.37,3.17.44.41,2.44,1.2,4.33,1.95,1.9.71,3.69,1.4,3.69,1.75,2.14.36,4.42.74,6.63,1.11,2.21.37,4.36.64,6.27.89,3.81.49,6.61.75,6.9.4,4.74.2,5.36-.48,11.41,0-1.8-1.41,4.94-1.14,3.13-2.55,10.94.43,10.07-1.46,17.03-1.94l.17-1.91c3.4-.36,6.34-.85,8.38-1.5,2.05-.64,3.2-1.43,3.01-2.42,1.16-.22,3.06-.32,4.76-.45,1.7-.15,3.21-.34,3.59-.68,8.01-3.5,11.66-7.62,25.08-10.59-3.42-1.3-3.14-2.86.13-3.84,1.79-.54,5.47-1.25,10.87-1.11,7.83.37,9.59.73,9.18,1.15-.41.43-3,.89-3.82,1.38,8.6,3.2-3.2,7.1,2.52,9.42-7.22.91-7.46,2.35-8.29,3.64-.61.95.8,1.89-.08,2.88-.91,1.02-4.75,2.13-5.59,3.21-1.03,1.35,1.37,2.98-.13,4.32-.6.54-4.37.89-5.58,1.49-1.38.69,1.15,1.56-2.85,2.06,2.76.41,4.54.88,8.28,1.24,1.21.48-3.81,1.35,5.51,1.35,4.62.12,9.24.23,13.83.3,10.41-.68,10.18-2.14,13.84-3.4,5.23-1.82,14.01-3.33,13.77-5.39,3.97-.34,3.66-1.1,8.22-1.38.07-.57-4.71-.74-2.73-1.46,11.84-2.95,16.75-6.62,19.11-10.55,7.04-.99,7.09-2.55,7.36-3.94.12-.72.29-1.42,1.29-2.12,1-.71,2.85-1.37,6.18-2.23,4.01,2.36,3.84,5.08,1.79,8.01-2.01,2.91-5.91,5.74-8.03,8.32-1.8,2.16.79,4.05-2.51,6.16-1.2.76-4.86,1.47-5.74,2.12-1.61,1.19-3.08,2.44-2.68,3.67.43,1.2,2.6,2.48,8.88,3.32,9.84-.44,16.89-1.95,21.35-3.42,4.49-1.5,6.41-2.77,7.31-3.72,4.6-2.83,8.72-5.99,12-8.99,3.29-3,5.76-5.84,7.22-8.09,1.63-2.58.64-3.93,2.87-6.36,5.05-5.61,5.11-8.47,8.12-13.09,2.98-4.6,6.84-9.92,5.4-12.08,3.5-2.82,4.43-4.36,5.85-6.14-.97-1.21-3.33-1.71,7.42-8.8,7.96-3.63,5.78-.62,6.67.4,3.19,3.6-1.86,12.12,2.14,13.91-7.66,6.81-2.51,5.8-1.88,7.37.22.51-4.31,3.73-4.03,3.89,0,0,.08-.03.2-.09.12-.06.3-.14.5-.25.42-.2.98-.48,1.56-.76,1.16-.56,2.41-1.13,2.77-1.16,3.13-.33-2.57,3.92-3.14,5.32-.22.55,2.91-.79,2.97-.42.13,1.02-3.49,4.47-3.14,5.32.2.49,2.52-.19,3.2,0,2.32.64-1.83,5.48,9.76.19,7.61-4.78,9.89-6.47,13.59-9.23,7.06-5.26,10.13-8.54,12.45-11.06.91-.99-1.59,0-.63-1.02.62-.66,3.67-2.56,4.28-3.48.5-.76-.96-.36-.63-1.02,11.8-9.58,9.08-11.87,16.92-19.46-.65-3.86,10.25-13.52,8.8-16.99,8.72-6.86,4.21-6.44,6.67-10.03,1.03-1.51,4.96-4.74,5.85-6.14,2.16-3.41.23-4.3,4.59-8.19,1.21-1.07,4.53-4.04,8.8-6.55,8.31-3.86,6.26-.26,7.17,1.21,1.04,1.69.52,4.2,5.11,3.06-7.06,7.35,2.58,6.35-1.7,12.89.75.34,4.79-1.78,5.54-1.44-1.67,1.91-6.51,5.41-8.3,7.37,8.17-2.15.69,5.64,4.03,6.54.53.14,4.28-1.77,5.28-1.85,2.41-.2-.19,2.22,3.46.4,3.72-1.85,3.68-1.03,5.42-1.65,10.63-6.4,13.69-9.01,20.57-13.53,1.44-1.83,3.08-3.8,4.96-5.93,2.06-2.36,4.06-4.66,5.77-6.62.92-1.07-1.7.45-.6-.75.45-.5,1.66-1.52,2.81-2.65,1.16-1.12,2.25-2.34,2.62-3.04.75-1.43.55-1.94.34-2.4-.21-.47-.44-.92.06-2.26.22-.57.94-1.84,1.59-3.19.65-1.35,1.26-2.76,1.43-3.54,1-4.02.69-6.74.12-8.54-.63-1.82-1.56-2.77-2.59-3.47.06-1.32.32-3.41.39-5.28.07-1.91-.02-3.4-.34-3.84-1.19.39-2.22.15-3-1.48-.77-1.64-1.33-4.6-1.64-9.93,1.34-3.9,2.07,1.87,3.43,2.96,1.38,1.11,3.25-2.02,4.55.29.63,1.09,1.17,3.77,1.77,5.28.58,1.52,1.34,1.73,2.35-2.19.65,3.71,1.74,5.25,3.02,6.35,1.33,1.2,2.64,2.9,4.12,2.31.73-.28,1.54-1.22,2.33-2.97.8-1.76,1.56-4.42,2.22-7.78.89-11.28.5-14.05,1.28-24.61,1.27-6.23,2.85-.76,3.89-16.2,1.03-15.88-.2-17.93-.81-21.96-.76-4.99-1.82-8.04-2.68-11.12-.91-3.28-1.7-7.92-2.68-11.13-1.05-3.42-2.49-2.51-3.5-5.7-.91-2.89-1.47-9.23-2.44-11.11-.5-.97-1.38.38-1.92-.12-1.36-1.27-2.54-5.82-3.81-8.46-2.27-4.72-5.25-6.56-6.82-14.12-.34-1.59-1.53,2.19-.69-8.23.57-2.37,1-2.42,1.31-1.79.31.62.5,1.9.61,1.91.53.04.76-7.02,1.26-4.8.19,3.84.67,4.93,1.24,5.11.57.18,1.24-.57,1.81-.06.93.86,1.74,5.99,2.78,5.65.35-.12.62-2.96,1.13-2.68,1.22.69,2.26,4.87,3.5,5.69.34.23.66-2.52.89-2.68.47-.34.37,2.6.79,2.78,1.87.82,3.03,4.51,4.22,5.74,2.15,2.24,4.05-2.21,5.77-7.85.12-1.72.23-3.33.33-4.83.13-2.17.24-4.18.35-6.05.21-3.89.34-7.16.41-9.91.14-5.5.04-8.9-.21-11.04-.5-4.26-1.59-3.59-2.48-4.56-.34-6.71-1.12-8.39-1.94-9.04-.82-.64-1.67-.26-2.17-2.3-.82-3.28-1.71-6.04-2.68-7.15-.74-.84-1.64-.52-2.5-.27-.86.26-1.67.45-2.27-.46-.22-.33-.35-1.46-.5-2.44-1.28.49-2.45.94-2.98,1.27-1.75,1.1-.35,1.32-1.96,2.43-2.3,1.59-7.62,3.86-10.28,5.62-4.57,3-7.11,5.4-8.37,7.64-5.59,2.4-7.81,5.59-7.92,6.54-1.36.89-1.54,1.69-2.42,2.53-.87.84-2.34,1.7-6.06,2.67-1.25-.82-.82-2.07.38-3.55,1.17-1.47,3.12-3.15,4.03-4.63.26-.42-1.75-.11-1.81-.32-.09-.34,2.02-1,2.13-1.24,1.11-2.57,4.28-4.83,6.09-7.1.64-.8-.22-1.25.71-2.14,1.62-1.55,4.34-3.36,7.18-5.18,2.83-1.82,5.77-3.66,7.48-5.16.84-.74.71-1.25.66-1.78-.04-.53.02-1.07,1.39-1.91,1.66-1.02,6.8-2.72,7.88-3.58.57-.45-.03-.62-.81-.67-.77-.05-1.7.02-1.7.02-.2-.05.71-.33,1.68-.6.48-.13.97-.26,1.35-.36.37-.1.63-.15.63-.15-.02-1.11-.42-1.72-1.9-1.77-3.72-.11-1.53-1.07-17.63,2.42-12.91,3.26-17.45,4.89-19.3,6.04-1.84,1.15-1.11,1.85-3.07,3.16-1.39.93-4.87,2.34-6.64,3.28-.48.26-.68.49-.87.72-.17.23-.28.46-.63.72-.69.52-2.22,1.17-6.32,2.12-4.29-2.69,15.42-10.41-2.14-9.11-12.05,2.62-13.17,3.67-21.14,5.7-7.4,7.02-19.42,15.18-20.44,20.58-2.48.87-4.24,1.61-5.11,2.18-3.58,2.37-4.31,4.61-6.78,7.02-2.58,2.51.03,4.14-12.22,7.8-2.82.4-4.3.5-4.53.33-.18-.07-.19-.19-.07-.33.14-.15.32-.3.79-.53,1.73-.87,5.07-2.13,5.82-2.89-4.96-.3,2.67-3.4,4.34-5.46,1.74-2.15.6-3.9-1.21-5.14,3.88-1.3,4.35-1.72,5.05-2.42,3.55-3.56,1.35-6.61-4.64-7.79-5.51,1.2-8.9,2.09-12.21,2.97-.85.22-1.7.45-2.57.68-1.14.29-2.31.58-3.56.9-2.49.62-5.29,1.29-8.75,2.07-3.63,1.32-4.08,2.11-6.69,3.25-1.3.57-3.12,1.22-6.1,2.07-1.49.42-3.28.89-5.44,1.43-.54.13-1.11.27-1.69.41-.3.07-.6.14-.9.22l-.47.11-.12.03s-.01.07-.02.11v.25c-.07,1.31-.13,2.72-.2,4.24-.41,3.26-.9,3.3-1.39,3.62-.49.33-.97.95-1.36,5.66-.44,8.41-.6,14.04-.84,18.77-.02.59-.05,1.17-.07,1.74-.01.42-.02.84-.03,1.25-.02.83-.04,1.64-.06,2.47-.04,1.66-.09,3.39-.18,5.37.85,3.25,1.36,8.41,2.82,8.36-.18,11.31.77,15.34-.45,29.96,1.83,2.35.99,16.49,3.25,16.97-1.7,14.09,1.8,6.93-.22,22.11-3.13,15.92-3.13,4.19-4.23,2.1-1.04-1.98-2.99,1.41-2.69-5.96-.58-1.91-1.84,5.69-2.52,5.13-.74.7,1.48-10.48.33-8.23-1.31,1.35-.76-5-2.2-3.09.02-7.77-2.18-22-5.93-.91-2.33,14.74-1.31,16.81-1.27,21.81,0,.77-.48,4.89-.41,5.46.12,1.01.89-1.18.95.16.02.5-.4,4.4-.41,5.47-.06,6.41.63,7.88-.31,16.58-.85,7.95.83,2.43.77,5.67-1.12,6.3-2.27,11.11-2.63,16.23,1.63-3.79.87,5.05,1.03,5.71.74,3.06,3.3-.9.55,13.95-.38-6.89-3.01.1-4.51-.67-1.7-.87-2.24-10.24-5.4,1.97-1.87,11.87-1.69,15.22-1.73,19.29.01,4.35-1.01,14.14-.58,16.65.77-1.19,1.48-2.08,1.87-1.16.42.93.43,3.64.11,9.72-.99,2.62-.44,7.36-.83,11.02-.37,1.82-.7,2.99-1.01,3.83-.32.84-.65,1.33-.99,1.81-.66.96-1.32,1.83-1.95,5.17-.19,3.24-.27,6.11-.41,8.82-.11,2.71-.19,5.26-.53,7.85.34,4.66.9,9.21,1.68,13.96.38,2.34.94,2.98,1.35,4.45.41,1.47.64,3.77.53,9.41-1.27,8.7-3.03-6-4.35-5.53-.83.29-1.31,5.6-1.85,8.4.22,7.62.72,13.08,1.31,17.07.59,4,1.27,6.54,1.97,8.34,1.4,3.6,2.88,4.27,4.32,7.66,1.6,10.88,3.17,6.66,4.94,16.15.87,1.12,1.69.49,2.57,2.22.45.86.91,2.32,1.43,4.88.55,2.55,1.17,6.21,1.86,11.48.35,9.16-3.4-7.98-3.09.46.23,1.48.44,2.78.62,3.94.21,1.15.4,2.17.56,3.08.32,1.83.58,3.27.82,4.63.5,2.73.85,5.2,1.87,9.98,1.19,1.75,2.39,3.56,3.65,5.94.63,1.19,1.27,2.51,1.94,4.03.66,1.52,1.35,3.25,2.13,5.21.22-6.14,2.71-.78,4.34,1.83,1.42,2.28,2.55,2.98,3.8,4.94.63.98,1.28,2.28,2.02,4.25.78,1.96,1.67,4.59,2.7,8.24-.53.43-.74,1.76-.1,5.59-.93-1.32-3.01-10.03-3.35-7.52-.7,1.74-2.61-4.31-3.22-2.01-.64.93,3.02,9.68,2.38,10.61-.65-.2-1.24-.11-.72,3,2.74,11.02,2.98,11.64,6.56,23.62-.79-.32-1.38.05,1.16,8.2,2,6.21,3.67,11.11,5.17,14.86,1.52,3.75,2.78,6.36,3.82,8.05.7,1.53,1.46,3.32,2.23,5.16.8,1.83,1.62,3.71,2.37,5.44,1.54,3.45,2.92,6.25,3.73,6.72,3.72,11.55,3.93,9,5.63,12.46,3.07,7.94,5.77,12.71,8.97,19.92,2.92,6.41,5.87,11.88,9.49,22.64,2.44,7.42-3.83-6.46-1.57.59,1.69,4.7,2.73,7.1,3.75,9.33,1.1,2.48,1.76,3.74,2.94,6.9.63,1.07,1.2,1.42,1.79,2.21.6.79,1.19,1.97,1.94,4.85.47,2.51.06,2.23-.58,1.38-.64-.84-1.5-2.24-1.85-1.68-1.07-1.92-1.9-3.92-2.67-5.92-.39-1.01-.77-2.01-1.17-3.04-.2-.51-.41-1.02-.62-1.54-.26-.61-.52-1.22-.79-1.85-.31.65-1.53-1.82-3.58-7.4-2.66-6.15,1.06,4.86-1.86-2.21-5.06-13.83-4.9-7.68-8.77-20.04-2.21-4.65.16,1.67-1.13.42-2.1-4.56-6.24-17.2-5.81-12.42,4.42,12.62,5.36,11.95,7.94,17.46,2.55,5.44,6.03,13.94,8.07,17.39.93,1.85,1.81,3.62,2.7,5.4.85,1.67,1.7,3.35,2.61,5.14,1.63,3.19,3.33,6.68,5.31,11.23,1.7,4.25.99-.38,3.07,5.31.04.05.03.16.11.16l.22.03.43.06.86.12c.57.07,1.13.17,1.69.21,1.12.07,2.22.21,3.31.21,1.08.02,2.15.05,3.2,0,.52-.02,1.04-.04,1.56-.06.52-.05,1.03-.09,1.54-.14,4.08-.39,7.93-1.21,11.73-2.42.94-.33,1.9-.62,2.84-.98.81-.34,2.03-.74,3.15-1.24.57-.24,1.14-.47,1.72-.71.57-.26,1.14-.53,1.72-.79,1.17-.51,2.33-1.13,3.52-1.72,2.37-1.24,4.82-2.61,7.33-4.21,2.52-1.57,5.11-3.37,7.79-5.39,3.59-3.22,8.11-7.49,12.21-12.21,4.13-4.7,7.83-9.82,10.3-14.12,1.39-1.88,2.31-3.12,3.34-4.5,1-1.47,2.11-3.11,3.69-5.86-.28-.26.67-2.25,1.9-4.62,1.21-2.4,2.63-5.26,3.42-7.13,3.71-9.25,4.69-14.44,8.49-25.09.63-2.67.98-4.78,1.78-7.82.8-3.03,2.02-6.95,4.49-13.27-1.66,1.57.18-4.51,2.07-10.16,1.89-5.64,3.73-10.78,1.21-6.97-.96,2.03-1.74,3.71-2.33,5.09-.58,1.37-1.01,2.46-1.33,3.34-.64,1.76-.87,2.69-.96,3.42-.2,1.45,0,2.13-1.92,6.99-1.75,5.92-4.02,10.02-7.01,17.78-.72,1.88-1.53,4.56-2.32,7-.81,2.4-1.6,4.55-2.26,5.39-2.39,5.16-3.07,7.16-3.68,8.94-.59,1.8-1.06,3.44-3.23,7.57-.93,1.72-1.88,3.25-2.7,4.79-.41.77-.81,1.51-1.21,2.25-.4.72-.8,1.42-1.19,2.12-.38.7-.75,1.4-1.12,2.08l-.54,1.03-.54.95c-.69,1.28-1.42,2.53-2.17,3.78-.62-.02-3.78,4.53-7.63,8.89-1.71,2.31-3.54,4.67-5.88,7.16-2.33,2.49-5.12,5.16-8.75,7.98-.97.86-1.67,1.47-2.23,2.04-.56.57-.99,1.06-1.5,1.55-1,1-2.21,2.16-5.22,3.94-3.16,1.09-7.78,3.28-12.77,5.05-.72.24-1.02.35-1.46.52-.45.17-.91.29-1.36.45-.91.32-1.84.55-2.75.82-1.84.46-3.65.88-5.29,1.09-.87.59.23.78,1.63.82,1.4.05,3.06-.09,3.25.26-.24.19-1.97.74-3.05,1.09-1.06.37-1.44.66,1.3.45.89.36-.47.75-1.9,1.11-1.42.34-2.9.61-2.03,1.05-4.57.09-7.08-.05-9.9-.28-.71-.05-1.43-.13-2.2-.26-.38-.06-.78-.12-1.2-.19-.26.03-.3-.22-.38-.42-.08-.2-.16-.41-.25-.62-.67-1.7-1.44-3.8-2.37-6.57,1.73,2.36,1.32-.19,1.71-1.58.58.86,1.3,2.31,2.03,3.92.18.4.36.82.55,1.24l.27.63c.12.18.11.51.41.47.95.12,1.87.31,2.74.37,3.48.35,5.88.15,4.16-.39-2.34-.11-2.69-1.55-4.73-1.06-.86-.09-1.8.08-1.85-.74-.24-.59-.43-1.15-.61-1.73-.37-1.16-.73-2.37-1.45-4.1-.83-1.95-1.68-3.32-2.62-5.06-.47-.87-.96-1.82-1.47-2.99-.77-1.84-1.61-3.97-2.51-6.53-1.82-3.54-2.58-3.31-5.2-9.69-.66-3.81-5-12.47-5.48-15.39,1.54,3.43,1.1.91,2.07,2.13,1.04,1.32,2.62,4.84,3.02,4.68,1.1-.43,1.21-1.14-1.76-10.94-1.77-5.26-2.31-5.32-3.23-7.49-.65-1.55-2.95-7.82-3.9-10.12-1.74-4.13-5.21-11.66-6.73-14.84-1.39-2.91-1.67-2-3.1-4.66-.4-.74-1.61-3.85-2.2-4.97-3.61-7.02-6.07-10.95-9.08-16.98-2.18-5.29-5.57-15.94-6.91-17.72-1.71-4.99.97,6.85-1.09,3.14-1.13-3.27-1.92-4.83-2.91-7.37-.98-2.54-2.22-6.04-3.94-13.27,1.52-1.13,4.15,2.38,6.59,5.39,2.51,3,4.81,5.49,5.54,2.44,2.88,8.63,5.45,10.53,3.52,1.79-.84-3.04-2.17-7.29-1.99-7.8-2.11-7.3-3.84-11.93-5.24-15.59-1.41-3.66-2.67-6.32-4.03-9.63-1.04.4.81,13.17-3.44-1.93-1.08-5.69.07-4.47-.36-8.17-.73-3.24-1.49-6.4-1.92-8.83-.42-2.43-.62-4.11-.4-4.36,1.29.14,2.24-.85,1.27-8.39-1.15-6.29-1.94-10.63-2.76-13.76-.81-3.14-1.43-5.09-2.05-6.63-1.23-3.08-2.38-4.51-3.76-10.55-1.42-6.39-1.25-11.49-2.28-21.19-1.6-6.4-3.35-8.04-4.49-21.12.7,1.39.92-.98,1.02-4.18.12-3.2.19-7.25.5-9.22,1.14.14,1.59-5.94,2.13-13.31.08-3.3.14-5.83.19-7.93.03-2.1,0-3.77-.03-5.33-.06-3.12-.26-5.82-.03-10.71.46-5.13,1.08-2.04,1.47-10.61,0-2.3-.35-2.34-.64-2.8-.14-.23-.27-.56-.33-1.34-.06-.77-.05-1.99.16-3.98.54-2.86,1.08-6.05,1.63-9.92.26-1.94.54-4.05.85-6.37.33-2.33.67-4.87,1.01-7.67,1.05-11.66-.28-11.53.65-21.7-.97,2.63-1.19.1-1.27-3.56-.1-3.67.07-8.48-.33-10.39-1.05-5.13-3.56-2.52-5.11-6.29-.22-.45.03-2.82.21-4.92.2-2.1.34-3.94-.14-3.36-.46.79-1.07,3.77-1.38,2.55.76-8.54-.87-7.62,0-16.62,4.42-10.35,5.27,3.07,7.86,4.05,1.49.57,3.72-4.01,3.83,3.38-.72,8.52-2.87,23.46-2.93,29.81,1.1-5.3,1.68-10.87,2.32-16.7.67-5.83,1.46-11.93,2.89-18.26,1.37,1.97,3.23-2.64,5.33-10.19,1.01-8.06,2.02-13.73,3.36-18.86-.95.93.82-7.53,1.06-10.95.14-1.95-.14-3.08-.08-5.58.23-7.56.35-15.38-.12-19.5-.34-3.03-1.44-2.69-1.79-5.83-.13-1.23-.06-3.94-.16-5.58-.08-1.29-.88-1.82.17-8.3,3.57,1.47,6.22,7.37,8.31,15.1,1.13-4.48,2.49-12.25,3.68-20.13,1.06-7.94,1.88-16.03,1.85-21.19.55-3.37,1.09-6.27,1.65-10,.28-1.87.55-3.94.83-6.39.24-2.46.43-5.3.63-8.67,0-.38,0-.75,0-1.12-.01-.19-.02-.37-.03-.55-.03-.36-.05-.7-.07-1.03-.05-.66-.11-1.28-.18-1.86-.13-1.15-.31-2.12-.53-2.95-.43-1.65-.94-2.71-1.49-3.43-1.11-1.49-2.43-1.45-3.68-3.27-.41-.59-.82-3.76-1.26-4.85-.5-1.21-1.07-1.67-1.66-2.17-.59-.51-1.19-1.05-1.74-2.65-.06-.16-.11-.36-.16-.59-.02-.11-.05-.23-.08-.36,0-.1.13-.11.19-.17.32-.2.7-.41,1.08-.62.76-.42,1.48-.83,1.5-1.09.11-1-2.35-1.47-2.43-2.39,4.02-1.61,4.11-2.67,4.66-3.8.57-1.13,1.65-2.35,8.51-4.47-.77,1.21.1,1.81.23,2.5.16.69-.4,1.48-3.51,2.95,1.97.14,2.39.97,1.9,2.02-.5,1.05-1.86,2.3-3.69,3.33,4.28,2.43,5.05,5.87,5.55,9.05,1.97-.27,3.69-.44,5.76-.77,1.03-.16,2.15-.36,3.43-.63.64-.14,1.32-.3,2.06-.46,1.28-.31,2.66-.65,4.15-1.01,8.07-2.3,11.84-4.19,15.48-5.86,2.18-1,.8-1.23,2.33-2.03,1.92-.99,8.99-2.71,7.72-3.04-5.81.51-4.37-2.1,4.56-4.52,5.1.21-2.31,4.15-1.46,5.77,3.51-.4,15.92-3.74,16.14-3.05,16.19-3.95,12.21-4.98,26.08-8.59,2.7,1.04-1.78,5.53-1.18,6.94,8.42-1.49,1.58.6,5.76.62,1.08-.2,2.12-.4,3.14-.6.49-.09.98-.18,1.46-.27l.67-.08c.89-.11,1.78-.22,2.72-.36,1.9-.28,4.04-.69,7.13-1.51,2.95-1.48,6.8-3.57,9.47-5.43.85-.6.58-1.17,1.26-1.77,1.05-.95,3.84-2.27,4.86-3.12,1.96-1.65,3.53-3.05,4.65-4.2,1.07-.91,1.96-1.97,2.68-2.94-.12,4.28.58,4.23,1.16,4.61,1.63,1.11,4.14-1.64,5.63-5.54.77,1.67,1.08,6.69,1.89,8.33l3.02-2.17c.95-1.43.37,8.28,1.2,7.88.35-.03.91-3.46,1.32-5.34.41-1.87.68-2.15.42,4.45-.43,6.2-.71,6.95-.94,6.26-.24-.69-.44-2.77-.74-2.43-.65.77-1.55,4.02-2.16,3.81-.97-.35-1.78-4.03-2.87-4.19-.89-.13-1.93,2.17-2.73,1.41-.67-.64-.99-3.87-1.69-3.69-1.01.23-2.04,1.68-3.05,3.76-1.01,2.08-2,4.79-2.95,7.7-.27,4.2-.58,7.65-.88,11.25-.18,2.43-.36,4.92-.56,7.63-.19,2.8-.37,5.83-.54,9.25.79,3.85,1.41,8.86,2.03,13.83,4.61,1.53,6.99,17.86,11.92,17.17.34,11.17,3.25,5.17,3.95,13.94.58-2.15,1.16-4.51,1.77-5.37.54,1.74-.11,11.44.76,11.01,1.13.01,2.45-1.29,1.72,11.06-1.83,2.46-2.54-7.25-4.31-.27-1.01-9.2-4.11.57-5.08-11.27-.67,1.62-1.33,3.86-2.08,2.62-1.73-4.01-3.78-11.28-5.38-14.04-.58-.99-1.26.56-1.92-.12-.82-.84-1.53-4.88-2.3-5.62-.4-.37-.92,2.7-1.37,2.66-1.85-.2-3.32-5.68-5.13,5.17-.13.75-.21,4.45-.34,5.46-.4,3.29-1.29,5.1-1.39,10.87-.17,11.77.6,13.53,1.39,16.52.27,1.05.41,4.91.62,5.52.37,1.04.94-2.96,1.13-2.67.31.5.08,5.13.38,5.5.5.62,2.01-8.52,1.51,2.83-2.31,7.48-4.63-10.14-7.38,10.5-.4,9.97-1.32,14.53-1.18,19.1.04,4.21.15,6.51.36,8.06.2,1.6.58,2.04,1,2.45.85.75,2.06.31,2.8,1.89.19.42.2,1.41.17,2.37-.04.96-.12,1.89.04,2.21.38.69,1.04.56,1.67.46.64-.1,1.25-.17,1.46.82.13.56-.18,2.18-.55,3.49-.35,1.31-.67,2.33-.03,1.82.14,1.42,1.72-.17,2.92-1.43-.58,1.85-1.33,3.52-1.93,4.88-.63,1.35-1.11,2.39-1.17,2.99.24,1.75-.11,3.94-1,6.39-.45,1.22-1.03,2.49-1.73,3.8-.35.64-.73,1.32-1.13,1.97-.37.62-.74,1.25-1.11,1.89-1.5,2.5-3.09,4.9-4.38,7.14-1.28,2.23-2.34,4.34-3.01,6.26-8.43,5.03.69,1.26-8.68,6.76-13.21-3.87,4.13-27.66-12.35-30.45-8.02,4.29-15.74,8.34-30.77,17.84-12.47,8.53-16.22,12.9-18.94,16.19-2.29,2.77-1.29,3.3-2.89,5.73-3.51,5.34-12.21,13.99-7.48,13.92-.76,1.01-4.7,3.61-4.02,3.89-.65,1.08,4.52-2.18,2.95-.41-1.8,1.71-6.71,4.97-6.22,5.53.53,2.41-7.66,9.19-6.04,11.05-7.35,6.66-12.46,13.22-7.98,13.1-10.44,6.04.72,1.25-6.23,5.53-8.3,4.57-5.4,1.41-5.79,1.03-.7-.69,1.22-2.81.94-3.68-.17-.54-2.83.37-3.21,0-2.16-2.03,3.83-9.37,2.2-12.07-.18-.3-3.07.93-2.96.42.22-1,3.13-3.62,3.52-4.71.37-1.03-1.36-.89-1.13-1.84.21-.86,3.31-3.52,3.65-4.5.23-.68-2.6.77-2.83.62-.37-.24,1.79-2.12,1.7-2.45-.67-2.27,1.59-5.94-.82-6.54-.68-.17-4.21,1.45-5.41,1.64-1.74.28.21-1.67-3.34-.2-7.85,4.36-16.33,9.18-28.31,16.62-10.19,7.61-15.12,12.58-17.5,16.27-2.37,3.68-2.24,6.09-2.39,8.64-5.76,4.44-1.68,3.49-2.92,5.63-.45.78-3.76,3.27-4.01,3.88-.41,1.06,1.3,1.06,1.14,2.11-.41.48-1.65,1.3-2.71,2.04-1.07.72-1.96,1.38-1.64,1.55-.7.95-.25,1.46-.96,2.4-.35.47-1,1.06-2.27,1.83-1.26.78-3.14,1.73-6,2.86-2.62.44-2.27-.21-1.25-1.07,1.02-.88,2.69-2.04,2.87-2.64.43-1.4-2.38-1.49-1.24-3.12.68-.96,3.97-3.04,4.14-3.87.15-.66-2.71-.04-3.08-.46-.21-.24,2.24-1.35,2.08-1.72-.37-.79-.89-1.38-1.11-2.4-.3-1.44.68-3.43.27-4.66-.2-.62-.75-1.05-1.95-1.14-1.19-.1-3.03.14-5.77.66-2.09.75-3.6,1.23-4.85,1.6-.62.18-1.18.35-1.71.5-.53.14-1.02.27-1.52.4-1.01.26-2.03.5-3.41.76-1.38.26-3.1.54-5.54.78-4.75.95-8.49,1.58-11.26,2.27-2.78.68-4.61,1.39-5.9,2.14-2.6,1.51-3.01,3.2-5.44,4.77-1.22.78-4.62,1.38-5.48,2.12-.68.58.96,1.1-.01,1.68-3.5,2.1-16.33,3.98-5.51,5.72-11.48.1-4.59,1.96-13.71,2.28-2.63.7,5.85,2.51-5.51,2.33-10.54-.67-2.37-1.68.03-2.4-3.15-1.41,2.06-2.89,2.8-4.53.45-1-.69-2.05.04-3.12.87-1.29,5.08-2.68,5.5-4.02.16-.51-2.66-1.14-2.72-1.71-.06-.6,3.01-1.32,2.75-1.89-.49-1.07-7.43-2.02-2.7-2.91-5.14-.73-10.46-1.43-16.27-2.15-5.11.01-8.34-.14-11.38-.31-3.04-.17-5.9-.33-10.23-.46-8.62.09-12.9.73-16.23,1.27-4.22.69-3.06.88-5.49,1.88-.91.37-4.88.56-5.45.89-1.33.77-3.01,2.15-2.87,2.48.14.32,3.3.52,2.67.88-.42.24-4.38.32-5.47.62-7.37,2.07-8.01,4.65-11.44,6.85.66.76-6.23.19-5.58.95-2.27.63,3.99,1.28,2.58,1.91-4.94,0-6.16.73-11.12.64.05,2.49-12.91,3.04-6.24,6.09-7.5-.78-5.1.4-11.25-.17-3.23-3.27-.06-5.86,4.27-8.36,2.17-1.26,4.63-2.46,6.76-3.77,2.13-1.31,3.94-2.67,4.8-4.12.2-.35-2.68-1.06-2.56-1.48.58-2.1,3.41-4.17,3.44-6.63-4.14-.79-10.87-1.95-18.46-3.17-7.57-1.23-16-2.59-23.59-3.82-7.79-.17-11.59.6-14.78,1.68-1.59.53-3.02,1.12-4.7,1.62-1.67.46-3.59.83-6.19.96.58,1.87-3.66,2.35-7.58,2.79-3.88.35-7.45.73-5.36,2.82-3.37-.71-5.73-1.02-7.52-1.12-1.78-.15-2.99-.05-4.09.1-2.19.3-3.89.82-8.67,0,.46,1.32-.91,1.86-3.48,1.25-2.22-.51-2.67-.2-3.76-.19-.55,0-1.25-.08-2.42-.38-.58-.15-1.28-.36-2.14-.64-.86-.27-1.86-.63-3.03-1.14.08-2.37.52-4.58,2.55-6.22,2.08-1.64,6.1-2.49,10.05-3.24,1.98-.38,3.95-.75,5.68-1.2,1.73-.46,3.26-1.08,4.3-1.83,1.98-1.44,1.18-3.83,1.98-5.67.23-.54,2.01-.57,2.34-1.05.17-.24-.02-.6-.93-1.2-.9-.61-2.56-1.37-5.22-2.69-2.73-1.11-5.28-2.13-7.73-3.09-2.41-1.03-4.72-2.01-7-2.99-1.14-.48-2.28-.96-3.43-1.44-1.15-.48-2.26-1.04-3.4-1.55-2.29-1.05-4.64-2.14-7.13-3.28-3.93-1.74-2.87-.73-5.14-1.35-.95-.26-2.5-.85-3.98-1.41-.74-.27-1.46-.54-2.07-.76-.6-.23-1.1-.42-1.41-.49-1.45-.35.65,1.38-.71,1.25-.95-.09-4.27-1.57-5.13-1.63-1.11-.08-1.88.01-3.02-.11-.89-.09-1.65-.12-2.28-.07-.62.03-1.1.12-1.46.29-.72.34-.94.96-.7,1.87-.28.38-6.32-3.77-5.03-2.15-1.13.8-3.91.34-6.69-.11-2.7-.56-5.41-1.1-6.45-.21-6.07-3.31-5.8-1.74-8.63-2.56-1.46-.42-3.94-1.55-5.62-2.1-1.61-.53-2.71-.57-4.26-1.02-1.54-.48-3.46-1.48-6.8-3.88-.11.98,4.14,5.92-3.47-.58-.57-.57-1.1-1.08-1.57-1.57-.45-.52-.86-.98-1.23-1.41-.74-.86-1.31-1.57-1.75-2.15-.88-1.16-1.23-1.82-1.29-2.2-.12-.75.94-.36,1.3-.6.7-.44,4.94,2.41,5.92,2.3.57-.06-1.72-2.53-1.33-2.74.28-.16,2.06,1.42,2.67,1.37,2.61-.23,3.48-2.39,6.37-2.56,1.31-.09,4.79,2.55,3.34.45-.61-.89,2.27,1.5,2.34,1.48,1.75-.29,1.11-2.48,2.57-2.86,4,2.74,5.83,2.99,6.83,2.71,1.02-.31,1.33-1.29,2.61-1.53,1.67-.31,4.72.29,6.46-.16,1.75-.45,2.21-1.95-1.1-6.31-1.1-.96-2.16-1.83-3.11-2.7-.92-.89-1.8-1.74-2.64-2.55-1.69-1.61-3.26-3.1-4.85-4.61-1.5-1.59-3.04-3.19-4.77-4.94-.85-.89-1.82-1.76-2.72-2.81-.91-1.03-1.88-2.13-2.92-3.31-1.02-.63-2.49-1.89-3.97-3.15-1.36-1.34-2.72-2.67-3.67-3.32-1.51-1.22-2.8-2.08-3.98-2.74-.6-.33-1.14-.63-1.64-.91-.51-.28-1.01-.54-1.51-.79-2-1.01-3.97-1.96-6.73-4.41-2.26-1.85,2.89,5.73,1.58,5.1-1.31-1.8-2.87-3.83-4.02-5.5-1.12-1.68-2.04-2.88-2.39-2.79.64,2.03,1.3,4.31,1.34,5.29-1.96-2.41-4.06-5.63-6.21-8.66.55,2.23.55,3.66-.62,3.35-2.5-4.33-1.74-1.5-2.16-1.92-1.53-1.61-2.56-3.72-3.43-4.38-1.86-1.44-3.32-1.65-3.04,1.44-.93-1.43-2.28-3.7-3.34-5.73-1.04-2.04-1.98-3.76-2.45-3.93,2.28,5.76-.5,1.49-.29,3.15-3.9-7.91-4.1-3.53-6.51-6.64-.56-1.29-1.13-2.59-1.71-3.92-.32-.76-.5-1.08-.72-1.57-.21-.45-.43-.91-.64-1.37-1-.33-1.98-.62-2.97-1.48-.99-.86-2.12-2.24-3.23-4.7-.26-.2-.22,1.24-.22,1.85,0,.62-.24.52-.91-2.65.58-1.25,1.3-2.07,2-2.64.7-.58,1.39-.91,1.84-1.38.41-.41.11-2.84.51-2.98.74-.26,2.05,2.09,2.87,2.11,1.8,0,3.69-1.76,4.95-1.52.66.14,1.28-.29,1.75-.82.49-.55.82-1.19.9-1.37.25-.59.65-.78,1.05-.87,1.02-.23,2.3.35,3.67,1.33,1.38.97,2.86,2.35,4.24,3.52,1.36,1.18,2.76,2.06,3.77,1.96.5-.05.92-.36,1.2-1.02.29-.67.41-1.69.5-3.26.02-.4.27.54.58,1.53.32.99.67,2.06.68,2.08,1.05.54,1.14-1.35,1.06-4.27-.02-2.94-.31-6.82-.34-9.73-.24-1.25-.5-2.61-.78-4.07-.14-.73-.29-1.49-.45-2.27-.1-.84-.21-1.71-.32-2.6-.47-3.56-1-7.51-1.57-11.8-.14-1.09-.32-2.12-.43-3.3-.09-1.22-.19-2.46-.28-3.72-.2-2.52-.4-5.11-.61-7.78-.11-1.33-.21-2.68-.32-4.04-.05-.68-.11-1.36-.17-2.05l-.08-1.03-.04-1.15c-.11-3.08-.23-6.22-.34-9.42-.19-3.56-.38-6.71-.57-9.5-.16-2.9-.31-5.5-.44-7.84-.29-4.57-.6-7.85-.92-10.34-.63-5.01-1.26-6.99-1.95-9.4-.09-.38-.51-9.02-.62-9.4-.22-.65-.45.75-.69,2.21-.24,1.47-.49,3.01-.74,2.82-.47-.4-.85-5.84-1.32-5.85-2.02-.27-4.06,1.49-5.85,5-.57,1.11-1.13,3.36-1.68,5.5-.55,2.15-1.09,4.18-1.61,5.11-.48.8-1.08-1.14-1.58.27-.59,1.67-1.19,6.68-1.76,8.44-.38,1.19-.75,2.06-1.12,2.82-.09.18-.18.36-.28.55l-.14.26c-.05.08-.06,0-.09.01-.11-.05-.21-.11-.32-.17-.41-.22-.79-.28-1.18.96-.01,0-.03.03-.04.08-.42,1.45-.74,4.54-1.12,5.98-.38-1.07-.89.13-1.38,1.82-.5,1.7-1.01,3.87-1.41,4.96-.24.67-.88,4.58-.8-.89.18-5.33.33-5.78.52-5.58.19.17.42,1.04.74-2.27,1.18-7.22,2.32-12.76,3.47-17.15.29-1.1.57-2.14.85-3.13.14-.48.28-.96.42-1.45l.21-.7c.03-.08.09-.33.14-.53l.15-.62c.94-3.83,1.86-7.61,2.7-11.04,1.98-8.14,4.29-18.19,6.14-28.78.92-5.27,1.7-10.63,2.2-15.68.42-4.89.86-10.14.83-14.63-.23-.13-.46-.25-.7-.35l-.37-.15c-.12-.05-.26-.07-.34-.22-.36-.48-.74-.94-1.12-1.39l-.57-.66-.07-.08-.02-.02s-.03.07-.05.1l-.11.24-.43.96c-.29.64-.57,1.27-.86,1.9-1.14,2.5-2.26,4.94-3.32,7.28-4.78,12.05-6.02,15.81-8.21,22.4-1.43,4.3-1.92,6.35-2.28,8.12-.35,1.77-.58,3.27-1.41,6.32-1.14,4.16-3.85,11.86-4.67,15.48-1.78,7.83-2.2,12.8-2.97,18.39-.74,5.54-1.81,11.66-4.33,20.5-.75,3.92,2.31-2.98,2.03-.46-1.54,4.68-2.84,8.91-3.21,11.55.02,5.19-1.41,12.8-2.56,19.71-1.18,6.99-2.07,13.29-1.76,17.75-1.21,4.41-1.54,7.45-1.72,10.24-.17,2.78-.2,5.32-.61,8.27-1.46,3.13-1.21.95-1.52.5-.65-.85-1.2-3.47-1.14-4.6.03-.57-.75,1.11-.75,1.11-.93-2.97-1.05-5.99-2.04-7.33-.53-.68-.67-2.31-.82-3.88-.16-1.56-.34-3.04-1.11-3.08.4-1.93.93-4.36,1.31-6.64.38-2.28.61-4.41.36-5.57-.16-.76-1.53,1.02-1.55-.04-.05-1.8,1.32-6.92,1.41-9.23.13-4.09.1-9.8-.18-11.57-.13-.88-1.75,1.57-1.73.35.1-4.78-.19-9.64-3.97-4.85-1.89,2.4-4.69,7.29-8.71,15.71-4.01,8.4-9.27,20.39-15.74,36.22-1.68,5.21-2.75,9.11-3.41,12.13-.39,1.65-.4,2.45-.45,3.36-.04.88-.02,1.65.03,2.34.22,2.76,1.08,4.25,1.58,6.5.38,1.66-.1,4.93.45,6.16.37.82,1.77-.4,1.98.86.2,1.21-.73,4.81-.43,5.78.39,1.26,1.94-.06,2.42,1.06,1.07,2.48.21,9.46,1.12,12.43.26.85,1.57-.31,1.76.77.33,1.85-.69,6.89-.43,8.77.4,2.81,1.83,3.77,1.99,6.84.1,1.77-1,6.27-1.08,8.48-.09,2.36,2.04.38-.87,8.57-3.46,5.86-2.63,1.73-3.51,1.45-3.74-1.17-3.43-9.1-5.95-11.56-.76-.74-2.86,1.79-3.73,1.36-1.15-.57-.51-5.2-1.33-6.55-1.34-2.22-3.23-2.07-3.96-4.71-.27-.96.79-5.12.43-5.78-.25-.45-1.8,2.32-2.19,2.02-2.83-2.1-3.9-8.72-13.4,6.08-4.88,10.14-6.93,16.27-12.26,27.47-1.68,5.94-3.71,13.19-3.71,16.28,0,1.17,1.31-.07,1.76.77,2.14,3.98,2.68,14.93,7.27,12.13-1.84,7.99.39,7.25,1.33,9.53,1,2.41.04,9.1.68,12.23.41,2.04,1.58,1.7,1.54,3.66-.02,1.34.13,2.08.23,3.08.17,1.79,1.73,1.03-.87,8.58-3.25-.03-7.87,1.56-10.33-1.53-.78-.99-.51-4.1-1.77-3.75-.84.23-2.37,2.27-2.85,1.73-.9-1.01.57-7.12-.02-8.96-.51-1.61-2.5-.43-3.3-1.44-2.29-2.94-3.32-7.56-7.26-6.16-1.5.54-3.5,2.34-7.24,8.78-5.62,12.86-7.51,16.3-12.04,27.57-3.01,10.96-.96,14.9,2.22,12.91-1.94,6.21.51,2.72,1.11,3.46.48.61.22,2.81.44,3.18.19.32,1.5-2.6,1.76-2.22,1.35,1.96.9,8.09,2.43,10.02.3.38,1.84-2.32,2.19-2.02,2.83,2.37.71,14.53,5.29,11.26-4.36,14.65,2.52,8.69-1.72,23.12-2.54,3.58-2.5,1.07-3.73,1.36-.93.21-2.76,2.23-3.3,1.55-3.06-3.94-8.65-4.22-11-10.78-.4-1.12.3-5.09-.23-6.07-.25-.46-2.01,2.11-2.42,1.93-.4-.18.18-2.71-.22-3.08-.33-.3-1.79,2.22-2.19,2.03-.32-.16.41-2.81,0-2.99-.37-.16-2.12,2.44-2.2,2.03-.12-.67,1.49-4.9,1.09-5.49-2.36-3.44-7.86-.73-15.8,13.99-3.98,9.65-7.35,15.84-8.76,20.04-6.7,18.28-1.54,14.8-2.6,22.74-.35,3.04,3.35-5.95,3.51-4.44-3.2,10.61,1.04,6.57,2.21,6.93,1.07.33-.19,5.63.67,6.26-.34,3.27,3.16-4.9,3.73-4.34-4.66,14.37-.49,11.04.25,15.02.15.81-1.01,4.64-.87,5.59.17,1.22,1.67-.53,1.76.77.08,1.22-.77,4.53-.65,5.68.11,1.11,3.7-4.28-.43,5.78-4.57,2.8-9.06,4.99-12.08,3.67-3.21-1.4-3.67-9.37-7.49-9.24-2.36.08-5.45,1.47-12.29,12.54-3.96,9.52-5.5,11.86-8.98,19.95-2.7,9.55.27,6.19,1.77,6.74,1.2.44,2.36,1.78,2.64,4.14.14,1.13-.92,4.92-.65,5.68.2.56,1.85-2.13,1.98-2.12,1.16.18-.61,7.66,3.3,1.44.9-.49-4.08,9.8-2.41,7.9,3.99-6.53,5.15-4.74.89,6.36-2.53,2.06-1.68-3.7-2.86-4.23-.42-.18-1.96,2.58-2.19,2.02-.38-.93.59-4.84.21-5.88-.56-1.54-3.66,2.4-1.98-3.85-3.56,6.61-2.07-.84-3.08-1.34-.59-.3-2.39,2.06-3.07,1.64-.8-.5-.96-3.98-2.3-4.37-.67-.19-1.63.39-3.11,2.5-.74,1.06-1.61,2.5-2.64,4.42-.25.48-.52.99-.8,1.53-.16.3-.34.61-.52.94-.33.6-.68,1.27-1.04,2.01-1.28,2.63-1.51,4.32-2.77,6.34-1.02,2.87-.75,3.91-.56,5.06.19,1.16.29,2.46-1.26,6.3-.78.05-1.11-.91-1.46-1.94-.35-1.05-.72-2.17-1.43-2.83-.95,1.31-1.79,2.25-2.74,3.71-.96,1.47-2.02,3.44-3.51,7.01-.76,2.05-1.28,3.8-1.68,5.31-.16,1.09-.44.62-.64.71-.21,0-.38.05-.55.08-.64.13-1.17.01-2.48-3.42-.84-2.08-1.77-3.62-2.82-5.12-.96-1.53-2.02-3.05-2.67-4.8-.79-1.66-.86-2.54-.95-3.42-.08-.89-.22-1.77-.97-3.52-1.51-3.67-2.73-7.45-3.8-11.27-.76-.6-1.53-1.05-2.29-1.61-.77-.53-1.53-.99-2.3-1.36-.77-.37-1.53-.67-2.29-.89-.76-.23-1.51-.35-2.28-.61-3.05-.83-5.89-.09-8.97-1.27-2.05-.79-4.62-4.17-6.75-6.48-2.17-2.29-4.07-3.48-4.97.43-.5-1.08-1.08-2.92-1.63-4.57-.52-1.65-1.01-3.11-1.43-3.41-1.59-2.6-1.16,3.73-2.98-5.23,1.59-5.46,5.35-.93,6.9-6.52,1.88,6.82,3.37,7.52,4.8,8.09,1.46.56,2.82.99,4.95,6.95,1.31-5.39,6.15,2.55,9.45,3.64.93.32,1.62-.59,2.35-.58.72.01,1.49.93,2.69,4.82.62-2.94,2.14-2.15,3.88-.33.43.45.88.98,1.33,1.52.22.27.45.55.67.83.12.17.21.22.31.26l.29.15c.76.4,1.48.72,2.12.85.07-.56.17-1.03.3-1.45.04-.1.07-.2.1-.3.02-.17.03-.44.04-.65.03-.44.06-.86.11-1.26.17-1.6.43-2.89.67-4.24-1.22-7.22-1.39-10.65-3.1-22.15-1.24-5.51-2.67-11.83-3.91-14.85-.69-1.64-1.3-1.19-1.93-1.48-.64-.29-1.28-1.32-1.95-5.97-.37-3.87-.4-6.5-.42-8.41,0-1.92.1-3.15.23-4.3.13-1.15.26-2.21.34-3.78.06-1.57.1-3.67.04-6.9.31-4.32.21-15.36.54-23.62-.3-12.33-1.79-14.36-2.63-21.4.89-9.03,2.11-4.07,3.09-10.53,1.68-16.75,1.75-23.76,2.15-35,.67-5.65,1.75-12.02,1.74-16.28-.96-1.3-1.19-9.04-2.1-11.18-.97-2.27-2.36-2.21-3.57-3.07-5.97-4.28-13.63.03-18.59-12.71-1.04-.05-2.14,13.48-3.17,13.43.06-9.25-2.38-4.72-3.31-8.54.65-4.01.91-6.84,1.01-10.89-1.68-1.46-3.65-1.29-4.26-8.64,4.39-9.81,6.51,4.44,10.32-7.29.35,1.61.06,6.82.93,5.58,9.06.68,15.2,5.13,22.7,2.1,1.06-4.26,2.13-10.92,3.17-13.43,1.74,2.26,4.59,2.31,6.69.62,2.53-2.04,4.48,8.82,7.46-10.29,1.23-11.65.25-11.17,1.3-21.85-.91-6.89-1.95-12.42-3.76-14.08-1.03-.94-2.66-3.05-3.09-3.04-.07,0-.82,2.92-1.21,2.64-1.27-.94-2.34-5-3.56-5.82-3.05-2.05-5.01-3.57-6.14-14.3-.58,4.03-1.14,3.87-1.7,5.34-.1-3.92-.45-6.42-.92-8.31-1.31,4.81-1.41-2.2-1.89-5.67-.84,2.43-1.76,4.28-1.42-2.88-.7-2.78-1.47,8.07-2.18,5.29,1.01-10-.11-8.32-.42-11.03-2.77,2.58-2.99-2.9-5.5-.51-.28-4.54-.97-8.29-2.38-2.96.33-5.39.04-7.32-.44-8.28-2.85,0-5.2-8.05-7.62-6.2-.32-9.16-1.54-11.85-3.54-8.56.71-8.82-1.35-2.35.32-16.45,4.6,2.66,7.39,14.08,12.38,9.39.07,3.2-.14,7.92.44,8.28,2.57-3.55,4.15,4.37,6.43,6.08.77.59,1.92-1.25,2.63.24.48,1.02.64,4.91,1.17,5.61.93,1.21,2.21-1.49,3.11.29.44.87.66,5.02,1.17,5.61.44.49,1.2-2.66,1.69-2.59,4.99.55,9.2,13.5,15.58-6.8,1.36-.17,2.7,2.44,4.09-5.11,2.12-18.77,1.51-22.58,2.56-35.47,2.69,3.31,5.42.38,8.3-34.94,1.04-43.61-9.59-17.75-13-31.42-.79-2.11-1.64,8.71-2.42,5.27.49-7.15-1.12-2.74-.43-11.02,2.06-2.09,3.3,4.5,5.26.49,1.2-2.45,2.52-10.85,3.65-13.39,4.17-1.4,7.17,4.22,10.51.97,1.13-7.16,2.57-24.98,3.03-32.69-1.23-20.94-6.14-16.17-10.42-20.19ZM1551.06,975.85c-1.04-.19.08-.8,1.93-1.72,1.79-.85,4.42-1.86,6.51-3.05,2.33-1.37,5.47-3.75,7.96-5.55.45-.34,1.26-.84,2.06-1.34.8-.5,1.56-1.04,1.97-1.37,3.91-3.2,7.1-6.32,8.73-8.54,2.72-2.53,4.85-4.84,6.65-7.01,1.82-2.15,3.29-4.19,4.71-6.2,1.38-2.04,2.71-4.07,4.07-6.34.7-1.13,1.39-2.32,2.13-3.59.74-1.27,1.52-2.76,2.4-4.28-.88.84-2.34,2.07-2.6,1.54-.13-.27.03-.97.71-2.38.33-.71.83-1.56,1.42-2.69.59-1.13,1.33-2.47,2.25-4.07,1.96-1.66-3.81,9.05.27,3,2.06-3.5,2.25-4.44,2.21-4.88-.05-.45-.38-.45.45-2.3.84-1.68,1.35-2.96,1.75-4.04.41-1.08.7-1.97,1.06-2.97.37-.98.74-2.13,1.37-3.64.62-1.52,1.47-3.42,2.65-6.11.46,1.43-2.93,9.69-2.2,10.44-2.69,6.65-5.49,12.69-8.14,18.08-.67,1.34-1.33,2.64-1.97,3.9-.64,1.24-1.25,2.38-1.86,3.51-1.24,2.23-2.41,4.3-3.52,6.16-5.1,6.78-9.19,11.37-13.54,15.77-4.4,4.31-9.13,8.51-16.58,12.86-1.49.98-3.17,1.9-4.39,2.67-1.23.72-2,1.28-1.69,1.47-1.11.53-2.24.95-3.36,1.43-1.13.43-2.26.85-3.4,1.25ZM699.08,599.76c.25-2.65.49-2.08.73-2.68,1.36-7.48.77,2.54,1.42,2.87,4.27-8.12,8.48-7.77,12.22-4.36,3.05,2.79,7.03-.35,9.54,3.63.44.69,1.12,1.5,1.42,2.87.16.71,1.02,1.09.2,8.26-7.47,4.07-13.32-7.96-20.31-1.88-1.01.87-1.85,2.79-2.9,5.22-.95-3.7-1.98-6.93-2.32-13.95ZM699.12,640.96c2.09,6.3,2.81,20.17,5.63,22.49-.88,9.04-1.81,7.44-2.43,8.02-2.22,2.06-3.93-5.96-4.73-11.42.44-5.08.69-9.12.53-10.94.34-4.41.66-4.67,1-8.15ZM739.25,205.25c2.02-11.61,4.96-9.8,5.51-2.24.79.92,1.6-.28,2.4-2.53.76,10.37,4.02,8.71,6.62,14.35,2.72,5.89,5.24,15.6,7.53,25.42.94,4.04,1.86,6.03,3.07,8.51.19.4,1.45-2.88.45,5.54-1.59-1.38-3.5,1.33-5.02-.46-.58-.68-.62-4.3-1.17-5.61-.51-1.21-1.4.7-1.91-.18-.49-.83-.71-4.45-1.17-5.58-1.01-2.53-2.13-3.41-3.32-5.81-1.59-3.18-4.37-3.84-5.93-8.79-.28-.88-.21-4.58-.45-5.54-.79-3.14-2.07-1.44-2.35-8.45-.78-3.42-1.63,7.39-2.42,5.28.57-11.12-2.05-4.77-1.84-13.92ZM727.27,357.94c.25-2.7.5-5.43.76-8.16,3.69-5.42,5.98.49,8.83,3.57.58.61,1.42-.87,1.91.18,1.04,2.2,1.6,8.33,2.58,11.21.94,2.77,2.39,1.47,2.83,8.5-.6,9.18-1.37,6.72-1.71,8.08-1.17,4.71-2.67-3.81-4.79,2.29-.77.22-.83-3.43-1.17-5.6-.55-2.1-1.15,7.44-1.7,5.33.33-9.85-2.35-3.13-2.83-8.49-.71-2.46-1.47,6.57-2.19,8.02-.74-.81-2.13,1.94-2.14-2.94.67-5.54,1.28-.65,1.97-10.8-.52-5.17-.96-10.75-2.33-11.21ZM694.51,839.8c-.63-6.14-.27-9.69.43-10.68.69-.99,1.51.54,2.07,4.58,1.47,10.17-.69,1.82.25,8.7-1.51-3.16-1.14,2.91-2.75-2.6ZM728.74,143.73c.18-.88.39-1.79.3-2.48.42-.47.82-.93,1.53-2.19.27,1.42-1.11,4.15-1.83,4.66ZM662.77,321.01c-.57,1.73-1.14,3.43-1.71,5.16-.04-.53-.55.94-1.09,2.51l-.46-.15c.77-2.18.72-2.47.63-2.66.57-1.73,1.14-3.43,1.71-5.16.04.53.55-.94,1.09-2.51l.46.15c-.77,2.18-.72,2.47-.63,2.66ZM723.72,448.25c.25-2.72.5-5.44.76-8.17.85,2.92,2.35,2.21,2.1,11.17.66-1.26,1.72-5.28,1.67.15-1.94,6.64-3.72.89-4.53-3.16ZM721.16,483.72c.34-4.41.66-4.67,1-8.15.63-.37.34,4.35.69,5.56-.59,6.01-1.12,1.06-1.69,2.59ZM704.93,674.46l.96.09c-.59,7.13-1.17,11.71-1.73,10.83.04-2.44.31-6.17.77-10.91ZM709.38,884.16c-.48-2.94-.83-6.02-.57-6.41.13-.2.41.26.9,1.71.24.73.54,1.7.89,2.97.17.64.36,1.34.58,2.13.21.79.5,1.66.78,2.62-.07,1.08-.76-.49-1.43-1.94-.59-1.43-1.15-2.75-1.16-1.08ZM754.7,975.02c-.62-2.56-1.72-6.52-1.81-8.95-.04-1.21.17-2.05.8-2.18.32-.07.73.04,1.29.37.57.33,1.28.87,2.14,1.66-.48-2.27-1.1-4.92-1.23-6.95-.14-2.04.2-3.47,1.52-3.52.3-.01-.03-1.2.36-1.21.19,0,.56.28,1.28,1.15.36.43.8,1.01,1.35,1.77.07.1.14.19.21.29.04.1.06,0,.09-.06l.08-.18c.11-.24.22-.48.34-.74.23-.5.49-1.05.77-1.65,2.08-3.8-.83,3.22-1.14,4.66-.06.49-.17.41-.26.5-.09.07-.17.16-.24.26-.14.2-.26.46-.34.76-.17.61-.24,1.41-.22,2.36.04,1.89.4,4.36.83,6.93l.16.97.08.48.06.26c.08.36.16.71.24,1.05.15.72.28,1.47.36,2.31.16,1.68.1,3.71-.48,6.51-.09.35-.23-.01-.35-.15-.12-.17-.24-.34-.36-.5-.23-.31-.45-.61-.65-.88-.41-.54-.76-.99-1.07-1.37-.62-.76-1.07-1.25-1.45-1.64-.77-.76-1.27-1.1-2.33-2.33ZM628.19,418.67l-1.59,5.22c-2.94,10.21-1.63,1.82-1.15-.35-1.32.11-2.3-.89-2.65-3.67-.81-6.31-.57-16.89-1.59-23.35-.87-5.4-2.99-6.8-1.96-17.8-2.34-1.85-1.49-11.43-2.99-15.31,4.27-9.11,4.68-4.55,5.4-1.17.24,1.13.6,1.85.78,3.13.15,1.07-.48,4.75-.26,5.66,1.1,4.69,4.26,3.33,2.09,14.98,2.08-3.99.69.87,1.83.57-.22,5.77.31,9.69.63,14.14.31,4.44.42,9.42-.6,17.32.85.66,2.73-4.34,2.06.63ZM636.63,389.88c-2.94,9.96-3.25,5.17-.33-2.94.8-.68.75.68.33,2.94ZM699.81,787.98c.04-4.05.71-.99.74-5.62,1.83-2.36,3.9,1.92,5.74,2.82.64.31,1.26-2.78,1.94-2.77,2.78.06,6.72,3.42,10.06,5.51.81.51,1.92.92,2.66,2.7.54,1.27,1.49,3.2,1.88,10.77-2.81,5.25-7.8,9.04-12.04,5.89-.52-.39-1.07-2.94-1.56-2.71-.79.37-1.22,4.7-1.92,5.64-1.64,2.21-3.36-3.95-4.92-2.59-.29-4.33-.12-5.68,0-7.03.14-1.35.23-2.71.09-7.02-.94-1.23-1.92-2.1-2.69-5.59ZM666.23,287.68c-2.85,9.17-4.44,11.39-3.49,7.47,2.19-6.85,3.14-8.41,3.49-7.47ZM728.44,921.95c-1.65-3.58-2.46-5.61-2.65-6.47-1.39-4.54,2.43,2.77,2.43,1.34,0-.63-2.31-6.58-1.64-7.48.41-.58,1.21-.06,2.18.52.95.6,1.98,1.33,2.73,1.43.78.1.49-2.5,1.34-2.26.64.18,2.59,3.62,3.15,3.42.17-.05.02-.9-.15-1.8-.16-.9-.31-1.85-.23-2.09.29-.75.99-.24,1.81.28.8.53,1.63,1.13,2.05.81,1.3-.97,2.24-2.74,3.13-4.49.89-1.76,1.73-3.49,2.72-4.69.96-1.2,2.15-1.92,3.54-1.85.69.04,1.45.26,2.33.66.87.41,1.79,1.04,2.9,1.85,1.09,1.98,1.77,3.36,2.13,4.4.35,1.05.38,1.76.23,2.27-.29,1.05-1.34,1.26-1.6,2.32-.46,1.97-.69,4.64-1.12,6.78-.43,2.12-1.07,3.68-2.53,3.08-2.34-2.8.32,1.72.83,3.8-2.55-1.59-3.18.15-2.13,4.69-1.67-1.68-2.25-1.37-2.56-.53-.32.83-.4,2.23-1.13,2.41-.24.09-.83-.66-1.44-1.43-.61-.77-1.25-1.56-1.54-1.68-1.78-.77-2.19,1.27-4.17.24-2.66-1.37-5.6-3.53-9.34-7.91.6,2.25.89,3.53.68,3.96-.19.4-.89-.02-1.94-1.6ZM664.64,287.14l-2.58,7.78c-2.2,3.46-1.08-3.12-2.1-3.58-1.03-.46-3,2.61-3.82,1.61-1.6-1.96-1.19-9.57-2.24-12.29,4.99-10.04,6.62-3.52,5.27,4.65,4.07-6.58,2.5,3.96,5.46,1.83ZM729.24,492.7c.86-8.7,2.13-6.09,1.18,2.86-.91,1.89-.61-2.86-1.18-2.86ZM734.8,432.79c.38-5.35,1.91-8.66,1.45-2.62-.68,9.84-1.48,4.74-1.45,2.62ZM1452.14,509.37c1.65-7.99,2.79-5.11,1.01,5.7.17-5.98-.87-1.31-1.01-5.7ZM803.62,873.87c-1.08,2.64-2,4.57-2.7,5.81-.18.31-.34.58-.48.81-.15.23-.31.49-.44.65-.26.35-.44.5-.54.45-.1-.05-.11-.28-.03-.71.04-.2.11-.49.18-.75.07-.26.16-.56.26-.9.44-1.36,1.23-3.35,2.43-5.93-.13,2.37,2.97-4.27,1.32.58ZM694.81,184.92c-2.77,6.54-1.51.8-1.81-.65-.26-1.3-2.72,1.6.96-8.37,1.58.12.69,4.12,3.16,1.14-1.59,4.39-2.22,6.72-2.32,7.88ZM746.64,357.01c.25-2.73.51-5.46.76-8.18.68.26,1.25,1.1.19,10.99-.88,2.19-.26-3.89-.94-2.81ZM882,684.29c-5.3,11.47-6.69,7.84-4.39,1.07,9.46-19.55-1,7.88,4.39-1.07ZM1625.81,498.24c-.42,9.46-1.44,9.74-1.54,5.38.52-5.54,1.41-11.1,1.54-5.38ZM1448.05,572.46c1.05-4.18.56,3.63.84,5.66-.71,5.28-1.5,6.97-1.84,5.79-.32-1.18-.25-5.25.99-11.44ZM1624.31,495.41c-.69,10.5-3.29,5.17-3.76,2.51,1.66-8.87,2.41-2.35,3.76-2.51ZM750.11,382.03c.33-2.42.66-4.85.98-5.4,2.12-.09,4.34-.73,4.74,8.66,1.51-3.73,2.91-7.26,2.85,3.01-1.06,11.92-1.44,2.59-1.93,2.57-.43-.02-.77,2.87-1.21,2.64-1.96-1.02-3.67-9.27-5.44-11.49ZM1446.24,746.86c.92.42,1.82,2.04,3.38,13.28l-1.19.19c-.97-7.65-1.35-6.95-2.19-13.47ZM878.91,679.96c-1.71,4.07-2.09,4.22-3.5,7.42-1.56,2.05-.22-2.49-.45-3.18-.17-.54-2.35,3.91-1.97,2.12.04-.18,1.97-5.11,1.97-5.11-.44-.51-2.62,2.53-3.08,1.64-.5-.99-.67-3.11-.45-6.16,3.74-9.13,2.89-4.03,2.19-2.03.36.93,3.15-5.37,3.51-4.44-3.21,11.08,3,3.23,1.78,9.73ZM719.94,722.51c.85-11.58,1.49-2.67,1.89-2.59-.58,6.07-1.26,1.01-1.89,2.59ZM1463.65,525.12c.45-2.7.89-5.41,1.34-8.1,1.48-5.31,2.32-1.92.56,8.41l-1.89-.31ZM1479.98,867.34c1.82,5.08.84-2.05,3.66,7.39-.49.72-1.14.73-3.66-7.39ZM765.97,925.29c-1.93,3.28-1.93,1.83-1.19-1.48,2.14-4.97,2.71-5.49,2.61-4.34-.1,1.15-.9,4.06-1.43,5.82ZM735.61,608.64c1.25-5.44,1.21,1.48,2.64-2.5-.92,8.36-1.78,6.42-2.68,10.74.23-3.93.24-6.68.04-8.24ZM1470.16,495.66c2.62-4.07,4.15,7.77-.12,30.52l-3.55-.59c1.75-12.03.52-12.11,3.67-29.93ZM752.9,445.47c.33-2.43.66-4.86.98-5.41.91,4.33,2.61,4.35,3.54,8.58-1.81,9.69-3.95,2.34-4.53-3.17ZM682.2,174.58c-1.83,4.44-3.63,8.81-3.91,7.34,3.32-9.87,5.09-11.84,3.91-7.34ZM759.69,377.44c.42-3.58.82-4.26,1.24-8.13.46-.29.19,3.39.7,2.81-.74,8.74-1.96,9.81-1.94,5.32ZM729.48,720.54c.58-9.78,1.43-4.71,1.42-2.61-.95,9.06-.55,1.31-1.42,2.61ZM759.86,391.17c1.06-10,2.05-8.08,2.42-5.27-.84,8.48-1.62,4.5-2.42,5.27ZM765.67,912.78c-.86,2.06-1.34,2.93-1.53,2.91-1.12.96-1.24-2.45-1.2-5.64.03-2.84-.49-5.69,1.37-9.14,1.78-4.54,1.37-.63,1.55.05.57,1.85.42,5.88.37,8.73.31.26-.59,2.38-.56,3.09ZM617.85,355.29c-1.82,5.9-2.94,8.24-3.12,7.55-.18-.69.62-4.4,2.82-10.52.8-.66.75.68.3,2.98ZM730.93,811.74c.32-4.1.46-9.57.95-13.26.61,3.48,1.52,2.32,2.35,2.5.41.09.8.52,1.12,2.03.35,1.5.63,4.07.85,8.45-1.07,5.53-3.43,8.7-5.27.28ZM757.63,456.88c.7-7.46,1.73-6.36,1.69-2.59-.59,6.03-1.12,1.07-1.69,2.59ZM766.12,383.52c-.92,8.22-1.83,15.69-2.71,16.23.16-9.01,1.86-17.58,2.71-16.23ZM744.2,612.19c.81-6.05,1.8-2,.93,5.58-1.03,2.08-.73-3.12-.93-5.58ZM1615.52,888.41c-1.17-1.94,7.6-19.48,0,0h0ZM766.58,386.3c.6-9.16,1.14-4.16,1.7-5.33-.71,9.45-1.74,9.68-1.7,5.33ZM762.41,457.32c.33-2.41.66-4.84.98-5.4,2.29,3.24,6.56-3.4,8.6.8.57,1.17,1.83.54.9,11.07-2.47-.5-3.63,2.39-6.23,2.17-.38,5.22-1,11.73-.29,10.96-1.52,6.07-3.1,1.03-1.6-13.88-.94-2.79-2.43,6.2-2.36-5.72Z"/>
      <path class="cls-2" d="M1486.03,896.91c2.33,1.57,9.35,15.71,19.39,42.3,2.45,6.74,1.62,1.68,4.52,9.96.83,4.27-3.03-5.58-4.97-9.79-2.19-4.82-3.73-7.04-7.52-17.58-1.81-4-2.1-2.32-4.15-7.21-2.08-5.57-2.71-8.24-2.07-7.94-2.46-6.06-1.42,1.52-5.21-9.74Z"/>
    </g>
  </g>
</svg>