<?xml version="1.0" encoding="UTF-8"?>
<svg id="Lager_2" data-name="Lager 2" xmlns="http://www.w3.org/2000/svg" viewBox="0 0 592.26 246.26">
  <defs>
    <style>
      .cls-1 {
        fill: #adadad;
      }
    </style>
  </defs>
  <g id="Lager_1-2" data-name="Lager 1">
    <g>
      <path class="cls-1" d="M48.03,57.16c.24-.18,1.49.32,2.15-.02,1.2-.6.05-2.62,2.64-1.91l.48,2.88,2-2.95,4.22,1.98c-.29-3.81,4.16-1.13,6.3-1.4,4.26-.52,12.52-4.76,15.29.46,2.54-1.01,2.12-1.69,2.93-3.91l8.12.07.47,2.86,3.85-3.83.48,2.88,6.22-2.93.5,1.95,2.32-2,5.34.09-1.91,1.9c2.5,1,4.65-1.84,6.23-1.88,2.43-.06,2.7.56,6.86.26,1.54-.11,2.97.91,4.5.72.5-.06,5.46-3.97,8.33-5.13,5.08-2.06,9.9-8.03,15.99-12.01,4.28-2.79,10.09-6.93,15.08-6.84l.58-2.93c1.73-.08,2.03-.48,1.93,1.44-.32,6.33-2.97,3.28-6.19,5.37-2.05,1.33-1.08,4.74-6.29,1.83-.32.33,1.63,2.96-.5,3.83-1.67.68-1.43-3.25-4.3-1.9l.87,3.69c-4.84,3.29-10.46,3.47-13.35,9.22-.57,1.14-1.36,1.81-.95,3.38l2.66-.46.12-1.97c1.78-1,9.78-.17,11.88.54,1.11.38.1,2.47,2.11,1.89l-.48-1.92c2.5.03,4.88.7,7.37.65,3.25-.07,8.54-1.72,11.32-1.73,1.99,0,4.13,1.25,5.75,1.08s2.73-1.91,2.91-1.91c1.07,0,.91,4.04,3.35,2.87l.46-2.86c1.26,1.31,3.35.54,4.62.97.86.29.63,3.24,2.54,1.81.65-.48,1.97-5.73,3.41,1.05l1.89-3.51c6.16-.91,18.59,2,23.83.43,3.91-1.17,2.76-9.95,5.32-13,.31-2.11-3.33-6.73-5.12-7.93-2.04-1.36-4.49-1.32-6.18-2.45-2.63-1.75-5.37-5.73-8.65-6.7-6.48-1.91-15.13-.85-19.86,4.18-1.68.05-3.44-.8-3.22-2.68h-.93c-.96,4.1-6.67,5.91-10.55,4.77.12,1.88.16,5.15-2.89,4.81,1.1-1.74.65-4.08,1.46-5.73,1.17-2.36,2.94-1.12,4.27-1.66,1.66-.66,8.32-4.29,9.1-4.11,1.42.33.77,3.91,3.39,2.88,0-1.5-.29-3.06.92-4.28.54-.54,13.67-3.45,14.83-3.39.56.02.55,1.52,1.31,1.88,2.25,1.07,2.33.15,5.67,1.96s3.98-.59,5.04,5.31c5.14-1.05,6.34,2.43,9.03,4.95.47.44,1.85,0,2.59.9,1.13,1.37,1.73,4.88,4.31,6.12l-3.4,14.36c3.73-2.04,6.31.64,8.37.78,1.2.09,5.46.22,6.41.17.61-.03.39-1.53,1.27-1.85,1.71-.63,4.11.24,6-1.97v3.84c2.6.32,2.43.04,3.36-1.93l4.41,2.46c6.31-3.63,7.54-11.42,12.36-16.41,6.74-6.97,32.82-27.33,41.35-31.54,1.89-.93,11.57-5,12.45-1.88-.31,3.06.33,6.43-.12,9.42-1.12,7.45-15.71,24.54-22.38,29.43l-7.29,9.48,14.85-.95,2.41,2.87.94-3.83,1.38,2.64,8.24-1.67-.98,1.9c3.69-.92,7.28.07,11,.03,6.88-.06,14.12-.69,21.05-.91,1-.03,2.25,1.12,3.46.87-.3-1.2-2.01-2.06.47-1.92s5.46,1.22,8.13,1.47c5.19.49,11.6.69,16.81.55,19.01-.5,36.3.67,55.65.96,7.91.12,7.51-.75,13.37-4,5.33-2.96,5.86-3.2,10.73-7.51.76-.67,2.78-.71,3.09-1.19.69-1.09-.35-4.96,1.03-6.91.55-.78,5.37-2.16,6.5-3.79s.99-4.98,2.17-6.71c1.05-1.54,4.22-1.72,4.08-5.27l10.85-3.66c1.85-.46,4.91,4.56,4.3,5.36-5.39-.17-5,3.54-7.74,6.21-1.37,1.33-6.25,3.31-6.51,3.61-.19.21-1.92,4.87-2.33,5.21-1.24,1.02-4.99,1.47-5.96,3.22-1.66,3.02-.42,4.99-4.75,8.7-2.02,1.74-8.28,3.27-10.91,4.88l-.17,2.7c13.97-1.56,28.81-3.99,42.77-4.69,3.19-.16,9.56.59,13.51.51,9.19-.2,21.26.7,30.26,2.56,2.19.45,2.25,3.02,5.55-.28l.96,1.91.53-2.94c2.16-.16,4.67.41,6.74.15,1.75-.22,1.24-1.71,2-1.93,1.44-.4,5.81.52,8.29-.28,1.47-.48,2.01-2.26,4.06-2.66,2.98-.58,5.43.87,7.65.76,4.25-.2,9.04-2.62,13.5.12,1.79,6.01.06,7.31-5.15,9.38-6.28,2.49-11.93,2.43-17.9,3.18-1.54.2-2.55,1.95-3.71,1.75-2.57-.43-2.02-3.98-4.98,3.03l-1.95-2.95-34.37-.07-1.58-4.65,15.36-.02c-.36-1.74-1.89-1.79-3.32-1.95-6.88-.74-17.43-1.66-24.17-1.6-13.54.13-29,1.65-42.75,2.87-2.73.24-6.55,1.52-9.01,1.54s-8.3-1.99-9.44-1.7c-1.71.44-.47,4.42-4.35,1.81.99,5.17-1.34,3.11-3.42,4.74-1.65,1.3-7.51,5.66-8.6,6.74-1.59,1.58-3.53,4.57-4.3,6.74l-2.85-3.82-1.96,3.35,1.93,1.91-4.02,4.12-1.72-.77-2.42,5.76-3.34-1.9c1.6,3.48-1.31,5.97-4.5,6.39-1.37.18-2.84-.77-4.13-.65,0,2.37.74,5.63-.14,8.5-.97.48-5.78,2.77-6.29,3.24-.83.78-.64,2.07-1.24,2.93-.65.94-3.42.59-1.49,3.59s10.83-.44,13.85-1.58c5.49-2.08,10.75-5.36,15.95-8.06l2.38,1.92c-2.94-5.93,2.32-4.42,5.01-5.82,6.05-3.16,12.35-10.76,18.27-13.63,6.86-3.32,14.18-2.89,16.16,5.57.1,2.2-4.22,3.2-4.58,3.6-1.77,1.99-1.45,6.69-7.03,5.5l-.96-8.63c.5-.44,7.57,2.07,6.71-1.92-4.9.38-11.39-.12-9.6,6.7l-1.49-1.97c-4.55-.29-3.96,3.19-4.86,3.96-1.02.87-3.71.92-4.87,2.16-.46.49-2.5,4.38-3.18,5.45l-1.41-1.92-2.41.98.96,3.82-3.84.48c1.19,2.52,8.48,3.35,10.59,2.79,1.39-.37,5.29-3.9,7.39-4.94,6.16-3.06,11.64-6.5,17.97-9.86,1.15-.61,1.81-1.32,3.38-.93-.02,2.48.4,5.08-.7,7.45-1.32,2.85-12.99,7.92-2.78,8.88,1.23-2.3,3.71-3.56,6.36-3.85l-2.87,5.74,4.79-1.91v1.9s-7.76,1.42-7.76,1.42l.09,2.42c-.47.27-7.97-4.11-8.71-5.2-1.42-2.1-.92-3.17.07-5.33-3.94.14-6.77,4.92-11.51,3.84l3.83,2.86c-1.5.71-5.16-.17-6.07.1-.72.21-.63,1.54-1.39,1.74-2.25.6-5.96,1.51-8.15.87-.42-.12-5.83-5.43-6.08-5.81-.79-1.24.19-6.45-1.8-5.51l-2.9,2.87c-.98-1.33.18-2.43-2.38-1.92-.06,6.85-3.07,7.32-8.64,4.81l-.97,3.31c-4.67.03-8.53,4.49-12.99,4.42-1.59-.02-6.47-4.37-7.65-5.87s-.97-3.89-1.42-5.71c-1.79,2.52-4.53.79-5.75,1.39-1.29.64-1.51,2.82-2.13,3.19-1.13.67-6.48.71-8.42,2.16l.96,2.85c-5.1-2.15-3.88.06-5.54.92s-3.88-1.26-4.06,3.89l-3.82-.96.95,2.86c-4.4.17-6.65-4.43-10.4-5.94l.8-8.44c-2.58-.6-2.55,2.64-3.84,3.36-2.36,1.31-9.12,3.12-12.17,4.62-.47.23-.8,1.73-1.91,2.38-5.71,3.36-9.97-4.12-9.09-9.25l-3.68-1.11.95,4.79c-2.5.33-2.44.09-3.35-1.91-.79,4.94-8.72,4.84-9.14,5.21-.99.85-.46,2.83-1.61,3.45-5.07,2.76-10.87,1.67-13.25-3.93-2.18-5.13,4.09-8.61,6.27-11.22,2.29-2.75,6.61-10.4-.07-6.25-2.82,1.75-3.82,4.33-5.44,6.08-2.01,2.17-8.92.42-7.95,5.69l-3.82-1.91.95,4.79-3.17-2.76-2.43,1-.62,3.67-2.34-3.37c2.22-3,6.22-2.91,8.93-4.42,2.93-1.62,7.24-5.71,9.82-7.4,3.32-2.17,6.64-2.92,9.49-5.89l3.34,2.86c-.76-4.37.45-5.31,4.31-6.73l1.44,1.44c.61,4.11-3.77,13.23-8.63,12.01l.97,2.86-2.9.49,1.92,1.43c-3.43.57-4,5.6-7.66,4.81-.83,5.79,5.82,3.54,9.37,2.2,5.16-1.96,23.23-10.49,28.27-13.75,6.98-4.52,18.7-18.75,21.85-.92l4.77-2.87c4.66,8.53-10.07,10.25-5.79,17.8,2.94,5.19,8.18-1.51,10.86-2.68,6.2-2.7,15.55-5.64,21.53-9.17,3.68-2.16,11.71-10.37,15.63-10.75,0-.86-.29-1.97.18-2.68.28-.41,6.56-4.46,8.02-5.89,2.78-2.74,8.31-10.25,11.06-11.94,1.71-1.06,4.95-1.22,5.48-1.76.65-.66.35-3.02,1.43-4.34,1.46-1.78,7.91-4.49,9.33-6.96l-21.46.04-1.02-1.87c-36.13,2.36-72.47-.44-108.54-.1-6.21.06-15.66-.62-21.1-.11-1.89.18-1.24,2.09-1.87,2.06-1.3-.06-2.44-1.69-4.73-2.01-2.54-.35-16.09-.36-18.09.25-2.61.79-7.5,7.21-9.91,9.24-15.37,12.94-29.16,25.2-43.95,38.6-2.65,2.41-3.76,6.64.86,4.8,11.88-4.74,21.69-6.04,33.36-14.49,2.16-1.56,3.74-5.1,6.45-6.23,1.94-.81,7.6-1.43,9.65-.73,3.54,1.22,3.59,5.13,7.17,6.06,4.04-.63-2.34-.87-.46-2.9.15-.16,1.73.58,2.87.35,2.9-.59,1.32-2.95,4.78,1.56-.22-3.97,7.4-4.39,7.56-1.44.03.5-1.31,1.63-1.37,2.83-.08,1.4,1.03,3,.45,4.72-.39,1.17-2.14,1.22-2.51,1.82-.96,1.56-2.7,6.9-3.63,8.38-.45.71-1.57.87-2.38.97l.48,1.91h4.32s0,3.83,0,3.83l-4.39-.72-2.8,2.66-2.4-2.39c2.69-8.52,11.53-16.34,10.07-25.46l-1.05,2.99c-4.31.61-11.82-.05-11.91,5.66l-3.82-.96.95,4.79-2.85-.56c-2.85,6.45-9.14,8.4-13.94,13.02l-1.41-4.76c.81-.02,1.83.12,2.51-.34,3.73-2.54,8.76-7.92,12.81-10.72.09-2.12-9.31.5-10.52-2.4.88,3.74-6.56,6.25-9.59,5.76l.96,3.83-2.76.08-1.08,6.64c6.18-1.33,7.95-4.91,5.72,3.85-4.15-1.7-3.79,1.2-6.17,1.89-4.18-2.7-4.31-7.19-2.43-11.48-3.5-1.33-7.92,2.5-10.24,2.67s-2.54-.4-6.51.09c-.79.1-2.25-1.06-2.44-.86-.14.15.28,1.72-.25,2.58-1.49,2.42-12.57,2.21-15.82,5.41-.46.45-.04,1.96-.88,2.63-13.69,10.91-32.34,27.43-44.98,40.22-2.02,2.05-3.11,8.26-7.06,5.81-5.36,7.74-14.03,16.01-21.11,22.58-1.3,1.2-5.5,2.71-6.53,4.53-1.76,3.08-1.66,3.73-5.01,6.96-7.35,7.09-14.06,13.86-21.63,20.63-10.63,9.51-22.21,16.99-34.56,23.93l.47-2.41-1.89-.46c.05,6.19-7.58,4.13-12,5.02-.56.11-.43,1.49-1.19,1.62-2.8.49-14.96,1.56-16.91.97-1.11-.34-1.51-1.74-1.59-2.81l-3.33,1.95c-.48,0-.23-1.39-1.23-1.9-4.97-2.54-10.74-4.51-13.89-10.86-1.14-2.29-2.6-5.02-1.68-7.41l-2.87.95c2.22-7.96-1.77-21.52.88-29.25.54-1.58,1.94-2.83,2.48-4.31,6.79-18.52,17.26-31.66,29.89-47.39,2.92-3.64,15.81-20.64,18.84-22.38,1.01-.58,2.73.07,3.38-.44.3-.23,1.92-5.02,3.59-6.58.83-.77,2.33-1.03,4.25-3.56,3.44-4.52,11.81-13.62,17.28-15.59.19-.79-.17-1.98,0-2.88,4.01.85,3.42,1.64,0,2.88-1.38,5.75-4.57,6.02-8.27,9.95-3.47,3.69-13.36,16.71-17.13,18.91-1.34.78-3.1-.42-3.9.87-.46.75.67,1.88.33,2.65-.32.72-8.59,9.94-10.02,11.71-12.66,15.73-26.48,30.47-34.63,50.65-4.89,12.1-5.33,22.28-1.92,35,2.81,10.49,13.69,16.73,24.27,17.07,23.93.75,45.09-16.46,61.3-31.75,31.66-29.87,66.56-61.87,97.39-92.81,2.98-2.99,3.98-6.58,8.65-8.34l-6.31-1.36-6.58-6.75c-12.1,9.83-22.76,22.76-37.95,27.79l1.91,1.42c-.85,1.33-2.75,1.19-3.74,2.02-7.33,6.05-11.14,8.76-20.46,11.19-1.81.47-6.5,2.91-7.87,2.54-1.5-.4-.83-3.03-2.45-2.79l-.5,2.89c-.81.13-8.02-2.61-8.81-3.19-1.09-.79-8.83-13.66-8.93-14.58-.05-.51,1.26-9.66,1.53-10.09.23-.37,3.87-5.4,4.39-6.06,8.72-11.01,41.89-29.76,55.39-36.71,7.17-3.69,8.75-8.18,18.03-2.47,7.75,4.77,7.6,13.18,11.33,20.3.84-1.51,6.11-4.07,6.33-4.39.66-.99.37-3.11,1.1-4,.61-.74,2.49-.57,3.34-1.45,4.06-4.2,7.44-9.93,11.75-13.9l11.54-17.49c-12.96.17-25.93.26-38.85.53-8,.16-16.06,1.19-24.03,1.4-10.84.29-19.94-2.45-30.86,2.21-.65.28-2.55,4.49-6.02,1.13l3.34-3.36c-15.93,1.47-32.26-.38-47.85,3.91l-1.07-2.02c-3.76,3.22-4.13.52-5.76.36-1.26-.12-2.63,2.04-3.96,2.27-2.16.39-6.6-1.77-8.43-1.66-.59.04-.45,1.75-1.19,1.92-5.86,1.39-15.79-.61-21.93.19-5.05.65-9.15,1.04-15.36,1.24-2.14.07-5.34,3.07-6.2-.46,1.84-.7,2.84-.45,4.8-1.92,1.13-.85,1.88-1.21,1.94-2.87h1.88s1.47,2.88,1.47,2.88l5.78-2.87-.51,2.86,3.35-2.85.48,2.85h2.88s-.96-2.86-.96-2.86c3.63-.74,2.19,2.89,6.1,1.9.68-.17.58-1.53,1.08-1.68,2.44-.74,6.11.51,7.7,2.65l.47-1.92ZM323.37,5.37c-4.5-1.63-8.62,1.13-12.49,3.33-7.7,4.37-14.73,10.83-21.54,15.87-1.9,1.4-5.01,2.47-6.75,4.77l-1.42-1.91c1.15,4.26-3.11,5.17-5.33,7.64-3.4,3.77-6.53,7.68-8.72,11.81-.48.91-.4,1.66-.34,2.6,3.61-.81,4.96-1.24,8.13.98l1.93-2.88c4.19,4.59,7.86,1.36,13.01,2.39,8.5-8.3,15.84-16.45,23-25.91,2.38-3.15,6.34-7.16,8.21-10.9.59-1.17,2.64-7.45,2.32-7.79ZM475.9,28.38v-1.91h-.94v1.91h.94ZM475.91,29.35c-2.3-.38-4.08.45-3.83,2.87l3.83-2.87ZM465.35,44.68l-1.44-1.89-1.43,1.42,2.87.47ZM570.87,47.57v-1.91h-.94v1.91h.94ZM588.11,48.59c-1.76-.64-3.31-.96-5.21-1.02-6.65-.23-30.7,4.1-36.95,6.26-1.04.36-3.85,1.07-3.85,2.37,8.67-1.91,16.76.78,25.3-.11,6.6-.69,14.03-3.82,20.75-4.69l-.04-2.8ZM255.25,53.33c-4.3-1.34-18.45,1.05-21.49-.21-1.6-.67-1.2-2.73-2.01-2.69-.08,4.89-3.07,1.85-6.25,3.36-2.01.96-8.97,15.5-10.81,18.44-6.44,4.59-11.38,12.59-17.46,18.55-2.82,2.77-9.89,6.13-10.1,10.12-.31,5.85,10.34,7.48,14.14,4.93.8-.53,1.26-2.82,2.17-3.81,13.6-14.83,31.42-29.39,47.06-42.42l4.75-6.27ZM64.33,58.12v-1.91h-.94v1.91h.94ZM438.49,61.96l-.47-1.91-1.44,1.9h1.91ZM175.06,78.83c-2.49-2.51-2.76-3.48-6.96-3.86-4.81-.43-4.98,3.27-9.7,2.42l-.09,2.77c-3.21-1.62-3.41,1.33-4.5,1.93-2.6,1.42-8.6,5.42-10.15,6.06-1.87.78-3.42-.44-3.53-.3-.19.25.47,1.8-.63,2.96-1.29,1.35-9.12,5.85-11.63,7.61-11.93,8.38-38.13,22.48-24.55,40.2,3.73,4.86,12.25,5.14,17.9,3.73,2.98-.75,4.42-4.43,8.34-1.71v-2.89s2.88.98,2.88.98c-.27-5.89,3.97-3.82,6.48-5.08.76-.38,3.84-4.91,5.08-5.91,10.42-8.38,24.7-18.4,35.23-25.84.62-.44,3.49-3.65,3.88-4.68.21-3.52-2.47-4.72-2.5-5.02-.06-.69.97-1.73.38-3.35-1.45-3.95-3.03-7.1-5.92-10.01ZM421.22,75.4h-1.91s0,1.91,0,1.91l1.91-1.91ZM417.38,79.23h-1.91v1.91h1.91v-1.91ZM261.96,87.87l-8.07,1.82-.55,2.96,8.62-4.78ZM195.77,88.83h-1.91v.94h1.91v-.94ZM262.93,93.61l-1.91-1.91v1.91s1.91,0,1.91,0ZM260.04,92.67h-1.91v.94h1.91v-.94ZM350.22,93.61c-3.05-.64-1.69,1.92-1.91,3.85-4.82-1.36-4.62,1.72-5.98,2.69-.47.34-1.74-.47-2.63-.13-3.4,1.3-4.13,3.36-7.26,4.11l.54,2.91h-2.89s1.91,1.91,1.91,1.91l-2.87,1.92c2.95-.74,7.21-.39,9.87-.98.54-.12,7.52-4.77,9.16-5.61,1.86-.95,11.36-4.22,8.78-6.83h-6.72s0-3.85,0-3.85ZM432.73,94.58h-1.9s-1.94,3.82-1.94,3.82c3,.45,4.27-.92,3.83-3.82ZM437.53,97.45l-.47-1.91-1.44,1.9h1.91ZM464.39,95.55h-1.91s0,1.91,0,1.91l1.91-1.91ZM462.47,98.43l-2.87.47,1.43,1.42,1.44-1.89ZM237.02,102.25l-.47-2.87-1.43,1.45v1.42s1.9,0,1.9,0ZM230.31,101.3c-1.2-.64-3.34,1.53-2.88,1.9,1.2.64,3.34-1.53,2.88-1.9ZM420.26,102.26h-1.9s-.97,3.83-.97,3.83l2.85-1.93.02-1.89ZM328.15,105.13v-1.91h-.94v1.91h.94ZM450.96,105.12l-1.91-1.91v1.91s1.91,0,1.91,0ZM207.28,107.06h-1.91v1.91h1.91v-1.91ZM440.4,108.98l-5.74-.96c-1.33.6,4.16,2.65,5.74,1.9v-.94ZM170.82,109.93h-1.91v1.91h1.91v-1.91ZM164.11,116.65h-1.91s0,1.91,0,1.91l1.91-1.91ZM135.33,137.76h-1.91v.94h1.91v-.94Z"/>
      <path class="cls-1" d="M536.28,85.06c.08,2.71,2.01,5.72,1.35,8.38-.73,2.94-14.51,14.09-3.82,13.54,7.3-.37,15.62-2.52,22.14-5.75l2.51,4.34c-3.38,3.45-8.45,4.36-13.14,5.26-1.78.34-3.5-.63-4.68-.48-2.84.38-2.11,3.11-8.28,1.17-7.66-2.4-8.33-8.68-4.1-14.97,1.98-2.94,6.19-4.23,5.21-8.7l-2.39,2.88-2.4-2.88.41,1.94-2.15,1.09.79,1.75c-4.82-.25-5.39.91-7.21,4.8l-.95-2.87c-1.54.84-1.25,3.65-2.35,4.36-1.43.93-4.12-.04-4.75.58-.31.31.19,1.85-.33,2.48-.35.42-8.65,4.83-9.69,5.28-2.02.87-4.3-.54-5.91,2.63-1.82-3.56-4.39-.12-3.13-6.01s8.15-8.74,9.36-14.13c-2.66.19-4.66,4.69-6.06,5.43-5.17,2.71-10.84,5.32-16.28,8.01-1.19.59-1.87,3.45-6.43,1.9,1.02-5.32,4.9-6.58,9.58-4.78.11-5.25,2.75-3,4.54-4.11,2.96-1.83,8.36-5.76,11.42-7.29.96-.48,6.15-2.65,6.84-2.79,4.94-1.03,3.45,6.71,1.06,9.73-1.23,1.56-6.29,3.78-2.75,6.37.03-1.04-.36-2.16.61-2.97,3.46-2.89,21.88-12.79,26.19-13.88,1.56-.39,3.2-.67,4.8-.34ZM524.83,90.75h-2.87v.94h2.87v-.94ZM510.44,99.38h-1.91s0,1.91,0,1.91l1.91-1.91ZM478.78,102.26h-1.91v.94h1.91v-.94ZM503.72,104.18h-1.91v.94h1.91v-.94Z"/>
    </g>
  </g>
</svg>