<?xml version="1.0" encoding="UTF-8"?>
<svg id="Lager_2" data-name="Lager 2" xmlns="http://www.w3.org/2000/svg" viewBox="0 0 1536.82 502.1">
  <defs>
    <style>
      .cls-1 {
        fill: #adadad;
        fill-rule: evenodd;
      }
    </style>
  </defs>
  <g id="Lager_1-2" data-name="Lager 1">
    <path class="cls-1" d="M1048.43,205.04c-.82.07,6.91,2.89,7.62,3.02,1.58.27,2.88-1.01,5.21-.61,2.98.51,4.73,1.74,11.01,2.91,4.89.89,10.1.43,16.47,1.25,2.96.38,6.83,1.7,11.14,2.36.05,0,1.06.17,2.16.36,1.1.18,2.29.36,2.69.39.51.04,1.43-.59,1.81-.53,2.41.37,5.47,1.66,7.87,2.02,3.05.46,5.28.15,8.23.58.74.11,3.72.42,3.27.31,1.25.28,1.47.97,3.04,1.25,4.15.74,10.89,1.33,17.81,2.42,6.96,1.08,12.82,2.32,20.83,3.65,2.1.34,4.48.1,4.97.19,2.69.53,5.29,1.88,7.78,2.35,6.4,1.19,17.74,2.01,25.49,5.07,1.86.73,1.99,2.62,4.19,3.46.28.11,3.13.68,3.16.74.45,1.04-12.86,2.62-15.65,2.7-3.29.09-8.7-.58-13.2-.68-1.19-.02-1.59-.13-3.28-.28.12.01-3.09-.29-3.28-.29-1.83.03-1.93,1.16-3.61,1.11-3.01-.09-6.86-1.26-9.72-1.33-2.51-.05-4.44.33-6.78.32-1.3,0-3.4-.68-4.85-.71-.56-.01.29.91-.23.93-.58.02-2.51-.77-3.16-.78-4.97-.12-9.73-.27-13.46.14,6.13,2.75,12.1,2.72,17.63,3.37,8.88,1.07,16.65,1.94,27.71,3.21,3.17.36,6,.53,11.42,1.24,5.29.69,10.01,1.01,16.27,1.9.92.13,2.09-.11,3.28.26,2.55.79,1.42.46,6.45.98,5.36.55,9.15,2.79,7.29,4.62-2.15,2.09-20.97-1.47-20.13.3,1.44,3.15,19.34,3.28,22.55,3.7,6.05.78,10.76,2.22,12.81,2.43,1.28.14,2.13-.23,3.39-.21,3,.04,7.67.59,12.73,1.16,5.06.56,10.5,1.21,15.01,1.58,10.48.82,30.25,3.87,43.63,6.02,1.76,1.16-.46,2.19.9,3.62,3.13,3.32-8.04,1.89-12.45,3.76.32.6,3.95,1.42,6.28,1.81,3.24.55,3.36-.13,4.98.07,3.96.47,8.31,1.31,12.95,1.74,1.6.15,2.95-.15,4.98.07,2.89.31,4.29.66,6.47.87,3.47.33,6.79.25,9.85.59,4.2.45,8.74,1.65,12.86,2.1,3.58.39,8.98.8,13.05,1.15,4.55.41,10.31.46,13.04,1.16,6.06,1.54-.32,1.07,2.91,2.05,5.69,1.09-.18-1.38,6.75-.61,3.4.36,16,3.93,18.9,5.1.97.39,3.38,1.51,4.52,2.34,2.73,1.98-1.21,3.58,2.2,5.8,1.39.9,4.3,1.8,7.73,2.95,3.04,1.01,8.01,3.29,14.23,3.68,3.28.22.78-.6,4.9.41,1.96.48,12.38,1.12,16.29,1.52,1.73.18,3.3.42,4.86.66.78.11,1.56.23,2.36.35.4.05.81.1,1.22.15.41.05.87.1,1.14.11.65.04,2-.56,2.42-.53,1.04.06,2.35.56,3.38.62,4.51.27,11.9.94,17.43,1.11.5.02.82-.78,1.13-.78,1.52,0,4.25.78,5.32.44.93-.33,3.27.51,5.99.55.05,0,.09,0,.13,0h.03s-.03-.06-.03-.06l-.07-.12c-.11-.17-.22-.34-.33-.51-.26-.37-.52-.75-.78-1.12-.53-.74-1.03-1.41-1.2-1.73-1.33-2.44-2.3-4.61-3.36-6.97-1.04-2.35-2.16-4.89-3.64-7.76-.57-1.1-1.82-2.33-2.45-3.41-.91-1.57-1.72-3.1-2.38-4.56-.31-.69-.66-1.53-.95-2.3-.29-.77-.53-1.52-.73-2.25-.43-1.54-.45-2.46-.86-4.7-.24-1.84-.1-3.2.55-3.88.5-.52,2.11-.15,4.37,1.65.42.32,1.03,1.07,1.58,1.69.51.51,1.05,1.08,1.52,1.48.94.79,1.63.93,1.17-1.72-.07-.36-.13-.71-.25-1.16-.13-.48-.29-1-.45-1.53-.34-1.07-.74-2.23-1.19-3.46-.91-2.47-2.01-5.22-3.25-8.08-2.47-5.72-5.39-11.87-7.99-17.05-1.29-2.58-2.31-3.48-4.2-7.03.29.55.3-1.14-.23-1.68-.7-.71-1.65-2.19-2.74-4.14-.5-.92-1.06-1.93-1.65-3.02-.49-.91-1.01-1.88-1.54-2.87-1.01-1.96-2.08-4.03-3.09-5.98-.97-1.85-1.89-3.57-2.66-4.9-.12-.21-.36.37-.81-.6-.24-.52-.43-1.93-.19-1.56-1.6-2.47-2.6-2.53-3.76-4.56-1.06-1.87-2.63-5.68-3.86-8.08-1.95-3.77-3.84-6.77-5.6-9.8-1.77-3.07-3.39-6.2-5.19-11.03-.44-1.19-.81-2.34-1.15-3.47l-.13-.42-.06-.21s-.03,0-.05,0l-.18.1c-.12.07-.24.16-.37.29-.52.52-1.15,1.8-2.16,5.65-.46,1.74-.65,4.48-1.21,5.51-.02.02-.79.75-1.58,1.5-.82.78-1.74,1.72-1.91,1.65-.64-.3-1.16-1.59-1.62-3.19-.45-1.59-.83-3.48-1.21-4.79-.38-1.31-.78-2.02-1.31-1.17-.53.83-1.2,3.28-2.01,7.91-.4,2.29-.14,4.25-.51,6.5-.36,2.18-1.56,5.69-1.88,7.69-.45,2.73-.17,5.09-.27,5.69-.65,3.93-2.31,9.06-2.91,12.62-.12.67.51,1.33.43,1.84-.29,2.03-1.34,4.54-1.87,7.64-.41,2.08-.54,4.09-1.02,6.52-.3,1.5-1.54,5.11-1.45,4.67-1.15,5.86-.13,7-2.01,11.34-.78,1.08-1.55,1.35-2.32.99-3.62,7.54,2.16-3.77-.97,3.12-.84,1.86-1.53,2.31-2.37,4.39-1.06,1-.41-2.17-.87-3.69-.32-1.04-1.6-1.04-1.81-2.27-.46-2.79.89-8.72.13-8.5-4.49,1.28-6.01,18.95-6.8,23.52-1.59,9.21-3.44,17.05-5.47,27.35-1.02,5.13-1.56,10.69-3.03,17.85-.5,2.44-.77,3.49-.99,4.82-.45,2.66-2.67,12.04-3.95,17.57-.55,2.38-1.31,5.41-1.96,7.93.08-.29.55.95-.03,1.7-2.08,2.72-.96,3.08-1.48,6.38-.58,3.67-1.76,5.69-2.97,11.12-.17.79.01,2.94-.11,3.47-.84,3.46-2.1,7.12-3.33,11.25-1.04,3.45-2.46,7.45-3.71,11.21-1.83,5.57-3.51,10.57-5.56,15.86-2.07,5.29-4.48,10.9-8.18,17.55-.3.54-2.6,3.31-4.04,5.78-2.14,3.73-5.58,8.75-9.37,13.18-3.77,4.44-7.77,8.3-10.21,10.2-1.28,1.07-2.38,1.83-3.25,2.46-.88.62-1.58,1.1-2.22,1.49-1.31.75-2.33,1.22-3.98,1.96-1.98.85-3.71.55-4.51-.4-.82-.97-.76-2.56.61-4.47.52-.78,3.12-3.46,3.25-4.03.39-1.2-1.61-.86-1.6-1.79,0-.49,2.1-3.4,1.41-3.26-.93.17-2.15.86-3.52,1.88-.69.5-1.46,1.03-2.24,1.65-.78.61-1.58,1.29-2.45,1.93-3.33,2.72-7.26,5.53-10.16,7.37-.78.48-1.57.94-2.37,1.41-.81.45-1.65.82-2.48,1.23-1.65.85-3.38,1.46-5.04,2.16-1.67.66-3.34,1.21-4.93,1.87-1.61.55-3.16,1.19-4.63,1.85-.29.12-.89.28-1.72.47-.42.09-.89.2-1.42.31-.26.05-.54.11-.82.17-.14.03-.29.06-.44.09-.14,0-.25-.13-.38-.19-3.74-2.42-9.14-6.51-12.05-9.28-.76-.68-1.63-1.35-2.55-2.06-.95-.7-1.81-1.55-2.75-2.46-.52-.52-1.14-1.36-1.66-2.08-.27-.37-.54-.73-.8-1.08-.24-.35-.48-.67-.71-.93-.39-.43-1.48-.51-1.75-.84-.41-.5-.85-1.11-1.32-1.8-.47-.68-.96-1.43-1.38-2.25-.89-1.6-1.8-3.28-2.7-4.62-1.46-2.5-2.74-3.54-3.91-5.7-.68-1.47-1.03-2.63-1.39-3.85-.35-1.22-.76-2.49-1.31-4.3-.41-1.27-.91-2.62-1.47-4.03-.53-1.42-.98-2.93-1.5-4.47-.26-.77-.51-1.55-.77-2.34-.2-.72-.37-1.39-.55-2.09-.33-1.37-.71-2.81-.9-4.12-.27-2.4-.54-4.96-.43-7.61-.06-2.64.26-5.35.4-7.91.06-1.03.24-2.08.35-3.16.14-1.07.2-2.18.4-3.27.17-.9.34-1.82.52-2.73l.26-1.37.06-.34.03-.17.02-.09s.01-.06-.03-.04l-.7.18c-1.86.47-3.68.92-5.37,1.3-3.39.77-6.31,1.3-8.26,1.29-1.71,0,.37-1.36-.53-1.85-.95-.5-4.63-.08-3.71-1.59.29-.47,1.33-1.35,2.37-2.24,1.03-.89,2.05-1.79,2.14-2.28.03-.14-2.06.02-1.41-.65.25-.25,1.86-1.28,3.77-2.43,1.9-1.15,4.1-2.44,5.2-3.13,1.91-1.21,2.75-1.87,5.11-3.18,2.16-1.2,3.84-2.09,4.18-2.75.33-.65-.63-1.07-3.98-1.24-1.58-.1-5.93-.33-8.14-.06-3.94.5-15.08,3.38-20.85,4.42-2.68.48-4.91.78-6.86,1.04-.98.13-1.88.26-2.72.37-.33.05-.65.09-.96.13-.26.04-.52.08-.76.13-8.05,1.6-20.95,4.45-30.29,6.64-3.65.86-6.49,2.05-9.42,2.71-27.35,6.15-60.35,13.74-83.63,22.17-3.55,1.28-7.68,1.87-14.19,3.83-6.95,2.1-13.51,4.72-20.21,6.73-5.31,1.6-10.71,2.59-15.77,4.21-1.12.36-1.6.93-3.07,1.22-.54.11-2.51.17-1.7-.09-4.69,1.54-5.79,2.65-9.2,3.65-8.84,2.58-32.6,8.57-34.83,8.7.13,0-.33-.15-.82-.29-.49-.13-.98-.27-.99-.27.34.02-1.88-.39-1.69-.09-.41-.67,3.5-2.01,2.84-2.15-6.44-1.41-32.86,6.51-42.88,10.1-7.85,2.82-25.32,6.85-39.38,10.76-12.93,3.6-23.94,7.74-31.44,8.89-4.96.76-9.75-.83-13.48-.28-8.58,1.27-17.86,4.99-28.37,7.67-2.52.64-5.47.83-8.05,1.4-5.55,1.23-20.24,5.23-28.59,6.74-7.59,1.37-14.93,1.41-22.67,2.81-12.34,2.24-29.1,6.39-45.3,8.71-7.77,1.12-15.66,1.93-23.43,2.41-7.76.5-15.51.65-23.11.72-7.34.08-14.36.48-22.29.26-8.71-.25-17.72-.97-26.32-1.59-8.6-.63-16.8-1.19-24.06-1.27-3.08-.03-6.38.58-9.83.4-7.7-.41-14.11-2.05-26.01-2.47-16.31-.57-39.3-.85-58.76-1.47-4.37-.14-7.52-.57-11.4-.66-5.6-.13-10.91.24-16.35.02-2.46-.1-5.46-.88-8.11-.95-4.03-.11-8,0-11.65.07-3.64.07-7.04.06-10.19-.36-4.22-.55-7.99-1.82-11.2-3.29-7.5-3.29-15.09-10.48-21.41-17.11-.8-.84-2.78-2.7-3.39-3.54-.1-.14-.53-1.94-.43-1.84-.94-.95-3.89-2.89-6.34-5.22-5.81-5.53-14.03-14.54-18.07-18.84-1.4-1.49-3.89-3.93-6.62-6.68-1.37-1.38-2.79-2.84-4.17-4.3-.31-.33-.61-.66-.91-.98-.24-.27-.48-.54-.72-.81-.47-.54-.92-1.06-1.33-1.58-2.71-3.38-4.76-6.32-5.4-8.3-.66-2,.13-2.98,2.59-2.96-.42.02,2.43.41,2.34.37.65.25,1.61,1.45,2.27,1.67,1.86.62,3.13.38,4.08.78.57.23,1.72,1.71,2.82,2.24.29.14,1.02-.22,1.22-.11.31.16.56.8.87.91,1.72,1.19,2.64.91,4.76,2.19,1.34.81,3.76,3.17,5.21,4.05,5.43,3.31,14.24,8.92,6.51.55-.99-1.08-2.91-2.16-4.86-4.38-1.58-1.79-2.79-3.41-3.9-4.89-.56-.74-1.09-1.44-1.63-2.11l-.41-.5c-.05-.06-.18-.2-.17-.2l-.02-.05c-.03-.06-.07-.11-.12-.16-.38-.34-1.29-.29-1.98-.68-.49-.28-.78-.61-1.1-.92-.32-.32-.67-.63-1.4-.98-1.39-.7-1.3-.5-2.06-1.45-.59-.74-2.35-1.42-3.87-2.65l-.6-.5-.14-.12c-.07-.04.04-.07.05-.1l.22-.2c.3-.27.65-.5.99-.74.7-.46,1.43-.85,2.05-1.29,1.31-.92,2.56-1.96,4.66-2.74,1.15-.43,2.52-.77,3.93-1.16l.53-.15.27-.08s.05-.02.08-.04c1.21-.29,2.42-.58,3.62-.87,2.44-.6,4.86-1.17,7.18-1.9,2.71-.82,5.32-2.12,8.24-2.99,4-1.32,7.69-1.93,11.71-3.27,2.38-.82,5.5-2,8.69-3.26,3.15-1.33,6.36-2.77,8.97-3.99,1.79-.8,4.09-1.89,6.79-3.04,1.35-.58,2.79-1.19,4.29-1.84,1.49-.68,3.04-1.39,4.65-2.12,2.64-1.22,5.71-2.55,8.92-4.09,3.23-1.51,6.69-3.08,10.09-4.82,1.71-.85,3.42-1.71,5.13-2.56,1.7-.86,3.34-1.77,4.96-2.64,1.61-.89,3.18-1.76,4.69-2.59,1.5-.86,2.91-1.73,4.24-2.55,2.78-1.75,4.64-3.34,7.01-4.84,2.92-1.83,7.02-3.73,10.29-5.8,6.07-3.68,12.1-8.34,16.79-11.24,4.06-2.5,17.01-8.85,24.01-15.3,1.93-1.71,5.56-4.39,9.96-7.5,4.34-3.17,9.41-6.78,14.07-10.49,2.63-2.07,3.29-3.03,5.01-4.4,2.83-2.26,6.92-4.58,9.47-6.74,2.06-1.73,2.69-3.29,4.61-4.86,2.68-2.23,5.61-3.83,8.04-5.85,7.66-6.47,14.39-12.98,20.97-18.67,4.37-3.76,9.65-7.72,15.3-12.5,1.01-.87,2.05-1.77,3.11-2.69,1.25-1.11,2.53-2.24,3.82-3.39,3.07-2.76,6.2-5.58,9.27-8.34,6.1-5.52,11.93-10.74,16.96-14.85,4.22-3.45,10.64-8.18,15.05-11.24.26-1.38.48-2.36.69-2.76.45-.86,1.5-1.02,2.51-1.1,1.01-.08,1.98-.08,2.06-.68.05-.11-.07-.26-.12-.41-.07-.15-.15-.31-.24-.48-.18-.34-.39-.72-.62-1.13-.48-.82-1.07-1.77-1.73-2.79-1.33-2.05-2.91-4.3-4.44-6.56-2.95-4.24-5.07-7.31-8.39-11.16-.89-.94-1.85-1.93-2.91-3.01-.54-.53-1.08-1.1-1.69-1.67-.64-.55-1.32-1.13-2.02-1.74-2.78-2.45-6.36-5.23-11.22-8.33-.39-.24-1.45-.76-2.78-1.45-.66-.34-1.39-.73-2.14-1.15-.77-.4-1.6-.78-2.38-1.21-1.3-.69-3.18-1.85-4.69-2.78-1.57-.84-2.73-1.49-2.36-1.34-2.19-.9-3.88-1.49-5.54-1.92-1.68-.4-3.27-.78-5.18-1.45-1.34-.48-2.73-1-4.04-1.39-1.07-.34-2.14-.68-3.19-1.02-1.91-.62-3.76-1.09-5.51-1.48-1.56-.35-3.14-.46-4.74-.63-1.61-.17-3.24-.26-4.91-.45-2.37-.3-5.13-.97-7.53-1.18-3.14-.22-6.49,0-9.44,0-7.35-.03-13.86-.48-20.25.58-1.11.19-3.09,1.05-3.58,1.12-1.37.15-2.91.26-4.47.32-1.56.05-3.13.14-4.52.35-2.45.33-4.76,1.22-7.01,1.75-1.48.33-3.88.36-5.3.75-.57.16-1.21,1.12-1.6,1.21-4.26,1.07-9.79,1.96-13.77,3.18-4.93,1.45-10.57,3.64-16.04,5.82-5.35,2.18-10.6,4.06-15.07,4.85-3.04-.75,5.32-2.16,4.32-3.02-3.63.68-4.74,1.71-8.15,2.32-3.66.66-3.72-.55-6.99.49-1.61.52-3.54,1.45-5.41,2.41-1.86.97-3.7,1.97-5.19,2.6-2.55,1.07-5.3,2.09-8.15,3.15-2.86,1.06-5.8,2.16-8.69,3.39-4.11,1.76-7.64,3.87-11.71,5.57-3.24,1.35-6.83,2.76-10.66,4.27-1.9.71-3.86,1.44-5.85,2.18-.99.36-2,.73-3,1.1-1.01.34-2.02.68-3.03,1.03-8.11,2.85-16.36,5.04-23.41,6.53-2.52.44-3.43.04-6.08.39-1.05.13-2.1.35-3.12.5-1.02.17-2.03.33-3.02.5-1.98.32-3.87.69-5.6.72-2.71,0-4.87-.29-6.93-.58-1.03-.12-2.03-.33-3.05-.51-1.03-.18-2.08-.32-3.22-.39-4.08-.16-8.85-.36-13.75-.55-4.9-.32-9.94-.72-14.5-1.66-1.13-.2-2.34-.6-3.53-.99-1.19-.39-2.36-.73-3.43-.97-5.63-1.16-11.19-1.94-17.08-3.6-6.82-1.92-14.62-5.26-22.45-8.33-7.09-2.75-15.26-5.55-21.37-8.68-4.91-2.51-9-6.35-14.78-9.43-6.75-3.56-20.02-9.34-32.28-15.05.13.06-.57.35-1.7-.24-6.11-3.18-14.16-6.8-22.38-10.18-8.08-3.35-16.93-6.61-23.57-8.88-3.03-1.04-3.36-1.78-6.61-2.77-2.17-.67-4.31-1.32-6.55-2.01-1.12-.35-2.27-.7-3.45-1.07-1.19-.36-2.43-.73-3.72-1.12-3.31-1.03-6.24-1.15-8.81-1.86-8.04-2.1-13.66-3.42-23.07-4.84-3.23-.44-5.24-1.4-9.01-1.83-1.7-.25-10.25-.85-16.65-1.17.46.03-.95.7-1.89.37-2.37-.88-6.25-.65-10.41,0-1.04.16-2.09.31-3.14.49-1.06.19-2.11.38-3.15.57-2.07.35-4.05.63-5.84.79-2.66.2-5.2.1-7.98.09-1.39-.02-2.83-.08-4.38-.06-1.55.04-3.19.1-4.97.21-8.7.68-19.96,2.62-32,6.94-1.5.55-3.02,1.1-4.55,1.66-1.51.64-3.04,1.29-4.57,1.94-.77.33-1.53.67-2.3,1-.76.37-1.52.74-2.29,1.11-1.52.76-3.06,1.49-4.58,2.29-3,1.7-6.06,3.32-8.97,5.26-1.46.96-2.96,1.84-4.37,2.87-1.41,1.02-2.83,2.04-4.23,3.06-.95.66-2.1,1.69-3.35,2.79-1.26,1.1-2.62,2.29-3.91,3.42-2.52,2.32-4.89,4.25-6.13,4.18,7.29-6.91,15.35-13.41,24.04-18.93,8.68-5.54,17.96-10.07,27.35-13.36,2.78-.91,7.01-1.76,9.92-2.53,2.14-.61,4.03-1.35,5.89-1.95,1.86-.62,3.69-1.3,5.68-1.74,3.08-.65,5.77-.57,9.9-1.12.96-.14,2.01-.4,3.28-.69,1.26-.26,2.72-.51,4.49-.67,1.01-.09,2.02-.15,3.02-.19.99,0,1.97,0,2.95,0,1.94.03,3.86-.02,5.7-.05,14.75-.64,30.38-.55,43.35,1.36,1.86.28,5.65.7,7.3,1.22,1.52.44.91,1.09,3.45,1.61,2.16.45,2.68-.35,3.78-.21,2.4.33,3.04,1.15,3.49,1.23,8.39,1.54,17.47,3.95,27.01,6.98,2.39.75,4.79,1.58,7.24,2.38,2.43.85,4.9,1.72,7.4,2.59,2.48.93,5.02,1.8,7.55,2.78,2.49.94,5.01,1.9,7.56,2.87,5.51,2.09,11.02,3.63,16.05,5.8,14.93,6.47,27.23,13.81,37.06,17.72,2.19.88,8.47,2.59,10.55,3.62.67.33.59,1.23,1.06,1.52,3.19,1.92,5.36,2.33,8.25,4.56,1.95,1.52,3.5,3.37,7.86,5.31,3.9,1.7,8.31,3.11,12.81,4.9,1.67.68,3.25,1.45,4.82,2.2,1.57.76,3.14,1.53,4.78,2.15,4.46,1.76,8.96,2.99,13.42,4.14,4.46,1.07,8.89,2.06,13.25,3.04.74.17,1.49.39,2.26.63.76.23,1.54.46,2.33.7,1.59.5,3.24,1.01,4.98,1.32,2.51.52,5.18.75,7.96,1.01,2.76.18,5.63.36,8.59.55,1.14.12,2.58.33,4.05.56,1.46.24,2.95.48,4.14.49,3.75.18,6-.22,7.73-.32,1.73-.15,2.93-.02,4.67.51.2.06,1.3.77,1.5.77,1.89,0,5.25-.98,6.99-.94.69.02.89,1.1,1.65,1.16.39.01,7.15.07,8.84-.25,2.38-.3,6.02-1.44,10.1-2.46,1.58-.36,2.94-.63,4.23-.85,1.3-.26,2.51-.51,3.81-.77,2.58-.54,5.44-1.17,9.74-2.73,1.07-.38,1.4-1.1,2.78-1.43,1.76-.42,11.19-3.26,16.43-5.42,2.87-1.15,5.77-3.07,8.62-4.32,1.93-.85,4.38-1.76,7.01-2.74,2.63-.98,5.43-2.02,8.14-3.16,15.55-6.55,24.61-12.8,36-14.26,2.01-.24,2-.74,3.45-.61,1.42.13.2.52,1.93.39,1.83-.14,3.49-.45,5.44-.95.96-.25,1.96-.56,3.04-.91,1.09-.34,2.27-.73,3.57-1.18,1.02-.37,1.94-1.12,3.35-1.36.47-.08.11.62,1.86.04,3.34-1.1,6.51-2.77,10.23-3.7,7.4-1.89,15.32-2.51,21.46-3.61,1.54-.29,3.13-.75,4.67-1.15,1.54-.41,3.03-.84,4.38-.97,5.15-.65,11.32-.5,16.78-.66,5.73-.16,11.55-.33,17.25-.05,1.39.09,2.86.25,4.46.42,1.6.19,3.34.46,5.27.67,1.33.13,2.82.27,4.23.36,1.41.1,2.74.18,3.76.43,1.86.43,3.71.85,5.54,1.41.97.3,1.94.61,2.91.91,1.27.4,2.58.83,3.85,1.35,2.55,1.01,5.1,1.95,7.55,2.97,2.4,1.11,4.77,2.18,7.11,3.19,1.07,2.1-7.79-2.53-6.59-.36,2.91,1.27,4.72,1.84,5.82,2.08,1.07.27,1.51.1,1.72-.19.43-.59-.05-1.75,2.22-.91.99.55,1.98,1.11,2.98,1.67,1,.56,2.02,1.1,2.94,1.73,1.9,1.22,3.8,2.45,5.71,3.67,1.76,1.33,3.53,2.65,5.28,3.97.43.33.88.66,1.3.99l1.21,1.05c.8.7,1.6,1.39,2.39,2.08.79.69,1.6,1.37,2.35,2.06.71.71,1.42,1.42,2.13,2.13.7.7,1.4,1.4,2.09,2.09.34.35.69.69,1.02,1.04.31.36.61.71.92,1.06,2.44,2.81,4.73,5.51,6.76,8.07,2.73,3.39,4.35,5.69,5.77,7.93.73,1.17,1.43,2.35,2.22,3.69.39.67.8,1.38,1.25,2.15.28.41.29.72.42,1.1.1.36.2.75.31,1.14.35,1.32.57,2.36.67,3.16-2.49,1.71-4.22,2.82-6.1,3.9-1.88,1.08-3.93,2.13-6.95,3.6-2,.99-6.26,2.54-7.08,3.1-1.82,1.27-4.3,3.44-7.32,6.13-3.02,2.68-6.6,5.87-10.49,9.08-3.71,3.07-7.9,5.76-10.35,7.84-1.68,1.42-3.39,2.9-5.13,4.43-.65.57-1.3,1.14-1.96,1.72-.58.52-1.16,1.04-1.75,1.56-2.35,2.12-4.76,4.35-7.24,6.63-4.93,4.58-10.08,9.38-15.3,13.94-5.43,4.76-11.01,8.93-15.34,12.66-3.05,2.58-6.01,6.1-8.47,8.03-3.06,2.4-6.43,4.02-9.77,6.44-2,1.46-4.31,3.21-6.59,5.02-2.3,1.8-4.55,3.68-6.4,5.45-1.38,1.32-1.73,2.42-3.48,3.75-2.56,1.95-6.67,3.59-8.7,5.12-2.46,1.88-4.72,4.02-7.01,6.13-2.31,2.09-4.61,4.18-7.08,6.02-6.56,4.75-15.3,9.93-24.08,14.84-4.35,2.51-8.77,4.88-12.79,7.3-4.08,2.34-7.82,4.68-10.97,6.94-1.74,1.19-7.62,4.25-13.82,7.24-1.54.77-3.09,1.54-4.59,2.29-1.51.73-2.97,1.45-4.31,2.14-2.68,1.37-4.85,2.68-6.08,3.61-2.86,2.25-.22.8-7.72,3.9-3.72,1.48-6.86,2.86-9.82,4.36-2.98,1.46-5.86,2.92-9.03,4.6-5.25,2.69-3.39.84-8.39,2.42-.89.35-9.42,3.73-13.03,5.16-2.42.99-4.24,2.08-6.5,2.83-4.51,1.54-10.84,2.52-15.37,3.89-2.42.7-4.68,1.45-6.89,2.23-.55.19-1.11.38-1.66.57-.84.25-.35.22-.47.3-.17.16-.34.29-.52.38-.44.22-1.15-.38-2.09-.11-.48.14-.1.73-.51,1.08-.24.21-1.43.12-1.64.37-.22.28-.19.73-.07,1.11.18.61.02,1.06-.14,1.57-.32.24.45.58.85.87.46.3.93.58,1.43.84.42.21,1.28.29,1.73.41.35.1.54.24.74.39.19.15.4.32.66.38h.05s.03,0,.03,0h.01s.15.14.15.14c.46.44.93.89,1.42,1.34.97.92,1.98,1.88,3.05,2.9,2.13,2.05,4.45,4.35,6.96,7.09,1.54,1.68,4.43,4.6,4.52,4.71,1.2,1.43.88,2.11,1.57,3.02,2.77,3.67,3.12,3.55,4.61,6.89.18.41,1.55,2.91,1.57,3.02.35,2.91-3.65,3.46-5.29,2.81-.64-.26-3.66-4.12-4.52-4.71-1.4-.97-3.07-.65-5.12-1.87-.98-.59-2.73-2.54-3.73-3.2-1-.67-1.79-.92-2.95-1.69-4.28-2.87-8.49-6.19-12.25-8.61-.48-.31-.99-.64-1.43-.89-.3-.1-.59-.2-.88-.3-.62-.21-1.21-.41-1.77-.6-1.19-.4-2.38-.82-3.53-1.29.71,1.52,2.07,3.01,3.52,4.45,1.14,1.14,2.3,2.3,3.46,3.47,1.2,1.21,2.38,2.45,3.51,3.72,1.96,2.22,4.01,5.53,6.08,7.73,2.84,3,5.58,4.67,8.6,7.58,4.8,4.64,9.44,10.57,14.34,15.64,2.07,2.14,4.67,4.78,7.26,7.33,2.57,2.54,5.1,4.9,7.28,6.67,2.66,2.19,5.49,3.33,7.59,4.49,1.09.59,1.93,1.21,2.82,1.74.87.56,1.84,1.04,3.03,1.34,1.67.4,3.97.82,6.2.9,1.63.06,3.51-.39,5.63-.28,1.88.1,3.88.37,6,.64,2.12.27,4.34.56,6.51.65,3.58.16,5.7-.41,9.83-.4,9.45.04,20.03,1.73,27.72,1.12,1.93-.15,2.74-.66,4.94-.67,5.11-.03,10.59.76,16.29.94,3.94.13,6.04-.4,9.83-.4,2.64,0,2.77.64,4.86.76,1.64.09,6.89-.53,9.83-.39,2.5.11,2.98.74,4.86.76,3.19.03,5.52-.58,8.2-.49,2.95.1,4.71.75,8.12.95,2.26.13,5.85-.14,8.17,0,5.49.3,10.78,1.11,16.26,1.42,3.42.19,6.41-.17,9.81.09,3.15.24,6.58.88,9.74,1.04,11.26.57,24.07.27,34.1,1.45,1.4.17,6.98.8,6.36.78,3,.1,4.96-.57,7.95-.67,8.35-.31,15.27.18,23.26.03,7.46-.11,15.43-1.31,22.78-2.2,13.38-1.6,27.44-3.63,41.7-6.63,11.49-2.42,19.65-5.28,29.83-6.77,4.89-.72,8.58.16,14.84-1.03,3.72-.7,22.15-6.08,28.36-7.67,4.34-1.11,9.91-2.26,15.89-3.74,9.59-2.38,21.56-6.26,25.3-6.45,2.89-.15,3.59,3.18,5.75,3.08,2.76-.12,26.07-6.15,28.48-7.2,2.62-1.14,6.54-1.67,12.6-3.46,2.19-.65,4.24-1.89,6.13-2.43,7.03-2.02,15.24-3.63,22.13-5.71,4.51-1.36,8.25-3.12,12.38-4.4,2.46-.76,5.42-1.17,7.94-1.87,4.15-1.15,7.1-2.63,9.31-3.18,1.53-.38,9.41-1.99,11.23-2.15.07,0,2.1.08,4.15.16,2.06.1,4.15.21,4.34.3,2.23,1.05-3.02,2.95.66,2.81,2.24-.09,8.92-1.33,15.99-3.28,3.2-.88,3.86-2.01,7.61-3.27,1.8-.6,6.3-1.22,11.12-2.62,2.94-.85,4.84-1.98,7.72-2.81,5.39-1.54,11.9-2.62,18.95-4.96.73-.24,2.48-1.53,2.96-1.68,2.45-.76,5.42-1.17,7.94-1.87,3.05-.85,5.21-2.07,7.72-2.8,11.21-3.3,21.15-5.72,31.44-8.89,4.63-1.42,9.34-3.16,12.49-3.93,3.85-.94,6.58-.97,9.64-1.78,6.03-1.59,7.41-2.66,10.9-3.55,3.17-.81,6.46-1.03,9.64-1.78,3.02-.71,6.1-1.87,9.42-2.71,2.52-.64,6.33-.99,9.64-1.78,2.84-.68,3.23-1.31,6.24-1.96,4.16-.89,8.12-1.06,12.93-2.06,2.49-.51,5.34-1.75,7.83-2.34,2.32-.54,5.25-1.01,8.35-1.51.78-.12,1.56-.25,2.35-.38l1.18-.2.59-.1.87-.17c2.45-.48,4.86-.98,7.17-1.5,4.47-1.01,8.89-2.69,12.44-3.43,4.85-1,9.31-1.5,14.55-2.44,7.29-1.3,15.66-2.98,14.35-2.89,3.61-.27,5.84.25,6.77,1.21.94.96.6,2.35-.63,3.75-1.37,1.56-5.65,3.37-9.15,5.61-2,1.28-1.9,1.79-3.46,2.79-3.73,2.42-4.11,2.71-7.02,6.59-1.9,2.53-3.48,2.92,1.09,2.7,1.85-.08,2.54-.37,3.64-.85.55-.24,1.2-.52,2.13-.84.47-.16,1.01-.33,1.64-.51.08-.02.16-.04.24-.07.03,0,.1-.04.11-.01l-.02.12c-.03.16-.06.33-.09.5-.07.36-.15.75-.23,1.17-.25,1.21-.55,2.48-.87,3.8-.33,1.45-.53,2.96-.8,4.48-.11.75-.23,1.52-.35,2.31-.08.78-.1,1.57-.13,2.36-.21,3.55.45,7.5.57,10.69.26,3.39-.45,5.77.11,8.15.21,1.01.47,2.25.84,3.66.46,1.45.98,3.03,1.52,4.63.49,1.61,1.27,3.16,1.9,4.65.66,1.48,1.26,2.86,1.95,3.97.83,1.46,1.28,2.15,2.31,4.35,1.1,1.99,1.76,3.63,2.4,5.27.68,1.62,1.46,3.17,2.58,5.05.55.99,1.65,2.26,2.81,3.6.58.67,1.19,1.36,1.78,2.03.58.67,1.25,1.26,1.8,1.83.51.52,1.11,1.14,1.74,1.78.62.65,1.26,1.34,1.95,1.92,1.34,1.2,2.56,2.26,3.22,2.73.72.55,1.57.7,2.45.97.89.26,1.85.6,2.96,1.41,1.74,1.18,3.37,2.23,4.84,3.36.25.34.66.11,1,.1.35-.05.7-.1,1.05-.14.7-.09,1.38-.17,2.06-.26,1.35-.23,2.69-.5,4.05-.78,1.34-.37,2.7-.77,4.1-1.29,1.36-.61,2.8-1.19,4.2-2.09,1.42-.89,2.81-1.29,3.7-2.19.27-.26.57-1.31.82-1.49.8-.55,1.49-.81,2.12-.97.63-.17,1.23-.29,1.96-.78.89-.61.47-1.36,2.01-2.45,6.06-4.34,11.72-9.78,15.99-13.16,4.23-3.39,7.32-4.67,7.67-.55.04.55.12,1.29.06,2.18,0,0,0,.1.03.28.01.18.03.42.04.67.03.51.03,1.07-.03,1.26-.15.51-1.29,2.02-2.37,3.57-1.08,1.55-2.25,3.04-2.32,3.59-.03.15,2.23-.37,2.57.12.19.26-1.41,3.2.14,2.6,1.5-.61,2.11-1.95,4.01-3.5.36-.28,1.69-.46,1.9-.67,1.67-1.61,4.43-4.78,7.12-8.24,2.64-3.48,5.22-7.22,6.83-9.78,2.06-3.16,3.88-7.37,6.48-12.16,3.02-5.66,6.43-12.37,9.62-21.7.78-2.29,1.98-5.53,2.66-7.97.61-2.07.86-4.63,1.44-6.59,1.98-6.75,3.91-13.3,5.47-18.89,1.55-5.54,2.8-10.07,3.38-12.91,1.1-5.44.84-9.69,1.58-13.18.1-.48,1.62-4.41,2.9-9.35.37-1.41.35-4.27.54-4.96.62-2.33,1.56-2.88,1.91-4.53.47-2.27-.35-1.55.07-5.1.31-2.57,1.62-5.3,1.96-7.93.3-2.28.42-4.52.56-6.66.08-1.23-.12-3.91.08-5.1.29-1.75,1.54-4.39,1.94-6.23.19-.88-.08-2.76.05-3.4.58-2.79,1.92-6.66,2.44-9.49,1.22-6.65,1.48-12.22,2.57-18,1.58-8.35,3.04-15.59,4.89-18.98,1.05-1.91,1.25.07,2.32-.99.65-.64,1.12-2.65,1.88-2.83,3.12-.75,3.98,6.98,5.4,8.51,1.16-3.53,1.67-6.67,2.01-9.58.19-1.5.28-2.78.41-4.09.13-1.31.29-2.62.53-3.92.81-4.4,2.24-8.75,2.96-12.75,1.05-5.86,1.55-11.94,2.41-17.48.33-2.11.94-3.71,1.26-5.69.24-1.46.27-3.43.49-4.82.26-1.63,1.08-4.06,1.36-5.94.34-2.2.35-2.87.6-4.28.25-1.41.72-3.55,2.04-8.88,2.35-9.48,2.28-9.47,3.76-8.75.63.32,1.26,4.48,1.99,8.19.74,3.78,1.56,7.25,2.42,6.35.74-.77,1.27-3.11,1.88-6.21.31-1.57.64-3.24.99-5.03.18-.88.38-1.78.58-2.66,0-.02.01-.07.02-.06l.03.05.06.09.12.19.25.41c.17.3.34.6.52.91.05.09.83,3.17,1.39,3.91.6.78,1.11.46,2.63,5.25.91,2.89.9,3.86.94,5.12.02,1.24.09,2.8.92,6.46,1.7,3.19,3.28,6.57,4.76,9.78,1.49,3.21,2.91,6.25,4.38,9,.88,1.64,1.72,1.77,2.69,3.37,1.83,3.04,3.79,7.58,6.08,11.77,2.19,3.93,4.39,7.88,6.79,12.19.62,1.14,1.26,2.31,1.91,3.51.34.65.68,1.3,1.03,1.97.36.7.72,1.4,1.08,2.12,1.45,2.87,2.97,5.9,4.52,9.18.18.37,1.26,1.2,1.76,2.78.19.61-.58.08.22,1.69,1.17,2.33,2.32,3.33,3.53,5.57.76,1.44,3.78,7.62,6.74,14.08,1.47,3.21,2.98,6.56,4.14,9.28,1.13,2.68,2,4.87,2.33,6.02.15.52.08,2.19.22,2.97.48,2.59-.11,4.28-1.5,4.77-1.38.51-3.57-.17-6.07-1.7-2.27-1.36-2.89-1.22-1.06,3.71.26.71,1.29,1.55,1.71,2.84.31.99,1.08,3.58,2.67,6.49,1.94,3.6,4.2,6.6,4.73,7.81,1.39,3.21,1.06,3.59.94,3.93-.11.37-.05.65,2.23,4.04.22.33.44.67.66,1.04-.11.09-.36.09-.57.13-.46.05-1.03.06-1.7.05-1.33-.02-3.02-.15-4.88-.32-3.73-.34-8.1-.82-11.87-.94-4.02-.14-8.24-.06-13.82-.47-2.32-.17-5.51-.82-7.66-.91-.44-.02-.83.02-.98.12-.17.1-.18.24-.18.4.02.3.14.63-.62.62.38,0-6.25-1-9.71-1.29-4.94-.42-10.98-.71-19.51-2.11-3.63-.58-5.48-1.5-7.93-1.97-8.14-1.57-14.59-2.02-20.54-5.42-.28-.16-1.12-1.15-1.42-1.25-4.05-1.35-1.67-.78-4.44-2.81-.53-.39-2.82-1.34-3.02-1.56-2.14-2.26.5-3.65-3.97-5.16-4.7-1.53-25.92-3.37-34-4.32-8.71-1.04-11.06-1.99-16.25-1.8-3.68.13-4.47-.58-11.36-1.36-1.19-.14-2.53.2-4.98-.07-2.44-.27-3.82.06-4.98-.07-2.44-.27-5.55-1.42-7.98-1.68-1.49-.15-3.1.11-4.98-.07-2.47-.23-3.93-.64-6.48-.87-3.77-.34-8.29-.35-9.87-.61-2.65-.42-2.62-1.08-4.68-1.49-3.67-.74-9.15-.84-10.95-3.39-.91-1.3-2.76-2.19-2.78-2.58-.06-1.9,3.42-1.8,10.56-2.59.22-.02,3.65,0,6.81-.15,3.16-.17,6.04-.51,5.14-1.2-3.75-2.81-11.83-1.72-21.08-2.62-8.05-.79-21.09-3.79-26.06-2.77-3.08.64-6.96-1.39-13.03-1.45-.51,0-3.29.22-3.39.21-2.29-.3-5.79-1.66-7.94-1.82-2.09-.16-1.1.98-3.5.67-1.83-.24-6.16-.94-6.46-.98-4.64-.76-10.31-2.59-12.71-2.91-2.57-.34-.28,1.09-1.92,1.04-1.73-.04-8.36-1.74-11.22-2.13-1.13-.16-3.88.81-9.73-1.33-3.44-3.1-.83-4,4.27-3.92,1.19.02,1.72-.53,3.39-.18.62.13,2.28,1.24,3.06,1.22.95-.02,1.11-.92,1.91-1.03,1.84-.24,7.78.37,8.58-.94-4.46-1.1-6.44-1.07-9.73-1.3-.68-.05-2.62-.78-3.17-.75-1.46.08-1.66.77-3.5.65-2.11-.14-5.75-1.29-8.03-1.42-5.2-.29-9.27.89-16.63-.5-3.12-.59-6.29-2.18-7.82-2.35-3.29-.37-4.6.55-8.48.39-2.54-.11-28.04-3.18-35.4-6.28-.03,0-.29-.22-.68-.54s-.89-.75-1.39-1.21c-1-.9-1.99-1.89-1.98-2.22.05-1.13,2.4-.32,3.52-.62,1.34-.36.51.18.12-.46-1.32-2.2,4.49.11,8.38.09,1.35,0,2.08-1.38,3.74-1.55.42-.04,2.75.34,3.28.31,5.18-.23,16.16,1.12,23.15,1.27,3.14.06,5.61-.38,8.47-.4,1.59,0,6.87.98,8.25.48.27-.1-.22-.95.22-.94,3.83.11,9.6,1.6,12.98,1.61,4.19.01,3.57-1.17,6.99-1.3-.83-2.05-5.52-1.35-7.68-2.81.52-.59,4.75.96,4.96.19-1.67-1.27-5.61-1.24-4.96-.19,1.41,2.3-8.92-1.4-11.28-1.7-1.74-.22-1.35.51-3.38.18-2.52-.42-5.4-1.48-7.9-1.89-4.53-.75-10.22-1.1-16.23-2.03-4.06-.63-21.62-5.02-25.59-4.84-.94.04-.68,1.18-1.93,1.01-1.75-.22-5.49-1.62-9.46-2.4-3.89-.77-8.03-.35-11.5-.97-2.06-.36-5.94-2.21-7.76-2.49-1.89-.28-3.12-.12-4.97-.28-1-.09-3.3-.62-4.85-.75-.68-.06-1.24.59-1.81.53-.87-.1-2.32-.74-3.15-.81-3.98-.35-3.77-.24-11.38-1.48-5.98-.97-38.24-4.45-43.09-8.97-3.21-3.04-1.95-3.25,5.84-2.91,1.77.08,1.88.5,3.27.37,1.47-.14,4.97,1.03,6.66.28-7.18-2.7-14.5-2.77-20.92-3.63-3.01-.4-6.56-.7-9.79-1.2-7.15-1.11-13.66-2.39-21.04-3.29-2.64-.33-5.71-.34-8.24-.77-2.43-.42-5.39-1.76-7.84-2.22-1.21-.23-2.97.13-3.39.03-4.42-1.01-9.25-2.82-14.1-4.01,0-1.69-1.74-3.36-.25-5.07-2.18-.46-3.92-.89-8.09-1.3-1.99-.2-2.81.31-5.1.05-2.28-.26-5.69-1.46-7.96-1.77-1.93-.27-3.39.22-5.09,0-4.33-.54-8.52-1.31-13.04-1.83-4.66-.53-9.05-.48-11.62-.92-1.72-.29-6.67-2.19-9.38-2.76-.25-.05-2.59,1.01-6.53-.92-4.05-1.98-3.43-3.21-2.17-4.14,2.01-1.49,14.12,2.08,15.16.46-.31-.64-1.62-.67-3.12-.92-.81-.14-3.2-.66-4.82-.92-3.61-.58-6.37-.62-9.91-.95-1.59-.14-1.97-.46-3.25-.48-4.15-.08-22.31-1.97-29.32-4.38-3.33-1.15-2.66-.8-5.96-2.81-1.51-.92-.97-1.33-4.39-2.34-7.99-2.41-10.3-.89-16.55-1.66-.15-.02-.35-.05-.59-.09-.21-.04-.47-.08-.75-.12-.56-.1-1.24-.23-1.94-.36-1.42-.27-2.99-.56-4.07-.72-4.45-.65-7.25-.76-10.21-2.69-.56-.36-.78-1.33-1.96-1.62-1.27-.31-2.76-.56-4.43-.79-.86-.11-1.75-.22-2.65-.34-.47-.05-.94-.11-1.42-.16l-.73-.08c-.1-.02-.29,0-.33-.07v-.24c-.11-2.41-.2-5.13-.13-8.2.01-3.02.09-6,.28-9.33.17-3.41.83-7.61.84-10.4,0-2.63-.25-5.09-.5-7.81-.29-2.71-.59-5.6-.66-8.89-.04-1.59.46-3.49.32-4.84-.35-3.57-.26-11.34-.96-16.31,1.06-6.64.39,2.4,1.76-6.21.48-3.24.94-3.3-.26-6.45-1.02-.38-.78,5.59-1.37,7.86-.62-1.22-.74-3.34-.8-5.71-.05-2.37.06-4.98-.21-7.19-.37-3.14-2.47-9.24-2.33-12.86.2-3.94.65-.62-.16-4.73-.33-1.56-.72-2.52-1.2-4.78-.92-4.55-1.85-13.85-3.28-20.37-.34-1.66-1.21-3.18-1.45-4.65-.21-1.23.16-3.39-.03-4.65-.14-1.03-1.73-3.26-1.19-9.25.72-1.63,1.87,1.49,1.96,1.49.32-.01.81-2.52,1.4-1.6.52.81,1.06,3.45,1.61,6.52.57,3.06,1,6.55,1.54,9.04.25,1.23.7,1.57.96,3.14.44,2.8,1.24,7.32,1.72,11.04l-1.92-.06c-.77,5.01,1.81,1.06,2.78,3.24-.28-.62.15,1.26.6,3.36.44,2.1.96,4.42.97,4.62.17,1.4-.08,9.73.74,11.18,1.58,2.78-.17.87.43,6.42.15,1.45.66,2.72,1,4.91.34,2.4.4,6.34.87,9.76.05.35,0,3.09.07,3.24,1.34,2.74.03.4.12,6.5,0,.8.71,1.06.72,1.73,0,2.33-.32,6.17-.25,8.12.14,3.02,1.27,5.25,1.5,8.47.11,1.86-.56,5.43-.54,8.17,0,1.75.46,3.25.44,5.08-.03,1.71-.67,3.61-.65,3.19-.06,1.49.62.65.63,1.71-.01,2.59-.21,5.66-.34,8.65-.19,2.98-.32,5.89-.18,8.17.11,2.26.85,3.55,1.17,5.27l.04.19c.05.04.22.02.33.04.24.02.48.04.73.06,1.64.14,3.95.98,5.27,1.15,3.47.45,7.64.3,11.17.48,1.26.07,2.59.27,3.92.47.65.09,1.31.19,1.96.28.32.03.63.07.94.1.15.01.31.02.46.03.16.01.44.06.65.09.66.09,1.28-.53,1.84-.43,2.93.51,6.29,1.44,9.75,1.54,1.74.06,8.15.86,11.59,1.05,3.09.18,8.24,1.12,13.15,1.48,4.67.35,5.67-.1,8.34.52,2.83.66,7.37,3.21,10.61,4.22,8.1,2.55,18.1,2.81,26.02,3.72,1.11.12,3.57.83,4.81.91,1.32.09,3.91.17,6.64.45,2.76.29,7.26.85,11.44,1.36,1.83.22,3.19.74,4.81.91,2.08.23,7.43.13,11.45,1.28,3.94,1.13,6.83,3.01,10.54,4.49-1.71,1.46-9.02-.63-9,1.93,1.4-.31,5.52.37,8.34.37,2.12,0,13.5,2.27,17.83,2.58.92.07,2.75-.12,3.38-.04,1.86.25,7.36,2.09,11.07,2.6,2.45.36,1.83-1.3,8.21.77.19.06-.42.8-.26.92.29.23,6.47,2.41,7.69,2.61-3.6,1.93-12.34.65-18.76.82,2.48,2.41,10.4,2.54,15.92,3.38,2.81.43,4.93.2,8.21.76,2.88.5,6.54,1.71,9.52,2.12,1.9.26,1.99-.13,3.38-.06,2.66.13,9.23,1.21,13.04,1.54,5.71.53,11.77.46,16.3,1.85.16.05,2.39,1.15,4.59,2.24,1.1.54,2.18,1.08,2.99,1.48.41.2.74.36.98.47.23.11.37.17.36.16.39.86-2.55.22-5.2.61-5.51.8-1.26.84-9.91-.65-1.05-.18-2.55.19-3.39.1-2.86-.33-5.7-.91-8.1-1.16-5.61-.57-10.29-.51-14.87-1.05-4.55-.54-10.37-2.1-14.49-2.49-1.55-.15-3.12.18-5.08.09-1.61-.08-6.37-1.22-5.09.09,4.35,2.19,8.58,2,12.8,2.52,1.71.22,4.2.54,6.52.8.48.05,2.43.33,3.26.4.72.05,1.5-.54,1.82-.5,1.79.24,4.48,1.48,6.27,1.72.95.13,1.48-.56,1.82-.5,2.88.49,5.08,1.18,7.97,1.63,2.71.42,5.02.67,8.1,1.16,5.5.88,9.15,1.95,14.5,2.36,1.98.15,3.41-.34,5.08-.14,5.02.59,9.87,2.22,14.37,2.81,5.29.68,9.48.85,16.32,1.71,1.29.16,4.16.14,4.96.28,2.94.5,3.71,1.25,6.29,1.61,5.83.82,14.57,1.13,21.02,2.89,1.25.34,3.91,1.35,6.26,2.29,1.17.48,2.27.92,3.08,1.25.4.17.73.31.97.41.23.1.36.16.37.17.97,1.19-6.31,1.42-13.66,1.08-11.39-.61-24.42-2.68-37.5-4.15-3.05-.34-5.6-.32-8.23-.62-3.73-.42-7.28-1.32-9.68-1.55-3.25-.32-8.32.56-16.33-1.86Z"/>
  </g>
</svg>