<?xml version="1.0" encoding="UTF-8"?>
<svg id="Lager_2" data-name="Lager 2" xmlns="http://www.w3.org/2000/svg" viewBox="0 0 954.86 350.31">
  <defs>
    <style>
      .cls-1 {
        fill: #adadad;
      }
    </style>
  </defs>
  <g id="Lager_1-2" data-name="Lager 1">
    <g>
      <path class="cls-1" d="M94.32,0h-1.91v.94h1.91v-.94ZM954.86,103.59v-1.91h-.94v1.91h.94ZM686.24,200.5c2.13-9.39-.99-10.7-9.62-11.1-1.58-.07-2.51-.95-3.8,1.02l3.29-.54c.73,3.29,5.39,1.06,8.21,1.01l-2.95,12.82,2.95,1.57-.94-5.75,2.87.96ZM668.98,191.85l-1.91-1.91v1.91s1.91,0,1.91,0ZM670.89,191.85v-1.91h-.94v1.91h.94ZM674.73,191.87h-1.91v.94h1.91v-.94ZM663.22,192.83l-4.78,3.82c1.5.28.85-1.65,1.92-2.38s3.11.21,2.86-1.45ZM657.46,194.74l-3.75.11-.09,2.77-2.87-.98v2.89s-2.88-.98-2.88-.98l-.97,2.88c.96.73,7.97-2.76,7.8-4.64l2.75.81v-2.87ZM617.17,237.91c-.25,0-1.6-1.41-3.27-1.04l-1.52,1.99.43-2.9-3.18-1.07c-.23-2.32-.61-5.37.36-7.52,4.04-8.9,23.64-19.37,32.57-23.07,1.39-.58,2.85-.92,4.35-.94l-2.39-3.82c-1.72.65-.35,2.8-.48,2.87-.54.27-1.9-.87-2.92-.45-2.12.89-2.2,4.37-7.03,2.43l-1.58,3.78c-3.63-3.98-5.75,1.25-7.98,2.55-3.09,1.8-6.52,2.26-9.96,5.41-.8.74-.7,2.46-1.5,3.28-1.16,1.2-3.58,1.56-4.87,3.15-.18.23-2.24,5.09-2.28,5.38-.47,3.83,1.8,8.15,5.49,9.48-.84,1.92-4.02,1.03-4.76,1.5-.19.12,1.39,2.62-1.48,3.77l-2.37-1.9c.41,3.12-1.25.74-2.85,1.39-.63.26-.79,1.37-1,1.47-3.93,1.92-11.84,4.93-9.59,10.54-2.11.17-3.12.39-2.89-1.9h-.93s-2.89,5.74-2.89,5.74c1.76.4,2.39-.06,3.77-.7,1.09-.51,6.93-4.88,8.27-5.95.33-.26,2.92-2.47,1.87-2.94l-5.27,2.87c1.82-3.34,1.85-5.4,6.18-5.8l1.97,1.96c.7-.24,1.13-1.75,1.44-1.91,4.86-2.59,9.94-4.73,15.35-5.76.1.56,1.48,2.28,1.91,1.92l4.81-2.89c-.87-3-4.34-.95-5.76-.95ZM696.79,202.42c-3.96-.05-11.25,1.51-9.13,6.71.93,2.28,2.62-2.13,4.05-1.19.9-.86.61-3.63,1.37-4.45.13-.14,3.8,1.08,3.71-1.07ZM725.57,208.15c-3.09.29-4.11,2.74-1.43,4.8,1.19-3.81,12.54-6.21,11.99-9.08-.48-2.47-6.81.21-8.13.74-.84.34-.07,2.79-4.33.69l1.91.96v1.9ZM802.33,233.11c3.16-1.77,1.88.69,4.23-3.44.49-.87,2.65-.05.51-3.71l1.98-.97-2.46-5.32c1.84-.33,4.56-3.9,4.88-3.88,1.43.1,2.25,1.79,3.77,1.9,4.5.32,6.55-4.67,8.21-8.08l-3.84-.48,5.74-.02c.18-4.61-.74-7.52-5.54-4.09-6.89,4.93-13.37,11.04-19.72,17.2-2.92,2.83-8.82,4.15-7.4,10.2.06.24,3.63,2.96,3.87,3.03,2.22.76,4.47-1.63,5.77-2.36-.46.28-2.31.37-1.92-.95l1.91-1.92c-2.52-1.27-3.08,1.92-3.35,1.95-6.32.67-.38-5.85,1.92-5.82.22,0,1.02,3.04,3.35,1.95.69.67-1.13,4.31-1.92,4.79ZM686.24,208.16c.68-.83-3.85-3.25-5.73-2.43-.42.18-6.25,6.09-6.44,6.5-.4.86,1.07,4.04.63,4.49-3.52,1.11-11.1,4.63-13.43,7.32-1.09,1.25-.07,2.05.05,3.31-6.14-.14-12.75,1.32-13.45,8.64l-3.82-2.88c-.84,2.45-.81,4.1,2.21,4.67,1.2-1.87,5.46-2.29,6.19-3.03.25-.25,2.1-5.06,3.79-5.49,2.25-.57,5.44.81,7.93-.95l-5.43,6.99.16,3.56c1.57-.59.43-2.56.66-2.72.69-.47,2.1-.04,3.15-1.09,1.44-1.44,3.89-8.45,5.28-10.12,1.29-1.54,8.83-6.57,11.08-8.16,2.47-1.75,4.54-.61,4.3-5.74l2.86.96-1.44-2.88,1.45-.96ZM721.74,208.18h-3.83v.94h3.83v-.94ZM716.94,212v-1.91h-.94v1.91h.94ZM721.7,211.07c-3.96,1.03-7.86,4.29-6.67,8.6l4.81-6.71,3.82,1.91-1.96-3.8ZM423.38,251.34c.48-1.2-.34-1.55,1.95-2.48l-.99-2.31,3.83-.02c-1.59-1.55.47-4.43,1.9-5.22,2.34-1.29,7.06-3.05,9.87-5.29,1.65-1.31,3.28-5.03,4.88-6.41,4.32-3.72,15.49-13.6,21.11-11.75.67.22,4.05,6.41,4.43.86-2.71.5-.83-1.8-1.85-2.45-.84-.53-2.23.29-2.93-.08-1.36-.7-2.52-2.89-4.3-2.9-4.13-.02-3.79,3.24-4,3.47-2.18,2.46-3.51,3.59-7.05,2.9v3.84s-2.38-1.91-2.38-1.91c-1.3,1.9-3.9,2.79-5.32,4.27-1.6,1.67-2.42,4.48-3.11,5.05-5.42,4.53-10.12,7.06-14.43,13.4-.75,1.1-3.76.66-1.6,4.12h-2.91s.97,1.9.97,1.9c-3.36-.08-6.03,4.16-8.62,6.26l3.41-.42c.17,1.43,2.29,2.83,3.29,1.85,2-1.95-2.95-2.91-1.91-4.79h3.83s-1.91-1.92-1.91-1.92c1.67.57,2.27.37,3.83,0-.65,1.61-2.53,4.25-1.44,5.75,1.65-5.36,3.01-2.85,5.04-4.06.46-.27.54-1.6,1.24-2.09,1.13-.79,3.08.12,2.83-1.51-2.7.05-5.11,1.28-7.67,1.91ZM713.1,212.97c-6.86,1.88-11.18,7.18-18.22,9.1,2.94,3.46,2.45.11,3.62-.39.82-.35,2.01-.2,2.97-.66,3.91-1.89,8.89-4.79,11.63-8.06ZM363.9,226.39c1.68-1.12,11.36-7.22,12.27-7.6s5.46-1.27,6.26-1.11c.33.07,4.52,6.4,3.15-.04-.33-1.54-2.66-1.83-2.51-3.71l-1.84.07c.08,3.33-1.7.89-3.41,1.06-4.42.43-4.69,1.16-5.3,5.56l-2.38-1.67c-2.5,2.26-5.85,3-8.17,5.51-1.32,1.43-1.83,3.64-2,3.76-.21.15-1.73-1.12-2.77-.46-2.11,1.34-3.47,5.49-3.98,6.12-.15.18-2.38-1.06-3.34,2.13l-2.29-1c.71,4.79-2.53,5.89-6.72,5.77l.97,2.87c1.4.36,1.21.03,1.91-.58,6.37-5.58,13.31-12.12,20.14-16.68ZM697.76,228.31c-.69.22-2.01-.19-2.88,0v1.91s2.41.03,2.41.03c.75-.45.28-1.54.47-1.94,5.09-1.64,9.23-3.51,13.14-7.02.58-.52,2.75-3.88,2.2-4.5l-14.33,9.2c-.96.53-.73,1.71-1.01,2.31ZM381.17,225.42l-1.91-1.91v1.91s1.91,0,1.91,0ZM694.88,223.52c-3.61,1.24-8.61,1.36-10.54,4.78,3.92,1.83,2.33-.37,3.53-.95,2.11-1.02,5.85-1.51,7.01-3.83ZM203.69,229.27c-.86.18-2.62-.54-2.87.47l2.87,1.44c.12-.6-.16-1.48,0-1.91,2.88-.59,1.57-2.69,4.8-4.79-3.4-.95-3.94,2.58-4.8,4.79ZM378.28,227.35v-1.91h-.94v1.91h.94ZM459.84,227.36c-1.2-.64-3.34,1.53-2.88,1.9,1.2.64,3.34-1.53,2.88-1.9ZM683.37,227.36h-1.91s0,1.91,0,1.91l1.91-1.91ZM680.49,229.28c-3.08-.64-4.73,2.13-4.79,4.79,1.84-1.05,3.74-2.95,4.79-4.79ZM687.55,234.45c1.85-1.37,7.23-2.25,5.89-5.18l-12.96,9.58c3.95.58,5.03-2.9,7.06-4.4ZM371.58,230.24c-1.2-.64-3.34,1.53-2.88,1.9,1.2.64,3.34-1.53,2.88-1.9ZM455.04,230.24h-1.91v.94h1.91v-.94ZM451.2,233.12h-1.91v.94h1.91v-.94ZM674.73,234.08c-5.96-2.59-6.69,2.44-8.56,3.35-1.17.57-4.72-1.81-4.86.47,3.31-.03,2.02,2.18,2.15,2.42,1.38,2.62,3.65-2.06,4.6-2.83,2.73-2.23,4.89-1.07,6.67-3.4ZM363.9,236h-1.91v.94h1.91v-.94ZM448.32,236h-3.83s0,1.91,0,1.91l3.82-.97v-.94ZM636.35,236h-1.91v.94h1.91v-.94ZM644.02,239.82c.64-1.2-1.53-3.34-1.9-2.88-.64,1.2,1.53,3.34,1.9,2.88ZM879.33,258.3c1.24-.63,3.35,1.81,4.1-2.24.82-4.47-2.63-8.11-4.96-11.41l2.5-6.25-2.39-1.48-11.02,7.24,4.78-.51.47-1.87,5.3,6.68c-4.23.52-7.93,4.13-11.61,6.15-3.14,1.73-5.43-.32-4.78,5.88.08.72,3.03,3.83,3.54,4.15,2.78,1.72,6.4.86,4.25-1.33l-3.88-1.42,1.93-4.78-2.88-.96c4.13.9,9.85-6.79,13.89-6.74,1.7,2.11,1.26,6.6-.1,8.66-.63.95-2.59.43-2.28,1.9,2.81,1.05,2.75-1.47,3.13-1.66ZM361.02,237.91l-5.06,2.8-1.65,2.94,6.71-5.74ZM627.72,237.91h-1.91v.94h1.91v-.94ZM633.48,237.91l-3.83.47c1.03,1.48,2.06,1.67,3.83,1.44v-1.91ZM637.31,237.91h-1.91v.94h1.91v-.94ZM656.65,239.61l-1.09-1.7-.47,5.8,5.01,1.49c2.32-1.87,1.97-3.42,2.16-6.33l-5.61.74ZM854.13,241.73c-2.52-8.09-9.62,5.96-15.35,1.92.36,6.1-5.07,9.16-10.56,9.61l1.43,1.92c7.48-4.51,5.16,1.33,9.17,4.33.84.63,5.35,1.53,6.06,1.4.92-.17.8-1.86,1.58-2.35,1.17-.74,2.99-.19,3.64-.69s.05-3.48,2.1-3.65c.17,6.3-4.06,9-8.62,12.03-.42,1.74,6.97,7.84,6.7,3.78-.37-5.59.03-2.88,1.98-6.74.48-.95.08-1.77.3-2.15.13-.22,3.4-3.47,3.46-3.72.82-3.5-.72-2.31-1.89-4.16l3.83.95-.11-3.39c1.85-2.6,4.34-1.2,5.81-1.91,1.33-.65,4.97-4.55,1.51-4.28-1.74,4.31-2.73,1.77-4.99,2.63s-5.2,4.47-6.75,4.89c-3.08.83-12.02-3.33-9.81-6.52l10.51-3.89ZM627.72,239.83h-3.83v.94h3.83v-.94ZM680.48,239.83h-1.91v2.87h1.91v-2.87ZM791.77,239.83c-.7-.82-10.35,5.75-11.75,6.68-4.32,2.89-7.16,4.69-11.92,7.54-5.59,3.34-12.4,10.55-18.54,6.85-1.89-2.52,12.77-14.89,17.2-12.5l.05-3.77c-7.21.83-14.4,5.5-17.75,11.5l-1.9-1.91c-4.34,4.95-11.16,6.76-17.27,8.64l.47-6.73,2.87.97c-.71-3.47,2.9-4.43,5.76-4.81l-1.91-1.9,2.91.42c-.23-4.14,3.52-3.03,3.8-3.31.81-.8-1.48-5.75-4.06-3.59l-10.33,6.96,4.79-.97c-2.71,1.02-2.76,4.37-3.21,5.06-.35.54-1.92.83-2.78,2.37-4.69,8.34-.99,10.29,6.96,7.44l-.97-1.9c6.06,1.41,8.52-4.27,13.91-5.77-1.79,5.01,2.06,7.52,6.63,7.69,5.5-2.07,14.19-11.5,19.27-12.5,1.92-.38,1.29.27,1.45,1.44.7,5.18-.91,9.89,6.72,10.08l-.08-2.37c6.89-.77,8.97-6.34,14.46-8.18-2.13-3.52-6.32,3.21-6.92,3.54-.66.37-5.78.98-7.1,2.19-7.71.42-4.03-7.88.07-10.62,1.17-.78,2.74.23,3.42-.32,1.39-1.13.42-4.96,5.62-4.49l.11-3.72ZM823.36,240.87c-2.96-4.25-19.47,4.66-22.28,7.53-.85.87-3.21,9.28-2.12,10.63,3.58,3.64,5.16,1.01,7.96.25,1.46-.4,3.19-.02,4.35-.44,2.06-.74,1.88-4.77,5.43-3.67l2.12,5.59c4.5.76,7.6-.86,8.44-5.59l-7.1,2.83-1.39-2.2c.19-3.14,3.4-2.66,4.68-3.99.84-.88.63-2.47,1.27-3.09.34-.33,4.34-2.26,5.24-2.32l.19-3.7-7.67,3.83.88-5.67ZM439.68,242.7v-1.91h-.94v1.91h.94ZM621.97,242.69c.47-.37-1.68-2.54-2.88-1.9-.47.37,1.68,2.54,2.88,1.9ZM640.2,242.7l-.47-1.9c-1.64,1.74-6.89.35-6.24,3.82,2.12-1.24,4.16-2.21,6.71-1.92ZM716.24,247.32c-1.03-.75-.82-4.92-3.11-6.07-4.19-2.1-10.17,1.18-13.81,3.31-.45,6.71,3.83.63,4.96.12,2.77-1.26,5.03-.14,7.87-.06l-.96,3.82,3.82-2.87c.54,1.94.94,3.84-.92,5.3s-5.62-4.78-6.73-3.38l.06,5.16c-5.4.43-4.24,5.46-4.99,6.21-.5.5-13.42,4.16-12.33,1.58,1.45-3.42,7.1-4.61,4.79-8.15l2.87.95-1.01-4.26,1.97-1.01-2.86-1.44-1.94,3.82,1.91.96-5.6.1-4.03,7.09c2.49.6,1.99,3.4,3.29,4.44,1.64,1.31,4.26-.13,4.9,2.77,3.19-4.87,6.72-5.76,11.99-7.67v6.71c8.26-2.19,14.91-5.7,21.11-11.99-.85-1.5-2.17.32-2.98.85-4.69,3.08-9.37,8.3-15.24,7.3,1.39-1.84,1.83-2.47.97-4.78l2.87.96v-2.89s2.88.96,2.88.96c-2.2-2.28,2.49-3.06,2.84-4.5,1.1-4.47-1.49-2.54-2.59-3.34ZM340.87,245.58v-2.88c-3.51,1.43-6.97,4.44-6.7,8.63,3.88.46,2.4-8.02,6.7-5.75ZM675.69,244.62l-1.94.48,1.47,2.39.47-2.87h1.89c.62-2.93-2.45-2.93-1.89,0ZM353.35,243.67c-1.73-.32-3.15,1.3-3.84,2.86,1.73.32,3.15-1.3,3.84-2.86ZM873.32,244.63h-1.91s0,1.91,0,1.91l1.91-1.91ZM617.17,245.59h-2.87v.94h2.87v-.94ZM630.6,245.58c-3.54-.02-5,2.37-4.79,5.75l4.79-5.75ZM869.47,248.45v-1.91h-.94v1.91h.94ZM348.55,247.51h-1.91s0,1.91,0,1.91l1.91-1.91ZM671.85,249.41v-1.91h-.94v1.91h.94ZM624.84,248.46h-1.42s-1.45,1.9-1.45,1.9h2.87s0-1.9,0-1.9ZM701.59,248.46h-1.91s0,2.87,0,2.87l1.9-1.45v-1.42ZM340.88,252.28l3.36.1,1.42-2.96c-1.26,1.12-4.5,1.15-4.78,2.87ZM333.19,253.25c.64-1.2-1.53-3.34-1.9-2.88-.64,1.2,1.53,3.34,1.9,2.88ZM798.49,250.39h-1.91v.94h1.91v-.94ZM623.89,253.25c-.47-1.84-2.12-2.16-3.83-1.9-.99.46,2.58,2.29,3.83,1.9ZM618.13,252.3h-1.91v.94h1.91v-.94ZM339.91,253.26c-3.15,0-4.63,1.77-4.81,4.8l-1.89.95c4.03.62,3.44-3.03,4.03-3.64.83-.85,3.44.98,2.68-2.11ZM621,253.26h-1.91v.94h1.91v-.94ZM665.15,257.09l1.88-1.43-.94-2.4h-.94s0,3.83,0,3.83ZM331.28,254.22h-2.87s0,1.91,0,1.91l2.86-.97v-.94ZM618.13,254.22h-2.87s.97,2.87.97,2.87l1.9-1.45v-1.42ZM599.9,266.69c1.89-1.28,4.3-3.3,5.8-4.24,2.51-1.57,8.2-1.46,6.67-6.31-1.52-.31-.93,1.8-1.86,2.44-.64.44-1.8-.65-2.65-.29-2.92,1.27-7.15,5.35-8.91,6.47-.37.23-7.28,2.52-8.27,2.78-2.78.73-5.18.91-7.94,0-1.04-1.18,1.72-6.62-2.01-5.66-1.98,5.18,1.03,6.27,4.32,9.59l1.31-.15c2.28-5.18,1.26-.32,1.35-.06.05.15,1.97,1.22,2.21,2.18,2.54.05,7.84-5.31,9.99-6.76ZM615.24,258.05v-1.91h-.94v1.91h.94ZM662.25,259.01v-1.91h-.94v1.91h.94ZM326.48,259.96v-1.91h-.94v1.91h.94ZM329.36,262.84c1.36.28,2.17-.32,2.77-1.56l-.86-3.23c-2.33.5-.79,2.97-1.91,4.79ZM684.32,258.05c-3.21.77-7.7,1.86-9.59,4.78,2.5-.54,4.85-1.82,7.33-2.78,1.37-.53,2.79.92,2.26-2ZM830.15,258.06h-2.87v.94h2.87v-.94ZM418.57,260.92v-1.91h-.94v1.91h.94ZM499.17,270.51c3.69-.43,11.92-5.34,10.06-9.63-2.14-4.92-13.69,1.27-16.72,3.45-2.28,1.64-4.85,6.38-6.79,7.58-2.72,1.68-18.48,5.62-21.55,5.33-2.46-3.79,3.07-3.85,4.09-4.97,2.57-2.8.19-1.47,5.42-4.74,2.38-1.49.24-3.75,6.33-2.23l.93-4.38c-4.93.43-10.71,2.73-14.61,5.73-2.72,2.09-2.63,5.77-8.42,5.29,3.23,1.69,1.46,6.74,6.26,9.11l.47-2.86c7.73,2.57,13.69-3.2,21.09-4.81-.06,6.35,4.41,4.18,7.07,4.87.7.18.54,1.57,1.25,1.78,1.44.43,10.32-.51,12.28-.93l1,1.97c1.5-2.51,7.61-.97,7.2-4.79-3.46,1.29-9.3-.09-11.83.28-.97.14-1.99,1.58-3.98,1.72-3.43.24-7.4-2.41-11.04-2.02,1.07-5.07,6.57-4.79,10.54-3.84.77-3.93-5.25-.7-6.7-2.39,1.74-2.06,4.56-2.02,3.84-5.29,4.69,2.61,1.54-3.51,6.7-2.86l-1.92,2.86c4.54,1.31,1.27-2.37,3.37-2.86,1.18-.28,3.11.38,3.34,1.44.56,2.62-6.84,4.75-7.67,7.17ZM584.55,259.98c-2.07-.57-3.91-1.77-4.79.94h4.79s0-.94,0-.94ZM875.24,259.02l-4.47,3.32,4.58,11.9,7.56,1.06c.41-1.56-1.31-.65-1.59-1.12-.27-.44.62-1.47-.29-2.17-1.42-1.08-4.3-2.14-5.79-3.88l.97-2.42,2.39,1.94,2.4-1.93c-3.39-.44-7.23-3.16-5.76-6.72ZM668.02,264.77c3.21,2.69,9.23-1.24,5.25-1.93s-10.89,5.74-10.06-2.88l-2.87,2.4,1.94,1.04-.9,2.22,3.28,2.01.48-1.91,3.83,1.91-.95-2.86ZM304.42,278.2c1.11.65,6.39-2.32,8.36-3.5,2.16-1.28,3.14-5.29,7.23-3.19,1.18.61.17,2.23,1.66,1.88l.97-3.83-3.83-.95c6.43,1.48,7.1-2.5,8.63-7.68l-6.6,4,.84,2.7-2.93-.48-1.95,3.29c-2.61-.85-11.01,3.26-13.34,5.83-.75.83-1.05,1.77-.99,2.88l-4.77-.97c-3.92-9.3,3.84-7.49,4.79-14.39-2.29.88-3.5-1.04-4.28,1.92-9.05-5.01-19.44-2.41-28.79-.49-1.85.38-6.13-1.75-6.26,2.39l-1.42-1.91c-3.13,4.15-9.21,2.26-12.57,3.72-5.88,2.54-7.6,10.23-.39,12.59l-2.71-5.29c1.52-.58,4.46-4.93,4.77-5.09.4-.2,1.89.9,2.98.6,6.31-1.76,14.56-4.65,19.49-6.56,3.84,2.4,3.03-.68,3.94-.91,2.64-.66,6.98.44,9.91,0-.92,2.64-3.38.64-5.52,1.57-.86.37-3.53,1.64-4.59,2.16-4.59,2.24-11.62,5.52-5.69,10.64,2.37,2.05,10.57-2.34,13.88-2.88l-.47-1.9c-1.7,2.53-3.77.68-6.24,1.35-1.47.4-3.98,2.75-5.25,2.49-1.75-.36-1.78-2.91-.58-4.4.92-1.13,9.9-4.99,11.82-5.53,1.67-.47,3.03.1,4.59-.12,3.25-.45,6.74-4.39,5.63,2.29l-2.78.56c4.48,1.52,1.47,3.52,2.92,5.67.99,1.47,2.51,1.24,2.83,1.53,1.22,1.1.49,4.29,6.2,2.94l.51-2.94ZM147.08,261.89h-1.91s0,1.42,0,1.42l1.43,1.45.47-2.87ZM151.88,263.8l-1.91-1.91v1.91s1.91,0,1.91,0ZM349.51,265.72c-4.33-5.03-10.35-.65-15.34-1.91l1.92,5.75c1.82.32.39-1.87,1.16-2.7.48-.52,3.1.33,2.73-2.03l1.86-.05.03,1.89c2.8-2.75,4.29-1.39,7.65-.96ZM429.14,269.56c0,.15-1.92,3.29.47,1.91.98-.57,1.47-2.02,3.03-2.57,1.87-.65,5.07-1.59,6.85-2.14,2.27-.7,4.67-.3,6.9-1.04,0,4.03-5.15,4.65-7.14,6.76-4.52,4.81-1.48,8.01,4.27,8.58l-3.84-4.78c3.87.98,4.51-2.04,6.84-4.16,1.35-1.23,4.14-.88,4.33-4.02.12-2.04-3.29-2.5-2.63-5.1l-17.06,2.83-.11,3.73c-.63.07-1.28-.05-1.91,0,.02-1.28,0-2.56,0-3.83l-3.82,2.89c-.25,1.6,2.86,1.01,3.83.95ZM700.63,264.76v-1.91h-.94v1.91h.94ZM139.41,263.81h-1.91v2.87h1.91v-2.87ZM143.25,263.82c-1.75-.32-3.19,1.05-2.87,2.87l2.87-2.87ZM135.57,264.77h-3.83s.97,2.87.97,2.87c1.81.31,3.18-1.12,2.87-2.87ZM424.34,265.74h-1.91v.94h1.91v-.94ZM414.75,266.69h-2.87s0,1.41,0,1.41l1.43,1.45,1.43-2.86ZM425.72,273.03c-2.64-2.75-4.46-4.39-3.3,1.33l-2.86-1.9-2.54,5.27.9,2.11c1.63,1.13,3.76,2.68,5.85,2.25.65-.13.44-1.71,1.03-1.8.99-.14,4.78.93,6.26.79l-1.91-1.9,5.74-.98c-2.45-3.48-9.02,1.83-13,1.8-.2,0-.97-2.79-3.3-1.8-.19-1.95,2.54-.35,3.69-1.08.53-.33.91-2.83,1.11-3.72l3.82.96c.36-1.42-.94-.74-1.5-1.33ZM290.99,274.35l-1.43-2.86c-2.28,1.47-.99,2.94,1.43,2.86ZM891.55,274.35l-.97-2.86h-.94l-.97,2.86h2.88ZM904.98,275.32c-4.87,1.6-6.13-5.61-12.46-3.82.04,2.33,4.48,1.88,4.64,2.1.43.59.22,2.18,1.05,3.24,1.49,1.9,4.25.77,2.94,6.16,4.21-.17,4.1-4.43,3.83-7.67ZM335.12,272.45h-1.91v.94h1.91v-.94ZM456.95,272.45c-1.79-.25-3.32,0-3.83,1.9h3.83s0-1.9,0-1.9ZM886.75,273.41h-1.91v.94h1.91v-.94ZM335.12,276.27l-1.91-1.91v1.91s1.91,0,1.91,0ZM452.16,274.36l-5.74.97v.94s5.75,0,5.75,0v-1.91ZM329.36,275.33l-4.79,1.43,1.43,1.43c.94-1.62,3.59-1.39,3.35-2.85ZM880.03,275.33h-1.91v.94h1.91v-.94ZM318.93,280.95c7.42.74,5.26-5.72-1.08-2.74l1.08,2.74ZM445.44,277.25h-1.91v.94h1.91v-.94ZM875.24,284.9c-.83-1.67-1.51-4.24-3.84-3.82l1.94,3.82h1.9ZM876.2,284.91h14.87c.51,0,5.52-.81,6.67-1,.68-.11,3.24-.91,1.95-1.88-7.41.89-15.73,2.7-23.03.99l-.46,1.9ZM54.02,294.51c-7.51-.63-15.28-3.1-22.7-3.48-7.09-.36-13.86,2.03-20.94,2.52-1.48.1-3.13-1.17-4.61-.82-2.97.7-6.88,7.12-5.47,10.41h5.76s-3.81-2.4-3.81-2.4c2.95-4.89,6.71-2.7,10.94-3.43,2.34-.41,4.25-1.56,6.78-1.86,6.24-.72,13.78-.54,20.15-.96l-.47,3.84,15.69-1.09c2.2-.72,1.55-3.77,1.57-5.63h-2.87s0,2.88,0,2.88ZM369.65,293.55c-.57-.57-5.69,2.44-4.79,2.86,2.37.28,5.05.06,4.79-2.86ZM178.74,294.52l-2.87.47,1.43,1.42,1.44-1.89ZM337.03,298.34l-1.43-3.83-4.32,4.78c2.46-.22,3.01-2.34,5.75-.95ZM376.37,299.3l-.94-3.83-2.89,3.82h3.83ZM181.62,296.43l-2.87.47,1.43,1.42,1.44-1.89ZM82.8,297.39h-1.91v.94h1.91v-.94ZM91.44,297.39h-1.91v.94h1.91v-.94ZM61.7,300.25l-1.91-1.91v1.91s1.91,0,1.91,0ZM68.42,298.35l-2.33,1.83c-3.57-2.31-3.08.34-3.75.7-1.15.63-2.82-.33-2.55,1.28l7.63-.02,1-3.8ZM83.76,300.27c-4.62-1.76-9.41-1.61-14.38-1.92l1.44,2.87,2.38-1.91c.84,4.81,2.36,1.51,4.66,1.45,1.56-.04,5.54,1.57,5.91-.48ZM39.63,299.31h-1.91v.94h1.91v-.94ZM44.43,299.31l-2.87.47,1.43,1.42,1.44-1.89ZM48.01,299.64c-.9-.5-1.68-.37-2.62-.33l.82,1.8-1.76,1.06h10.54c-.44-2-4.34-.6-6.07-.97-.72-.15-.75-1.48-.91-1.56ZM57.86,299.31h-3.83s0,.94,0,.94l3.82.97v-1.91ZM370.61,301.22l-.47-1.91-1.44,1.9h1.91ZM35.79,300.27h-2.87v.94h2.87v-.94ZM334.16,300.27l-2.79.06-1.04,3.75h1.9s1.94-3.82,1.94-3.82ZM373.49,300.27h-1.91v.94h1.91v-.94ZM8.93,304.1c.64-1.2-1.53-3.34-1.9-2.88-.64,1.2,1.53,3.34,1.9,2.88ZM16.61,301.23h-1.91v1.91h1.91v-1.91ZM23.33,301.23c-1.2-.64-3.34,1.53-2.88,1.9,1.2.64,3.34-1.53,2.88-1.9ZM37.71,303.13l-.47-1.91-1.44,1.9h1.91ZM27.16,302.19h-2.87v.94h2.87v-.94ZM33.88,302.19h-4.79v.94h4.79v-.94ZM366.79,305.06c.37.47,2.54-1.68,1.9-2.88-.37-.47-2.54,1.68-1.9,2.88ZM322.66,308.9c1.84-.47,2.16-2.12,1.9-3.83-.46-.99-2.29,2.58-1.9,3.83ZM328.4,305.07h-1.91v.94h1.91v-.94ZM365.81,306.97v-1.91h-.94v1.91h.94ZM515.47,306.99h-1.91v.94h1.91v-.94ZM364.86,310.81v-2.87s-.94,0-.94,0l-1.93,2.86h2.87ZM321.68,311.78h-1.91v.94h1.91v-.94ZM318.81,314.66h-1.91v.94h1.91v-.94ZM314.01,318.5h-3.83s0,1.9,0,1.9c1.79.25,3.32,0,3.83-1.9ZM308.27,323.29c2.88-.98,1.71-2.97-.97-2.87l.97,2.87ZM354.3,320.42h-1.91v.94h1.91v-.94ZM306.33,323.28v-1.91h-.94v1.91h.94ZM353.34,322.34h-1.91v.94h1.91v-.94ZM305.37,325.21c-.57-.57-5.73,2.46-4.78,2.87l4.79-.96v-1.9ZM346.63,332.88c-.6,1.63-.33,5.06-1.23,6.45-.62.96-6.01,4.04-6.99,5.99l-6.16-5.72v4.8s1.77-.83,1.77-.83l3.03,6.58c3.17.76,1.4-4.72,5.25-4.8,1.46-.03-1.17,6.04,2.39,4.8l6.73-20.61-1.92-.99c-.28,1.13-2.7,3.86-2.87,4.33l-.47-1.91-1.44,1.9h1.92ZM299.62,330.01c-3.19-.47-3.87-.16-4.79,2.86,2.3,1.01,1.61-1.27,2.19-1.62,1.11-.67,2.88.43,2.6-1.24ZM293.86,333.85h-1.91v.94h1.91v-.94ZM342.79,333.85c-1.2-.64-3.34,1.53-2.88,1.9,1.2.64,3.34-1.53,2.88-1.9ZM278.51,337.68l-.47-2.87-1.42,1.43,1.89,1.44ZM290.03,334.81h-1.91v.94h1.91v-.94ZM337.99,339.59c.98-.96-1.87-3.85-2.87-2.87s1.87,3.85,2.87,2.87Z"/>
      <path class="cls-1" d="M877.16,289.71c3.65.4,9.09.45,13.67,1.2,5.65.93,11.37,3.5,17.03,4.57,2.38,2.35-4.21,1.99-5.32,1.95-5.37-.2-10.92-1.52-16.27-1.95-4.57-.37-25.49-.03-27.33-4.33l1.91-1.42c-3.62.2-8.12-1.37-7.66-5.76,3.49,1.45,8.69,1.51,9.17,5.81,4.43-.97,8.93,2.54,12.89-.06.62.08,1.29-.07,1.92,0Z"/>
      <path class="cls-1" d="M304.42,278.2c-.51.61-1.47-1.31-.96-1.92s1.47,1.31.96,1.92Z"/>
      <path class="cls-1" d="M370.62,267.64c-1.1,1.02-2.81,2.25-2.89,3.83h-.94s0-2.87,0-2.87c1,.24,1.44-.71,1.92-.96.34-.18,1.34.11,1.92,0Z"/>
      <polygon class="cls-1" points="598.94 264.77 600.86 264.78 599.9 266.69 598.95 266.2 598.94 264.77"/>
      <polygon class="cls-1" points="600.86 245.58 598.95 245.57 598.94 243.66 600.86 245.58"/>
      <path class="cls-1" d="M616.21,239.82c-.17-.98-.15-1.99.96-1.92l-.96,1.92Z"/>
      <polygon class="cls-1" points="361.98 224.47 363.9 224.48 363.9 226.39 361.98 224.47"/>
      <path class="cls-1" d="M877.16,289.71c-.63-.07-1.29.08-1.92,0,.34-.22,1.26-2.5,1.91-1.92v1.92Z"/>
      <path class="cls-1" d="M370.62,267.64c-.58.11-1.58-.18-1.92,0,.13-.05.98-2.48,1.92,0Z"/>
      <path class="cls-1" d="M336.08,280.12c-.07.07.21,1.26-.69,1.92-3.17,2.33-7.93,3.84-11.79,4.8l2.71-2.08-.8-1.75c6.02,1.19,5.59-3.42,10.56-2.89Z"/>
      <path class="cls-1" d="M368.7,267.64c-.48.25-.92,1.2-1.92.96.69-.37,1.15-.65,1.92-.96Z"/>
      <path class="cls-1" d="M355.27,273.4c-.11-.19-1.12-.33-1.42-.96-2.03-4.28,2.09-7.81,1.42-8.63-3.36-.3-.73,3.47-4.79.48,3.88-1.82,8.09-3.01,11.75-5.31,2.27-1.42,3.89-6.4,7.43-3.33,1.35,1.17.9.83.02,1.93-1.01,1.26-5.74,4.08-7.57,5.13-1.34.77-2.68-1.01-1.31,1.86-2.09.65-2.84,1.79-2.66,4.03l-2.86-1.92.46,2.66,1.44-.76.03,2.86c1.87,1.2,6.41-2.12,6.68-1.88.35.31-.79,2.29.96,1.91l.18-2.7c.39-.57,1.49-.03,1.75-.17v2.87s.95,0,.95,0c.08-1.58,1.79-2.8,2.89-3.83s2.79-2.54,4.26-3.89c2.55-2.34,6.58-3.76,7.27-7.62,1.83-1.28,4.13,5.26,3.82,6.66-1.73.32-3.97.37-5.45,1.32-3.51,2.26-5.87,6.43-8.91,8.94-1.05.87-1.47,2.68-3.39,3.22l-.95-1.93-1.09,1.95h-6.1s.97,2.84.97,2.84c-5.5.04-2.42,2.99-4.27,4.82l-7.26.95-2.87,1.92c.72,2.67,1.84.95,2.4.95h22.07c6.33,0,9.86-6.75,15.82-4.8l-1.91-1.43,9.41-7.67-2.27-3.34c-1.01-3.72,9.7-.61,10.11-.99.27-.25-.21-3.7,1.93-3.84l1.93,2.87c-2.67-4.69,3.14-6.41,4.48-10.59l5.11,1.5-4.78.47c-.16,1.75,1.67-.02,1.98,2.32.1.76-.13,1.66-.07,2.46l-2.86-1.92-.88,4.4,1.83,1.83c-2.7,4.4-6.2,2.1-10.15,4.76-2.28,1.54-4.86,5.96-8.49,8.29-2.12,1.36-4.61.12-5.82,3.75l-.46-1.91c-3.91-.31-4.96,1.71-1.34,3.6l35.38-1.7c2.62.2-3.24,1.79-1.9,2.9l5.26-2.88.48,1.92,1.01-1.98c5.35,1.64,11.59,1.1,17.25,1.06,4.93-.03,7.85-.54,12.41-1.1,8.17-1,32.08-.93,40.39,0,1.9.21,1.23,2.15,1.83,2.02,1.55-1.42,3.7-2.17,5.82-2.04,1.82.12,1.32,1.94,1.81,1.92,74.14-3.3,149.66,6.47,224.39,5.49,24.97-.33,49.36-4.13,74.08-4.37,11.64-.11,22.9,1.99,33.54,1.96,4.7-.01,10.9-2.5,15.83-1.04.22-2.18-.16-4.52,0-6.72l8.19,1.73c2.88-5.34,4.96-3.14,10.03-2.67l-7.66,1.92,2.88.95-.96,3.83c3.93-1.71,6.57.48,10.55.96-3.96,2.6-8.46-.91-12.89.06-.49-4.3-5.68-4.36-9.17-5.81-.45,4.39,4.04,5.96,7.66,5.76l-1.91,1.42c1.83,4.3,22.76,3.96,27.33,4.33,5.35.43,10.9,1.76,16.27,1.95,1.11.04,7.7.4,5.32-1.95-5.66-1.07-11.38-3.63-17.03-4.57-4.57-.75-10.01-.81-13.67-1.2,3.42-3.02,31.12,3.34,32.2,4.74,2.48,3.18-2.73,4.84-4.83,4.94-8.97.46-39.08-1.9-46.28-5.65-2.09-1.09-3.56-3.3-6.04-4.04-.06.63.05,1.29,0,1.92-4.53-.9-10.11.18-14.77,1.06-8.44,1.58-8.14-.01-16.53-.93-22.74-2.49-48,2.56-70.84,3.77-31.18,1.65-66.91.56-97.99-1.9-2.57-.2-3.91,2.55-4.69-1.05l-.88,1.85c-1.18-.71-2.5-.93-3.87-.93-41.43.1-82.73-3.4-123.84-3.83-44.26-.47-93.49-2.03-137.15,1.46-2.35.19-5.47-1.59-7.81.47-1.08,5.15-3.1,3.71-1.32-.91l-27.67,1.11c-1.68,3.16-2.87,6.25-.52,9.49,7.24.51,13.25-1.91,19.55-4.84-.51.68-2.89,3.47-3.1,3.59-1.22.66-3-.12-3.83.29-2.45,1.21-5.05,6.59-6,1.86l-2.4,1.01c.47,1.17,1.89,2.1-.51,1.91-3.45-.27-9.39-6.01-7.18-9.61l-2.87.95,2.87-4.8h-20.63c-.24,0-.81.85-1.73.74-.99-.12-1.99-2.09-3.54-1.69l1.91,1.9-8.08.95c.06,4.08-3.98,3.89-7.26,3.86l1.45,1.92c-10.07,6.14-23.2,13.86-25.36,26.45-.3,1.76.45,7.77-.57,8.08-2.04.61-1.88-4.16-1.87-5.29.03-3.85,1.95-7.49,2.23-10.5.12-1.24-1.35-3.1-.73-4.22.41-.74,4.64-1.61,5.4-2.37,2.2-2.21,8.15-8.83,10.8-10.71s9.01-2.67,9.62-6.24l2.85,1.91,1.92-5.75-2.35,2.03c-5.5-1.87-10.37.17-15.87.84-.01-1.21,2.42-2.97-.47-2.88-1.04.03.46.99-1.48,1.54-1.55.44-11.94,2.31-12.91,2.35-.25,0-.34-2.59-3.86-1.74-2.6.63-1.86.41-5.77.68-4.59.32-23.84,2.67-26.12,1.69-.56-.24-2.36-4.91-4.08-.68l2.87.96-5.27-1.92c-.58,2.71-9.89,3.36-11.98,2.39-.92-.43-2.46-2.28-2.9-3.33,2.43,1.09,8.45.58,7.69,2.86h.93c1.71-5.01,11.25-2.04,15.36-3.84l.48,2.89c1.08-2.29,13.69-3.23,14.68-2.61.43.27-.18,1.78.66,1.65,3.16-2.02,10.17-2.61,14.39-2.95,11.74-.95,23.62.38,35.5-.9,4.43-.48,8.85-2.56,12.97-1.91l-.97-1.9c2.25-.67,3.05-.74,4.8.95l-.96,1.91h22.06c.17-5.93-3.23-8.05-8.63-8.62.63-.66,1.44-1,2.36-1.03,1.3,0,5.19,1.36,6.03,2.23,1.16,1.2.47,4.2,2.54,3.5,3.67-1.23,3.97-6.26,9.12-4.8,1.31-3.6.73-3.88-.86-6.62h1.92s-1.44-1.91-1.44-1.91l-.47,1.91ZM414.74,287.8h-2.87v.94h2.87v-.94ZM364.86,288.76h-1.91v.94h1.91v-.94ZM336.07,289.72h-3.83v.94h3.83v-.94ZM294.82,302.19h-1.91v.94h1.91v-.94Z"/>
      <path class="cls-1" d="M257.41,254.21c2.58-2.77,4.91-4.03,8.64-2.89l-.97-1.9c1.48.23,2.62-.6,3.85-.97-.05.17.74.95.62,1.45-.67,2.99-9.95,3.67-12.14,4.3Z"/>
      <path class="cls-1" d="M152.84,249.42c-8.27.99-8.17-3.43-10.06-3.58-.78-.06-11.56,5.95-12.9,7.01-5.19,4.07-8.59,11.88.9,10.97v2.88s-5.26.98-5.26.98l1.41-1.93c-14.64-7.95,7.62-21.37,16.3-23.07-2.46-5.53,4.97-11.4,9.28-14.2,9.78-6.36,44.26-16.29,55.25-14.31,1.55.28,3.62.77,4.46,2.24.28,1.09-2.58,8.92-4.7,6.64,6.24-7,1.28-8.26-5.58-7.46-12.16,1.41-47.36,10.71-54.32,20.47-.61.86-3.07,5.08-2.46,5.69,6.56-1.99,14.14-5.31,20.85-6.49,8.75-1.54,19.52-1.8,9.85,8.89,8.94-.26,16.75-6.93,24.94-10.09l-1.92-2.86,4.32,1.69c2.73-2.98,7.39-4.08,10.43-6.4,1.04-.79.34-2.51.69-2.83.55-.49,2.76.09,3.96-.38,10.05-3.94,15.84-6.99,27.38-9.1,6.46-1.18,22.34-3.95,27.43-.12,2.57,1.93,7.39,7.85,8.22,10.97,1.57,5.94,1.11,11.54-2.4,16.64-2.64,3.84-6.11,5.63-10,6.79.13-.48,6.56-4.58,7.55-6.33,2.25-3.98,4.2-13.99,2.56-18.18-1.11-2.83-7.34-8.53-10.65-9.01-12.36-1.77-41.42,5.46-52.38,11.57-7.44,4.15-15.08,10.22-21.95,13.69-1.66.84-3.21,2.04-4.88,2.85-4.63,2.24-13.45,2.44-16.52,4.36-1.16.73-.91,2.53-1.54,3.2-2.82,3.01-6.4,7.62-10.59,6.49l.46,1.9,3.37-.47c-4.13,2.52-5.1,5.14-4.8,10.08,2.57-1.31,6.29,1.54,7.2,1.55,1.07.02,6.81-3.34,8.72-3.51,1.75-.19.93,3.53,5.19.99l-3.83-1.43,1.98-1-1.03-3.31c2.72-.74,6.95-1.51,9.37-2.6,3.05-1.38,9.3-7.8,12.47-9.84,11.41-7.37,25.09-15.09,36.93-21.36,8.2-4.34,34.62-17.58,25.84,3.76-3.5,8.5-8.84,12.07-17.44,14.69-.51-2.38.51-1.7,1.78-2.49,2.6-1.62,5.79-1.85,7.83-3.72,2.38-2.18,11.19-15.92,6.08-17.64-4.12-.6-8.87.92-12.8,2.29-9.72,3.38-54.53,29.03-61,35.98-1.29,1.39-.94,3.35-2.3,4.98-4.23,5.09-11.96,4.22-17.31,7.47-1.05-3.35-5.68-1.1-7.49-2.12-1.56-.88-3.92-7.32-2.11-9.39l-3.83-1.92,3.35-1.93,1.43,1.92c.64-5.34,7.81-7.08,10.56-11.5-3.03-1.17-5.46,1.21-7.38,1.55-3.68.65-6.05,1.08-8.92-.6,5.64-.68,11.49-3.31,17.07-2.1l7.45-8.42-.54-2.91c-5.96,1.68-12,2.95-17.98,4.57-3.21.87-3.98,1.44-5.78,2.06-1.29.45-7.5,1.49-7.89,2.01.03,4.46,5.23,3.14,7.55,3.98.24.09.07.78.13.81ZM182.58,264.78h-1.91v.94h1.91v-.94Z"/>
      <path class="cls-1" d="M257.41,254.21c-.13.14.35,1.35-.15,1.74l-19.01,6.39c-2.21,6.93-.98,9.79-4.83,16.81.04-.11-.9-1.36-.66-2.23,1.3-4.65,2.34-7.91,1.62-13.13l-9.59.53c-2.79-2.57-4.65-6.26-.05-7.78,5.95-1.96,7.3,4.33,11.65,3.91,5.85-.56,14.95-4.5,21.01-6.26ZM230.54,259.98h-4.79s0,1.91,0,1.91l4.78-.97v-.94Z"/>
      <path class="cls-1" d="M167.23,273.4c-.41.25-3.26,2.41-2.84,3.31,5.74,6.24,7.56,13.12,16.81,14.86,4.6.87,13.54-1.08,15.31,2.01,5.18-3.44,9.4-.73,14.85-.05l-2.88-2.4c1.93-1.72,4.68-.19,6.05-.47.61-.12,8.68-5.58,10.34-6.24s2.35.5,2.8.49c-2.98,3.03-5,3.69-8.16,3.99-.31.03-3.44,3.63-5.27,2.73-1.74,1.56,3.97,3.35,3.83,4.78-4.58-1.81-6.47-2.7-11.01.05l-.98-1.98-.6,1.72-22.9,1.17v-2.89s-2.78.86-2.78.86c-.58-3.53-4.01-3.03-6.35-4.68-2.17-1.53-10.5-13.26-11.47-13.36-10.88,7.72-23.81,12.15-35.04,19.1l12.96.12c1.97,4.49,3.48.18,3.8.09,5.34-1.55,10.65.29,15.86-1.16-1.87,5.69,1.82-.6,2.52-.84,1.89-.65,10.13.9,12.82-.12l-.77,1.44,1.73.95c-1.29,1.77-3.53-1.1-4.33-1.09-.64,0-1.96,1.59-3.83,1.68s-3.59-1.12-4.74-1.09c-.62.01-.12,1.87-1.93,2.05-10.71,1.04-23.53.15-34.59.86l.48-2.88c-1.06.66-3.31,1.28-3.83,2.4-.44.94,2.42-.24,1.91,1.43-2.94-.78-6.95-.43-9.83.25-6.19,1.45-19.88,11.11-19.97-.16-4.26-.63-7.65,1.38-11.44-1.06l1.44-1.88c2.85,3.33,9.37,1.09,12.49-.96,2.22-1.45,3.42-4.6,5-5.81,7.31-5.57,20.74-7.97,29.05-12.03,8.14-.9,16.24-4.49,24.92-4.25.39,2.31-.25,1.81-1.9,2.36-4.09,1.36-10.37,1.37-14.76,2.47-10.49,2.62-32.26,9.15-39.29,17.18-.95,1.08-.72,1.59-.64,2.94,3.3-3.11,7.5-.2,11.5-2.88l-.95,2.87,2.39.05c1.42-4.07,3.12-1.72,5.79-2.42,9.3-2.44,16.32-8.89,23.76-11.3,1.37-.44,2.26.09,3.55.24l-.97-2.87,2.43-.98.93,1.93c3.91-3.54,7.12-6.9,12.95-6.72l-3.84-.95v-2.87s9.6,0,9.6,0ZM191.21,295.47h-1.91v.94h1.91v-.94ZM132.69,297.39h-4.79v.94h4.79v-.94ZM109.67,299.31c-4.21.94-9.44-.66-12.45,3.35,2.82,3.4,4.74-.12,5.5-.4,2.29-.84,5.88-.46,6.95-2.95Z"/>
      <path class="cls-1" d="M233.43,279.16c-1.79,3.28-1.63,5.71-5.76,5.76,1.21-1.23,2.08-3.19,3.2-4.51.63-.74,2.5-1.11,2.55-1.25Z"/>
      <path class="cls-1" d="M499.17,270.51c.83-2.42,8.23-4.55,7.67-7.17-.23-1.07-2.16-1.72-3.34-1.44-2.1.49,1.17,4.17-3.37,2.86l1.92-2.86c-5.16-.65-2.02,5.47-6.7,2.86.71,3.27-2.11,3.23-3.84,5.29,1.46,1.69,7.47-1.54,6.7,2.39-3.98-.95-9.48-1.24-10.54,3.84,3.64-.39,7.61,2.26,11.04,2.02,1.99-.14,3.01-1.58,3.98-1.72,2.53-.37,8.37,1,11.83-.28.41,3.82-5.7,2.28-7.2,4.79l-1-1.97c-1.96.42-10.84,1.36-12.28.93-.71-.21-.55-1.6-1.25-1.78-2.65-.69-7.13,1.48-7.07-4.87-7.39,1.61-13.36,7.38-21.09,4.81l-.47,2.86c-4.8-2.37-3.03-7.41-6.26-9.11,5.79.47,5.7-3.2,8.42-5.29,3.9-3,9.68-5.3,14.61-5.73l-.93,4.38c-6.09-1.52-3.95.74-6.33,2.23-5.23,3.28-2.85,1.94-5.42,4.74-1.02,1.11-6.55,1.18-4.09,4.97,3.06.29,18.82-3.65,21.55-5.33,1.95-1.2,4.51-5.94,6.79-7.58,3.03-2.18,14.59-8.38,16.72-3.45,1.86,4.3-6.36,9.21-10.06,9.63Z"/>
      <path class="cls-1" d="M854.13,241.73l-10.51,3.89c-2.21,3.19,6.72,7.35,9.81,6.52,1.55-.42,4.52-4.05,6.75-4.89s3.26,1.68,4.99-2.63c3.46-.27-.18,3.64-1.51,4.28-1.47.71-3.96-.69-5.81,1.91l.11,3.39-3.83-.95c1.16,1.85,2.71.66,1.89,4.16-.06.25-3.33,3.5-3.46,3.72-.23.39.18,1.2-.3,2.15-1.95,3.85-2.35,1.14-1.98,6.74.27,4.05-7.11-2.05-6.7-3.78,4.56-3.03,8.79-5.73,8.62-12.03-2.05.17-1.43,3.13-2.1,3.65s-2.47-.05-3.64.69c-.78.49-.66,2.18-1.58,2.35-.71.13-5.22-.77-6.06-1.4-4.01-3-1.7-8.84-9.17-4.33l-1.43-1.92c5.49-.45,10.92-3.51,10.56-9.61,5.73,4.04,12.82-10.01,15.35-1.92ZM849.34,252.3c-1.66.27-5.88-1.14-7.1-.75-.27.09-4.02,3.36-3.45,4.58l8.05-1.04,1.52,2,.97-4.78ZM844.54,259l-1.91-1.91v1.91s1.91,0,1.91,0Z"/>
      <path class="cls-1" d="M791.77,239.83l-.11,3.72c-5.21-.47-4.23,3.36-5.62,4.49-.68.55-2.25-.46-3.42.32-4.1,2.74-7.78,11.04-.07,10.62,1.32-1.21,6.44-1.82,7.1-2.19.59-.33,4.79-7.07,6.92-3.54-5.49,1.84-7.57,7.41-14.46,8.18l.08,2.37c-7.63-.19-6.02-4.89-6.72-10.08-.16-1.18.47-1.82-1.45-1.44-5.08.99-13.76,10.43-19.27,12.5-4.57-.18-8.42-2.68-6.63-7.69-5.38,1.5-7.85,7.18-13.91,5.77l.97,1.9c-7.95,2.85-11.65.9-6.96-7.44.86-1.54,2.43-1.83,2.78-2.37.45-.68.5-4.04,3.21-5.06l-4.79.97,10.33-6.96c2.58-2.16,4.87,2.79,4.06,3.59-.29.28-4.03-.82-3.8,3.31l-2.91-.42,1.91,1.9c-2.86.38-6.46,1.34-5.76,4.81l-2.87-.97-.47,6.73c6.11-1.87,12.93-3.68,17.27-8.64l1.9,1.91c3.35-6.01,10.53-10.67,17.75-11.5l-.05,3.77c-4.44-2.39-19.09,9.99-17.2,12.5,6.14,3.7,12.94-3.51,18.54-6.85,4.76-2.84,7.6-4.64,11.92-7.54,1.4-.94,11.05-7.51,11.75-6.68Z"/>
      <path class="cls-1" d="M823.36,240.87l-.88,5.67,7.67-3.83-.19,3.7c-.89.06-4.89,1.99-5.24,2.32-.64.62-.43,2.21-1.27,3.09-1.28,1.33-4.49.85-4.68,3.99l1.39,2.2,7.1-2.83c-.84,4.73-3.94,6.36-8.44,5.59l-2.12-5.59c-3.55-1.11-3.37,2.93-5.43,3.67-1.16.42-2.89.04-4.35.44-2.8.76-4.38,3.39-7.96-.25-1.09-1.35,1.27-9.76,2.12-10.63,2.81-2.87,19.32-11.78,22.28-7.53ZM821.51,243.67h-1.91v.94h1.91v-.94ZM818.64,244.63c-3.59.44-8.14-1.15-7.69,3.82l-1.43-1.92c-.74,2.96-2.6,1.89-5.28,1.94l.98,1.9h-2.9s.93,2.77.93,2.77l-2.84,2.02h3.83s-2.87,2.88-2.87,2.88c7.42.26,14.75-6.93,17.26-13.42ZM821.52,248.45l-1.91-1.91v1.91s1.91,0,1.91,0ZM816.71,253.26h-1.91v.94h1.91v-.94Z"/>
      <path class="cls-1" d="M303.46,276.28c2.33-2.57,10.73-6.68,13.34-5.83l1.95-3.29,2.93.48-.84-2.7,6.6-4c-1.53,5.17-2.2,9.15-8.63,7.68l3.83.95-.97,3.83c-1.49.34-.48-1.28-1.66-1.88-4.09-2.1-5.07,1.91-7.23,3.19-1.98,1.18-7.25,4.15-8.36,3.5.51-.61-.45-2.52-.96-1.92Z"/>
      <path class="cls-1" d="M297.7,278.2c-.33-.29-1.84-.06-2.83-1.53-1.45-2.15,1.57-4.15-2.92-5.67l2.78-.56c1.11-6.67-2.39-2.74-5.63-2.29-1.56.22-2.92-.36-4.59.12-1.92.54-10.91,4.4-11.82,5.53-1.21,1.49-1.17,4.04.58,4.4,1.28.26,3.79-2.09,5.25-2.49,2.47-.67,4.54,1.18,6.24-1.35l.47,1.9c-3.31.54-11.51,4.93-13.88,2.88-5.93-5.12,1.1-8.39,5.69-10.64,1.06-.52,3.73-1.79,4.59-2.16,2.15-.93,4.6,1.08,5.52-1.57-2.93.43-7.27-.66-9.91,0-.92.23-.1,3.32-3.94.91-4.93,1.91-13.18,4.8-19.49,6.56-1.08.3-2.58-.8-2.98-.6-.31.16-3.25,4.51-4.77,5.09l2.71,5.29c-7.21-2.36-5.49-10.05.39-12.59,3.37-1.45,9.45.43,12.57-3.72l1.42,1.91c.12-4.14,4.41-2.02,6.26-2.39,9.35-1.92,19.75-4.52,28.79.49.78-2.97,2-1.04,4.28-1.92-.94,6.9-8.71,5.09-4.79,14.39l4.77.97c-.07-1.11.23-2.05.99-2.88-.51.61.45,2.52.96,1.92l-.51,2.94c-5.71,1.35-4.98-1.84-6.2-2.94ZM290.03,264.77h-1.91s1.44,1.91,1.44,1.91l.47-1.91Z"/>
      <path class="cls-1" d="M802.33,233.11c-1.3.73-3.56,3.11-5.77,2.36-.23-.08-3.81-2.8-3.87-3.03-1.42-6.05,4.48-7.38,7.4-10.2,6.35-6.16,12.83-12.27,19.72-17.2,4.79-3.43,5.72-.52,5.54,4.09l-5.74.02,3.84.48c-1.66,3.41-3.71,8.4-8.21,8.08-1.52-.11-2.34-1.81-3.77-1.9-.32-.02-3.03,3.55-4.88,3.88l2.46,5.32-1.98.97c2.14,3.65-.02,2.84-.51,3.71-2.35,4.12-1.07,1.66-4.23,3.44.79-.48,2.6-4.12,1.92-4.79-2.33,1.08-3.14-1.95-3.35-1.95-2.3-.04-8.25,6.49-1.92,5.82.27-.03.84-3.22,3.35-1.95l-1.91,1.92c-.39,1.32,1.46,1.23,1.92.95ZM820.56,212.95l-2.4-2.85-4.3,4.3c3.28,3.97,2.89-2.67,6.7-1.45ZM806.16,222.56h-1.91s-.96,3.82-.96,3.82c2.42.25,3.24-1.52,2.87-3.82Z"/>
      <path class="cls-1" d="M54.02,294.51v-2.88s2.88,0,2.88,0c-.01,1.85.64,4.91-1.57,5.63l-15.69,1.09.47-3.84c-6.38.41-13.91.23-20.15.96-2.53.29-4.44,1.45-6.78,1.86-4.23.73-7.99-1.46-10.94,3.43l3.81,2.39H.3c-1.41-3.28,2.5-9.7,5.47-10.4,1.49-.35,3.13.92,4.61.82,7.08-.49,13.85-2.88,20.94-2.52,7.42.37,15.2,2.85,22.7,3.48ZM51.14,295.47h-1.91v.94h1.91v-.94Z"/>
      <path class="cls-1" d="M423.38,251.34c-1.56.38-2.16.58-3.83,0l1.91,1.9h-3.83c-1.04,1.89,3.91,2.85,1.91,4.8-1,.98-3.13-.42-3.29-1.85l-3.41.42c2.59-2.1,5.27-6.34,8.62-6.26l-.97-1.89h2.91c-2.17-3.47.85-3.03,1.6-4.13,4.3-6.34,9.01-8.88,14.43-13.4.69-.58,1.52-3.38,3.11-5.05,1.42-1.48,4.02-2.37,5.32-4.27l2.38,1.91v-3.84c3.54.69,4.87-.44,7.05-2.9.2-.23-.13-3.49,4-3.47,1.78,0,2.93,2.2,4.3,2.9.71.36,2.1-.45,2.93.08,1.03.65-.85,2.95,1.85,2.45-.38,5.55-3.76-.64-4.43-.86-5.62-1.86-16.79,8.03-21.11,11.75-1.59,1.37-3.23,5.09-4.88,6.41-2.82,2.24-7.53,4-9.87,5.29-1.43.79-3.5,3.67-1.9,5.22l-3.83.02.99,2.31c-2.29.92-1.47,1.28-1.95,2.48,2.56-.63,4.97-1.86,7.67-1.91.25,1.63-1.7.72-2.83,1.51-.7.49-.79,1.82-1.24,2.09-2.03,1.21-3.39-1.3-5.04,4.06-1.09-1.5.79-4.14,1.44-5.75ZM462.71,214.89h-1.91v.94h1.91v-.94Z"/>
      <path class="cls-1" d="M686.24,208.16l-1.45.96,1.44,2.88-2.86-.96c.24,5.13-1.83,3.99-4.3,5.74-2.24,1.59-9.79,6.61-11.08,8.16-1.39,1.67-3.84,8.68-5.28,10.12-1.06,1.05-2.46.62-3.15,1.09-.24.16.9,2.13-.66,2.72l-.16-3.56,5.43-6.99c-2.49,1.76-5.68.39-7.93.95-1.69.43-3.54,5.24-3.79,5.49-.74.73-4.99,1.16-6.19,3.03-3.02-.57-3.06-2.22-2.21-4.67l3.82,2.88c.7-7.32,7.31-8.78,13.45-8.64-.12-1.27-1.13-2.06-.05-3.31,2.34-2.69,9.91-6.21,13.43-7.32.45-.45-1.02-3.62-.63-4.49.19-.42,6.02-6.32,6.44-6.5,1.89-.82,6.41,1.6,5.73,2.43ZM681.45,210.09h-1.91s0,1.91,0,1.91l1.91-1.91Z"/>
      <path class="cls-1" d="M598.94,243.66c.21-.1.37-1.21,1-1.47,1.6-.66,3.26,1.72,2.85-1.39l2.37,1.9c2.87-1.15,1.29-3.65,1.48-3.77.74-.47,3.92.42,4.76-1.5-3.69-1.33-5.96-5.66-5.49-9.48.04-.29,2.09-5.15,2.28-5.38,1.28-1.59,3.71-1.96,4.87-3.15.8-.82.7-2.54,1.5-3.28,3.44-3.15,6.88-3.61,9.96-5.41,2.23-1.3,4.34-6.52,7.98-2.55l1.58-3.78c4.83,1.94,4.91-1.54,7.03-2.43,1.02-.43,2.37.72,2.92.45.13-.07-1.24-2.21.48-2.87l2.39,3.82c-1.5.02-2.96.36-4.35.94-8.93,3.71-28.53,14.17-32.57,23.07-.97,2.15-.59,5.2-.36,7.52l3.18,1.07-.43,2.9,1.52-1.99c1.67-.37,3.02,1.04,3.27,1.04-1.11-.07-1.13.94-.96,1.92-5.41,1.03-10.49,3.16-15.35,5.76l-1.92-1.92ZM611.41,222.57h-1.91v.94h1.91v-.94Z"/>
      <path class="cls-1" d="M617.17,237.91c1.42,0,4.88-2.05,5.76.95l-4.81,2.89c-.43.36-1.81-1.36-1.91-1.92l.96-1.92Z"/>
      <path class="cls-1" d="M598.94,243.66v1.91s1.92,0,1.92,0c-.31.17-.75,1.67-1.44,1.91l-1.97-1.96c-4.32.4-4.36,2.46-6.18,5.8l5.27-2.87c1.06.46-1.54,2.67-1.87,2.94-1.34,1.07-7.18,5.44-8.27,5.95-1.37.64-2.01,1.1-3.77.7l2.89-5.74h.93c-.23,2.3.78,2.08,2.89,1.9-2.25-5.62,5.66-8.62,9.59-10.54Z"/>
      <path class="cls-1" d="M879.33,258.3c-.38.2-.32,2.71-3.13,1.66-.31-1.47,1.65-.94,2.28-1.9,1.36-2.06,1.8-6.56.1-8.66-4.04-.05-9.76,7.64-13.89,6.74l2.88.96-1.93,4.78,3.88,1.42c2.15,2.19-1.47,3.05-4.25,1.33-.51-.32-3.47-3.42-3.54-4.15-.65-6.2,1.64-4.16,4.78-5.88,3.68-2.02,7.38-5.63,11.61-6.15l-5.3-6.68-.47,1.87-4.78.51,11.02-7.24,2.39,1.48-2.5,6.25c2.32,3.31,5.78,6.94,4.96,11.41-.75,4.06-2.86,1.61-4.1,2.24Z"/>
      <path class="cls-1" d="M429.14,269.56c.63-.04,1.28.07,1.91,0l.11-3.73,17.06-2.83c-.66,2.6,2.75,3.06,2.63,5.1-.18,3.14-2.97,2.79-4.33,4.02-2.33,2.12-2.96,5.14-6.84,4.16l3.84,4.78c-5.75-.57-8.79-3.77-4.27-8.58,1.99-2.11,7.14-2.73,7.14-6.76-2.23.75-4.63.34-6.9,1.04-1.78.55-4.99,1.49-6.85,2.14-1.56.54-2.05,2-3.03,2.57-2.39,1.38-.47-1.76-.47-1.91-.97.06-4.08.66-3.83-.95l3.82-2.89c.01,1.27.03,2.56,0,3.83Z"/>
      <path class="cls-1" d="M716.24,247.32c1.1.8,3.69-1.13,2.59,3.34-.36,1.45-5.04,2.23-2.84,4.5l-2.87-.96v2.89s-2.88-.96-2.88-.96c.86,2.31.42,2.94-.97,4.78,5.87,1,10.55-4.21,15.24-7.3.82-.54,2.14-2.36,2.98-.85-6.2,6.29-12.85,9.8-21.1,11.99v-6.71c-5.28,1.91-8.81,2.81-12,7.67-.63-2.9-3.26-1.46-4.9-2.77-1.3-1.04-.81-3.84-3.29-4.44l4.03-7.09,5.6-.1-1.91-.96,1.94-3.82,2.86,1.44-1.97,1.01,1.01,4.26-2.87-.95c2.3,3.55-3.35,4.73-4.79,8.15-1.09,2.58,11.84-1.08,12.33-1.58.75-.75-.41-5.79,4.99-6.21l-.06-5.16c1.11-1.4,4.83,4.87,6.73,3.38s1.46-3.36.92-5.3l-3.82,2.87.96-3.82c-2.84-.09-5.1-1.21-7.87.06-1.13.52-5.41,6.59-4.96-.12,3.63-2.13,9.61-5.41,13.81-3.31,2.3,1.15,2.08,5.31,3.11,6.07ZM693.92,253.26l-1.89.02-1.93,2.85,3.83-.97v-1.9Z"/>
      <path class="cls-1" d="M346.63,332.88c.17-.47,2.59-3.2,2.87-4.33l1.92.99-6.73,20.61c-3.56,1.23-.94-4.83-2.39-4.8-3.85.08-2.08,5.56-5.25,4.8l-3.03-6.58-1.77.83v-4.8s6.16,5.72,6.16,5.72c.99-1.94,6.38-5.03,6.99-5.99.9-1.4.63-4.83,1.23-6.45h-1.92s1.44-1.91,1.44-1.91l.47,1.91Z"/>
      <path class="cls-1" d="M599.9,266.69c-2.15,1.45-7.45,6.81-9.99,6.76-.23-.96-2.15-2.04-2.21-2.18-.09-.26.92-5.12-1.35.06l-1.31.15c-3.29-3.32-6.31-4.41-4.32-9.59,3.73-.96.97,4.48,2.01,5.66,2.76.91,5.16.73,7.94,0,.99-.26,7.9-2.55,8.27-2.78v1.43s.96.49.96.49Z"/>
      <path class="cls-1" d="M598.94,264.77c1.77-1.12,5.99-5.2,8.91-6.47.85-.37,2.01.73,2.65.29.92-.64.33-2.75,1.86-2.44,1.54,4.85-4.15,4.73-6.67,6.31-1.5.94-3.91,2.96-5.8,4.24l.96-1.91h-1.92Z"/>
      <path class="cls-1" d="M363.9,226.39c-6.83,4.56-13.77,11.1-20.14,16.68-.7.61-.51.94-1.91.58l-.97-2.87c4.19.12,7.43-.98,6.72-5.77l2.29,1c.96-3.19,3.2-1.95,3.34-2.13.52-.63,1.88-4.78,3.98-6.12,1.04-.66,2.56.61,2.77.46.17-.12.68-2.33,2-3.76l1.92,1.92Z"/>
      <path class="cls-1" d="M361.98,224.47c2.31-2.51,5.67-3.25,8.17-5.51l2.38,1.67c.61-4.4.87-5.13,5.3-5.56,1.72-.17,3.49,2.27,3.41-1.06l1.84-.07c-.16,1.87,2.18,2.17,2.51,3.71,1.37,6.44-2.82.1-3.15.04-.8-.16-5.34.72-6.26,1.11s-10.59,6.47-12.27,7.6v-1.91s-1.92,0-1.92,0Z"/>
      <path class="cls-1" d="M875.24,259.02c-1.48,3.56,2.36,6.28,5.76,6.72l-2.4,1.93-2.39-1.94-.97,2.42c1.49,1.74,4.37,2.8,5.79,3.88.91.69.02,1.73.29,2.17.28.47,2.01-.44,1.59,1.12l-7.56-1.06-4.58-11.9,4.47-3.32Z"/>
      <path class="cls-1" d="M425.72,273.03c.56.58,1.86-.09,1.5,1.33l-3.82-.96c-.2.89-.58,3.39-1.11,3.72-1.15.72-3.88-.88-3.69,1.08,2.33-.99,3.1,1.8,3.3,1.8,3.97.03,10.54-5.29,13-1.8l-5.74.98,1.91,1.9c-1.48.14-5.27-.93-6.26-.79-.59.09-.38,1.66-1.03,1.8-2.09.43-4.22-1.12-5.85-2.25l-.9-2.11,2.54-5.27,2.86,1.9c-1.17-5.72.65-4.07,3.3-1.33Z"/>
      <path class="cls-1" d="M725.57,208.15v-1.9s-1.9-.96-1.9-.96c4.26,2.11,3.49-.35,4.33-.69,1.32-.54,7.65-3.21,8.13-.74.56,2.87-10.8,5.27-11.99,9.08-2.67-2.05-1.66-4.5,1.43-4.8Z"/>
      <path class="cls-1" d="M904.98,275.32c.28,3.24.39,7.5-3.83,7.67,1.31-5.39-1.45-4.26-2.94-6.16-.84-1.06-.62-2.65-1.05-3.24-.16-.21-4.6.24-4.64-2.1,6.34-1.79,7.6,5.43,12.46,3.82Z"/>
      <path class="cls-1" d="M686.24,200.5l-2.87-.96.94,5.75-2.95-1.57,2.95-12.82c-2.82.05-7.49,2.27-8.21-1.01l-3.29.54c1.29-1.97,2.22-1.09,3.8-1.02,8.63.4,11.75,1.7,9.62,11.1Z"/>
      <path class="cls-1" d="M697.76,228.31c.28-.6.05-1.78,1.01-2.31l14.33-9.2c.55.62-1.62,3.97-2.2,4.5-3.91,3.5-8.05,5.38-13.14,7.02-.19.41.28,1.49-.47,1.94l-2.4-.03v-1.91c.86-.19,2.18.22,2.87,0Z"/>
      <path class="cls-1" d="M656.65,239.61l5.61-.74c-.2,2.91.16,4.46-2.16,6.33l-5.01-1.49.47-5.8,1.09,1.7Z"/>
      <path class="cls-1" d="M668.02,264.77l.95,2.86-3.83-1.91-.48,1.91-3.28-2.01.9-2.22-1.94-1.04,2.87-2.4c-.83,8.62,6.12,2.19,10.06,2.88s-2.04,4.62-5.25,1.93Z"/>
      <path class="cls-1" d="M349.51,265.72c-3.36-.43-4.86-1.79-7.65.96l-.03-1.89-1.86.05c.37,2.36-2.24,1.51-2.73,2.03-.77.83.67,3.01-1.16,2.7l-1.92-5.75c4.99,1.26,11.01-3.13,15.34,1.91Z"/>
      <path class="cls-1" d="M876.2,284.91l.46-1.9c7.31,1.71,15.62-.1,23.03-.99,1.29.97-1.28,1.77-1.95,1.88-1.15.19-6.16,1-6.67,1h-14.87Z"/>
      <path class="cls-1" d="M674.73,234.08c-1.78,2.33-3.94,1.17-6.67,3.4-.95.77-3.22,5.46-4.6,2.83-.13-.24,1.16-2.45-2.15-2.42.15-2.28,3.69.1,4.86-.47,1.87-.91,2.6-5.94,8.56-3.35Z"/>
      <path class="cls-1" d="M83.76,300.27c-.37,2.05-4.35.44-5.91.48-2.3.06-3.81,3.36-4.66-1.45l-2.38,1.91-1.44-2.87c4.97.31,9.76.17,14.38,1.92Z"/>
      <path class="cls-1" d="M721.7,211.07l1.96,3.8-3.82-1.91-4.81,6.71c-1.19-4.31,2.7-7.57,6.67-8.6Z"/>
      <path class="cls-1" d="M696.79,202.42c.08,2.15-3.58.93-3.71,1.07-.77.82-.47,3.59-1.37,4.45-1.43-.94-3.12,3.47-4.05,1.19-2.12-5.2,5.17-6.76,9.13-6.71ZM691.03,207.2v-1.91h-.94v1.91h.94Z"/>
      <path class="cls-1" d="M340.87,245.58c-4.3-2.27-2.82,6.21-6.7,5.75-.27-4.19,3.19-7.2,6.7-8.63v2.88Z"/>
      <path class="cls-1" d="M657.46,194.74v2.87s-2.75-.81-2.75-.81c.17,1.88-6.84,5.37-7.8,4.64l.97-2.88,2.86.98v-2.89s2.88.98,2.88.98l.09-2.77,3.75-.11Z"/>
      <path class="cls-1" d="M713.1,212.97c-2.74,3.27-7.72,6.17-11.63,8.06-.96.46-2.15.31-2.97.66-1.17.5-.68,3.84-3.62.39,7.04-1.92,11.35-7.22,18.22-9.1Z"/>
      <path class="cls-1" d="M318.93,280.95l-1.08-2.74c6.34-2.98,8.5,3.48,1.08,2.74Z"/>
      <path class="cls-1" d="M694.88,223.52c-1.16,2.32-4.91,2.81-7.01,3.83-1.2.58.39,2.79-3.53.95,1.93-3.41,6.93-3.54,10.54-4.78Z"/>
      <path class="cls-1" d="M684.32,258.05c.53,2.92-.88,1.47-2.26,2-2.48.96-4.83,2.24-7.33,2.78,1.88-2.93,6.37-4.01,9.59-4.78Z"/>
      <path class="cls-1" d="M630.6,245.58l-4.79,5.75c-.21-3.38,1.24-5.76,4.79-5.75Z"/>
      <path class="cls-1" d="M68.42,298.35l-1,3.8-7.63.02c-.27-1.61,1.4-.65,2.55-1.28.66-.36.17-3.01,3.75-.7l2.33-1.83Z"/>
      <path class="cls-1" d="M48.01,299.64c.16.09.19,1.41.91,1.56,1.73.37,5.62-1.03,6.07.97h-10.54s1.76-1.06,1.76-1.06l-.82-1.8c.94-.04,1.72-.17,2.62.33Z"/>
      <path class="cls-1" d="M337.03,298.34c-2.74-1.39-3.29.73-5.75.95l4.32-4.78,1.43,3.83Z"/>
      <path class="cls-1" d="M339.91,253.26c.77,3.09-1.85,1.26-2.68,2.11-.59.61,0,4.26-4.03,3.64l1.89-.95c.19-3.03,1.66-4.8,4.81-4.8Z"/>
      <path class="cls-1" d="M680.49,229.28c-1.05,1.83-2.95,3.73-4.79,4.79.06-2.66,1.71-5.42,4.79-4.79Z"/>
      <path class="cls-1" d="M640.2,242.7c-2.55-.29-4.59.69-6.71,1.92-.65-3.47,4.6-2.08,6.24-3.82l.47,1.9Z"/>
      <path class="cls-1" d="M329.36,262.84c1.11-1.82-.42-4.29,1.91-4.79l.86,3.23c-.6,1.24-1.41,1.84-2.77,1.56Z"/>
      <path class="cls-1" d="M340.88,252.28c.28-1.72,3.52-1.74,4.78-2.87l-1.42,2.96-3.36-.1Z"/>
      <path class="cls-1" d="M369.65,293.55c.26,2.93-2.41,3.15-4.79,2.86-.91-.42,4.22-3.44,4.79-2.86Z"/>
      <path class="cls-1" d="M135.57,264.77c.31,1.75-1.06,3.17-2.87,2.87l-.97-2.86h3.83Z"/>
      <polygon class="cls-1" points="452.16 274.36 452.16 276.27 446.41 276.27 446.41 275.33 452.16 274.36"/>
      <polygon class="cls-1" points="376.37 299.3 372.54 299.29 375.43 295.47 376.37 299.3"/>
      <path class="cls-1" d="M687.55,234.45c-2.03,1.5-3.12,4.98-7.06,4.4l12.96-9.58c1.34,2.93-4.04,3.8-5.89,5.18Z"/>
      <polygon class="cls-1" points="334.16 300.27 332.22 304.09 330.32 304.09 331.37 300.34 334.16 300.27"/>
      <path class="cls-1" d="M584.55,259.98v.94s-4.79,0-4.79,0c.88-2.71,2.71-1.51,4.79-.94Z"/>
      <path class="cls-1" d="M456.95,272.45v1.91s-3.83,0-3.83,0c.51-1.91,2.04-2.15,3.83-1.9Z"/>
      <path class="cls-1" d="M314.01,318.5c-.51,1.91-2.04,2.15-3.83,1.9v-1.91s3.83,0,3.83,0Z"/>
      <path class="cls-1" d="M299.62,330.01c.28,1.68-1.49.57-2.6,1.24-.58.35.11,2.62-2.19,1.62.92-3.02,1.6-3.32,4.79-2.86Z"/>
      <path class="cls-1" d="M875.24,284.9h-1.9s-1.94-3.82-1.94-3.82c2.32-.42,3,2.15,3.84,3.82Z"/>
      <path class="cls-1" d="M633.48,237.91v1.91c-1.77.23-2.79.04-3.83-1.44l3.83-.47Z"/>
      <polygon class="cls-1" points="57.86 299.31 57.86 301.22 54.03 300.25 54.03 299.31 57.86 299.31"/>
      <path class="cls-1" d="M353.35,243.67c-.69,1.56-2.11,3.17-3.84,2.86.69-1.56,2.11-3.17,3.84-2.86Z"/>
      <rect class="cls-1" x="678.58" y="239.83" width="1.91" height="2.87"/>
      <polygon class="cls-1" points="414.75 266.69 413.31 269.56 411.88 268.11 411.87 266.69 414.75 266.69"/>
      <rect class="cls-1" x="137.5" y="263.81" width="1.91" height="2.87"/>
      <polygon class="cls-1" points="618.13 254.22 618.12 255.64 616.22 257.09 615.25 254.22 618.13 254.22"/>
      <path class="cls-1" d="M203.69,229.27c.85-2.21,1.4-5.73,4.8-4.79-3.23,2.1-1.91,4.2-4.8,4.79-.17.44.11,1.31,0,1.91l-2.87-1.44c.25-1.02,2.01-.3,2.87-.47Z"/>
      <polygon class="cls-1" points="665.15 257.09 665.15 253.26 666.09 253.26 667.03 255.66 665.15 257.09"/>
      <path class="cls-1" d="M322.66,308.9c-.39-1.25,1.44-4.82,1.9-3.83.26,1.71-.06,3.36-1.9,3.83Z"/>
      <path class="cls-1" d="M623.89,253.25c-1.25.39-4.82-1.44-3.83-1.9,1.71-.26,3.36.06,3.83,1.9Z"/>
      <path class="cls-1" d="M290.99,274.35c-2.42.08-3.71-1.39-1.43-2.86l1.43,2.86Z"/>
      <rect class="cls-1" x="29.09" y="302.19" width="4.79" height=".94"/>
      <polygon class="cls-1" points="891.55 274.35 888.67 274.35 889.64 271.49 890.58 271.49 891.55 274.35"/>
      <polygon class="cls-1" points="701.59 248.46 701.59 249.88 699.69 251.34 699.68 248.46 701.59 248.46"/>
      <polygon class="cls-1" points="624.84 248.46 624.84 250.37 621.97 250.37 623.42 248.47 624.84 248.46"/>
      <polygon class="cls-1" points="364.86 310.81 361.99 310.8 363.92 307.95 364.85 307.94 364.86 310.81"/>
      <path class="cls-1" d="M308.27,323.29l-.97-2.87c2.68-.11,3.85,1.89.97,2.87Z"/>
      <path class="cls-1" d="M305.37,325.21v1.9s-4.78.96-4.78.96c-.95-.41,4.21-3.44,4.78-2.87Z"/>
      <polygon class="cls-1" points="448.32 236 448.32 236.94 444.5 237.9 444.49 235.99 448.32 236"/>
      <path class="cls-1" d="M675.69,244.62c-.56-2.93,2.52-2.93,1.89-.01h-1.89s-.47,2.89-.47,2.89l-1.47-2.39,1.94-.48Z"/>
      <polygon class="cls-1" points="147.08 261.89 146.61 264.76 145.18 263.31 145.17 261.89 147.08 261.89"/>
      <path class="cls-1" d="M143.25,263.82l-2.87,2.87c-.32-1.81,1.12-3.19,2.87-2.87Z"/>
      <polygon class="cls-1" points="361.02 237.91 354.31 243.65 355.96 240.71 361.02 237.91"/>
      <polygon class="cls-1" points="181.62 296.43 180.18 298.32 178.75 296.9 181.62 296.43"/>
      <polygon class="cls-1" points="178.74 294.52 177.31 296.41 175.87 294.98 178.74 294.52"/>
      <polygon class="cls-1" points="44.43 299.31 42.99 301.2 41.56 299.78 44.43 299.31"/>
      <polygon class="cls-1" points="331.28 254.22 331.28 255.16 328.41 256.13 328.41 254.22 331.28 254.22"/>
      <rect class="cls-1" x="717.91" y="208.18" width="3.83" height=".94"/>
      <path class="cls-1" d="M371.58,230.24c.47.37-1.68,2.54-2.88,1.9-.47-.37,1.68-2.54,2.88-1.9Z"/>
      <path class="cls-1" d="M8.93,304.1c-.37.47-2.54-1.68-1.9-2.88.37-.47,2.54,1.68,1.9,2.88Z"/>
      <rect class="cls-1" x="14.7" y="301.23" width="1.91" height="1.91"/>
      <path class="cls-1" d="M23.33,301.23c.47.37-1.68,2.54-2.88,1.9-.47-.37,1.68-2.54,2.88-1.9Z"/>
      <path class="cls-1" d="M366.79,305.06c-.64-1.2,1.53-3.34,1.9-2.88.64,1.2-1.53,3.34-1.9,2.88Z"/>
      <path class="cls-1" d="M333.19,253.25c-.37.47-2.54-1.68-1.9-2.88.37-.47,2.54,1.68,1.9,2.88Z"/>
      <path class="cls-1" d="M663.22,192.83c.25,1.66-1.74.69-2.86,1.45s-.42,2.66-1.92,2.38l4.78-3.82Z"/>
      <path class="cls-1" d="M342.79,333.85c.47.37-1.68,2.54-2.88,1.9-.47-.37,1.68-2.54,2.88-1.9Z"/>
      <polygon class="cls-1" points="278.51 337.68 276.62 336.24 278.04 334.8 278.51 337.68"/>
      <path class="cls-1" d="M621.97,242.69c-1.2.64-3.34-1.53-2.88-1.9,1.2-.64,3.34,1.53,2.88,1.9Z"/>
      <path class="cls-1" d="M337.99,339.59c-1,.98-3.84-1.9-2.87-2.87s3.84,1.9,2.87,2.87Z"/>
      <path class="cls-1" d="M329.36,275.33c.23,1.46-2.41,1.24-3.35,2.85l-1.43-1.43,4.79-1.43Z"/>
      <rect class="cls-1" x="623.89" y="239.83" width="3.83" height=".94"/>
      <path class="cls-1" d="M644.02,239.82c-.37.47-2.54-1.68-1.9-2.88.37-.47,2.54,1.68,1.9,2.88Z"/>
      <path class="cls-1" d="M459.84,227.36c.47.37-1.68,2.54-2.88,1.9-.47-.37,1.68-2.54,2.88-1.9Z"/>
      <polygon class="cls-1" points="668.98 191.85 667.06 191.85 667.07 189.94 668.98 191.85"/>
      <polygon class="cls-1" points="335.12 276.27 333.21 276.27 333.21 274.36 335.12 276.27"/>
      <polygon class="cls-1" points="381.17 225.42 379.26 225.43 379.26 223.52 381.17 225.42"/>
      <polygon class="cls-1" points="683.37 227.36 681.46 229.27 681.45 227.36 683.37 227.36"/>
      <polygon class="cls-1" points="151.88 263.8 149.97 263.8 149.97 261.89 151.88 263.8"/>
      <rect class="cls-1" x="827.28" y="258.06" width="2.87" height=".94"/>
      <polygon class="cls-1" points="61.7 300.25 59.79 300.26 59.79 298.34 61.7 300.25"/>
      <polygon class="cls-1" points="873.32 244.63 871.41 246.54 871.41 244.63 873.32 244.63"/>
      <rect class="cls-1" x="614.3" y="245.59" width="2.87" height=".94"/>
      <polygon class="cls-1" points="348.55 247.51 346.64 249.42 346.64 247.5 348.55 247.51"/>
      <polygon class="cls-1" points="370.61 301.22 368.7 301.21 370.14 299.31 370.61 301.22"/>
      <rect class="cls-1" x="32.93" y="300.27" width="2.87" height=".94"/>
      <rect class="cls-1" x="24.29" y="302.19" width="2.87" height=".94"/>
      <polygon class="cls-1" points="37.71 303.13 35.8 303.13 37.24 301.23 37.71 303.13"/>
      <rect class="cls-1" x="616.22" y="252.3" width="1.91" height=".94"/>
      <rect class="cls-1" x="371.58" y="300.27" width="1.91" height=".94"/>
      <rect class="cls-1" x="619.1" y="253.26" width="1.91" height=".94"/>
      <rect class="cls-1" x="796.58" y="250.39" width="1.91" height=".94"/>
      <rect class="cls-1" x="670.91" y="247.5" width=".94" height="1.91"/>
      <rect class="cls-1" x="326.49" y="305.07" width="1.91" height=".94"/>
      <rect class="cls-1" x="364.87" y="305.06" width=".94" height="1.91"/>
      <rect class="cls-1" x="513.57" y="306.99" width="1.91" height=".94"/>
      <rect class="cls-1" x="319.78" y="311.78" width="1.91" height=".94"/>
      <rect class="cls-1" x="316.9" y="314.66" width="1.91" height=".94"/>
      <rect class="cls-1" x="868.53" y="246.54" width=".94" height="1.91"/>
      <rect class="cls-1" x="352.39" y="320.42" width="1.91" height=".94"/>
      <rect class="cls-1" x="305.39" y="321.37" width=".94" height="1.91"/>
      <rect class="cls-1" x="351.43" y="322.34" width="1.91" height=".94"/>
      <rect class="cls-1" x="614.3" y="256.14" width=".94" height="1.91"/>
      <rect class="cls-1" x="37.72" y="299.31" width="1.91" height=".94"/>
      <rect class="cls-1" x="291.95" y="333.85" width="1.91" height=".94"/>
      <rect class="cls-1" x="661.31" y="257.1" width=".94" height="1.91"/>
      <rect class="cls-1" x="288.12" y="334.81" width="1.91" height=".94"/>
      <rect class="cls-1" x="438.74" y="240.79" width=".94" height="1.91"/>
      <rect class="cls-1" x="325.54" y="258.06" width=".94" height="1.91"/>
      <rect class="cls-1" x="635.4" y="237.91" width="1.91" height=".94"/>
      <rect class="cls-1" x="625.81" y="237.91" width="1.91" height=".94"/>
      <rect class="cls-1" x="89.53" y="297.39" width="1.91" height=".94"/>
      <rect class="cls-1" x="80.89" y="297.39" width="1.91" height=".94"/>
      <rect class="cls-1" x="417.63" y="259.02" width=".94" height="1.91"/>
      <rect class="cls-1" x="699.69" y="262.85" width=".94" height="1.91"/>
      <rect class="cls-1" x="634.45" y="236" width="1.91" height=".94"/>
      <rect class="cls-1" x="361.99" y="236" width="1.91" height=".94"/>
      <rect class="cls-1" x="449.29" y="233.12" width="1.91" height=".94"/>
      <rect class="cls-1" x="422.43" y="265.74" width="1.91" height=".94"/>
      <rect class="cls-1" x="453.13" y="230.24" width="1.91" height=".94"/>
      <rect class="cls-1" x="377.34" y="225.44" width=".94" height="1.91"/>
      <rect class="cls-1" x="333.21" y="272.45" width="1.91" height=".94"/>
      <rect class="cls-1" x="443.53" y="277.25" width="1.91" height=".94"/>
      <rect class="cls-1" x="716" y="210.09" width=".94" height="1.91"/>
      <rect class="cls-1" x="672.82" y="191.87" width="1.91" height=".94"/>
      <rect class="cls-1" x="669.95" y="189.94" width=".94" height="1.91"/>
      <rect class="cls-1" x="878.12" y="275.33" width="1.91" height=".94"/>
      <rect class="cls-1" x="953.92" y="101.68" width=".94" height="1.91"/>
      <rect class="cls-1" x="92.41" width="1.91" height=".94"/>
      <rect class="cls-1" x="884.84" y="273.41" width="1.91" height=".94"/>
      <rect class="cls-1" x="332.25" y="289.72" width="3.83" height=".94"/>
      <rect class="cls-1" x="411.87" y="287.8" width="2.87" height=".94"/>
      <rect class="cls-1" x="292.91" y="302.19" width="1.91" height=".94"/>
      <rect class="cls-1" x="362.95" y="288.76" width="1.91" height=".94"/>
      <rect class="cls-1" x="180.67" y="264.78" width="1.91" height=".94"/>
      <path class="cls-1" d="M109.67,299.31c-1.08,2.49-4.67,2.11-6.95,2.95-.76.28-2.68,3.8-5.5.4,3.01-4.01,8.25-2.41,12.45-3.35Z"/>
      <path class="cls-1" d="M849.34,252.3l-.97,4.78-1.52-2-8.05,1.04c-.57-1.21,3.18-4.49,3.45-4.58,1.22-.39,5.44,1.02,7.1.75Z"/>
      <polygon class="cls-1" points="844.54 259 842.63 259.01 842.63 257.09 844.54 259"/>
      <polygon class="cls-1" points="821.52 248.45 819.6 248.45 819.61 246.54 821.52 248.45"/>
      <rect class="cls-1" x="814.81" y="253.26" width="1.91" height=".94"/>
      <rect class="cls-1" x="819.6" y="243.67" width="1.91" height=".94"/>
      <polygon class="cls-1" points="290.03 264.77 289.56 266.68 288.11 264.78 290.03 264.77"/>
      <path class="cls-1" d="M820.56,212.95c-3.8-1.22-3.42,5.42-6.7,1.45l4.3-4.3,2.4,2.85Z"/>
      <path class="cls-1" d="M806.16,222.56c.37,2.3-.45,4.07-2.87,3.82l.96-3.82h1.91Z"/>
      <rect class="cls-1" x="189.3" y="295.47" width="1.91" height=".94"/>
      <rect class="cls-1" x="49.24" y="295.47" width="1.91" height=".94"/>
      <rect class="cls-1" x="460.8" y="214.89" width="1.91" height=".94"/>
      <polygon class="cls-1" points="681.45 210.09 679.54 212 679.54 210.09 681.45 210.09"/>
      <rect class="cls-1" x="609.5" y="222.57" width="1.91" height=".94"/>
      <polygon class="cls-1" points="230.54 259.98 230.54 260.92 225.76 261.89 225.76 259.97 230.54 259.98"/>
      <polygon class="cls-1" points="693.92 253.26 693.92 255.16 690.09 256.12 692.02 253.28 693.92 253.26"/>
      <rect class="cls-1" x="127.9" y="297.39" width="4.79" height=".94"/>
      <rect class="cls-1" x="690.09" y="205.29" width=".94" height="1.91"/>
      <polygon class="cls-1" points="175.86 251.33 172.99 251.33 172.99 250.39 175.86 249.42 175.86 251.33"/>
      <polygon class="cls-1" points="171.07 253.26 169.16 255.17 169.16 253.26 171.07 253.26"/>
    </g>
  </g>
</svg>