<?xml version="1.0" encoding="UTF-8"?>
<svg id="Lager_2" data-name="Lager 2" xmlns="http://www.w3.org/2000/svg" viewBox="0 0 1376.95 393.38">
  <defs>
    <style>
      .cls-1 {
        fill: #adadad;
        fill-rule: evenodd;
      }
    </style>
  </defs>
  <g id="Lager_1-2" data-name="Lager 1">
    <g>
      <path class="cls-1" d="M1101.4,227.06c3.33,1.37-1.5,3.3-2.09,4.6-2.14-1.77,1.67-3.11,2.09-4.6Z"/>
      <path class="cls-1" d="M611.2,225.14c-2.45,1.33-2.15-.46.84-1.87.41.45-.75,1.29-.84,1.87Z"/>
      <path class="cls-1" d="M842.57,113.92c-.23-1.15.88-1.58,1.26-2,.21.86-.95,1.33-1.26,2Z"/>
      <path class="cls-1" d="M682.57,196.64c-3.18-.62-.85-2.21,1.83-1.99,1.76.84-1.37,1.28-1.83,1.99Z"/>
      <path class="cls-1" d="M679.45,195.63c-2.46.15-2.3-1.78.11-1.19l-.11,1.19Z"/>
      <path class="cls-1" d="M855.21,119.28c-.45-1.67,1.16-1.09,2.01-1.31-.01.67-.24.94-.64,1.01-.38.1-.93,0-1.36.3Z"/>
      <path class="cls-1" d="M766.84,184.79c-.72.37-1.3.64-1.77.82-.48.16-.84.25-1.11.27-.53.05-.68-.13-.62-.42.11-.59,1.03-1.61,1.31-2.2,2.5-1,1.19,1.25,2.19,1.54Z"/>
      <path class="cls-1" d="M807.37,112.44c-.43,2.25-2.11-.76-2.86-1.74.99-1.35,1.56,1.16,2.86,1.74Z"/>
      <path class="cls-1" d="M617.01,201.44c-.66.24-1.32.48-1.6.32-1-2.64,2.02-2.35,1.6-.32Z"/>
      <path class="cls-1" d="M1106.85,208.89c-2.02-.8-1.68-2.33-.44-2.97,1.79.74.04,2.02.44,2.97Z"/>
      <path class="cls-1" d="M801.23,121.86c-2.42.44-4.89-.66-7.25-2.54-2.36-1.84-4.61-4.49-6.77-6.06,2.35-.39,4.81,1.45,7.22,3.42,2.41,2,4.76,4.1,6.8,5.18Z"/>
      <path class="cls-1" d="M744.55,177.73c-2.03-.51-2.1-3-.09-4.17,2.32.53-.09,2.92.09,4.17Z"/>
      <path class="cls-1" d="M614.65,186.7c-2.06,1-2.37-1.32-.35-2.51-.15,1.23.5,1.79.35,2.51Z"/>
      <path class="cls-1" d="M850.9,78.76c-.46-1.07-.24-4.71,1.39-2.25-1,.56-.32,2.26-1.39,2.25Z"/>
      <path class="cls-1" d="M676.69,170.11c-2.42-.19-1.88-1.51-.71-1.74,1.87.25.25,1.21.71,1.74Z"/>
      <path class="cls-1" d="M594.36,168.69c-1.07.82-2.07-.67-1.82-1.46,1.89-.76,1.03,1.15,1.82,1.46Z"/>
      <path class="cls-1" d="M692.38,148.17c-1.29-.13-1.67-1.96.99-1.35.05.6.01,1.16-.99,1.35Z"/>
      <path class="cls-1" d="M593.4,165.1c-4.99.9-5.04-3.65-2.44-6.33-3.8,1.88-1.76-.59-3.57-.77-4.76,2.67,1.68,2.44-3.27,5.16-.54-.86-1.66-2.32-1.2-4.02.47-1.69,2.42-3.65,8.43-5.51.4,2.95,2.87,6.58,2.04,11.46Z"/>
      <path class="cls-1" d="M1110.34,167.7c-1.95-.36-.21-1.23-.67-1.78,1.31.51,2.34,1.57.67,1.78Z"/>
      <path class="cls-1" d="M503.73,207.38c-6.24,4.29-.82,11.97.94,16.66,1.04,2.78,5.84,5.28,5.91,8.5-3.78,3.08-1.45,4.87-1.94,6.68-.53,1.92-3.1,4.65-3.28,6.07-.03.27,1.48,2.63,1.09,1.87,1.29-3.26,3.47-6.75,4.85-10.04,1.76,1.24,1.48,5.78,2.29,7.28-1.2.69-.74-.34-1.81.22-1.45,2.01,3.15.16,3.02,1.85-2.95,3.84-5.06,7.47-10.54,11.95-10.23-8.77-9.74-24.61-22.56-32.13-1.69.98-3.39,1.97-5.08,2.95.81,14.23,14.01,23.86,12.88,38.87-.57-.07.23-1.57-1.33-.62.17,1.49,1.85,1.4,2.41,2.48-8.05,2.7-11.04-.93-13.54-3.23-1.1-1.02-1.72-2.68-2.41-4.15-3.14-6.68-9.17-13.49-3.59-22.9-1.62.12-.38-1.19-1.57-1.03-3.48,4.06-1.07,6.62-3.64,10.44-.87-.32-4.37,2.1-4.96,1.5-4.27-6.13-17.79-3.65-34.6,10.67-.56-1.19-1.72-1.77-3.14-2.06-1.81.89-3.49,1.63-5.93,3.17-.97,5.72,1.73,10.51-10.31,19.04-2.32-2.7-2.57-7.53-6.76-8.29-1.59.43-4.88,2.64-7.38,4.01-2.33,7.49,1.52,11.46,2.63,16.24-1.66,2.32-2.32,4.4-7.27,7.55-4.29-4.71-4.96-13.73-11.22-17.63-1.61-1.01-1.63-3.46-6.04-2.04-6.96,5.83,3.27,6.27-1.83,11.89,4.62,2.22,3.51,9.71,4.57,14.55.5,2.28,4.36,2.98.11,6.88-8.9-2.62-4.33-19.24-22.59-12.13-5.77,4.81.73,5.7-2.56,10.65-.17.95,2.65-1.2,2.06.19-1.55,6.33,3.6,11.51,4.45,17.68-1.78,1.8-4.26,3.78-8.11,6.1-6.03-8.48-8.78-20.2-18.22-28-1.81.89-3.49,1.63-5.93,3.17-3.86,3.99-.29,6.1-.5,9.17-4.07,1.13-3.08-3.01-5.8-3.29-.98.56-1.78,1.06-2.41,1.5-.32.22-.59.43-.83.63-.09.11-.16.22-.21.33-.22.43-.2.86-.06,1.26.28.82,1.09,1.55,1.34,2.26.87,2.51,1.54,5.67,1.9,8.95.38,3.27.46,6.65.59,9.31-2.45-4.08-3.66-8.69-5.08-13.17-1.37-4.51-2.95-8.89-4.78-13.29-1.73,1.12-1.87,3.2-1.63,5.48.23,2.29,1.1,4.65.5,6.83-1.11.69-2.04.53-2.84,1.65.26,2.86.17,6.47-.39,10.32-.54,3.84-1.57,7.93-2.81,11.52-2.12-2.33-1.41-8.11-.92-13.76.56-5.69.91-11.26.46-14.57-.63.47-1.15.92-1.6,1.33-.05.03-.13.15-.15.1l-.1-.08c-.06-.05-.12-.11-.18-.16-.12-.1-.23-.2-.34-.31-.36-.34-.63-.81-1.02-1.71-.25-.95.44-2-.24-2.83-.7-1.11-1.21.29-1.83.59.25-1.13.83-2.19,1.4-3.39.58-1.19,1.16-2.53,1.57-3.96-1.18-2.08-2.79.94-4.25,3.01-.84-.88-.13-1.29-1.11-1.68-.98.53-1.98,1.39-3,2.18-1.03.79-2.06,1.48-3.29,1.56-.26-.14-1.26-1.44-1.73-2.09-.55-.74-1.03-1.34-1.88-1.88-1.82.35-3.93.13-5.7.57.3-.67-.48-2.01-1.58-3.54-1.1-1.53-2.45-3.16-3.38-4.58.62-1.57,3.35-.29,2.8-2.62-.79-.87-1.31-1.58-1.82-2.29-.49-.69-.97-1.38-1.73-2.22-6.89-2.46-7.39,5.21-14.07,3.1,3.43-1.94,5.12-4.87,6.43-8.01.65-1.57,1.21-3.2,1.83-4.8.65-1.59,1.39-3.15,2.32-4.6-2.4-4.26-4.77-5.15-7-8.32-4.31-1.26-7.46,1.22-11.86,1.92-1.15-1.51-2.23-2.71-3.38-4.11,1.93-1.6,4.31-2.8,6.16-4.56.93-.87,1.72-1.87,2.26-3.07.27-.6.48-1.25.61-1.95.15-.7.11-1.47.22-2.29-1.1-1.73-2.37-2.24-3.65-2.52-1.21-.3-2.51-.28-3.7-1.09-.83-1.43-.35-1.84-1.17-3.14-1.7,1.3-3.69.8-5.69-.24-.98-.54-1.96-1.2-2.88-1.8-.91-.61-1.77-1.13-2.54-1.34-2.57-.74-5.03.18-7.54.48-2.51.27-5.14-.08-7.9-3.99,4.42-.54,9.78-2.23,14.38-2.87.92-.13,2.2.25,3.15-.25.95-.51,1.54-1.81,1.19-5.55-2.43-2.81-5.09-2.61-7.9-2.31-2.8.28-5.75.63-8.74-2.32,5.9-3.04,11.3-.29,16.68-4.78.64-.66.22-4.08.77-5.03.58.23,1.01,1.24,1.75.69.12-1.85.33-3.47-.09-6.73-2.46-8.61-8.03-1.43-11.33-5.78,4.97,1.09,6.59-9.52,11.05-5.99.46-7.07-.77-9.16-1.18-16.76-1.64-3.63-4.29-2.1-6.33-3.68.79-2.05.52-6.86.51-11,1.55,1.25,3.25-.36,2.23-7.77-7.18-6.24-12.64,2.11-18.98-5.14,0-2.38-.52-2.14-.59-4.16,5.21-1.5,11.65-1.74,15.81-3.87,3.11-1.59,6.92-.07,8.11-6.59-.17-1.12-.48-1.57-.52-3.33-6.26-2.03-12.42-4.59-18.31-8.56l7.17-.61c.24-4.56,2.26-4.45,3.57-6.2-.49-3.4-.28-2.88-.57-6.69-7.85-4.57-14.36.79-21.5-.71.45-6.39,2.12-6.33,4.53-6.28,7.06.14,13.63,1.89,18.89-1.6.13-3.66.17-4.54-.47-8.39-3.84-.48-8.5-3.55-10.76.91-2.89-5.23-7.47-1.88-9.94-9.27,9.7,1.15,19.46,4.32,29.05,1.76-.27-2.01.28-1.86-.11-4.21-1.67-5.89-3.53-2.69-5.31-2.92-7.56-.99-16.81-2.92-23.72-1.36-.31-3.06-.6-3.18-.5-5.86,5.95.55,11.34,2.95,16.86,2.79.74-1.72-.42-4.18-.19-5.04,1.68-5.1,4.65,1.25,6.32-2.22-.03-.98-.09-1.69-.18-2.44-.13-1.15-.27-2.1-.41-3-.29-1.8-.6-3.36-.84-5.74-2.17-1.98-4.64-.2-6.99-.02-1.21-7.49-2.81-10.27-4.49-11.97-1.68-1.7-3.43-2.38-4.93-5.38,1.5-3.07,3.11-3.97,4.56-5.09,1.45-1.15,2.74-2.54,3.56-7.19-.54-3.78-.55-3.96-.68-8.01-.2-.64-.41-1.21-.61-1.66-9.06-2.08-11.02-.71-12.77.66-1.68,1.4-3.14,2.82-8.9,1.79-2.18-2.12.85-2.08,3.48-2.14,2.58-.08,4.72-.27-.8-3.51-3.65-1.52-7.3-3.03-10.95-4.55-1.81-.33-2.41.05-2.99.44l-.11.07,1.08.57c.79.41,1.59.82,2.39,1.23.88.44,1.75.88,2.64,1.33-.09.04-.19.07-.3.1-.42.12-.93.17-1.62.1-4.05-1.77-5.84-3.06-9.69-4.8-3.14-1.05-2.12.7-6.26-1.04,2.74-.66,5.96-2.5,4.01-5.35-1.61-.97-3.23-1.61-4.83-2.21-.7-.27-1.4-.55-2.09-.82l-2.19-.88c-1.46-.6-2.92-1.24-4.41-1.97-5.37-1.85-6.21-1.3-6.47-.44-.13.43-.1.95-.37,1.3-.24.37-.86.54-1.99.41-4.82-1.92-6.19-3.23-11.46-5.25-2.57-.54-2.57.53-2.52,1.64.06,1.11.16,2.26-1.94,1.97-2.2-1.54-1.18-2.58-1.83-3.87-2.33-1.3-4.53-2.42-6.57-3.38-1.02-.48-2.01-.92-2.95-1.32-.47-.19-.93-.38-1.39-.57-.23-.09-.45-.18-.67-.26l-.17-.06c-.06-.03-.07.08-.1.12l-.18.32c-1.87,3.42-3.32,6.71-4.39,9.65-2.15,5.91-2.76,10.42-2.68,12.73-2.58,1.38-4.76,3.51-9.45,11.87.5,2.28-.92,6.01-2.36,9.73-1.45,3.72-2.94,7.44-2.53,9.63-1.16,1.34-2.13,2.71-3.11,4.31-.24.4-.49.82-.75,1.25-.2.35-.4.71-.62,1.08-.4.74-.83,1.55-1.31,2.44-.14,4.16,1.7,6.82,2.47,9.18-4.67,2.07-3.9-9.19-10.42-2.07-6.5,11.9,6.4,3.14,1.67,13.56-2.48-.23-5.38,1.26-8.74,4.73-1.43-.96-1.84-2.84-4.18-1.39-1.13,1.43-2.54,3.98-3.52,4.79-1.14,6.82,5.05,2.9,4.84,8.52-3.19.4-7.31,4.85-11.99,11.65-.78,5.11,3.93,3.83,4.25,7.17-1.48.63-3.71,4.92-4.51,5.2,1.69-7.27-6.35-.04-10.07,9.85-1.42,4.19,1.99,3.47-.87,9.13-2,2.58-2.67-.77-4.76,2.21-1.41,1.95-2.75,4.43-3.61,6.67.54,1.88,1.87,2.93,2.81,4.39-3.31,9.88-11.76,23.02-16.74,34.95-1.64,2.18-3.9,2.61-5.02,5.92-2.54,5.12,1.71,3.11-.74,8.16-1.66,2.74-2.14-.3-3.51,1.02-1.37,2.45-2.34,2.99-3.93,6.5-.9,3.08,2.05,2.07,1.04,5.28-2.84,3-2.91-1.32-5.03-.71-1.56,1.9-3,3.23-5.1,7.8-.26,3.99,3.24,3.96,2.26,8.73-2.26,3.57-3.73,3.07-6.63,9.84-.27,3.22,1.2,3.89-.59,9.13-1.23,3.6-3.77,7.93-5.03,11.59-3.25,9.48-4.31,19.39-2.49,22.21.7-5.56,2.06-11.92,4.24-18.86,2.21-6.92,5.18-14.46,9.18-22.32,1.08.88,2.24,1.37,3.92-.83,6.2-11.07.85-9.73,4.2-17.67,2.33.91,4.79,1.17,7.86-1.62,1.9-3.38,1.73-4.54,3.43-7.67.95.71,2.71-2.47,4.38-5.29,1.71-3.6.19-3.77,1.4-6.84.88-.06,1.7.12,2.69-.48,1.37-1.65,3.27-5.84,4.37-6.23,1.4,1.59,3.43.12,6.1-4.37,1.76-4.29.07-4.96.78-8.13,1.74-2.8,2.72-4.48,3.34-6.77.61-2.07-1.52-1.31-.33-3.98,1.62-2.4,2.22-.11,4.07-3.53,3.83-7.56.74-8.03,1.56-12.51,2.1-1.13,3.65-6.21,5.86-8.29,2.01,2.69,2.9,7.3,7.21,5.82,1.2-2.21,2.4-4.41,3.61-6.62.3-4.57-1.76-6.78-1.47-11.32,4.27-1.48,5.11,7.12,10.26,2.77,5.07-8.47-.45-9.14.79-14.87,1.36.61,2.86.61,4.58-.34,3.35-6.01,5.01-10.12,7.13-13.28,2.44-6.74-1.72-6.95.31-13.28,2.5.68,3.06,3.54,5.85,2.33,1.71-2.66,1.71-3.63,3.08-5.95,1.28-1.04,1.9.66,3.74-2.69,6.49-11.61-2.28-8.34,2.88-18.61,1.94.02,1.37,4.47,4.16,5.28,1.22-1.29,2.03-2.04,2.96-3.18.47-.57.96-1.24,1.56-2.12.3-.44.62-.94.98-1.5.27-.43.57-.9.9-1.44,1.05-2.17-.48-2.34.29-4.36.76.23,1.63-.23,2.33.29,1.58-3.59,2.61-5.26,4.55-8.79.69-2.27-.2-3.52,1.22-6.38,1.29-1.29,1.83-.49,2.26.64.43,1.14.78,2.59,1.52,2.9,1.85-2.74,1.59-5.85,2.89-7.29.33.87.66,1.74.98,2.6.4.04.71-.46,1.01-1.01l.11-.2.05-.1.1.04c.13.05.26.1.39.16.25.11.5.26.73.46,1.09,2.55.28,3.42,1.01,5.62,2.32,1.45,2.93,3.39,3.43,5.43.48,2.03.93,4.18,2.09,5.7,2.58,1.32,3.07.19,3.54-1.08.23-.64.43-1.33.88-1.78.22-.22.51-.38.89-.45.1-.02.2-.03.3-.03.06.01-.03-.04-.06-.06l-.12-.09c-.08-.05-.17-.11-.26-.17-.35-.22-.73-.44-1.15-.66-.71-.17-1.3-.23-1.85-.24-.27,0-.53,0-.78,0-.13,0-.25.01-.37.02l.13.22c.34.58.62,1.09,1.34,1.44-.72,1.71-2.2,2.45-2.5,4.16.56.49,1.17.94,1.99,1.35.92-.05,1.57-.8,2.27-1.46.35-.33.71-.64,1.15-.82.22-.09.46-.15.73-.16h.1s.03,0,.03,0h.01s0,0,0,0h0s0,0,.01,0l.12.05c1.29.53,2.59,1.06,3.91,1.6,1.32.54,2.66,1.09,4.02,1.65l.23.09h0s0,0,0,0h0s0-.02,0-.02l-.02-.04c-.03-.05-.06-.1-.1-.14-.21.52-.39,1.05-.55,1.59l-.12.4-.06.2-.03.1v.03s-.01.01-.01.01h0s-.07-.02-.07-.02l-.15-.06-1.22-.45c-1.62-.6-3.23-1.19-4.84-1.78-.79-.29-1.58-.58-2.37-.87l-.29-.11-.15-.05-.07-.03h0s-.02.02-.02.02l-.04.04-.34.31c-.91.83-1.66,1.73-2.2,2.74l.02.03c1.75.73,3.49,1.46,5.21,2.18,1.64.69,3.27,1.37,4.89,2.05h-.05c-.07-.02-.14-.03-.2-.04-.13-.03-.24-.06-.35-.1-.22-.08-.4-.18-.57-.26-.34-.17-.64-.28-1.19-.11-.33.76-.92,1.07-1.52,1.45-1.22-.56-1.99-.36-3.36-1.14-.22-.43-.12-.85.14-1.26,1.36-.58,3.12-1.92,3.98-1.18-.3.7-.16,2.35.23,2.68,1.23.04,3.04-1.1,3.86.07-1.92.66-2.64.76-4.43,1.68-.16,1.26-.05,1.97.48,2.81,1.67.09,3.41.16,5.04.58.41.11.81.23,1.2.39.2.08.39.17.58.26l.28.15c.09.05.19.08.29.24.79.99,1.53,2.19,2.21,3.71-3.12,3.47-6.21-2.55-9.64-.03.54,2.51.14,3,.57,6.69,6.95,6.65,15.88,11.41,23.75,13.16,1.44.32,3.49-1.9,4.83,2.96-9.32.25-19.37-3.56-28.36.72,1.43,14.32,8.85,4.4,10.03,16.01-2.99,3.59-7.56-3.59-10.04.85.23,2.41.33,5.49.81,6.67,5.32,1.65,10.49,4.09,14.86,10.54-4.2-2-9.55-1.45-14.3-3.85-.07,2.55-.16,5.03.4,7.55,1.71,1.28,3.69,1.17,5.47,2.06-.06,2.84,1.31,4.35.74,5.84-1.59.93-4.69-2.73-7.46-2.74.63,15.03,6.96,6.66,10.63,11.75-2.5,15.1,3.68,17.34,8.54,21.19,1.09.86,3.01,4.11,4.01,4.72,2.83,1.71,6.03,0,7.77,3.56-4.11,6.45-12.92,2.45-17.3,9.05.33,1.89.57,4.26.97,5.82,2.32,1.38,4.7,2.4,6.88,4.48-2.12,2.86-5.54,2.3-7.47,5.69-.02,8.72,1.96,11.8,4.39,13.74,2.43,1.94,5.27,2.61,7.03,6.67-3.19,1.45-6.02-1.74-8.12.81.59,2.96.67,4.43.61,5.69-.07,1.26-.25,2.34-.13,4.63.19,1.24.5,1.29.66,2.87,4.62,5.26,10.12,5.33,15.47,6.07,2.06.28,3.95-.49,5.84-.66,1.89-.18,3.79.23,5.92,2.62-3.6.89-7.01,3.07-10.5,5.23-3.47,2.15-7.04,4.31-11.24,4.53-1.82.09-4.21-1.71-6.06-2.52-1.86-.8-3.28-.59-3.02,3.89,2.24,6.14,4.78,8.6,6.93,9.46,2.22.85,4.18.28,6.09.55,1.5.21,3.24.73,5,2.59-.32.75.22,2.78.7,4.36-1.2.58-2.6.59-4.09.31-1.48-.28-2.99-.93-4.5-1.51-3-1.17-5.91-2.27-7.79-.17.76,1.95,1.45,3.51,2.12,4.9.32.71.67,1.34,1.03,1.94.35.6.7,1.2,1.06,1.81,2.96,1.8,5.34,1.59,7.69,1.32,2.36-.29,4.65-.57,7.51.53,1.81,3.44,2.05,2.21,3.67,5.03-.3.37-.5,1.07-.7,1.74-.2.66-.41,1.33-.77,1.69,2.19,3.29,3.75,4.94,4.96,5.78,1.23.79,2.13.78,3.05.83,3.07,4.03,4.54,4.5,6.5,5.84,1.17-.08.86-3.24,3.82.43-1.14,2.06-4.29,2.08-6.83,2.57-2.53.49-4.44,1.46-2.87,5.67,2.58,2.24,4.92,3.45,7.07,4.31,2.15.84,4.12,1.32,5.83,1.59,2.54.45,3.85-.76,6.5-.04,1.9,1.81,3.81,3.67,5.19,4.5,1.54.56,2.35-.3,3.36-.79,1.01-.48,2.22-.58,4.48,1.44-.77,1.47-3.56,1.19-5.96,1.35-2.42.14-4.4.75-3.43,4.07,4.19,4.18,6.32,4.2,7.94,3.28,1.64-.9,2.86-2.71,5.19-2.18.6.33,1.25,1.03,2.77,2.7,1.29,1.4,2.49,2.92,3.19,3.41,5.96,1.03,9.66-1.8,13-5.17,1.65-1.69,3.2-3.56,4.76-5.29,1.54-1.72,3.1-3.33,4.73-4.67.96-.8,2.2-1.66,4.29-.74-1.34,2.35-2.68,4.72-3.99,7.03-.64,1.17-1.26,2.35-1.83,3.58-.6,1.29-1.15,2.61-1.61,4-3.42,2.35-6.01,5.82-8.65,9.45-2.67,3.56-5.39,7.3-9.78,8.5,1.49,3.34-.61,2.78,1.64,7.03.85,1.11,1.57,2.2,2.43,3.52.85,1.34,1.84,2.88,3.19,4.76,13,.72,19.53-9.57,24.43-21.21,1.04-2.2,1.96-4.58,2.84-7.03.51-1.46.85-3.28,1.33-4.82.12-.39.25-.76.39-1.1.07-.17.14-.34.22-.5.08-.19.14-.25.27-.55.45-1.02,1.02-2.1,1.74-3.25.61,1.99.17,4.92-.5,7.9-.65,2.97-1.52,5.98-1.1,7.74-.42,1.34-2.33,1.05-2.24,2.14.44,3.64-.6,7.49-1.95,11.5-1.3,3.98-2.9,8.1-2.45,11.61-.36.38-.72.74-1.05,1.09-.17.18-.33.35-.49.51-.09.11-.14.11-.2.14l-.17.08c-.46.22-.84.47-1.1.77-.52.6-.57,1.43.28,2.59l.23.05c.08,0,.14.06.24-.03.19-.11.37-.22.56-.33.36-.22.72-.44,1.05-.64.67-.42,1.3-.83,1.87-1.22,1.15-.78,2.1-1.51,2.9-2.19,1.6-1.36,2.59-2.53,3.33-3.63,1.47-2.19,1.98-4.1,4.16-6.44.04,1.41,3.44-.09,6.51-1.28-4.09,3.34-4.1,6.98,1.14,4.89,5.75-4.22,8.79-7.78,10.45-10.79,1.05-1.9,1.14-3.59,1.52-5.36.38-1.76,1.05-3.58,3.09-5.65,2.46,3.36,5.28,6.43,10.69,7.39,3.42-1.82,5.49-3.19,7.27-4.46.25-.18.37-.27.52-.39l.45-.35c.3-.23.6-.47.91-.71.63-.48,1.32-.97,2.17-1.5,2.98-5.45-.78-7.92-1.55-11.03-.47-1.91-1.08-5.12,2.31-7.73,1.94,5.09,6.18,8.06,7.72,14.95,7.55-2.82.95,6.53,9.06,3.89,5.98-4.14,4.65-7.12,4.97-9.83.98-8.21-2.36-15.79-4.2-22.27,1.25-1.51,1.83-2.84,4.96-4.83,6.02,2.72.64,10.41,8.32,12.65-.75.27-2.96,1.07-2.06,1.47,4.23,1.16-.14,9.61,6.52,7.87,3.46-2.7,3.83-4.62,4-6.49,4.1-2.82,1.15,1.69,4.6-.45,7.3-4.23.72-4.94,5.69-8.58,2.97-.12-2.07,5.33,2.29,5.61,2.35-1.23,2.34-1.86,4.96-3.16,2.59-2.8.62-4.44,4.36-7.53,1.19-9.1-.37-19.74-2.74-28.11-.99-3.51-4.12-4.97,1.71-8.77,6.61,8.94,8.7,21.34,16.4,29.89.74.45-3.56,2.17-2.42,2.52,1.75.18,4.9-1.1,9.44-3.82,6.77-11.43,5.25-19.49,8.02-29.65-.34,1.73,1.02.98,2.66,1.23-1.4,1.4-1.38,1.65-1.45,2.51-.43,4.96,4.07,7.95,6.03,12.04,1.46,3.04,1.97,6.58,5.19,8.92,9.67-6.9,1.88-9.36,5.1-14.62-2.56-9.84-6.29-22.84-7.69-33.28,4.1,1.79,3.4,6.58,5.55,9.54,3.93,5.43,10.3,10.09,7.35,17.66-1.72,1.3-3.38.66-2.9,1.69.41.45-.77,1.31-.85,1.88,2.59-.58,4.96-3.99,6.29-4.21,3.33,2.72,2.24,8.93,7.6,9.74l3.63-2.11c5.29-12.38-3.62-21.74-3.7-31.44,4.09,4.06,11.79,7.1,10.86,13.67,6.57,3.8,2.96,16.82,11.46,19.71,5.36-5.18,5.14-9.07,5.34-12.54.35-6.15-.83-12.21-1.67-17.91,2.22-1.83,4.6-3.71,8.23-5.89.03,4.78,4.41,7.59,6.63,11.41,2.2,3.78.09,9.88,7.12,8.91,5.39-4.59,4.54-7.83,4.61-10.45.26-8.9-1.12-18.42-2.98-26.86,4.55-4.41,4.8-7.72,10.29-12.37,3.89,3.48,4.12,12.74,12.08,10.75,2.62-2.53,3.29-4.73.25-4.58.67-.8,1.8-1.73,1.58-2.31-2.18-2.43-1.69-8.22-3.25-12.27-1.1-2.84-4.93-4.31.86-8.55-2.45,5.63,4.59,6.63,5.67,11.42.67,2.97,4.56,7.51,4.94,11.84.18,2.02-.84,4.07,4.35,2.47,4.92-4.2,4.19-7.29,3.89-10.03-.33-2.93-2.86-4.98-1.08-8.54-3.15.39-1.13-2.58-1.32-3.95-.66-4.59-6.76-7.66-3.97-13.51,1.88,3.6,4.79,6.14,5.91,10.17,2.42,8.77,3.7,18.91,8.66,26.61,1.71-.99,1.93-1.6,4.24-2.74-.48-2.34.85-5.73-.47-7.5-.08-.11-1.89.23-1.93.01-.07-.31,1.57-2.07,1.58-2.3.05-2.5-2.46-4.28-2.29-7.28.49-8.46-8.79-14.45-1.65-26.24,2.68,3.58,5.37,8.56,6.87,11.83,2.47,5.38,5.94,11.65,6.14,17.25.08,2.21-3.18,6.33,2.53,4.36,5.37-4.04,1.85-5.19,2.43-7.52.25-1.01,1.88-2.54,1.94-3.35.34-4.84-2.25-6.98-2.52-11.03-.39-5.7-1.23-11.25-1.91-16.66-.57-4.56-1.48-9.07-1.19-13.74.11-1.76-1.64-3.27,1.95-6.68,6.54-.24,2.69,7.19,7.5,7.86-.63.79-2.12,1.81-1.59,2.31,4.77,13.4,10.55,24.38,9.25,39.32,6.75-2.39-3.07,7.99,5.56,4.54,3.18-1.52.79-1.63,2.3-2.73,1.95-1.17,4.97-.56,4.84-1.7,1.54-3.9-3.17-4.77-3.02-8.52.16-3.76-.74-8.26.54-12.23.34-1.05,1.91-2.45,1.88-3.27-.06-4.07-6.71-4.99-3.22-10.85,4.16,1.73,6.89,4.83,12.11,5.52-2.16,1.25-2.37.73-3.5,1.82.77,1.1-.36,3.81,1.23,3.97,1.97-2-1.31-3.04,2.49-5.36,1.06,2.03,2.4,4.22,2.72,6.69.16,1.23.07,2.55-.43,3.97-.49,1.4-1.41,2.94-2.91,4.61.32.99,2.6-.06,2.48,1.38-1.5.52-1.82,1.05-2.21,1.62-.4.58-.87,1.18-2.82,2.02,4.91-1.17,2.46,3.45,3.41,4.41,2.72-1.56,2.14-2.64,1.7-3.68-.45-1.03-.78-2.01,2.27-3.18-.53-1.22-1.25-2.5-1.15-4.01.09-1.51,1.02-3.31,3.69-5.39,1.81-.59,2.53-.14,2.76.8,3.47-1.87,2.88-3.28,3.17-4.83,1.25.29,1.53,1.45,1.83,2.61.29,1.16.62,2.29,1.79,2.64-1.35-5.86-4.15-12.4-4.63-19.39-.21-3.48.2-7.13,1.96-10.81,1.78-3.64,4.94-7.42,10.43-10.58-1.26,3.5-1.13,7.01-1.24,10.36-.05,1.68-.15,3.32-.45,4.93-.3,1.62-.79,3.23-1.61,4.77,1.92.46,1.16,2.44.93,4.31-.26,1.89,0,3.63,3.19,3.82,3.07-1.38,3.06-2.58,2.6-3.81-.43-1.23-1.3-2.43.74-3.65-1.39-.19-2.4-1.1-2.76-2.12-.37-1.04-.08-2.26,1.2-2.98,2.45,3.28,2.85,7.24,3.01,11.08.13,3.84,0,7.55.57,10.47,1.43.02,2.74.17,5.14-.15,1.54-1.31,3.27-3.56,1.51-5.16,1.71-.58,3.13-1.31,4.26-2.17,1.16-.83,2.05-1.79,2.75-2.79,1.42-1.99,2.11-4.12,2.85-5.72-.95.2-1.7.47-2.33.78-.62.32-1.12.69-1.58,1.06-.91.76-1.68,1.52-2.8,2.23.55-3.68,1.69-7.83,3.24-12.11,1.55-4.29,3.56-8.56,5.72-12.55,1.56,4.36.74,8.79,0,13.06-.76,4.28-1.43,8.41-.11,12.16,3.96.7,4.05,1.97,3.32,3.33-.73,1.36-2.17,2.91-1.42,4.2,3.76.19,5.26-.49,6.23-1.37.98-.88,1.41-1.99,3.28-2.53,3.09.47-.28,2.23,4.63,2.35,4.88-2.37,2.2-5.92,2.53-9.16.6-5.74,4.34-11.64,3.39-17.27-.19-1.12-1.98-2.27-2.22-3.35-.65-2.95,1.24-5.82,1.82-8.62.29-1.4.24-2.78-.63-4.15-.87-1.37-2.58-2.72-5.69-4.04-2.66-.31-6.97-.28-7.14-1.02,2.27-2.84,3.29-6.08,4.56-9.24,1.26-3.16,2.84-6.25,6.05-8.7,1.19,2.48-2.98,5.39.27,7.01,1.88-1.01,2.08-2.61,2.71-4.06.61-1.45,1.7-2.76,5.05-3.15,1.61,3.42-3.57,9.13.38,13.31,2.47-4.52,3.62-10.35,3.18-14.63-2.11-.34-3.36-.33-4.5-.28-1.17.04-2.3.12-4.18-.1-2.24-2.04.98-3.49-.35-5.82-3.06-.9-3.88.6-6.65.63,2.48,3.34.09,6.57-1.71,9.74-1.82,3.2-4.95,7.77-6.38,10.87-1.09,2.36.12,5.72-5.01,7.2-3.63-1.4-2.49-3.85-1.67-6.3.99-2.99,3.29-5.98,4.85-8.88,1.54-2.9,2.28-5.69-.24-8.23-6.09-.7-9.23-.13-13.74.49,1.96,1.27.65,2.5-.34,3.73-1.03,1.25-1.62,2.39,1.52,3.47,1.58-.86,1.52-2.11,2.01-3.3.48-1.19,1.6-2.36,5.36-2.88,1.83.26,1.89.88,3.05,1.29-.81,2.78-2.13,5.82-3.38,8.97-1.24,3.14-2.4,6.39-3.01,9.59-4.56,1.05-10.53,2.06-12.49,4-1.09-9.46,1.64-18.93,7.22-27.25-1.3.16-3.02.26-4.69.37-1.66.1-3.4.32-4.53.55-1.53,1.29-1.37,2.74-1.55,4.24-.16,1.49-.72,3.08-3.49,4.69,5.55,1.11.65,3.48.65,5.48-.02,1.35,1.91,2.45,1.52,3.69-.56,1.79-2.52,3.66-3.97,5.61-1.44,1.92-2.28,3.74-.84,5.22.93.97,1.04,2.1.62,3.31-.42,1.21-1.38,2.5-2.6,3.88-2.48,2.68-5.9,5.68-8.78,8.23.32-3.14.06-6.7.19-10.41.13-3.72.69-7.54,2.96-11.11,2.12-.3.03,1.35,2.42.96-.1-.86,1.15-2.01,1.84-3.02.67-.97.79-1.88-1.76-2.14.24.79.66,1.57-1.8,2.33,1.14-2.85.32-5.61-.57-8.3-.87-2.68-1.82-5.29-.38-7.92-1.99.56-2.27.42-2.55.28-.28-.14-.58-.3-2.51.34-4.14,1.71-4.2,3-3.82,4.13.4,1.14,1.3,2.21-.36,3.69,2.46-.62,2.82-1.07,2.91-1.51.08-.43-.14-.86,1.22-1.35.82.32,1.15,1.62.39,2.86-.78,1.23-2.56,2.45-6.11,2.72,1.15,1.54-.31,3.34-.71,5.03.05.21,1.31-.32,2.6-.78,1.32-.44,2.66-.81,2.77-.35-.82,1.02-.29,1.91-.17,2.85.14.96-.2,1.92-2.48,3.21-1.39-.81-.23-2.22.42-3.28.67-1.03.73-1.8-2.98-1.18-.41.9,1.94,1.54-.26,2.61-2.04-.32-3.69-1.26-4.28-2.56-.52-1.15.23-2.92.33-4.29.1-1.37-.47-2.35-3.78-1.86-3.61,1.61-4.45,2.61-4.42,3.44.04.84.92,1.52.95,2.57.03,1.49-2.42,4.15-2.28,5.16.19,1.49,1.56,2.48,2.52,3.63.97,1.15,1.44,2.41.02,4.44-2.95.92-7.69,3.3-10.1,4.94-2.37,5.07-2.08,9.54-1.52,13.92-3.26-.15-2.95-5.1-4.09-7.33.21-.88-3.52,2.17-3.29,1.3-1.28-3.02-1.97-5.62-5.28-7.49-5.32,2.94-6.98,4.76-9.51,7.45-19.44,9.2-19.06,18.32-31.24,26.48-1.01,4.14-.92,8.01-6.79,13.39-.86-3.85-3.86-7.84-6.15-12.25-2.13,1.44-2.34.88-4.48,2.32-5.76,4.99,6.37,2.54.47,7.5,2.69-.24,2.58,0,.96,1.66.79-.14,1.72-1.07,2.54-.64.96,5.48,5.43,9.06-3.53,17.32-4.33-3.54-5.59-8.2-9.78-11.81-.21-.66,3.3-2.27,2.3-2.73-.47-.51-3.6,1.75-3.51.65-2.12-3.44-3.64-7.44-8.21-9.11-1.05.73-3.73,1.74-5.21,2.75ZM604.28,164.24c2.76-.77,2.88.43,3.05,1.56.17,1.14.45,2.23,3.48,1.39-1.63,2.46-.83,4.49.08,6.67.92,2.18,1.94,4.5,1.05,7.49-.51,1.1,1.44-.07,1.92.1-.22,3.09,3.65,4.53,2.31,8.24-3.1,1.26-1.91-1.57-5.4.11.63-4.08-6.45-3.56-7.51-6.84-.46-1.46,1.07-4.18.7-5.85-.41-1.88-1.49-3.72-1.91-5.77-.4-2.05-.19-4.34,2.23-7.11ZM492.24,289.56c-4.78,1.91-3.84-1.12-4.71-3.09-1.82-4.11-5.2-8.63-6.15-12.25,4.14-1.88,6.27-.98,9.8-3.2,1.16.5-.06,1.6-1.33,2.72,3.33,2.9-1.73,11.77,2.4,15.82ZM515.12,275.43c-.82.52-1.32.7-1.57.64-.61-4.06-4.56-5.91-6.76-9.95-.89-1.64-2.93-3.61-1.93-4.99,2.05-2.83,5.94-7.43,10.17-10.91.27,2.55,1.71,4.8-1.1,8.14.39.48,1.76-.05,2.78-.23-2.79,6.34-.37,11.36-1.6,17.31ZM606.25,221.63c-3.54,1.6.21-1.05-.84-1.45,2.06-.58,1.72.28.84,1.45ZM220.75,331.74c-1.71-2.15-.47-3.09,1.86-.44-.13,1.1-1.59-.4-1.86.44ZM604.56,218.73c-5.15-.44-3-6.01-3.85-9.97-.43-1.99-2.7-3.05-2.89-4.98-.08-.81,1.35-2.23,1.21-2.92-.83-4.38-3.7-7.8-4.21-12.27,10.25,6.03,6.69,21.65,9.75,30.14ZM174.9,158.8c-.07-.84-.14-1.68-.21-2.51.82-.97.86,2.02,1.57,1.55.13,1.85-.98.44-1.36.96ZM185.71,221.1c.2,5.3,1.76,7.82,3.58,8.13-1.39,6.72-6.49,1.38-8.49-3.5.35-4.94,3.12-3.49,4.91-4.63ZM175.02,154.57l-.21-2.51c5.38.57,10.45,2.67,15.56,4.58-4.38,4.64-11.2.1-15.35-2.07ZM177.06,172.94c4.02-11.36,10.97,6.87,17.5,1.89-1.11,6.73-4.9,2.77-7.61,4.02-1.5.69-2.67,3.89-4.02,3.71-2.19-.28-4.42-4.8-5.87-9.62ZM223.15,330.82c5.65-5.48,10.72-11.34,19.68-11.85,2.84,6.28-1.01,10.78-6.1,11.42-1.08-.03,1.16,1.98,1.06,2.56-1.27-.1-2.28.28-3.7-.11-.65-.85-.98-1.51-.65-1.76-1.22.2-4.73-1.38-2.12,1.95-3.62-2.44-5.65-1.89-8.16-2.21ZM469.75,292.64c-.7.29-1.41.57-1.69.43.35-5.9-8.27-5.56-4.57-12.89,1.54-1.05,1.26-.2,2.42-.85-.94-1.29-.86-2.34-.96-3.33,4.58,3.98,4.47,10.18,4.81,16.63ZM650.94,193.7c-.96-3.91-1.64-8.81-1.87-13.68-.24-4.86-.03-9.7.64-13.47.25-1.23-2.58.15-3.51-.33-.33-.75,2.61-.99,3.33-1.58-1.29-2.76-2.42-5.71-1.25-8.55,1.14-2.79,4.75-5.56,12.52-7.05-3.16,7.97-4.9,15.36-6.3,22.56-.7,3.62-1.29,7.24-1.87,10.88-.29,1.82-.58,3.65-.87,5.52-.27,1.87-.54,3.76-.82,5.7ZM204.64,302.38c-.66-.99-.91-1.58-.87-1.87,4.77.36,8.84-.05,13.02-.47,4.2-.45,8.43-.76,13.25-.36-2.1,2.46-5.09,3.51-7.85,4.22-2.76.73-5.34,1.2-6.5,2.94-2.05-1.22-3.3-.65-4.8-.57-1.49.06-3.29-.25-6.26-3.88ZM627.77,199.81c-1.69-.1-1.82-1.39-1.89-2.8-.08-1.41-.1-2.94-1.79-3.43,2.16-.77,1.03-1.23,3.19-1.95,1.88,1.7.52,5.56.49,8.19ZM448.93,301.97c-.82.52-1.32.7-1.57.64-3.02-2.47-4.78-6.92-5.55-11.21-1.54-8.61-12.11-13-6.25-24.13,8.9,1.62,4.39,11.6,7.83,16.82,3.72,5.64,5.64,10.63,5.53,17.88ZM267.54,378.46c-2.32-4.78-1.24-10.71,1.75-6.35,2.67,5.69,1.9,10.29-1.75,6.35ZM172.28,66.86c.01-.12,1.07-1.9,1.38-1.51-.51.68-.97,1.05-1.38,1.51ZM178.18,126.49c1.24-.85,4.34-1.98,5.54,2.9-1.75-1.95-3.56-.26-5.54-2.9ZM176.19,88.73c-.46-3.16,1.04-1.16,1.53-1.82.17,2.4-.87,1.62-1.53,1.82ZM680.74,190.2l-2.4-.22c.99-2.59,1.97-4.5,2.31-7.74,3.72,2.48-.23,6.49.09,7.96ZM177.69,97.87c.04-.75.08-1.51.34-1.71,3.32-2.77,5.98,2.09,8.32,4.35.83.8,1.88-2.29,2.36,2.33-3.86-2.15-8.04-4.92-11.02-4.97ZM566.21,229.64c-1.08.56-2.68-.73-.12-1.87.74.45-.88,1.49.12,1.87ZM393.51,328.62c-.73.42-1.45.84-2.18,1.27-.61-1.15-1.43-3.99-1.56-6.03,3.77-.49,1.15,4.12,3.74,4.77ZM578.03,173.08c-2.14,2.26-2.42,4.47.48,4.16-1.05,1.22-2.34,2.5-2.79,3.56,4.08,4.9,3.18,12.95,4.44,19.35-.82.41-.73-.13-1.69.43,3.53,1.11.81,5.85,3.25,7.27-1.28.95-.14.91-2.06,1.47,2.97,1.74,1.28,6.67,2.53,9.36-7.87-6.76-9.56-19.74-16.28-28.01,2.1-1.07,5.91-4.19,2.67-3.77-2.33,2.44-4.79,3.3-8.71,5.06-6.55,4.57-3.3,9.19-1.34,9.39-1.82,4.04.86,5.14,1.56,7.7.64.47-2.44,1.89-2.42,2.52.85,0,3.42-1.53,1.93-.01-3.81.27-4.12-2.38-4.71-4.76-.84-3.4-.6-8-3.13-10.39,4.95-6.39,10.84-17.37,26.28-23.32ZM222.69,315.58c.34-1.94,4.37.46,5.25-.85.13,1.39-1.36,4.54-5.25.85ZM201.92,281.95c-1.61-3.94,1.33-1.6,1.68-2.83,1.22,3.36-1.09,1.92-1.68,2.83ZM552.78,234.94c-3.04-2.65-6.93-9.04-10.38-14.51-2.37-3.76-3.05-7.01,1.35-12.72,6.91-.32,2.61,6.78,7.61,8.07-.49.76-2.17,1.82-2.42,2.52,4.54,1.85,4.03,6.15,2.16,10.4,1.74-.45,1.4-.93,1.94-1.68,4.48.53-2.74,6.09-.26,7.92ZM191.14,219.8c2.15-1.78,4.89-2.66,7.08,1.09-2.82.19-4.69.93-7.08-1.09ZM178.81,74.14c-.45-2.15,1.45-3.04,1.4-.53l-1.4.53ZM565.73,227.14c-5.68-1.94-5.68-7.49-4.7-13.09,2.59,2.86,4.67,8.58,4.7,13.09ZM356.6,348.69c-3.56,2.4-1.86-.25-2.3-.61-2.3-1.87-6.11-5.34-7.24-9.12,2.46-1.97,4.08-3.73,7.26-5.89,3.34,3.99,3.47,9.51,2.27,15.61ZM177,62.59c.1-.76-.02-1.57,1.36-1.77.5.48-1.04,1.2-1.36,1.77ZM494.09,267.67c-3.82-12.15-9.58-24.13-13.13-35.95,4.77,1.25,6.02,4.06,8.33,7.65,1.41,2.19,2.01,3.94,3.38,5.81,2.24,3.05,1.02,8.35,3.61,11.23.49.54,2.48-.02,3.14.39,1.83,1.14.24,4.31,1.44,5.82-1.91,1.6-3.69,3.16-6.78,5.05ZM428.01,306.08c-3.09.46,1-2.94-1.08-3.54,4.77-2.19,1.39,2.25,1.08,3.54ZM396.78,324.23c-2.62.98-4.44-2.15-2.29-3.94,0,1.31,1.76,2.24,2.29,3.94ZM675.55,184.95c-4.09-1.73-3.82-3.61-3.58-6.26.57-6.22,1.17-14.45.44-21.38-.36-3.49-1.75-6.75,2.39-9.71,5,.53,6.99,1.67,9.6,2.69-.92.24-.93.8-1.85,1.04,5.25,3.28.8,6.53-.01,9.88-.84,3.5,3.98,7.82-3.38,9.58,5.58,2.42-1.05,4.93-2.26,7.29-.17.33,1.54.67,1.55,1.08.01.44-2.48.6-2.51.77-.36,2.01,2.34,2.9-.39,5.02ZM423.41,308.19c-5.8-6.48-12.3-17.47-15.56-25.1,4.56-3.56,6.01-7.52,11.38-10.5.13,3.95,3.84,6.97,3.97,11.85.9.4-1.31,1.21-2.06,1.47-.47,1.48,3.07-1.19,2.9-.02,1.41,7.02.43,14.65-.64,22.3ZM180.68,73.43c2.5-3.35,5.31-3.78,8.36-2.98,1.52.38,3.11,1.02,4.72,1.47,1.61.44,3.25.7,4.87.14-3.08,2.68-6.08,2.05-9.03,1.48-2.96-.63-5.87-1.22-8.91-.11ZM387.47,328.25c-.7.28-1.4.57-1.69.43.53-1.51-2.18-1.32-3.26-2.27-1.85-1.63-1.16-5.15-1.68-7.91-.53-2.77-3.66-4.14-.59-7.71,4.44,3.49,7.09,10.42,7.23,17.45ZM310.49,372.16c-2.84.24-3.01-1.78-2.51-4.27.52-2.5,1.67-5.45,2.02-7.38,3.09-1.98,3.27-1.17,6.4-3.17-1.21,4.35-1.64,8.81-5.9,14.81ZM249.57,340.27c-.69-.68-.97-1.11-.95-1.37,2.69-2.17,7.04-5.55,12.96-2.94-4.38.67-7.73,3.39-12.01,4.31ZM195.85,235.48c.65-3.8,3.76-1.46,4.7,1.3-1.64,0-3.49,1.1-4.7-1.3ZM331.73,359.26c-2.64.66-3.81-.21-4.73-1.41-.91-1.21-1.59-2.73-3.02-3.52,1.16-1.09,5.83-3.81,7.23-4.2-.58,1.41-.26,2.93.22,4.42.44,1.51.95,3.03.3,4.72ZM179.42,60.21c-.53-.38-.11-.97.62-1.46.73-.49,1.82-.87,2.43-.91.26.61-.47.82-1.23,1.09-.77.26-1.56.59-1.82,1.28ZM376.22,332.29c-3.9-1.56-5.28-7.86-6.75-11.62,6.07.53,7.56,6.75,6.75,11.62ZM182.96,63.46c.34-1.76,1.88-1.45,2.69-2.41.03,2.43-2.11,2.85-2.69,2.41ZM620.06,190.44c-2.84,1.1-.47-.69-1.44-1.17,2.66-1.08.27.72,1.44,1.17ZM682.34,181.67c-2.6.08-2.4-2.21.16-1.67l-.16,1.67ZM428.62,300.45c-.94.43-1.64.6-1.81.22.69-9.8-1.3-19.5-2.86-28.32-.35-1.98-3.95-2.55.37-6.05,3.7,5.18,6.9,10.14,6.87,16.83-.03,5.98-.19,10.7-2.57,17.31ZM190.72,138.07c.09-1.47.66-2.23,1.13-.94.16,2.13-.72,2.05-1.13.94ZM209.46,281.91c-.78-2.63-.01-2.67,1.06-2.39,1.07.28,2.45.85,2.98-.39.57,3.97-2.17,3.19-4.03,2.78ZM177,55.83c-.18-.06-.32-.12-.42-.18-.05-.03-.1-.06-.14-.1l-.06-.05-.03-.02c.13.05-.39-.17-.65-.28-.61-.26-1.22-.52-1.82-.78l-.73-.32-.04-.03s-.1-.07-.16-.12c-.11-.08-.25-.16-.44-.24,1.32-1.14,2.64-2.68,4.09-4.29.73-.8,1.5-1.62,2.33-2.41.17-.21.52-.35.77-.53.25-.18.51-.35.64-.58.31-.43.65-.85,1.02-1.24,1.37,2.42.18,4.23-1.11,6.01-1.34,1.76-2.75,3.5-3.27,5.17ZM625.72,186.02l-2.13.92c-.11-1,.09-2,2.01-3.22.86.68-.16,1.56.12,2.3ZM536.94,236.1c-1.14-.19-.35-1.96-3.99-.18-2.41-3.97-5.35-6.52,1.84-13.56,1.66,4.34,2.58,8.87,2.15,13.74ZM390.74,320.52c-.34.69-2.97-.17-1.69-1.24,2.58-1,.63.65,1.69,1.24ZM683.35,179.84c-2.7-.39-1.09-1.01-.69-1.51,2.01.53,1.38.96.69,1.51ZM189.19,102.8c-.06-2.64.55-1.15,1.12-.94.16,2.13-.72,2.05-1.12.94ZM294.41,375.4l-2.57,1.49c.82-3.57.73-7.52,2.22-11.01,2.23-.26,2.4,1.46,1.92,3.6-.47,2.14-1.62,4.72-1.57,5.91ZM191.29,122.01c4.93-3.16,11.9-4.11,16.05-3.89.31,3.62-.85,3.4-.94,5.98-5.74-.92-9.35.59-15.11-2.09ZM188.2,82.68c.05-.62.11-1.26.36-1.44.81.46,1.62.85,2.44,1.2.82.37,1.65.72,2.47.97,1.66.53,3.32.82,5,1.06,3.36.48,6.79.76,10.31,2.34-1.81,7.84-8.55-.89-11.03,3.46-2.93-3.83-6.67-3.62-9.55-7.59ZM198.15,197.29c-.49-2.85,1.63-2.14,1.84-1,.28,3.89-1.29.43-1.84,1ZM461.67,277.07c-.83.52-1.32.71-1.57.64-1.59-2.05-4.33-4.08-5.91-6.83-2.35-4.07-3.12-9.37-5.42-12.67-.33-.47-2.31-.33-3.87.03-1.79,1.07-2.02,1.7-3.63,2.11-3.35,2.52-.82,3.54-1.7,5.43-2.59.59-2.52-1.6-4.11-2.05-1.92.39-4.74,2.97-5.93,3.17.54-1.64-.6-3.6-2.29-3.94,3.33-3.53,12.07-9.65,19.73-12.85,1.25.69,3.86-.01,5.81-.04,7.53,6.99,11,15.7,8.91,27.02ZM263.24,345.85c-1.19-2.23-.25-2.72.85-3.05,1.11-.31,2.39-.46,2.12-1.64,1.62,1.73,1.27,2.7.32,3.34-.95.64-2.54.9-3.29,1.35ZM621.69,184.64c-1.79.03-3.34-.53-4.06-1.42-.72-.89-.62-2.18.93-3.48.69,1.8,4.83,2.02,3.13,4.9ZM517.22,243.95c-3.77-7.32-5.56-14.54-.93-25,5.45,5.42,13.8,11.93.93,25ZM397.41,313.59c-1.41-5.12-13.82-8.04-2.15-17.07,1.74,5.19,3.71,11.18,2.15,17.07ZM658.45,175.68c-1.28.11-1.37-.18-2.38-.16,2.15-8.73,4.51-16.62,8.49-25.26,3.68,3.71,1.99,7.84-.39,12.14-1.2,2.14-2.6,4.36-3.7,6.6-1.1,2.23-1.91,4.47-2.02,6.67ZM201.71,222.27c.03-3.19,2.99-2.06,3.76-1.16-.05,3.31-2.96,1.9-3.76,1.16ZM232.35,309.91c-.95-1.03-.8-1.27-1.47-2.15,5.02.08,8.46-3.58,13.92-3.95-.44,2.93-2.27,4.26-4.65,4.94-2.37.68-5.29.71-7.8,1.15ZM276.4,360.89c-1.8-3.25.28-4.84,1.25-4.79,1.23,1.99,1.12,2.97.6,3.54-.52.58-1.48.73-1.85,1.25ZM196.62,153.59c.29-3.19,2.04-.06,3.76-1.16-.23,3.47-2.77,1.46-3.76,1.16ZM196.79,144.3c-.46-3.11,1.34-1.67,1.6-.98.06,1.88-1.15.44-1.6.98ZM302.94,366c-2.81.94-1.55-3.33-1.52-4.11,3.26-.93,2.38,2.71,1.52,4.11ZM328.38,350.66c-1.84.73-4.55,2.34-5.83,2.56-1.26-4.85-2.18-9.71-3.12-14.48-.47-2.39-.95-4.75-1.48-7.09-.26-1.17-.54-2.33-.84-3.48-.26-1.18-.72-2.23-.74-3.55,3.73-1.83,4.08,1.29,2.66,2.9,4.91,1.34,1.26,5.73,6.52,7.87,1.3.55-2.51,2.38-1.22,2.93,2.96.46,3.88,2.42,4.13,4.82.12,1.2.09,2.51.03,3.8-.06,1.3-.17,2.6-.11,3.74ZM251.45,328.24c-.98-.94-.83-1.21-1.55-2,5.57-5.04,9.8-14.64,18.88-14.25-.73,10.19-10.24,13.12-17.33,16.26ZM94.97,115.88c-5.38,1.41-7.03-4.65-10.69-5.96,5.54-3.87,9.56,1.55,10.69,5.96ZM193.85,98.19c-.12-.97-.07-1.5.1-1.7,2.78-.88,5.76,2.99,8.32,4.35,1.07.57,2.36-2.33,3.32,2.25-.71,1.95-1.91-1.14-2.94-.59-.48.25-.84,2.65-.98,2.61-.6-.14-1.58-3.35-2.27-4.02-1.86-1.8-3.59-.04-5.54-2.9ZM281.07,363.88c-.56-2.13.5-4.9,1.55-4.53.53,2.45.84,6.8-1.55,4.53ZM604.1,189.64c-4.78,1.35.06-3.93-3.58-2.94,4.78-1.77,1.88,2.19,3.58,2.94ZM205.52,230.38c4.71-6.02,11.22-2.7,17.32-3.16-3.73,3.2-11.9,6.41-17.32,3.16ZM341.74,341.51c-2.63,1.27-2.89-1.24-2.29-2.28,2.88-1.33,2.53,1.34,2.29,2.28ZM316.15,356.38c-5.47,2.04-6.67-.03-6.72-3.27-.02-3.27.88-7.59.65-10.68-.12-1.65-.8-2.9-1.07-4.25-.29-1.33-.19-2.75.92-4.55,1.06,4.32,2.28,7.94,3.45,11.48,1.16,3.55,2.29,7.02,2.77,11.27ZM140.81,33.57c-1.1,2.48-2.16-.27-.72-2.1l.72,2.1ZM85.16,130.59c-2.83,2.37-2.84-1.62-3.8-3.06,2.86-2.17,3.39.94,3.8,3.06ZM163.71,41.99l-1.84-.76c.92-2.54,1.76-4.97,3.07-7.07.66-1.05,1.47-2,2.58-2.79.56-.39,1.2-.75,1.94-1.04.18-.08.4-.14.56-.22l.49-.25c.33-.16.68-.31,1.05-.45-1.24,5.7-7.18,8.26-7.85,12.59ZM559.22,214.27c-1.79.74-1.04-1.14,1.57-2.3,1.22.33-2.53,1.91-1.57,2.3ZM217.58,280.18c.03-2.08,1.15-2.85,2.5-3.21,1.35-.36,2.92-.33,3.93-.69-1.6,2.02-3.6,4.36-6.43,3.89ZM96.55,108.12c-.91,1.18-1.81,2.33-2.28,1.61.94-1.09,2.71-3.4,2.28-1.61ZM620.93,178.94c-1.23.42-.95-.4-3.22.93-3.55-4.7-5.43-10.35-4.57-16.38,2.07.25,2.87,1.37,3.76,2.47.89,1.11,1.87,2.17,4.28,2.48.63-1.11-.36-2.15-.91-3.3-.53-1.14-.65-2.47,2.02-4.07.12,2.15,1.12,3.37,1.51,4.62.41,1.25.19,2.48-1.83,4.75-3.46,1.76-.57-1.34-2.99-.33-.86,1.45-.04,2.98.81,4.5.85,1.52,1.73,3.02,1.12,4.33ZM201.77,163.27c2.86-4.13,8.57-2.2,11.62.7-3.23,3.99-7.79.96-11.62-.7ZM279.68,357.18c-2.04-2.37-.61-2.31-1.57-3.9.65-1.25,1.16-2.33,1.71-3.56.53-1.21,1.07-2.43,1.6-3.66,1.07-2.47,2.16-4.93,3.33-7.24,2.32-4.63,5.09-8.56,7.84-11.53-.62,2.98-1.32,6.96-2.78,8.47-1.13,4.51-2.81,8.23-4.72,11.46-.95,1.62-1.94,3.14-2.87,4.71-.47.79-.92,1.58-1.34,2.41-.2.4-.42.86-.63,1.35-.21.48-.4.98-.58,1.49ZM206.43,212.6c5.44-4.6,14.73-3.28,20.19-3.4-1.84,7.15-6.09,2.16-8.87,3.28-2.87,1.15-7.64,1.15-11.31.11ZM205.86,205.91c2.15-3.15,7.24-4.35,9.83-3.36-1.42,4.86-6.96,2.33-9.83,3.36ZM203.31,175.78c-.26-3.98,1.13.41,1.84-1-.02,1.9-1.31.44-1.84,1ZM76.4,143.02c-.59,1.22-.89,1.16-1.41,2.1-1.62-4.35-7.89-3.75-8.11-10.19,2.38-3.56,4.31-.04,4.19,1.34,2.51-3.36,2.07.41,4.36-1.45-.78.97-1.74,2.76-2.06,1.75-.62,3.56,2.21,4.05,3.04,6.45ZM231.15,299.91c-.53-.66-1.02-1.35-1.51-2.05.2-.59.85.1,1.26.12.82,1.24.84,1.78.25,1.93ZM139.26,30.98c-1.02-1.78-2.22-3.12-3.12-4.83-.9-1.72-1.5-3.8-1.17-7.29.46-.21.85-.22,1.17-.07.14,0,.38.41.55.66.18.28.33.56.47.84.53,1.1.71,2.16.8,3.18l.03.38.07.54.14,1.11c.1.73.19,1.46.29,2.16.2,1.37.44,2.56.78,3.32ZM284.58,361.89c-.93-1.42-.33-1.76-1.65-3.45,1.11-1.4,1.93-3.81,2.77-6,.83-2.2,1.67-4.2,2.64-5.01.55,1.31.6,2.15.47,2.7-.14.55-.48.81-.87,1.08-.8.55-1.71.96-.77,3.9-.81-.01-.95,1.27-1.07,2.44-.13,1.17-.28,2.23-1.35,1.61-.28.78.92,3.46-.16,2.74ZM360.26,326.58c-2.46-5.02-2.52-13.41-5.41-17.67,6.47-2.35,8.02,3.86,5.79,6.63.22,2.46,5.77,1.32,2.89,4.98,1.61.39,1.67.55,2.66,1.23-2.27,1.68-2.92,2.96-5.93,4.84ZM232.81,299.71c-.51-.67-1.06-1.31-1.53-2.01.38-.57.98-.34,2.29,1.42l-.76.58ZM215.71,268.11c1.16-.94,2.83-2.51,4.77-3.65,1.93-1.14,4.12-1.85,6.25-1.33-.79,1.43-2.2,1.89-3.47,2.62-.4.94.92.46.71,2.18-1.41-1.24-2.76-.86-4.14-.29-1.37.56-2.73,1.3-4.14.47ZM207.77,191.42c.8-2.69,4.31,1.04,6.46-.55-.59,4.47-4.84,2.18-6.46.55ZM38.02,208.21c-1.07,2.04-1.93,1.25-1.66.08.88-1.63,1.07.16,1.66-.08ZM369.34,318.8c-3.79,1.88-.66-1.6-2.05-1.86,1.87-.61,1.19,1.43,2.05,1.86ZM183.44,44.47c-.61-.42-1.16-1.39-1.04-2.07.12-.67.97-1.01,3.31-.11-.78.7-.36,2.34-2.27,2.18ZM198.64,69.35c.38-2.81,1.64.34,2.03-1.61-.03,3.47-1.3,1.22-2.03,1.61ZM622.07,172.98c-1.88.71-.87-.79-.45-1.11,1.44-.51,1.99-.34,1.96.25-.95.33-1.41.61-1.51.86ZM305.58,354.75l-2.05,1.19c-1.24-2.66-.7-6.26-.13-9.67.6-3.44,1.24-6.7,1.11-9.22,1.61,2.27,1.93,5.3,1.64,8.57-.25,3.24-1.09,6.71-.58,9.13ZM146.67,27.9c-2.7-1.81-3.77-4.95.05-3.35.84.89-1.5,1.28-.05,3.35ZM48.22,183.18c-1.28,2.28-1.72.69-2.49.58,1.43-2.99,1.63-.26,2.49-.58ZM59.09,161.35c-1.75,4.03-2.99,1.53-1.48-.8l1.48.8ZM380.24,309.13c-1.14.74-1.36.53-2.3,1.06-.72-6.35-2.63-11.56-4.2-17.27,4.21-1.9,1.72,1.04,2.05,1.86,1.86,4.65,4.52,9.62,4.45,14.35ZM79.99,119.09c-1.06,1.48-1.96,2.32-2.48,1.51,1.07-1.45,2.83-3.09,2.48-1.51ZM246.03,304.9c-1.32-1.61-.43-1.76.04-2.18,2.06,2.09.01,1.48-.04,2.18ZM535.28,216.53c-.22-.58-.48-1.15,1.58-2.31.49.51.75,1.08-1.58,2.31ZM214.6,192.52c.32-5.12,2.62,3.18.45,2.49-.08-1.19-.16-2.37-.45-2.49ZM243.65,299.48c-.52-2.61.88-4.21,2.69-5.22,1.83-1.01,4.14-1.48,5.83-1.8-.44,3.8-6.01,4.45-8.52,7.02ZM563.12,197.57l-2.9,1.69c-.53-1.69-2.35-3.05,2.31-6.06,2.39,1.01-1.13,3.88.6,4.37ZM216.66,194.04c-.53-2.62,1.76-2.81,1.67-.14l-1.67.14ZM550.9,203.28c-.06.41-1.72,1.23-2.78,1.9.84-1.56-1.37-2.35.49-4.17,3.63-1.74.14,2.93,2.29,2.28ZM136.24,15.54l-.71-.29-.35-.15-.18-.07s-.07.1-.1.16l-.77,1.32c-.78-.04-.91-1.46-.99-3.12-.08-1.65-.1-3.54-.76-4.33.09-.1.18-.19.26-.28l.12-.12.06-.05s.06.04.09.05c.25.18.48.35.68.52.4.34.71.67.94.98.47.63.65,1.23.75,1.82.18,1.17.04,2.31.95,3.57ZM401.92,287.93c-.73.42-1.45.84-2.18,1.27-.21-.82-1.54-1.35-.48-2.5,2.34-1.15,3.8-.2,2.66,1.23ZM219.05,193.83c-.48-3,.84-1.25,1.29-1.8.48,3.01-.84,1.25-1.29,1.8ZM513.38,222.31c-1.47.74-.46.27-2.66,2.1-1.56-4.21-6.26-9.85-4.81-14.97,5.42-1,5.34,4.42,8.58,4.73-.06,2.5-1.32,6.49-1.1,8.14ZM230.49,269.42c-.49-1.86,1.17-.45,1.56-.62.44,1.42-1.11,1.17-1.56.62ZM433.02,267.91c-2.21,1.41-2.58.9-2.78.23,2.02-1.22,2.39-.71,2.78-.23ZM290.17,344.52c.8-3.47,2.91-10.8,4.19-15.76.18-.72.25-1.95.48-2.79.21-.83.63-1.33,1.26-.61-.68,3.72-1.49,7.52-2.48,10.86-.99,3.35-2.15,6.23-3.46,8.3ZM401.32,285.22c-1.14.74-1.37.53-2.3,1.06.47-2.05-2.1-2.11-.48-4.16,2.65-.69,1.17,2.15,2.78,3.1ZM232.55,269.34c.17-1.29.9-2.3,2-.82.8,2.6-1.26,1.2-2,.82ZM238.15,279.9c.73-2.32,4.86-6.64,8.08-.15-2.74-.3-5.13,1.02-8.08.15ZM217.89,137.46c.03-1.94,1.41-.94,1.34,1.57-.7.78-.97-.66-1.34-1.57ZM222.55,186.8c.76-5.51,4-.48,5.77-3.02-1.03,4.49-4.45,3.86-5.77,3.02ZM213.93,67.85c-.32-5.29,1.64-1.1,2.12-.58.04,5.6-1.3-.43-2.12.58ZM611.77,160.41c-2.47,1.09-1.99-.19-2.42-.74,2.96-1.45,3.7-.27,2.42.74ZM226.99,210.86c-.18-1.35.11-1.46.03-2.53,1.42,1.02,1.9-.05,3.35-.28.34,4.8-2.29,1.77-3.38,2.81ZM304.49,336.51l-.13-2.15.84-.49c-.31.88,1.07,1.77-.71,2.63ZM237.21,267.43c-.33-.67-.4-1.07-.28-1.27,2.92-.91,5.02-3.25,7.45-4.39,1.2-.59,2.4-.89,3.73-.71,1.36.17,2.87.82,4.5,2.16-.03.28-.09.56-.14.82-.03.26-.09.51-.16.76-.14.48-.35.93-.61,1.34-.52.82-1.25,1.51-2.09,2.13-1.68,1.25-3.81,2.2-5.51,3.62-1.22-4.88-4.67-1.98-6.88-4.45ZM286.17,328.83c-.57-1.65.03-2.19.79-2.66.76-.46,1.66-.86,1.93-1.91.39,1.48-.08,2.18-.79,2.69-.7.52-1.64.84-1.93,1.88ZM235.21,261.33c-.34-2.64,2.15-1.39,3.1-2.25.27,2.9-2.24,2.99-3.1,2.25ZM422.75,265.27l-2.18,1.27c-.3-.88-1.83-1.44,1.1-3.14,1.29-.3,1.98.9,1.09,1.87ZM309.77,330.94c-1.62.94-1.28-1.85-1.05-2.44.98-.09.6,1.77,1.05,2.44ZM217.56,68.08c-.13-4.85,1.52.15,2.49-1.91.36,2.71-.3,1.88-.16,3.82-1.17-1.38-1.43-1.32-2.33-1.91ZM622.28,152.16c-2.92.55-1.64-1.84-1.99-2.62,2.46-.23,1.05,1.92,1.99,2.62ZM218.62,43.64c-.48-7.92.86-.23,1.73-2.37.07,2.98-1.24,1.27-1.73,2.37ZM374.35,288.96c-2.64,1.32-1.26-.24-.6-1.04,2.64-1.32,1.26.24.6,1.04ZM232.96,150.51c-.07-.84-.14-1.68-.21-2.51.73-.1,1.53-.62,1.65,2.39l-1.44.12ZM293.2,322.56c-.61-.9.45-1.91,1.02-.97-.23.92-.68.62-1.02.97Z"/>
      <path class="cls-1" d="M843.8,33.22c-.02,5.16-.75,11.15-1.83,16.63-.27,1.37-.56,2.71-.87,3.99-.32,1.29-.65,2.58-.98,3.87-.69,2.68-1.42,5.21-2.15,7.52-.19.57-1.14-.25-1.41.23-.62,1.11-.55,3.15-.45,5.17.11,2.03.25,4.03-.04,5.3-.38,1.66-1.46,2.53-1.97,3.86-.53,1.31-.51,3.01.89,5.84-.03-1.94,1.33-.13,1.97-.32,1.05-.72,1.26-3.79,2.2-4.98.41-.51.99-.66,1.85-.02-.57,2.91-1.01,5.94-1.55,8.71-.54,2.77-1.2,5.29-2.04,7.4-.07.24-.16.46-.25.68-.11,4.61-.86,8.97-1.76,11.69.29,1.68-.21,2.97-.53,4.54-.34,1.54-.5,3.36-.15,5.27.11.07.21.07.3.01.77-.41,1.18-4.31,1.94-6.13-.24-.48-.46,0-.45-.6.92-5.77,1.89-11.63,3.01-17.34,1.13-5.7,2.4-11.23,4.02-16.15.81-2.46,1.72-4.76,2.75-6.84.52-1.04,1.06-2.02,1.65-2.94.29-.46.59-.9.91-1.33.31-.4.62-.78.95-1.14,2.62-2.91,5.84-4.63,10.13-4.64.97,2.65.55,4.2-.13,5.56-.68,1.35-1.61,2.53-1.85,4.22-1.4-2.01-1.58-2.98-1.82-1.67-.92.62,1.53,1.53,1.4,2.72-1.41,4.32-3.04,8.38-4.63,12.1-1.6,3.73-3.18,7.17-4.66,10.44-2.96,6.52-5.45,12.39-7.33,17.62-1.17-.27-1.87,2.7-2.06,4.66.75,1.29,1.31.74,1.85-.18.54-.92.99-2.3,1.61-2.51-.18-1.23-.88,0-.77-1.5.82-.39,1.39-2.55,2.24-3.16.78.74-.1,1.25.48,1.94.36-.11.64-.71,1.21.46,3.15-3.71,6.81-7.77,11.02-10.85,4.22-3.05,9.02-5.08,14.99-4-3.37,2.25-6.51,6.08-9.93,9.55-3.39,3.52-7.07,6.7-10.63,8.99-.12.93-1.01,1.54-.92,2.5-1.55-.99-3.13,1.61-2.87,3.06.64.97,2.37.72,4.04.14,1.67-.6,3.17-1.69,2.95-3.05-.53-.36-1,.13-1.47.6-.47.48-.96.93-1.44.64,2.15-2.33,4.25-4.44,6.43-6.37,2.17-1.94,4.42-3.7,6.67-5.59,2.75-2.28,5.2-5.31,7.79-8.02,2.6-2.67,5.33-4.99,9.25-4.95,1.43.02,3,.19,4.69.5.84.15,1.72.35,2.61.57.89.21,1.86.55,2.65.61,3.34.5,6.76,1.22,9.93,2.03.37,1.79-1.49,1.56-2.17,2.41-.53.66,2.22,1.75,1.85,2.92-13.06,7.35-27.97,14.17-42.06,18.83-.39.13.07,1.89-.34,2.15-.9.58-3.38.96-5.11,1.35-3.9.88-9.52-.76-7.04,5.48,3.52,3.76,4.07.82,6.19.81,1.58,1.88,1.45,2.48,3.44,5.44,7.02-.61,14.79-1.91,22.29-2.21,1.88-.07,2.98-2.33,6.66,1.79-.88,1.52-2.5.14-3.94-.54.01.85,1.45,3.04.23,2.75-4.62,2.63-9.85.11-12.78,5.73-2.55-.6-6.04-1.34-7,1.38,1.59,2.29,1.51,3.06,2.05,4.39,6.26-.26,12.51-.86,18.57-1.81,6.04-.94,11.92-2.26,17.48-4.01,5.5-1.72,9.92-5.33,15.22-6.74,1.46-.39,3.94-.48,6.73,2.12-21.15,8.81-39.29,17.26-60.57,21.21,1.29,1.85.73,1.96,1.77,3.57,3.11,2.93,3.53.66,5.34.63,5.78-.12,12.22-.26,18.69-.39,6.48-.1,13.07-.15,18.99.11,1.56.07,2.53-2.14,5.17,1.03-11.05,5.17-19.58,5.94-28.59,10.64-2.01-1.92-6.09-1.72-4.65,2.5,5.35,7.32,6.71,1.81,9.21,1.47.18-.02.61.35,1.06.74.22.2.45.4.65.55.23.21.5.51.63.56,1.12.55,2.11.87,3.14,1.16,1.01.28,1.99.49,2.96.62,1.93.27,3.8.26,5.61.06,3.62-.39,7.02-1.49,10.26-2.67,2.48-.9,4.79-2.23,7.04-3.7,2.24-1.47,4.42-3.08,6.62-4.67,4.38-3.21,8.87-6.22,13.39-8.85.25,1.18-1.53,1.15-1.2,2.42.36-.23.68-1.33,1.11.1-3.18,2.77-6.48,5.54-9.88,8.2-3.41,2.66-6.9,5.19-10.63,7.39-3.73,2.18-7.64,3.98-11.91,4.93-4.27.95-8.89,1.05-14.09-.31.5,2.61,3.45,4.85,3.69,6.83-2.02-.81-3.02.06-3.64,1.47-.63,1.39-.88,3.31-1.53,4.31-.84,1.33-3.02-.23-4.97-1.32-1.94-1.07-3.64-1.68-3.23,2.11.67-.04.92,2.58,2.76,5.54,1.67,2.48,1.7.93,1.8-.35.09-1.28.24-2.31,2.01.97,1.1,3.37-.81,2.47,1.03,6.99,6.36,13.65,4.92,6.65,6.82,7.07,4.35.86,8.71.88,12.72-.12,4.02-.98,7.75-2.97,11.05-5.83,2.28-1.98,4.22-4.71,6.14-7.32.96-1.31,1.91-2.59,2.88-3.78.48-.59.97-1.16,1.46-1.69l.74-.77.37-.36.5-.62c1.34-1.71,2.82-3.42,4.41-5.1-2.67,5.88-5.1,11.26-7.5,16.55-2.43,5.35-4.85,10.62-7.6,16.27-1.34.49-2.16.97-2.99,1.45-.11-.02-.26.03-.35-.05-.09-.08-.19-.16-.29-.26-.2-.19-.41-.44-.65-.79-.98,4.43-3.47,6.55-5.62,8.98-2.12,2.46-3.93,5.41-2.72,12.65.07.04.18.07.3.1,7.13-2.23,10.12-4.07,11.82-5.81,1.69-1.75,2.16-3.42,4.03-5.28,5.72-5.7,8.84-10.87,13.81-15.01-.78-1.46-.06-3.14,1.13-4.9,1.21-1.76,2.9-3.58,4.3-5.39.91,3.87-.13,7.32-2.21,10.83-2.04,3.51-5.08,7.07-7.29,10.92,3.98-.11.72,2.57-1.49,4.77-2.16,2.2-3.12,3.85,6.77,1.32,7-6.68,9.19-12.91,11.36-19.03,1.06-3.05,2.07-6.06,3.36-8.99.64-1.46,1.37-2.92,2.16-4.32.78-1.38,1.66-2.72,2.67-4.03,1.9,1.62.9,3.63.08,5.47-.79,1.83-1.37,3.47,2.18,4.15-.8,4.23-2.56,12.1-4.33,17.63,14.89-2.89,11.79-5.7,13.05-8.14.85-1.68,1.71-3.37,2.57-5.06l1.26-2.49c.3-.79.54-1.56.82-2.33,1.1-3.08,2.32-6.09,3.6-8.97.99,3.59,3.53,8.71.49,12.57,3.58,3.39-1.49,8.97,2.9,12.41.38-.79,1.66-.04,3.04-.5,1.67-3.12-1.27-8,3.78-11.3.36,1.27-.11,2.93,1.34,3.69,3.76.06,3.54-1.71,5.37-1.21.91.88-2.74,3.12,1.18,2.99,4.65-.53,3.18-2.13,3.56-2.9,1.9-3.76-.39-6.13.46-9.48.65-2.52,2.18-4.97,2.39-7.49.65-8.02,3.8-15.75.89-23.26-2.34,8.76-.51,14.29-3.45,22.32-2.7-1.87-3.24-5.26-2.65-8.41.99-5.21,2.39-11.23,5.1-15.25.18.34-.21.91.95.87,3.18-2.34-3.07-5.1,2.73-7.52-.79,6.14.57,12.97,1.36,19.87.81,6.89,1.05,13.85-1.56,20.21,5.08.67-1.82,3.81,2.11,5.09-3.83,3.08-3.67,6.91-4.34,10.59,1.74-.25,2.88-.24,3.11.16,3.62-.2,1.19-1.63,5.23-1.75,1.56,0,.6,1.04,2.4.97,4.68-7.8,8.45-17.46,8.27-27.08-1.33,1.44,0,3.46-2.95,4.55-.45-3.46-1.65-6.46,1.75-10.48,5.32,1.06-2.62,4.56,2.79,5.09.84-5.65,5.84-13.48,1.47-18.09-.59,4.28-1.74,8.4-2.63,12.64-1.9-2.2-1.91-4.98-1.13-7.81.39-1.41.98-2.83,1.63-4.19.65-1.34,1.35-2.61,1.96-3.76,2.28.5-2.34,2.38,2.68,2.28,1.65-6.78-.91-11.84,2.63-18.85,1.73,8.09,1.22,16.39.95,24.57-.29,8.18-.34,16.23,1.84,23.83-2.55.32-1.68-.55-3.22-.58.09,5.24,4.02,8.01,2.95,13.33,1.87.74,5.58-.75,6.18-.24.03.81.7,2.18.86,3.59,4.52-.09,6.6-1.05,9.2-1.09.56-.55-1.4-1.85,1.54-1.7,2.41,3.76-3.05,8.88,1.48,11.79,4.64-.06,6.36-2.86,6.82-3.49,3.23-4.38,2.69-10.01,5.03-14.79,1.02-2.06,3.45-3.91,4.17-5.81,2.23,2.34.7,4.49-.65,6.51-1.36,2.02-2.55,3.91.14,5.71-1.73,1.15-6.69,5.1-.23,5.52,3.12-.33,3.38-1.84,2.43-3.01,5.52-4.35,5.53-11.62,8.01-16.89.51-1.08,1.27-2.71,5.04-2.98-.29,3.84-1.87,7.66-3.28,11.65-1.41,3.99-2.64,8.16-2.37,12.7,1.56.73,3.43-.45,5.31.41.84,2.84-3.86,5.97-2.09,7.54,5.33.7,5.5-2.87,7.16-4.51,6.35.31,7.84-1.54,9.5-3.32-3.39-.73.23,1.6-3.16.87-.38-.39,1.02-1.14-.63-1.27-.84.14-.33.86-2.35.47,1.37-2.16-.86-4.35,2.13-5.8,2.83.14,2.89.83,5.32,1.05,2.35-.25,3.46-.99,4.37-1.82.91-.83,1.63-1.76,3.19-2.3.62,1.37-.12,2.97.99,4.26.37.93,3.66-.06,3.79.77l-.35,2.38c8.41,1.77-3.77,3.93,3.65,6.38,2.23.69,2.39-.68,5.43-.3-.15.71-.7,1.48,1.99,1.8.55-.23,1.68-.18,3.07.04,4.43-2.58,6.5-6.34,8.14-10.37,1.65-4.03,2.87-8.35,5.83-12.03,2.8,1.91-.32,3.02,4.79,4.44,7.59,2.15,5.67-2.36,10.65-2.71.29-1.63,1.24-3.29.31-4.86,5.07-.36,4.04-4.8,8.05-4.97-.48,1.13.07,1.89-.1,3.93,1.94.8,3.54.14,4.06,1,.48,4.32-5.5,6.67-4.15,9.85,5.74,1.88,6,.61,8.5.62-1.3.97,3.16,1.74,6.38,2.55,3.49-1.15,3.96-3.95,10.52-3.44,1.17-2.14.02-4.14,4.56-4.63.26,4.77-6.47,6.17-4.14,10.63,5.15.88,8.23.3,10.25-.84,2.03-1.13,3.04-2.82,4.17-4.23,2.87-3.62,2.83-7.69,7.84-9.55,2.06,3.19.07,6.34-1.44,9.28-1.49,2.93-2.5,5.7,2.08,8.1,3.48.45,5.47-.05,6.77-.81,1.31-.77,1.94-1.84,2.73-2.72,1.53-1.68,3.73-3.62,5.03-5.41,2.13-2.97.76-7.19,8.37-7.19.99,2.57-.76,5.38-2.21,8.13-1.44,2.75-2.57,5.44.03,7.82,1.61.04,2.99-.04,4.19-.24,1.19-.23,2.19-.55,3.03-.93,1.68-.78,2.72-1.82,3.42-2.95,1.39-2.25,1.39-4.81,2.21-6.12,2.22-.78,2.19-2.34,3.52-3.47,1.63,2.2.19,4.29-1.24,6.41-1.42,2.1-2.84,4.16-.91,6.51,5.57-.31,8.58-1.72,10.43-3.47,1.85-1.8,2.56-3.94,3.52-5.72,2.84-5.27,6.4-9.78,9.71-14.12l.22,6.24c.24.49,3.69-.09,3.36.59-.12,2.1-1.73,5.1-3.09,8.17-1.35,3.07-2.46,6.21-1.41,8.58,4.62.08,8.01-1.37,9.45-2.56,7.31-5.96,6.92-14.77,13.74-20.51-1.95-.63-2.75-2.41.54-3.18,2.53,1.14,2.06,3.46,2.11,5.49.06,2.02.67,3.8,5.46,3.65.34,3.41-.14,5.81,2.6,8.41,2.68-.18,2.95-.73,5.9-.9,2.88-2.63,4.39-6.09,6.65-8.09,2.77.05-1.35,1.48,1.06,1.56,3.25.38,4.76-2.06,8.27-1.65-.7,3.13-3.23,6.68.54,9.62,4.24-.28,4.05-1.19,7.5-1.61,5.43-5.91,4.37-13.64,13.23-18.42,3.98,3.01-6.5,8.72,2.6,10.27,5.89-1.38,8.64-5.1,14.09-7.34.48,1.35-.32,4.27,2.71,5.61,9.94-1.6,5.92-4,5.81-5.68-.36-5.37,1.69-13.36,1.7-18.84-9.85.14-12.15,3.89-14.19,6.21-10.17,1.33-2.06-4.44-4.46-6.03-9.1.3-12.58,2.88-14.83,5.77-2.25,2.89-3.26,6.17-7.33,7.68-.64-2.95,1.6-5.52.33-8.55-23.4.28-15.14,11.76-26.23,15.07,1.63-3.87-1.34-8.48.18-12.36-8.37-.8-12.22,1.73-15.13,4.71-2.9,2.99-4.82,6.57-9.09,7.48.97-3.39,4.76-6.89,2.52-10.26-2.33-.17-3.82-.96-5.49-1.57-1.67-.62-3.53-1.02-6.6-.61-2.83,2.14-4.52,4.6-6.31,7.04-1.79,2.38-3.69,4.75-7,6.73-1.96-4.21,3.68-9.08-.04-11.52-3.15.18-2.38.15-5.5-.04-2.8.93-3.47,2.58-6.4,3.47-1.26-.68,1.27-2.17-.67-3.16-3.24-.77-5.36.11-7.02-.37-1.97-.85,1.19-1.54-.62-2.44-2.7-.38-2.68-.47-6.09-1.01-2.27,1.69-3.17,4.05-5.28,5.75-4.08-3.62.39-7.81.66-12.5-1.67-.54-2.32-1.27-5.79-1.46-4.82.78-6.91,2.84-7.04,5.96-3.38-.19-4.11-.28-6.38.31,1.05-5.85,5.41-10.33,3.94-16.6-4.27-1.29-7.09-1.44-8.99-.8-1.89.64-2.89,2.01-3.56,3.62-1.36,3.2-1.43,7.32-5.57,7.81-4.84-2.11.6-3.66.46-5.56-2.89-.82-2.32-.72-6.23-1.72-3.24.88-2.26,4.19-6.21,4.66,1.58-4.11-.09-9.2.85-13.88.32-1.62,1.56-2.93,1.27-4.18-.29-1.25-2.04-2.44-7.95-3.89-4.87-.04-5.67,2.01-6.56,3.92-.91,1.9-1.95,3.65-7.63,3.03-3.23-.96-1.35-2.12-4.76-3.07-3.23-.89-3.85-.46-7.12-1.28-1.44-2.16.05-4.49.58-6.76.53-2.27.07-4.49-5.39-6.45-5.94.03-6.89,2.56-9.28,4.36-4.84-.89-2.59-2.31-7.96-2.57-3.98-.26-.75,2.71-3.28,3.1-2.77-.48-3.99-1.09-6.23-1.61-.54.53-.17,1.44-2.91,1.05-1.48-2.02,2.73-3.72-3.92-5.38-3.29.13-3.2.38-7.35-.6-4.59,2.72,1.77,5.37,1.77,8.64,0,1.18-2.41,2.13-2.18,3.14.1.41,3.08,1.67,3.31,2.53.26.97-.45,1.29-.26,2.15,1.9,1.07,2.75-.55,3.56.22-1.48,2.09,1.94,6.94-2.8,8.09,1.89.45,3.4.95,3.31,1.67-5.28,4.71-4.78,12.06-9.02,17.01-.49-12.36,1.86-22.42-.46-35.05-3.97-3-1.02-6.25-2.67-9.7-4.07-.28-5.55-.84-6.75-1.49-1.2-.65-2.1-1.35-5.02-1.7.8,1.15-5.05,1.23-5.66,1.49-3.79,1.68-1.11,4.94-12.15,3.96-1.39-1.75,1.2-4.08,2.58-6.1,1.37-2.02,1.51-3.76-4.96-4.34-6.67.72-6.4,3.52-10.33,5.06-3.37.1-3.53-.58-6.45-.58-4.96,1.17-4.34,3.72-6.4,5.6-5.62-.56-5.09-2.48-4.8-4.36.14-.94.23-1.87-.57-2.61-.8-.72-2.49-1.35-5.87-1.43.28.9-2.26,2.07-1.72,3.68-2.29.07-2.87-.33-4.61.2-2.43,1.86-.92,4.15.03,6.31.95,2.17,1.36,4.21-3.08,5.59-3.33-1.16-2.13-3.16-1.76-4.82.37-1.65-.11-3.01-6.89-2.55-1.97,2.39-1.02,5.32-8.59,6.66-3.8-5.7.91-11.62-3.27-15.59-.72.78-2.37-.07-4.64.48-4.82,3.82,2.96,5.35-.13,7.73-.17-.27.09-.69-.99-.62.91,2.92,4.08,4.66-.22,6.54-1.71.12-1.96.48-3.59.62-5.5.22-1.35-1.8-3.99-2.67-2.54.54-2.39-.02-4.56.37-3.88,3.33-3.51,6.32-2.54,9.19.98,2.87,2.55,5.61,1.31,8.41-.36.81-2.18,1.56-2.35,2.25-.43,1.8.02,3.44-.01,5.07-.03,1.64-.56,3.23-2.86,5.07-.05,1.13,4.61,3.43-1.9,4.45-1.09-4.66-.86-9.76-.71-14.96.14-5.2.19-10.51-1.43-15.58-1.13-.42-3.71-.2-3.86-1.06.7-2.51-.08-6.21-2.19-7.66-.14.59-4,.8-4.58.76-3.52,1.97-1.95,4.03-1.34,5.99.31.98.38,1.93-.52,2.84-.3.81-.97,1.49-2.43,1.95-.21-1.57.7-2.57.26-4.21-.92.24-1.01-.35-1.9-.11-.79,2.12-.58,4.27-.45,6.37.05,1.06.06,2.11-.22,3.16-.14.53-.36,1.06-.68,1.6-.37.54-.67,1.07-1.1,1.6.11-2.65-.26-4.37-.34-6.06-.1-1.69.1-3.36.66-5.74-.43-.83-.04-2.29.14-3.58.21-1.29.27-2.43.12-2.84-.37,1.15-.84,3.36-1.14,5.58-.36,2.24-.57,4.5-2.35,6.23.2-1.35.78-3.33,1.38-5.32.6-1.99,1.19-3.98,1.59-5.39-.19.06-.06-.5-.08-.71-.49.95-1.24,3.04-1.98,4.15-.06-.25.25-.97.08-1.01-.04,0-.04-.08-.09-.09-.96,1.45-2.7,4.58-3.33,6.78-1.03,1.78-2.04,3.67-3.01,5.67-.97,1.99-1.89,4.09-2.83,6.13-1.9,4.03-3.78,7.97-6.98,8.63,2.14-3.62,4.35-6.58,6.15-10.01,1.83-3.37,3.26-7.19,4.52-11.1-.72-.71-1.85.7-2.51-1.31-2.49-.34-5.72,1.04-9.05.73.94-.68,2.28-1.35,3.58-2.05,1.31-.7,2.58-1.42,3.47-2.08,0-.15-.09-.36-.08-.39,0-.03-.01-.05-.02-.08-.1-.18-.2-.36-.29-.53-.39-.68-.77-1.21-1.14-1.61-.74-.81-1.45-1.15-2.14-1.26-1.37-.22-2.63.44-3.87-.08-1.47-4.28-4.36-7.12-5.43-9.96,4.06-2.01,6.69-2.84,9.87-5.47-1.83-3.02-1.38-2.28-3.01-5.41-2.46-1.51-4.17-2.16-4.43.48-4.45-2.89-5.9.49-7.96,2.51-4.01,3.93-9.87,1.31-15.08.7-2.8-.33-4.04,2.49-8.19-1.14,4.23-5.47,15.53-3.36,19.26-10.34-1.63-3.67-3.23-3.99-5.68-6.77.74-1.58-1.31-5.43-.32-6.96,1.05-1.64,6.4,2.15,3.38-4.13-4.66-6.62-4.56,3.1-8.47-.95-1.25-4.51,4.57-2.65,4.76-5.04-4.72-7.87-6.49-5.5-6.74-3.01-2.75-2.55-1.47,1.53-2.84,1.81-1.16.24-3.19-.79-5.28-2.03-1.06-.62-2.15-1.26-3.15-1.85-.25-.14-.5-.28-.74-.42-.3-.22-.59-.44-.87-.65-.56-.41-1.08-.75-1.53-1.01-1.03,2.87-5.33,2.08-10.37-.89,3.05-2.46,5.86-4.38,7.84-7.2,1.97-2.85,3.11-6.56,2.43-13.04-3.56-4.76-3.56-5.93-6.27-9.83-1.87-2.48-3.72-4.04-5.4-5.62-1.69-1.57-3.25-3.11-4.74-5.43,1.5,1.44,1.95.33-1.06-3.47-1.12-1.51-2.24-3.07-3.37-4.55-3.51-1.5-4.66.21-5.36,2.52-.69,2.34-.92,5.28-2.16,6.77-1.73,2.07-4.66,2.67-6.62,3.99-2.98,2.02-5.54,5.09-9.71,4.91,1.43-6.34,3.77-11,5.83-15.86,2.02-4.92,3.78-10.04,2.94-18.6-6.79-8.52-8.44-8.37-8.79-6.31-.35,2.06.49,5.88-.94,5.18-.91-1.7-2.02-3.51-3.26-5.4-1.58-.74-3.36-1.36-5.23-1.93-1.84-.57-3.96-1.04-5.52-1.57-.27-1.29.75-2.8-.66-3.88-4.87-1.11-6.05-.71-6.03.16.02.87,1.18,2.31,1.07,3.14-.11.81-.5,1.54-1.05,2.18-.27.32-.58.61-.92.89-.17.14-.34.27-.51.39-.05.04-.08.05-.14.1l-.21.19-.43.37c-2.31,1.95-4.71,4-5.94,5.53-1.79,2.29-2.32,4.42-3.08,6.61-.38,1.1-.83,2.16-1.45,3.37-.32.59-.69,1.2-1.13,1.83-.43.65-.92,1.33-1.5,2.04-1.19-2.99.09-7.98,1.28-12.44,1.13-4.47,2.05-8.6-1.71-10.6-.87-1.95.33-5.15-2.19-6.12,1.21-.82,2.07-1.82,1.72-2.33-.18-.26-.66-.4-1.54-.29-.44.05-.98.16-1.64.34-.65.2-1.4.48-2.28.84-1.3.79-2.23,1.52-2.89,2.15-.64.66-1.02,1.24-1.2,1.74-.35,1,.09,1.73.78,2.35,1.38,1.22,3.8,2.17,3.31,4.06-3.47,2.63-5.59,5.33-7,7.83-1.4,2.52-2.08,4.89-2.49,7.16-.39,2.29-.54,4.46-.71,6.74-.19,2.26-.4,4.61-.91,7.22-2.05-.34-2.5-3.83-3-7.09-.5-3.23-1.15-6.31-4.48-5.61-1.56,1.63-2.25,2.67-2.85,3.62-.63.92-1.18,1.74-2.44,2.99.65,3.83,2.08,7.22,3.68,10.52,1.61,3.31,3.4,6.56,5.02,10.11.81,1.77,1.59,3.62,2.32,5.59.36.98.71,1.99,1.05,3.03.16.53.33,1.05.49,1.59.21.64.42,1.28.64,1.92,1.78,5.3,3.22,10.94,4.45,16.82-2.35-3.26-4.76-6.44-7.12-9.57-.54-.72-1.07-1.43-1.6-2.14-.48-.66-.96-1.3-1.43-1.95-.94-1.3-1.85-2.61-2.7-3.94-2.87-4.46-5.5-9.78-8.02-15.03-2.56-5.25-5.03-10.43-8.13-14.4-2.57,4.83-3.46,8.15-4.64,11.81-.58,1.84-1.23,3.78-2.09,6.18-.89,2.37-1.96,5.22-3.36,8.94-.98,1.78-1.42-.68-2.77,3.82-.5,2.4-.83,3.56-1.15,4.69-.16.56-.33,1.11-.5,1.8-.16.71-.33,1.57-.53,2.72-.32,4.59.68,5.19,1.69,5.78,1,.57,2,1.13,1.94,5.3,4.44,1.08,8.17,7.89,11.91,14.89,1.73,3.33,3.56,6.85,5.37,10.34.43.79.86,1.58,1.29,2.36.43.77.86,1.5,1.28,2.13.85,1.33,1.68,2.63,2.47,3.87-5.6-1.3-11.43-4.58-17.27-7.1-1.46-.66-2.93-1.18-4.36-1.82-1.43-.69-2.85-1.3-4.27-1.75-1.42-.45-2.84-.73-4.25-.76-.71-.01-1.42.04-2.13.16-.36.1-.69.03-1.03.05-.34,0-.68.01-1.01.03-.14.93-.32,1.46-.52,1.93-.1.24-.19.46-.29.71-.1.23-.2.48-.29.79-.03.8.18,1.31.43,1.77.26.47.54.86.65,1.41.33.3.58-.15.81-.65.23-.52.46-1.02.81-.6,1.52,1.67,2.98,2.84,4.51,3.93,1.52,1.07,3.09,1.96,4.74,2.8,3.29,1.71,6.89,3.09,10.84,5.9.05-1.71-.47-2.8-1.14-3.51-.67-.71-1.5-1.08-2.23-1.42-2.46-1.17-5.01-2.29-7.51-3.67-2.51-1.39-5.01-3.13-7.35-5.34,2.12-.89,4.14-.7,6.18,0,2.04.68,4.09,1.81,6.31,2.51,3.24,1.02,6.51,2.4,9.75,3.9,3.24,1.5,6.45,3.12,9.61,4.49,1.2.52,2.23,1.56,3.06,2.91.82,1.35,1.49,3.04,2.09,4.83.56,1.79,1,3.7,1.51,5.47.48,1.77.92,3.42,1.61,4.65-.13.88-.16,1.71-.23,2.52-.07.81-.11,1.59-.12,2.37-.07,1.58,0,3.18-.17,4.72-.14,1.57-.37,3.2-.88,4.97-.57,1.73-1.45,3.59-2.79,5.65-2.47-3.4-5.09-7.16-7.96-10.86-1.44-1.85-2.93-3.68-4.5-5.46-1.59-1.8-3.25-3.55-4.96-5.22-3.42-3.34-7.05-6.33-10.72-8.93-3.67-2.6-7.42-4.83-10.92-6.76-.5.57-.74,1.1-.94,1.51-.23.39-.31.74-.29,1.05.03.62.42,1.08.9,1.47.95.79,2.52,1.34,1.82,3.13,1.94.47,3.32,2.77,4.55,5.17.64,1.2,1.21,2.34,1.99,3.12.39.39.84.69,1.36.84.51.14,1.09.12,1.78-.1-1.4-1.13-2.29-3.15-3.26-5.12-1.04-2.05-2.17-4.05-3.59-5.45-.56-.55-1.55-.75-2.25-1.19-.35-.22-.64-.49-.79-.87-.07-.19-.11-.4-.1-.65-.01-.26,0-.57.07-.9,6.21,4.09,13.07,9.59,18.77,16.18,2.87,3.28,5.57,6.87,7.89,10.44,2.31,3.56,4.35,7.18,6.18,10.54.25.47,1.39.34,1.8.88.38.52.16,1.87-2.9,4.88-5.66-2.39-9.67-6.62-13.37-11.08-3.67-4.48-7.09-9.23-10.85-13.62-1.35-1.59-2.58-3.38-3.87-5.12-1.29-1.74-2.64-3.42-4.11-4.91-.73-.75-1.49-1.45-2.27-2.1-.79-.67-1.62-1.3-2.46-1.88-.84-.59-1.66-1.09-2.53-1.6-.89-.55-1.72-.97-2.59-1.45-.3.08-.55.18-.77.31-.23.1-.46.17-.64.28-.19.1-.34.25-.5.35-.16.1-.29.21-.41.33-.24.25-.41.58-.54.82-.12.27-.22.59-.38.94-.25.71-.51,1.4-.86,2.09-.18.35-.4.69-.68,1.02-.3.32-.71.59-1.21.86-.21-1.21.39-1.67-.45-2.6-1.07.25-1.4.66-2.38.35-.23.18-.45.36-.66.55-.23.17-.45.34-.65.51-.4.34-.73.69-.94,1.05-.42.71-.39,1.43.48,2.17-.35.39-.74.78-1.13,1.16-.41.37-.82.74-1.15,1.15,1.28,1.48.97,3.18.32,4.99-.63,1.81-1.59,3.72-1.24,5.62-2.43,1.79-3.79,3.95-5.43,5.97-1.63,2.05-3.53,4.02-7.21,5.33.25-3.89,1.75-7.45,2.8-10.95,1.06-3.49,1.69-6.92.58-10.51-1.66-.05-3.43-.19-5.16-.29-4.06,3.98-2.7,11.13-5.31,17.4,3.41-.84,4.05-2.72,4.43-4.71.37-1.99.5-4.07,2.69-5.36-1.27,8.06-3.38,15.87-5.74,23.29-2.36,7.44-4.94,14.52-6.94,21.23,2.52.03,2.26.54,4.46.62,3.21-.62,4.79-1.9,5.7-3.35.92-1.45,1.24-3.08,2.13-4.55-3.42-.56-.24,1.06-3.66.5.52-4.31.37-9.7,1.99-14.72.8-2.52,2.03-4.91,3.93-7.11,1.9-2.18,4.47-4.12,7.86-5.78-.59,3.51-2.51,7.49-4.3,11.47-1.78,4-3.38,7.91-2.9,11.44,2.84-3.19,4.32-6.56,5.45-9.86,1.14-3.32,1.96-6.67,3.35-9.95.72-1.71.76-3.46,1.23-5.09.46-1.63,1.39-3.06,3.64-4.25-1.59,4.85-1.7,9.43-1.97,14.13-.31,4.67-.85,9.48-4.41,14.43,1.97,1.75.88,3.95-.1,6.14-.96,2.19-1.81,4.37,1.18,6.09,5.15.02,8.55-.99,10.24-2.12,1.7-1.12,1.74-2.36.7-3.26-3.91.43-1.11,1.92-4.97,2.3-2.19-2.06.89-5.03.51-7.95-.67-5.66-1.03-12.45-.72-19.1.15-3.32.45-6.61.92-9.69.23-1.54.51-3.03.82-4.45.3-1.44.63-2.81,1.01-4.08.2-.71.63-1.66,1.1-2.77.46-1.12,1.02-2.35,1.59-3.53.49-1.25,1.05-2.39,1.5-3.4.11-.26.21-.5.32-.72.08-.2.15-.4.22-.6.14-.34.3-.68.47-.93.19-.3.59-.76.99-1.18.21-.19.47-.29.74-.31.26-.05.56.03.9.27.11.4-.34.81-.9,1.05-.27.13-.53.3-.74.46-.22.13-.37.29-.38.5.69,2.77,1.64,6.49,2.49,10.14.85,3.65,1.64,7.32,1.98,10.13.85-1.16,1.18-2.23,1.25-3.33.07-1.08-.11-2.1-.35-3.12-.5-2.05-1.11-4.02-.97-6.28,2.61,5.77,5.03,11.91,6.88,18.25,1.87,6.35,3.22,12.97,4.17,19.68.32.7-1.95,1.62-2.75,2.38,3.78-.17,3.73,1.29,3.1,3.12-.6,1.81-1.82,3.94.59,4.79-.7.43-1.42.92-2.07,1.42-.66.51-1.26,1.01-1.65,1.45-.78.89-.79,1.67,1.17,1.89,1.24-.35,2.38-.7,3.71-1.1l1.93-.61,1.88-.69c2.02-2.38,3.79-5.77-.51-4.94-.73-.27.36-.86,1.59-1.48,1.22-.65,2.55-1.41,2.41-1.77-1.2-.16-2.17-.47-2.95-.9-.79-.44-1.39-1.01-1.85-1.66-.92-1.29-1.3-2.9-1.5-4.65-.37-3.52-.21-7.69-1.36-11.19-1.81-5.59-4.83-11.63-7.55-17.45-2.75-5.81-5.27-11.42-7-15.61,1.61,1.55,3.11,2.98,4.56,4.37.77.74,1.53,1.5,2.28,2.26.74.75,1.47,1.51,2.19,2.29,2.88,3.12,5.49,6.54,7.74,10.21,1.13,1.83,2.19,3.72,3.19,5.62.97,1.9,1.93,3.78,2.88,5.64,1.91,3.71,3.85,7.29,6.64,10.08.94.94,2.24,1.44,3.68,1.58,1.43.14,3.05-.01,4.7-.22,1.67-.18,3.25-.53,4.75-.62,1.49-.09,2.87.04,3.95.7-2.17,2.33-2.94,4.04-2.81,5.06.12,1.01,1.24,1.4,2.74.89,1.27-1.17,2.38-2.27,3.33-3.31.95-1.04,1.67-2.08,2.32-3.01,1.27-1.89,2.1-3.44,2.52-4.87.89-2.82.66-4.69.59-6.43-.19-2.15-2.34-1.6-1.09-5.36-.69.04-1.64.72-2.54,1.28.48-1.52.83-2.93,1.1-4.25.28-1.31.36-2.62.44-3.81.05-1.18.04-2.26,0-3.32-.09-1.06-.22-2.07-.35-3.08-.13-.99-.27-1.99-.4-3-.17-1-.35-2.01-.49-3.05-.15-1.04-.25-2.12-.37-3.24-.13-1.12-.23-2.3-.28-3.56,4.67,2.78,8.14,5.58,11.43,8.25,3.25,2.69,6.36,5.26,10.52,7.47,1.64-4.17,2.14-7.09,2.36-9.4.12-2.22-.22-3.71-.72-4.78-1.02-2.14-2.83-2.54-3.9-3.29.04,1.47.44,2.18.74,3.13.14.48.25,1.03.24,1.79,0,.76-.11,1.72-.5,3.11-.7-.99-1.49-1.77-1.59-3.92-8.64,1.32-15.47-2.86-21.51-8.78-1.51-1.49-3.03-3.09-4.47-4.79-1.44-1.68-2.9-3.48-4.26-5.65-2.71-4.3-5.29-9.81-7.54-16.43,1.46.05,3.06,3.02,4.43,1.23-2.05-4.08-4.88-6.23-7.44-9.15-1.27-1.47-2.47-3.18-3.41-5.6-.47-1.21-.88-2.61-1.19-4.23-.28-1.6-.47-3.43-.53-5.56,3.52,4.53,7.18,8.93,10.97,13.09,3.81,4.18,7.74,8.11,11.74,11.71,8.03,7.24,16.2,13.02,24.14,17.78.95.96,2.27,2.43,3.7,3.44,1.42,1.03,2.95,1.64,4.19,1.49-.3-.38-.38-.88-.24-1.49-9.27-5.83-18.94-12.86-28.3-21.76-4.72-4.46-9.13-9.17-13.41-14.17-4.28-5-8.27-10.12-12.06-15.22-.74-1-1.71-.96-2.05-2.4-.31-1.42-.14-4.51,2.2-11.15,3.04-.81,5.63.34,7.62,2.54,2.01,2.21,3.48,5.49,4.44,9.22,1.52,1.42,3.74,3.05,5.66,5.33,1.92,2.27,3.56,5.15,4.23,8.86.3.3.68-2.23.99-2.13.49,1.57,1.02,2.92,1.75,4.31.74,1.39,1.56,2.68,2.42,3.88,1.72,2.41,3.62,4.52,5.54,6.55,3.86,4.03,7.76,7.9,10.75,11.82.51-.3.56-1.26.57-2.19.02-.93,0-1.83.32-1.86.78.69,1.37,1.77,1.94,2.58.57.82,1.12,1.39,1.78,1.23-.24,1.89,1.99,3.84,2.84,4.19,1.36-2.25-.72-4.34-1.68-6.28-1.19-2.46-2.4-5.34-3.62-8.08-1.23-2.73-2.49-5.33-3.91-6.95.54,2,1.52,3.68,2.33,5.46.82,1.77,1.46,3.59,1.46,5.69-3.65-4.06-6.44-9.01-8.43-15.18-2.01-6.12-3.17-13.39-4.05-20.67-.13-1.06-.69-1.5-1.01-2.3-.16-.4-.17-.74-.09-1.39.09-.64.35-1.5.88-2.71l.41.79.48.98c.35.76.71,1.52,1.06,2.27.69,1.52,1.35,3.06,2,4.61,1.29,3.09,2.56,6.15,3.83,9.21,2.58,6.08,5.37,11.81,8.66,17.41,1.22-2.03,1.27-3.74.73-5.28-.53-1.53-1.61-2.74-2.35-3.61.89-.32,1.08-2.62.91-4.94-.19-2.32-.8-4.66-1.85-4.58-.24,1.24.15,2.34.43,3.46.29,1.12.43,2.24-.13,3.53-1.4-3.21-3.01-6.39-4.74-9.57-1.72-3.2-3.54-6.39-5.25-9.81-.85-1.71-1.69-3.49-2.44-5.35-.52-1.34-.98-2.77-1.32-4.33-.67-3.11-.94-6.77-.21-11.07.82-4.78,1.36-8.69,2.09-12.58.79-3.83,1.77-7.67,4.21-11.82.24,2.3,1.53,3.96,2.59,5.81,1.07,1.85,1.91,3.9,1.56,6.97-.29,2.54-.76,6.31-1.69,9.96-.15.47-1.62,2.31-1.64,2.75-.13,1.78.28,3.17.66,4.53l.3,1.07c.15.54.3,1.08.43,1.63.26,1.1.47,2.24.58,3.46.16,2.21-.99,5.45-.65,7.84.31,2.34,1.15,4.2,1.83,6.25.68,2.04,1.22,4.27,1.13,7.12,1.33-2.71,1.29.3,2.58-1.88-.08-4.52.35-9.21.27-13.86,2.51,6.07,4,14.1,5.75,22,1.72,7.96,3.72,15.78,5.96,22.53.74-.93,1.06-.29,1.55-1.52.08-1.57-.27-3.55-.87-5.65-.39-.36-.89-.24-1.19-.99-1.74-6.31-3.6-13.33-5.23-20.92-1.63-7.59-3-15.74-3.6-24.31-.14-2.14-.24-4.3-.28-6.49l-.02-1.64c0-.26,0-.58.01-.78l.07-.51c.1-.69.22-1.37.34-2.06.25-1.39.57-2.76.96-4.12.39-1.37.84-2.74,1.38-4.06.53-1.34,1.14-2.67,1.84-3.94.69-1.31,1.48-2.54,2.35-3.74.86-1.23,1.84-2.36,2.89-3.51.53-.55,1.08-1.11,1.66-1.65l.44-.41.22-.2.11-.1.07-.04.58-.34c.64,3.01.24,5.19-.13,7.15-.06.26-.07.45-.16.78l-.23.93c-.14.62-.27,1.24-.35,1.86-.16,1.24-.16,2.49.16,3.76.27-.15.52-.29.74-.45.19-.07.28.02.41,0,.23,0,.42-.09.56-.23.29-.29.43-.82.48-1.48.12-1.32-.1-3.1.05-4.57.35-3.44.89-7.14,3-8.9-.68,7.37-.66,14.76-.93,21.74l-.11,2.57-.03.69-.02,1.04-.04,2.08c-.08,2.73-.15,5.47-.23,8.22-.18,5.43-.44,10.75-.72,16.04.74,4.89.6,9.13.59,13.98,0,1.24-.01,2.5-.02,3.79-.03,1.38-.03,2.79,0,4.23.05,2.87.22,5.83.51,8.9.08.02.16.03.23.04.07.02.1.14.15.19.09.13.17.22.24.29.15.14.27.16.37.11.21-.12.34-.58.44-1.21.19-1.26.22-3.23.37-4.5.25-2.11.72-4.14,1.08-6.2.35-2.07.56-4.17.08-6.73-.22,2.51-.38,5.88-1.68,6.1-.34-1.91-.37-3.54-.31-5.12.06-1.58.22-3.11.15-4.94-.27-7.22-.36-14.26-.22-20.98.07-3.36.19-6.65.36-9.86l.13-2.4.07-1.19.08-.78c.12-1.01.23-2.02.35-3.02.48-4.05,1-8.23,1.31-12.54.3-4.3.37-8.73-.16-13.05.82-.1,1.6-.18,2.69-.17,1.15,0,2.5.09,4.18.4,2.96,2.93,3.48,5.7,3.35,8.25-.14,2.58-.91,4.93-.91,7.66ZM1093.7,233.96c-2.24-.26-1.88-1.64.88-1.11.55.74-1.13.5-.88,1.11ZM1086.23,232.28c-4.94-2.79,3.69-6.29.02-9.39,2.45-.35.02-2.63,4.12-2.33-1.42,4.06-1.5,8.6-4.14,11.72ZM1012.72,226.6l-2.3.24c-.35-1.16-.09-2.2,2.06-2.87,2.37.41-.88,1.69.24,2.63ZM1052.81,224.55c-6.28-1.6-2-5.01-3.12-7.42,1.05,0,2.1-.06,3.14-.02,2.24,1.54-3.35,3.79.76,5.29-4.39.24-.95,1.26-.78,2.15ZM1041.96,222.76c-3.42-.26-.74-2.5-1.65-3.58,4.03.48.64,2,1.65,3.58ZM1103.17,225.34c-2.38-.71-.83-1.22-.53-2.01,1.25.52,2.08,1.73.53,2.01ZM1013.21,223.42c-.69-1.58-1.62-3.66-1.55-5.7.07-2.04,1.15-4.08,4.54-5.37-1.54,3.16-2.34,6.98-2.99,11.07ZM900.83,218.24c.39-4.73,1.76-7.63,3.65-9.59,1.89-1.96,4.28-2.98,6.8-3.77,2.52-.78,5.17-1.33,7.66-2.11,2.48-.76,4.8-1.75,6.79-3.2,1.7-1.25,3.08-3.03,4.55-4.4,1.47-1.39,3.02-2.37,4.87-2.32-2.25,3.48-4.6,6.71-7.13,9.7-2.54,3-5.21,5.67-8.05,7.93-5.67,4.52-12,7.36-19.13,7.77ZM1059.07,220.58c-.33-4.01,3.36-10.2,1.89-15.33,6.61,3.9.28,10.87-1.89,15.33ZM1103.44,223.2c.32-2.58.68-5.11-2.18-8.22,2.75.35,2.96.24,7.92.77-.99,3.05-2.69,6.06-5.73,7.44ZM876.96,164.85c-.93-1.42-.92-1.94-1.4-2.93,1.03.67,1.5-.98,3.07,1.99.42,1.82-1.25-.22-1.67.94ZM1065.44,216.61c-2.69-.2-1.17-1.18-.74-1.71,1.76.17.28,1.19.74,1.71ZM791.98,172.09c-3.51,2.16-3.26-1.4.46-7.7-.19,3.06-.99,6.01-.46,7.7ZM888.75,181.49c-.48-.81-.63-1.3-.55-1.54,7.64-3.19,15.03-7.55,22.97-10.78,1.99-.81,4.01-1.54,6.08-2.16,1.04-.31,2.08-.6,3.14-.85,1.03-.29,2.07-.58,3.11-.87,4.17-1.11,8.33-2,12.34-3,.22,2.1-.68,2.8-1.45,3.49-1.6,1.48-3.42,2.8-5.35,4.01-1.92,1.21-3.95,2.31-5.9,3.49-4.93,3.02-10.38,5.25-16.23,6.47-2.93.62-5.93.99-9.03,1.18-1.54.1-3.1.14-4.72.07-.83-.09-1.53.08-2.26.17-.73.11-1.45.21-2.17.31ZM986.65,219.42c-1.25.28-1.38,0-2.38.15.71-5.69-2.47-10.73-3.49-16.69-.52-3.12.64-6.52,1.94-9.94,1.3-3.44,2.76-6.77,2.68-9.95,5.05.83,1.48,3.3,1.59,5.11.58,9.91.03,21.77-.35,31.32ZM988.82,217.87c-2.47-.12.74-1.25-.28-1.9,2.95-.22.11,1.19.28,1.9ZM860.29,128.53c12.65-8.68,31.63-16.94,45.78-22.81.48-1.57,1.15-4.94,4.12-1.54,1.29,5.76-3.81,2.8-5.87,4.66-2.29,2.08-3.25,6.59-8.19,4.08-1.7,6.86-11.27,5.34-15.72,8.8-1.27.98-1.57,3.36-3,3.83-4.83,1.59-10.5,1.16-17.13,2.98ZM1020.34,214.2c-2.63-.23-.7-2.39-1.02-3.05,1.87.43.44,2.13,1.02,3.05ZM1042.53,212.91c-1.78-.08-.35-1.18-.83-1.67,3.83-.16,2.32,1.36.83,1.67ZM1067.18,212.13c-3.48-.47-.61-2.54-1.47-3.67,3.5.47.61,2.54,1.47,3.67ZM846.66,104.16c-.14-2.12.35-3.47,1.1-4.54.74-1.08,1.73-1.87,2.36-3.17,1.56-3.24,3.12-6.83,4.66-10.61,1.5-3.77,3.04-7.65,4.57-11.51,3.08-7.54,6.27-14.84,11.23-18.22,1.42-.96,3.59-1.89,6.64-1.2,1.52.34,3.26,1.1,5.22,2.44.98.68,2.02,1.47,3.09,2.48,1.06,1.02,2.18,2.21,3.33,3.58-.15,3.42-1.76,4.8-3.6,5.87-1.85,1.06-3.92,1.82-5.31,3.56-1.3,1.63-2.16,3.88-3.18,5.91-1.01,2.04-2.17,3.87-3.9,4.91-.6.35-2.49-1.07-3.04-.63-1.83,1.44-3.35,3.33-4.91,5.15-1.56,1.83-3.16,3.62-4.98,5.03-2.3,1.77-4.92,2.96-7.26,4.56-2.36,1.58-4.43,3.59-6.03,6.41ZM1052.86,210.63c-2.68.24-1.24-.74-1.6-1.2,2.38-.06,2.82.89,1.6,1.2ZM990.02,215.05c-3,.52-1.77-1.65-1.1-2.03,1.84.01.52,1.45,1.1,2.03ZM1102.36,212.44c-.63-6.17.65-11.81,2.62-17.19,1.96-5.4,4.59-10.42,6.47-15.53,4.41,4.92-1.07,10.6,1.32,15.69.75,1.01-3.15-.05-2.64.85,3.45,2.38,2.53,4.6,1.4,6.93-1.13,2.33-2.45,4.77-.07,7.55-2.32.67-2.16,2.19-2.84,3-2.39.33-2.88-1.15-6.28-1.3ZM876.73,148.1c-.73-1.1-.52-1.32-1.04-2.23,4.53-2.57,9.56-5.98,15.38-7.96,5.82-1.97,12.48-2.54,20.16.81-10.59,3.15-22.51,6.89-34.5,9.38ZM1021.61,209.53c-3.37.22-.93-1.78-1.79-2.51,3.39-.22.93,1.78,1.79,2.51ZM1042.42,207.87c-3.26-.87-.33-2.36-.89-3.83,2.93.37,1.82,3.03.89,3.83ZM1139.98,215.94c-2.1-.79-.92-1.9-.3-2.51,1.74.69-.05,1.7.3,2.51ZM886.78,160.27c-.49-.82-.67-1.29-.6-1.55,9.18-5.67,22.39-9.05,33.02-12.71,2.05-.71,4.05-3.03,6.71-3.73,1.53-.4,3.55-2.24,7.14,3.99,1.61,5.87-2.35,3.8-3.82,5.03-5.08,4.21-12.26,5.4-19.9,6.12-7.64.7-15.69.91-22.55,2.84ZM805.38,101.34c-2.04-1.38-3.92-3.01-5.67-4.94-1.76-1.93-3.38-4.16-4.91-6.62-.77-1.23-1.51-2.51-2.24-3.82-.73-1.31-1.49-2.7-2.04-3.86-1.2-2.43-2.38-4.83-3.64-6.94,1.36,1.36,2.79,2.93,4.22,4.69.37.47.75.94,1.13,1.41.42.55.84,1.1,1.27,1.65.85,1.12,1.69,2.29,2.53,3.48,3.35,4.77,6.59,10.02,9.37,14.94ZM1062.6,204.31c-2.07-.06-1.59-.83-1.59-1.47,3.88.1,1.07.56,1.59,1.47ZM1084.46,205.19c-4.24-1.14-.79-4.38.43-5.74,1.92,1.81.91,3.96-.43,5.74ZM1001.11,206.82c-2.17-.25-3.74-1.41-1.09-2.3,2.78.14.12,1.22,1.09,2.3ZM1099.87,205.9c-3.44-.47-.55-2.08-1.31-3.04,4.06.79.48,1.59,1.31,3.04ZM1078.06,203.51c-2.07-.52-4.52-3.63.22-3.59l-.22,3.59ZM950.39,214.38c-.63-2.03-2.5-3.63-3.97-5.74,1.4.03,1.84.53,1.62,1.35,2.59-3.87,2.39-7.25,2.93-10.82.46-3.5,1.65-7.18,4.96-11.2-.12,4.56-.76,8.88-1.8,13.27-1.03,4.38-2.46,8.74-3.74,13.13ZM965.7,210.52c-1.93-6.51-3.01-13.65-3.43-20.93-.43-7.29-.22-14.78.08-21.99.04-1.25-.62-2.71-.65-4.1-.02-.7.11-1.38.5-1.99.2-.31.46-.6.8-.88.17-.14.37-.27.58-.39.25-.13.3-.22,1.08-.41-1.07,1.64.58,2.84,1.71,3.97.57.56,1.01,1.11.93,1.68-.04.28-.21.57-.56.88-.18.15-.4.3-.67.46-.14.08-.28.16-.45.24-.08.04-.17.08-.25.12-.07.04-.1.07-.15.11.12.07.48.12.71.2.25.07.48.15.68.24.41.18.73.39.98.62.5.48.72,1.07.79,1.72.15,1.3-.28,2.86-.21,4.27.29,5.81,1.26,11.44,1.53,17.28.28,5.86-.17,11.93-4.01,18.92ZM945.44,213.85c-3.97,1.15-1.84-1.17,1.25-1.55.22.52-.33,1.03-1.25,1.55ZM933.91,214.78c-.99.26-1.98.52-2.97.78l.43-1.11c2.59-.75,3.07-.46,2.53.33ZM1012.69,199.6c-3.87.32.21-.99-.97-1.61,1.75.06,2.36,1.09.97,1.61ZM1063.59,197.85c-.96.02-1.46-.08-1.64-.27-.13-4.6-.62-9.54,1.18-14.14.62-1.55,1.65-3.85,5.28-4.88.47,5.72.28,13.42-4.82,19.29ZM840.63,72.78c-.24-.28-.43-.54-.56-.78-.13-.24-.21-.46-.24-.66.21-.84.43-1.68.59-2.6.49-1.87.99-3.78,1.5-5.72.52-1.94,1.06-3.96,1.58-5.78,1.06-3.74,2.17-7.57,3.35-11.38,2.36-7.63,4.96-15.23,7.92-21.83-.57,9.78-2.37,18.6-4.85,26.45-1.24,3.93-2.65,7.63-4.12,11.12-.76,1.78-1.52,3.58-2.3,5.41-.77,1.73-1.54,3.48-2.33,5.25.05.72-.47.09-.55.52ZM1100.53,199.94c-3.55-2.49.09-6.26-.66-9.24,3.54,2.51-.04,6.25.66,9.24ZM1143.71,206.16c-.95-.15-1.43-.34-1.57-.56,2.28-10.15,4.26-18.69,6.32-25.9,2.37,5.19,1.92,9.38.55,13.45-1.38,4.07-3.7,8.1-5.3,13.01ZM879.76,128.01c-.81-1.16-.66-1.43-.46-1.67,11.61-4.77,21.81-9.97,32.94-14.22-2.01,5.65-6.71,6.54-10.79,8.57-2.14,1.07-3.37,4.1-5.92,4.58-4.66.87-10.75-.61-14.09,3.66-.83-1.29-.96,0-1.69-.92ZM1076.82,196.72c-2.89-2.08,3.05-4.59.44-7.67,2.73.96,3.53,2.6,3.2,4.07-.34,1.48-1.8,2.86-3.63,3.6ZM935.16,211.22c-1.11.33-1.65.38-1.77.22.91-3.98,2.62-8.37,4.3-12.48,1.71-4.16,3.48-8.24,4.92-11.92.99-2.56,1.3-5.03,2.24-7.69.91-2.65,2.45-5.47,4.83-8.46-2.19,6.26-4.16,12.42-6.3,18.92-1.08,3.25-2.2,6.59-3.51,10.1-1.3,3.48-2.84,7.31-4.71,11.3ZM1057.86,195.59c-1.86-.21-.31-1.35-.8-1.93,3.39.33.18,1.07.8,1.93ZM1012.41,196.5c-.2-5.44-1.98-11.45-3.14-17.49-1.15-6.03-1.69-12.24.93-17.96.65-1.41-1.11-3.38,5.06-4.23,1.46.39,1.87,2.1-1.63,2.29,2.94,1.89,3.27,3.43,1.31,5.44-1.25,1.28-.21.59,1.04,2.09,1.1,1.32-.65,2.47-2.35,3.79,2.27,3.98,1.99,8.38,1.36,12.74-.64,4.36-1.62,8.68-1,12.5-1.01.18-1.67.43-1.59.84ZM1220.15,220.1c-1.42-1.81-1.49-3.77,1.48-4.65,3.31,1.33-1.24,3.2-1.48,4.65ZM991.67,197.39c-.75,0-1.5-.01-1.71-.25.98-10.21-.77-19.16.41-29.36,5.59,8.72,3.48,20.46,1.3,29.61ZM976.9,199.63c-2.88.6-3.9-1.02-.24-1.42l.24,1.42ZM1049.59,192.17c-3.85-3.9-2.29-7.53-.05-11.28.82,2.27,1.53,7.69.05,11.28ZM978.03,196.28c-3.17.07-2.48-1.6-2.13-2.57,3.14-.3,1.4,1.72,2.13,2.57ZM1056.27,189.57c-1.91-.36-.3-1.67-.82-2.41,2.74.13,1.9,2,.82,2.41ZM890.48,132.24c-1.64-2.74,1.2-2.15,2.28-.39-.53.99-1.59.01-2.28.39ZM1334.69,210.27c-4.12-.87-2.32-4.91,2.41-6.21-.14,2.16-2.75,3.99-2.41,6.21ZM1307.98,213.26c-1.39-.31-5.97-.18-3.52-1.3,2.28-.35.88.8,2.61.68,2.14-.67-1.03-2.19,3.06-2.56.89,1.31-.58,2.25-2.15,3.17ZM1208.61,211.72c-2.93-.73-.95-1.33.26-1.42,1.81.44.42,1.38-.26,1.42ZM1101.67,189.68c-2.81-.89-2.73-3.15.37-3.34l-.37,3.34ZM977.48,192.96c-2.96.72-1.32-.74-1.9-1.15,2.98-.72,1.31.74,1.9,1.15ZM893.18,131.61c.36-2.15,2.54-3.88,5.4-1.25-2.08-.07-2.41,2.42-5.4,1.25ZM1085.76,187.96c-1.36-.04-1.43-.34-2.5-.43-.65-.73,1.23-.53.93-1.13,2.15.19,1.61.93,1.58,1.56ZM1080.78,186.61c-3.42-.14-.84-1.56-1.55-2.27,3.44.14.84,1.56,1.55,2.27ZM1315.17,209.94l-2.49.31c-1.89-.36-.13-1.57,2.27-1.98l.22,1.67ZM1036.86,184.71c-.54.16-4.11-1.62-.92-2.12,3.38.09.86,1.41.92,2.12ZM1085.94,185.56c-2.73-.83-2.49-4.63.38-5.03l-.38,5.03ZM1325.76,207.26l-1.65.23c-5.82-1.61.64-8.03-1.54-10.69,2.05-.57,1.08-1.53,4.71-1.91-.5,4.12-.47,8.33-1.52,12.36ZM796.17,60.93c-.41.76-.85,1.51-1.25,2.29-2.29-4.68-3.75-9.01-3.78-13.97,2.25-.32,2.73,1.84,3.11,4.45.35,2.61.64,5.67,1.92,7.23ZM872.72,91.04c-.36-2.52.89-3.38,2.57-3.73,1.67-.37,3.79-.21,4.82-1.17-.54,4-4.2,5.71-7.39,4.91ZM1036.78,182.07c-1.94-.15-2.15-1.11.82-1.24.29.55-.11.93-.82,1.24ZM1118.37,186.01c-3.36-.49-1.36-2.47,1.16-2.02.13.9-.37,1.53-1.16,2.02ZM1279.15,208.36c-1.36-.42.1-1.73,2.35-2.08-.2.82,1.23,2.01-2.35,2.08ZM931.61,188.7c-.47-.99.46-3.12,1.18-.82-.32.68-.66,1.27-1.18.82ZM1050.39,179.92c-2.54-.07-3.15-2.82.85-2.65.09.98.17,1.97-.85,2.65ZM1118.76,183.4c-.91-.19-.51-.55-1.63-.71,1.67-4.92-.81-10.96,3.97-15.2-.44,5.96-.03,10.35-2.34,15.91ZM945.95,190.77c-2.52.47-.33-2.71.39-3.49,1.21.33-.48,2.46-.39,3.49ZM1036.66,178.47c-2.85-.14-1.91-2.47-1.82-2.8,1.35.69,1.43,1.8,1.82,2.8ZM1217.64,202.79c-3.34-.87.27-1.59.37-2.37,1.81.72.16,1.93-.37,2.37ZM931.83,182.04c-.37-.65-.48-1.1-.42-1.39,2.25-2.26,4.5-5.28,6.72-8.14,2.21-2.87,4.37-5.6,6.25-7.65.32,1.8-.95,3.6-1.68,4.71-1.46,2.25-3.3,4.74-5.21,6.95-1.91,2.22-3.93,4.16-5.65,5.51ZM784.34,70.67c-.78,1.92-.86-.53-1.35-.39.98-2.45,1.61-1.09,1.35.39ZM1204.95,200.25c-2.83-.72-1-1.85-.37-2.28,1.75.62,0,1.54.37,2.28ZM1056.41,176.61c-2.71-1.74-1.46-6.14-.79-8.17,3.26,1.82,1.8,6.04.79,8.17ZM1050.38,176.56c-2.72,0-2.01-1.75-.87-2.15,1.06.5,2.03,1.74.87,2.15ZM1246.51,204.85c-3.05-.74.76-2.28.13-3.12,1.46.62.99,2.61-.13,3.12ZM1050.38,174.16c-3.3.16-1.66-1.85-.88-2.15,1.41.6,1.85,1.48.88,2.15ZM948.21,184.37c.26-3.23.64-7.08,1.66-10.96.99-3.86,2.54-7.73,4.15-10.66-.11,2.55-.94,6.07-2.17,9.82-1.17,3.74-2.78,7.74-2.88,10.89.06.38-.64.57-.76.91ZM792.02,47.23c-1.64,1.86-2.78,1.49-3.2.09-.43-1.4-.06-3.82,1.43-5.86.56,1.95,2.28,3.03,1.77,5.77ZM1220.89,197.22c-1.54-.11-2.33-1.47-.6-1.3,2.82.16,1.23,1.21.6,1.3ZM908.08,125.7c-1.48-3.06.97-.71.98-2.58,1.86,2.95-.8,1.58-.98,2.58ZM997.2,172.97c-1.01.14-1.55.11-1.77-.06-1.44-2.68-1.16-5.99-1.08-9.05.03-1.15-.89-2.36-1.01-3.57-.12-1.22.55-2.42,3.81-3.48,1.54,5.4.41,11.8.05,16.16ZM1150.28,179.58c-1.94-.88-2.07-3.09-.16-3.46,1.17.93-.23,2.34.16,3.46ZM1020.6,169.42c-3.91-.17-.92-2.78-2.03-3.94,3.66.26,1.11,2.71,2.03,3.94ZM1068.79,168c-.15.28-1.61.12-2.64.13-2.04-2.79-.03-6.48,2.94-8.52,3.05,2.16-4.65,5.85-.31,8.39ZM789.28,41.5c-1.64,1.67-4.2.04-.82-3.87.22,1.33,1.77,1.73.82,3.87ZM713.17,150.74c-2.99-.03-1.11-1.49.83-1.15.59.72-1.1.55-.83,1.15ZM1179.42,183.02c-2.8-.44-1.09-1.04-1.34-1.57,2.39.55,2.23,1.55,1.34,1.57ZM1151.13,175.59c-3.36-2.79-2.49-7.52,2.7-8.27-1.14,2.64-.22,6.31-2.7,8.27ZM901.98,104.2c-2.15-3.73,1.07-4.54,3.05-1.92l-3.05,1.92ZM1175.69,180.62c-2-.39-1.68-.87-4.06-1.25,1.36-4.3,3.56-10.36,7.04-14.33.65,4.89.56,11.42-2.98,15.58ZM935.02,160.15c-.19-.3-.23-.5-.26-.69-.02-.18-.04-.37-.13-.55.25-.16.47-.15.7-.07.24.09.48.22.72.19.4.85-.79.69-1.04,1.13ZM934.8,157.17c-1.01-1.96-.17-2.23.65-1.33.51,1.43.31,2.37-.65,1.33ZM1098.22,164.45l-2.65-.28c.68-1.09,1.52-1.88.29-3.11,4.47.52.25,2.06,2.36,3.39ZM928.85,137.67c-.42-.76-.84-1.52-1.28-2.28,1.21-.57,2.2-2.04,4-.25,1.26,3.11-1.67,2.77-2.72,2.52ZM761.79,81.04c-.99,2.67-1.7,2.6-2.1,1.07-.42-1.54-.27-4.3.37-6.86,1.29.52.78,4.6,1.73,5.79ZM1111.26,160.32c-3.52-.7.6-1.46-.57-2.74,2.72.72,1.64,2.19.57,2.74ZM1062.9,156.79c-2.7-2.33-3.85-8.25,3.91-10.25.1,3.17-1.09,6.89-3.91,10.25ZM1120.23,161.07c-3.27-1.31-2.06-3.17-2.05-4.89,4.42.86,1.51,2.99,2.05,4.89ZM751.73,118.1l-.22.93-.24.86c-.8-.18-1.66-.23-1.55-1.64.72-2.82,1.34.08,2.01-.15ZM932.41,135.67c-1.56-4.64,3.59-3.06,5.45-3.05-.58,2.19-3.47,3.35-5.45,3.05ZM1128.46,160.86c-3.91-1.4-1.8-3.2-1.19-4.09,3.07,1.12,2.6,3.27,1.19,4.09ZM953.05,161.54l-.9.23c.56-1.12,1.16-2.06,1.66-3.1.37.6-.43,1.52-.77,2.87ZM1032.99,149.33c-3.33-.03-1.63-1.76-1.01-2.36,2.83.52.35,1.17,1.01,2.36ZM954.04,156.44c-.47.11.12-1.32.5-1.82.18.14.02,1.16-.5,1.82ZM1067.78,144.89c-4.13-.51-.02-1.64-.84-2.67,5.74.39.31,1.69.84,2.67Z"/>
    </g>
  </g>
</svg>