<?xml version="1.0" encoding="UTF-8"?>
<svg id="Lager_2" data-name="Lager 2" xmlns="http://www.w3.org/2000/svg" viewBox="0 0 688.34 200.7">
  <defs>
    <style>
      .cls-1 {
        fill: #adadad;
      }
    </style>
  </defs>
  <g id="Lager_1-2" data-name="Lager 1">
    <g>
      <path class="cls-1" d="M164.35,0c.91,1.67,1.44.62,2.51.47.53-.08,2.62-.07,3.08.06.37.11.65.65,1.12.8,1.8.6,4.3.96,5.99,1.93,1.2.69,2.24,2.03,3.59,2.63-.1,1.2-.4,1.41-1.41,1.91l1.2,1.07c-1.53-.21-1.04,1.08-1.42,1.34-.43.3-3.16,0-1.46,1.18-1.52.57-.61,1.85-1.19,2.83-.04.07-1.13,1.21-1.21,1.25-.4.2-1.29,0-1.41.5l.23,1.63c-1.67.4-1.77,2.15.19,1.79.42-2.09,2.03-.94,3.22-1.2.74-.16,2.79-1.27,3.42-1.39.72-.14,1.67.14,2.39,0,.53-.11.71-.6.99-.66.42-.08,1.55.34,2.37.18.53-.11.67-.61,1.21-.71.78-.15,1.81.17,2.58-.05.49-.14,1.6-1.22,2.27-1.35,1.37-.27,1.28.93,1.91,1.13.76.23,1.29-.32,1.99-.45l-.48-.95,1.56-.24,7.33.34,2.62,3.01c-.23,0-.49.02-.7.14-1.22.72-2.82.99-4.2,1.08-.25.02-.48.11-.72.19l-.16,1.2c-1,.16-1.86.2-1.66,1.46-.92-.16-2.03-.47-2.88.12-.72.5,1.47,1.03.72,1.44-1.12.62-2.61.58-3.84.84.05.66.64.98.21,1.65-1.68-.36-1.99.6-3.01,1.18-1.34.76-3.28,1.56-4.04,2.92-.13.24.11.58-.09.84s-.73.37-.96.73c-.31.5-.17,1.45-.49,1.67l-1.95.21c-.31.23-.12.82-.27,1.05-.63.97-5.47-.61-5.47-1.03.49-.75,1.4-.44,2-.64.34-.12.34-.55.56-.69.28-.17.77-.12.98-.28.5-.39.2-2.16.32-2.79,1.56.02.92-.8,1.41-1.35.07-.08,1.43-.82,1.58-.84,1.06-.14,2.54,1.25,2.98-.35l-.95-.72c0-.13,1.84-1.34,2.08-1.63.3-.36.36-1.06.62-1.3.46-.45,1.55-.21,2.16-.36.79-.18,4.41-2.74,3.91-3.55-.25-.39-3.58-.84-4.05-.72-.28.07-.27.76-.81.92-1.49.46-3.71-.65-5.1.9-.27.3-.31.93-.62,1.06-.61.27-.55-.33-.77-.47-1.43-.88-1.8-.88-3.33-.01.29,1.84-.86.97-2.09,1.25-.79.18-2.48,1.02-3.42,1.14-1.16.15-4.42-.27-5.14.13-.1.05-.67.89-.69,1-.06.39.58.57.45,1.03-1.63-.24-.96.93-1.42,1.75-.32.57-1.99.95-2.29,1.61s.03,2.15-.16,2.36c-.07.07-.57.08-.83.26-.32.22-.11.64-.33.84-.08.07-1.52,1.03-1.61,1.05-.32.07-.72-.18-1.11-.15-.61.05-.59.6-.82.66-.3.08-1.61.04-1.75.25-.64,1,1.92,1.14,1.91,1.55-1.13,1.16-3.15-.02-2.73,2.53-1.18.29-1.34.35-1.35,1.66-3.38-.41-1.78,1.26-2.25,1.94-1.07.53-2.61.87-2.59,2.33-.34.15-2.24,1.18-2.31,1.29-.14.22.06.72-.07.88-.07.09-1.66.6-2.14.87s-1.72,1.29-2.04,1.33c-1.03.11-2.4-1.5-3.56-.7-.64.44-.42.63.1,1.06l1.91-.13-.23,1.55-5.76,3.13c.04,2.11-3.85,1.65-4.57,2.14-.23.16-.24.73-.45.99-.3.34-.9.3-1.09.58s-.04.8-.36,1.08c-.82.71-3.44,1.06-4.18,1.57-.4.28-.34.79-.62,1.06-.5.49-1.06.06-1.18,1.46-2.47-.37-3.13,2.52-5.51,2.29-.3,1.94-.96,1.17-2.26,1.46-1.61.36-1.07,1.11-1.59,1.77s-2.2.95-2.83,1.24c-.51.24-1.27,1.04-1.72,1.13-.42.08-1-.21-1.58-.11-.17.03-1.51.75-1.58.83-.33.38-.15.88-.28,1.04-.1.12-.61.08-.85.23-.82.52-1.62,1.03-1.9,1.99l-1.76-.03-.73-1.9c1.81.23,2.38-2.32,3.43-2.7.62-.22,1.99.35,2.81-.18.07-1.17-1.75-.27-1.68-1.43.25-.26,2.42-.45,2.89-.59.8-.24,5.05-2.67,6.07-3.29,1.48-.9,2.66-2.57,4.73-2.47l.21-.27c-.83-1.38,1.12-.74,1.43-1.09.21-.23-.2-1.22,1.42-1.6.78-.18,1.09.56,1.6.43.8-.54-.11-.8-.11-1.43,1.45-.14,2.68-2.66,3.75-2.81.36-.05.69.26,1.23,0,.64-.31.48-1.09.93-1.24,1.14-.4,3.66.73,3.24-1.44.65-.09,1.38-.67,1.87-1.12.25-.23.23-.67.51-.93.6-.56,2.63-1.23,3.24-1.8.77-.71,1.22-1.55,2.42-2.38,1.28-.88.9-.75,1.78-1.58.46-.43,2.37-1.29,3.08-1.72.33-.2.62-.7.89-.76.34-.07,2.24.45,2.49.18l-.7-1.78,1.32-.61c.22-.3-.16-.82-.04-.99.06-.08,1.6-.95,1.69-.95.51,0,.83.97,1.56.73.37-1.03-.86-.69-.97-1.12-.42-1.68,1.1-1.52,2.23-2.24.85-.54,1.76-1.86,2.44-2.66.2-.23.18-.66.49-.95.38-.36,1.68-.79,2.23-1l.29-1.99,2.18-.23c.05-.62-.92-.78-1.08-1.06-.13-.24.34-.8-.22-1.23l-2.06-.1c-.68.33-.46,1.4-.48,2.04-.16.17-3.5-.52-1.92,1.08-.32.54-1.1.23-1.45.46-.29.19-.15.81-.35,1.09s-1.98.93-2.16,1.2-.03.71-.16.91c-.1.15-.65.19-.91.41-.35.31-.36.92-.64,1.1-.45.28-1.13.12-1.59.27-.39.13-.54.61-1.02.67-.53.07-1.17-.36-1.79,0-.12.81.44,1.22,1.2,1.2.5.55-2.42,2.15-2.87,2.29-.39.12-2.44.77-2.58.79-.38.05-.76-.24-1.1-.16s-1.6,1.23-2.02,1.35c-1.67.47-2.11-.61-2.45,2.1-1.7.01-2.54,1.09-4.35.93l-.22,1.34c-1.86-.47-2.56.63-3.92,1.23-3.2,1.41-6.57,1.96-9.43,3.52-2.63,1.43-6.78,2.55-8.71,4.25-.25.22-.23.67-.51.93-.11.1-2.42,1.5-2.56,1.54-.83.22-1.49-.52-3.1.23-1.52.71-1.12,1.55-1.5,1.86-.34.28-.99-.25-1.52-.11-.29.08-1.59,1.1-2.03,1.35-.87.48-1.16-.1-1.06,1.46-.9.15-1.82,1.07-2.62,1.34-1.07.35-1.74-.17-2.7.11l-.87,1.58-1.83.11c-.36.52.25,1.91-.44,2.44-.45.35-1.1.13-1.59.33-.67.26-1.47.95-2.14,1.22-.45.18-1.04.02-1.45.22-.14.07-1.58,1.99-1.82,2.26-.25.28-.64.38-.83.61-.31.39-.3,1.04-.53,1.27-.89.92-4.43.63-4.65,2.47-1.78-.37-3.83.9-4.89-.85.93-1.25,1.93-.83,2.95-1.13.32-.09.49-.53.81-.62.49-.14,1.04.06,1.52-.16.33-.15.36-.76.77-.93.69-.28,1.81-.15,2.58-.4.27-.93-1.68-.72-1.67-1.08.59-.74,1.42-.03,2.25-.12,1.57-.18,1.07-1.23,1.47-1.91.16-.28.76-.36.96-.73.11-.21-.08-.57,0-.72.46-.75,2.49-.93,3.24-1.3.43-.4.07-1.19.34-1.58.17-.25.77-.18.97-.47.19-.27.06-.88.34-1.1.45-.35,1.28.26,1.77.16.19-.04.28-.57.7-.8.86-.46,2.09-.23,2.82-.54.32-.14,1.19-1.11,1.71-1.41.3-.18.9-.12,1.08-.36.22-.32-.02-.99.14-1.18.09-.11,2.26-1,2.6-1.12,1.26-.42,2.06.21,2.39-1.7,2.3.64,1.77-.78,2.32-1.32.68-.65,2.26-.64,2.96-1.07.34-.21.55-1.21,1.69-1.65.63-.24,1.18-.02,1.74-.18,1.03-.29,3.33-2.45,4.48-2.73.44-.1.86.19,1.47.05.25-.06,1.72-1.35,2.26-1.35.37,0,.95.72,1.56.48-.29-.55-.94-.34-.72-1.2l3.14-.11.45-1.95c.47-.17.99-.05,1.46-.22,1.58-.55,3.06-1.28,4.66-1.82,2.84-.95,4.6-2.16,7.5-3.05.67-.21,1.42-1.01,1.73-1.12.37-.13.93.28,1.64-.07.55-.27.46-.79.79-1.13.42-.45,1.32-.67,1.79-1.09.41-.36.65-.99,1.19-1.44,1.03-.86,4.4-2.2,4.93-2.75.32-.33.13-.81.28-1.03.41-.62,3.97-1.27,2.11-3.06-.2-.1-2.67.1-2.95.18-.83.24-.56,1.28-.66,1.38-.07.07-1.29-.04-1.73.07-.68.17-1.63,1.26-2.22,1.37-1.03.2-3.67-.6-2.99,1.2-1.13.03-1.97.23-3.01.71-.58.27-1.8,1.29-2.2,1.4-.51.14-1.07-.05-1.58.1-.34.1-.49.57-1.01.67-.44.08-.97-.1-1.4.04s-.48.83-.88,1.04c-.75.39-1.67.12-2.62.98-.61.55-.83,1.59-1.7,1.89-.6.21-1.15.05-1.68.24-1.02.37-2.86,1.81-3.52,2-.51.14-1.5-.07-1.72.08-.1.07-.22.85-.41,1.15-.91,1.43-2.06.69-3.21,1.11l-5.41,3.46c-.13,0-1.11-2.09-1.56-.24l.96.72-5.52-.12c-.56.38-.15,1.08.36,1.08h3.48c.13.63-.13.37-.35.5-2.37,1.4-5.06,2-7.22,3.57-.29.21-.38.72-.74.94-.59.36-3.81,1.46-4.53,1.47-.27,0-.9.16-.84-.24.62-.32,2.02-.63,2.5-.98.53-.38.44-1.49,1.58-1.42-.5-2.03-2.18-.42-3.06-.27-1.08.18-1.55-.26-2.82.75-1.9,1.51-.57,1.18-3.3,1.97-.43.13-1.66,1.26-2.02,1.36-.68.19-.95-.96-1.85-.68-.55.17-.12.81-.35,1.08-.32.38-1.81.86-2.18,1.19-.36.31-.13.88-.49,1.19-.11.1-2.19,1.26-2.32,1.28-.49.07-.91-1.02-1.93-.5-.46.23-.56.76-.93,1-3.13,2.03-6.72,3.59-9.85,5.74-.29.2-.73.18-.96.35-.22.16-1.28,1.6-1.51,1.72-.61.31-1.32-.03-1.94.23-.3.22-.08.8-.38,1.12-.93,1.01-4.6,1.74-4.88,3.22-.08.44.09.97-.04,1.4s-.86.49-1.05.87c-.22.45-.02,1-.23,1.45s-1.06.45-1.27,1.37c-.27,1.2.18,2.72-.27,3.99l1.1.84c.56.08,1.46-1.21,1.92-1.35.8-.24,1.8.18,2.65-.22.48-.22.56-.74.9-1.02,2.05-1.68,7.72-2.1,9.01-3.94.24-.34.22-.69.23-1.08h1.19s0,1.43,0,1.43h1.2c-.48.27-.77,1.64-.85,1.69-1.02.58-1.89-.16-2.57.02-.39.1-1.41,1.19-2.03,1.34-.95.24-2-.15-2.95.17l-.23.84,1.68.25c-.43.58-2.13,1.5-2.82,1.63-1.14.22-2.26-.73-3.17.41,1.91,2.14-2.92,1.12-2.88,2.16l.95.72-1.91.72c.63.55,1.31,1.36,1.94,1.88.69.57,2.49,1.01,1.94,2.17l.18.27c.1.06,1.45.3,1.63.29.49-.01.63-.6,1.15-.67.75-.11,1.07.58,1.78.49.29-2.02,3.44-1.95,4.65-2.67.5-.3.32-.96.94-1.23s2.06.49,1.87-1.36c.64-.08,1.35.12,1.98-.06.47-.13,1.2-1.09,1.62-1.26.61-.24,1.15-.04,1.73-.19,1.43-.36,4.79-3.11,6.43-3.65.59-.19,1.14-.06,1.68-.24.61-.2,1.65-1.16,2.08-1.28.79-.23,2.04.18,2.71-.17.45-.23.35-.79.54-1.02.06-.07,1.49-.88,1.6-.92,1.02-.31,2.27.11,3.2-.16,1.01-.29,2.1-2.18,3.76-.54.27.51-.96,1.24-1.32,1.31-1.06.2-2.55-.66-3.7-.12-.93.44-.1.96-.09,1.19,0,.15-.62,1-.43,1.52-.54.43-1.72.11-2.13.39-.27.19-.16.9-.62,1.06-.64.23-1.94-.09-2.8.08-.17.04-2.22.73-2.33.79-.39.2-.48.89-1.02,1.14-.38.18-.86.1-1.19.25-1.69.71-2.86,1.6-4.84,1.15-.25.09-.96,2.65-1.35.8-.05-.26.02-.56,0-.83l-1.41.26.08.95,1.1.22c.22.32-1.48,1.38-1.59,1.4-.29.06-2.07-.83-3.28-.4-.35.12-.44.67-.78.9-.3.2-.98.22-1.03.29-.18.22.28,1.32-.5,1.78-.98.57-.58-.9-1.76-.57-.1.03-1.19.84-1.25.93-.13.19.05.54-.1.84-.77,1.52-1.23.77-2.24,1.13-2.03.71-1.76,1.06-4.26.31-.99-.3-4.01-1.85-4.58-2.63-.26-.36.15-.78-.07-1.09-.14-.19-.69-.28-.98-.48-.99-.73-1.33-1.45-2.64-1.45-1.41,0-1.99,1.05-3.47.75.1,1.86-.97,1.06-1.75,1.24-.84.19-2.57,1.45-3.44,1.84-3.75,1.65-5.89,2.36-10.06,2.2-5.89-.23-11.34.27-17.25.95-2.95.34-6.93-.18-9.66-.91-.61-.16-1.25.03-1.93-.22-.62-.23-3.04-2.35-3.81-2.92-.22-.16-.74-.23-.79-.3-.12-.16.17-.66.11-.96-.12-.55-.9-.89-1.03-1.34-.28-.99.43-1.12-1-1.63l1.21-.75c.05-.99-.13-3.61.35-4.4.2-.34.82-.3,1.02-.54.15-.17,1.08-1.3,1.13-1.38.19-.3.09-.89.35-1.09.66-.49,2.31.64,2.29-1.3,1.28-.26.85-.92,1.2-1.44.19-.28,1.98-.93,2.16-1.2s.03-.7.16-.91c.08-.12,2.39-1.4,2.53-1.43.7-.18,1.72.21,2.1-.55.14-.27.04-.74.17-.9.05-.06,1.24-.7,1.32-.72.71-.2,1.62.26,2.09-.52.13-.21-.04-.68.19-.91.19-.19.71-.24,1.03-.53,2.2-1.98,6.02-4.77,8.76-5.88,1.23-.5,2.61.16,3.92-.82.24-.18.18-.62.39-.86.51-.58,1.42-.7,1.82-1.07.43-.39.37-1.05,1.08-1.56.89-.64,2.27-1.17,3.36-1.2.58-.48-.31-.77-.25-1.32.79-.22,1.64-1.09,2.39-1.34,1.69-.55,1.68-.39,3.33-1.28,2.78-1.49,4.9-2.49,7.77-3.69,1.53-.64,1.18-1.06,1.74-1.86.2-.28.77-.2.96-.48.17-.24.07-.71.24-.96.05-.07,1.41-.9,1.49-.92.39-.11.83.16,1.28.1.85-.1,1.88-.87,2.87-.86v-1.08c1.79-.44,2.71-2.06,4.8-1.56-.61-1.45,1.12-1.49,1.98-2.39.3-.31.23-.88.65-1.09,1.06-.54,2.93.78,3.31-.53.13-.44-.11-1.05.29-1.39s1.77-.54,2.33-.79c.75-.33,1.49-.89,2.18-1.17s2.9-.51,3.29-1.27c.15-.29.07-.89.13-.95.2-.21,3.39.58,2.39-2.17,1.19.43,2-.57,2.77-.71.54-.1,2.88.1,2.99,0-.05-2.26-.43-2.57,1.68-3.47.66-.28,1.8-.41,2.38-.74s.89-1.39,1.38-1.51c.17-.04,3.69.72,2.84-.52-.16-.23-1.19-.43-.6-.83,1.22-.84,2.17-.4,3.36-.71.76-.2,1.49-1.07,2.32-1.27,3.35-.8,2.62-.98,5.17-2.51.93-.56,1.84-.24,2.64-.47.63-.18,2.58-1.7,2.98-1.82.88-.27,1.71.2,2.33.13.42-.05.7-.53,1.05-.61.25-.06,2.23.37,1.98-.64-.09-.34-.98-.19-.72-.84.55.06,1.01-.6,1.37-.68.43-.09,1,.27,1.6.19s.87-.56,1.28-.66c.6-.16,2.78-.68,3.32-.77.86-.13,1.47.24,2.13.21.69-.03,1.15-.59,1.71-.69,1.75-.32,3.04-.12,4.96-.8,1.16-.41,3.02-1.69,3.91-1.84.69-.12,1.49.11,2.14-.02.55-.11.64-.62,1.43-.73,1.32-.18,3.89.89,4.79-.24.16-.2.15-.68.37-.83.48-.34,1.67.05,2.25-.11.26-.07.13-.48.16-.48h4.08l-.11.73-3.26.34-.62,1.34c-.71.2-1.91-.28-2.34-.2-.25.05-1.73,1.19-2.25,1.32-.92.24-2.58.25-3.84.48-.65.12-1.74.05-2.3.34s-.41,1.2-1.05,1.36c-.46.12-.89-.22-1.34-.17-.38.05-.77.49-1.12.57-2.57.56-5.6.7-7.99,1.37-.42.12-.7.61-1.28.66-.49.04-1.07-.31-1.39-.22-.3.09-.38.6-.66.79-1.62,1.13-5.84,2.49-7.76,2.79-2.72.43-5.85,1.83-8.46,2.81-.62.23-1.34,1.23-1.44,1.25-.52.13-1.59-.2-2,.1-.34.25-.08,1.15-.61,1.3-1.36-.04-3.05.02-4.18.87-.34.26.03.7-.2.97-.36.42-1.87.86-2.41,1.2-.26.17-.36.61-.8.87-1.85,1.09-4.8,1.41-6.02,2.32-.25.19-.17.64-.39.87-1.34,1.38-3.26,2.25-4.75,3.23-.67.44-2.1,1.75-2.4,1.91-.44.23-1.11.12-1.62.47s-.45.93-.66,1.14c-.1.1-2.36,1.44-2.5,1.47-.44.11-.86-.37-1.5-.09-.5.22-.77,1.05-1.04,1.25-.71.52-2.71,1.89-3.47,2.17-.44.16-1.2.01-1.58.28-.31.22-.17.88-.46,1.16-.1.1-2.37,1.41-2.5,1.45-.58.16-1.64-.12-2.01.15-.3.22-.1.89-.47,1.21-.11.09-2.27,1.38-2.4,1.43-1.36.52-1.32.14-2.98,1.1-.38.22-.91.21-1.24.46-.47.35-.02.81-.11.94-.15.2-3.69,1.97-4.39,2.46s-1.23,1.04-2.16,1.67c-.32.22-.43.67-.63.81-.65.41-2.14-.15-2.88.24-.45.23-.34.82-.64,1.1-.15.14-2.41,1.42-2.71,1.55-.45.19-3.01.73-3.09.86.43,1.97-2.18,1.6-3.21,2.36-3.07,2.28-3.29,2.79-7.2,3.9-.13.04-2.23,1.18-2.33,1.27-.16.13-.28.22-.24.45l.23.85c-1.06.42-2.44.9-3.35,1.58-.42.31-.49.79-1.03,1.12-1.05.65-3.35.59-3.06,2.1-2.5-.12-4.34,1.88-6.12,3.36-.39.32-1.85,1.11-1.91,1.21-.19.28-.07.88-.35,1.1-.35.27-1.32-.46-1.94.21-.32.34-.14.81-.28,1.03-.12.18-1.06.28-1.26.76-.09.22.17.6.1.7s-1.09.24-1.3.74c-.09.22.17.6.1.7-.08.11-.87.14-1.07.5-.24.41.01,1.04-.23,1.45-.2.35-.97.37-1.05.51-.14.22-.42,5.02-.24,5.21.08.08.54.03.8.27.46.43.66,1.4,1.57,2.03,1.82,1.26,6.79,1.63,9,1.34.71-.09,1.03-.62,1.45-.67,2.9-.34,7.24.12,10.28-.32,4.13-.59,7.63.17,11.54-.7.45-.1.99.09,1.38,0,.51-.12,3.23-2.77,3.45-2.84.85-.28,2.59-.47,3.5-.82.57-.22,1.33-.96,1.8-1.08.61-.15,1.24.05,1.81-.11.08-.02,1.44-.84,1.49-.91.1-.15.37-1.57.32-1.76-1.38-1.04-.63-.68-.68-1.72-.03-.52-.32-.9-.36-1.28-.12-1.24.71-1.62-1.09-2.31,2.05-.56,1.21-2.53,1.45-4.06.1-.65,2.01-2.52,2.64-3.12.25-.24.79-.26.9-.42.14-.2,0-.7.27-1.05.29-.38,1.85-.79,2.19-1.17s.11-.89.39-1.11c1.35-1.06,3.77-2.06,5.34-3,1.29-.78,1.58-1.7,3.6-1.32.29-.46.16-1.22.39-1.65.32-.59,1.29-.2,1.3-1.58.81-.32,2.58.17,3.23-.31.29-.21.04-.89.36-1.12.31-.22.94-.02,1.32-.12,1.12-.3,2.68-.79,3.15-1.92,1.29.52,2.28,1.68,2.3-.67.86-.07,1.71-1.08,2.37-1.34.23-.09,2.4-.72,2.61-.75.51-.07.9.26,1.44.03,1.11-.48.27-1.8.49-2.04l1.76.67,5.85-3.5c1.48-.19,2.48.75,4.01-.02l.24-1.72c1.31-.54,2.32.27,2.52-1.56.57-.22,1.19-.02,1.77-.15,1.9-.43,3.16-2.27,4.25-2.7.61-.24,1.15-.04,1.73-.19.78-.2,2.13-1.52,3-1.8,1.2-.39,3.65-1.21,4.79-1.44.9-.19,1.84.11,2.72-.16.15-1.65,1.1-1.16,2.12-1.72,2.34-1.28,2-1.29,4.65-2.06,1.48-.43,4.53-3.18,5.62-3.5.78-.22,1.81.13,2.54-.1.54-.17.58-.85.88-1.03.46-.28,1.19-.01,1.75-.17.42-.12,1.59-1.22,2.02-1.34.93-.26,1.28-.3,2.25-.63,1.05-.36,2.16-.41,2.95-.66.33-.11.33-.63.69-.76.41-.15.94.19,1.44.04.16-.05,2.83-1.51,2.95-1.63.33-.31.32-.77.58-1.11l2.12-.14.19-.56-.38-.84.71-.24c-.02,1.06.58.86,1.03,1.2.2.15.21.45.47.56,1.4.56,1.89-.13,3.01-.5l2.71-.89.26-1.3c1.73.01.84-1,1.41-1.59.38-.39,2.04-.73,2.13-.87.15-.22-.06-1.04.07-1.48.16-.54,1.76-.96.92-1.49-.31-.2-1.84-.17-2.29-.12-2.03.24-.91,1.4-1.55,2.05-.26.26-1.54.83-1.98,1.08-.17.1-.18.39-.48.54-.36.19-1.89.41-2.06.69-.2.33.09,1.21-.08,1.72-.12.34-1.04.77-1.33,1.09l-1.51-.7c.18-.69,1.03-1.95,1.16-2.57.08-.36-.17-.77-.07-1.03.14-.37,6.02-4.08,6.57-4.2.36-.08.59.29.85.29.72,0,2-2.3,3.26-2.65.66-.18,1.23-.04,1.73-.18.32-.09.49-.52.81-.62.43-.13,3.3-.13,3.74,0,.47.14.6.78,1.25.91.41.08,1.97.08,2.28-.11.61-.37-.46-1-.25-1.56.94.1,1.73.63,2.39-.36l-1.43-1.44c.41-.45,1.37-.64,1.17-1.39-.04-.17-1.24-1.41-1.42-1.48-.46-.2-.98-.07-1.45-.23-.44-.15-.67-.61-.96-.72-1.54-.59-4.04-1.17-5.64-1.08-.56.03-.71.89-2.15.72-.78-.09-.87-.62-1.43-.73-.27-.05-3.1-.21-3.33-.18-.4.05-.68.5-1.04.6-1.07.28-2.38-.41-2.33,1.26l-.28.2c-1.48.24-2.47-.01-3.69-.81-.85-.56,1.36-.65,1.62-.77.47-.22.57-.87.93-.99.47-.15,1.08.07,1.6-.08.34-.1.49-.57,1.01-.67,1.4-.28,3.76.9,4.2-.72h2.64ZM171.2,10.8c-.73.22-.22,1.11.47,1.19,1.42.16.7-1.54-.47-1.19ZM165.55,11.27c-.49-.13-2.32.09-2.16.83.42.55,1.16.39,1.76.33l.39-1.16ZM168.82,12.98c-1.5,1.64,2.44,1.54.89,0h-.89ZM168.82,14.41c-.6.2-1.19,1.83.2,1.91,1.92.11,1.01-2.3-.2-1.91ZM164.85,20.59c1.82.36,2.36-.91.38-1.14l-.59.56.2.58ZM174.1,20.89c-1.28.39.84,1.71,1.52.32-.34-.46-1.04-.47-1.52-.32ZM103.8,46.76c-.16.03-1.36,1.13-1.85,1.29-.89.28-1.8-.17-2.38.73,1.76,1.73,3.49-.29,5.03-1.2.08-.3-.51-.87-.81-.82ZM21.74,64.99c-.74.23-.89,1.82.43,1.39.7-.23.49-1.67-.43-1.39ZM113.24,67.12c-.1-.1-2.05-.47-1.92.35.29.59,2.04.61,1.92-.35ZM82.8,82.43c.39.6,1.95-.14,2.36-.57-.88-1.7-3.25-.83-2.36.57Z"/>
      <path class="cls-1" d="M688.34,117.94l-.35.96-.49.25-3-.25c.53-2.19-.88-1.03-2.03-.94s-1.73-.44-2.4-.46c-1.13-.04-3.92.61-4.93.08-.19-.1-.19-.61-.7-.74-1.6-.39-1.01.78-1.33,1.35-.15.27-1.5.89-1.8,1.34l.68,1.38c-.11.55-1.1.81-1.28,1.12-.25.43.01,1.07-.23,1.45-.21.33-1.19.34-1.3.5-.25.39.33,1.7-.39,2.12-.2,0-2.51-2.29-3-2.51-.52-.23-1.14-.05-1.69-.23-.89-.28-.81-1.16-2.49-.84-.76.14-1.96,1.53-2.77.23,1.84-.8,3.6-.73,5.2-2.13.57-.05,2.43,2.66,4.16,1.77.55-.28.36-.98.6-1.32s1.14-.28,1.29-.88c.22-.85-.98-.99-1.18-1.4-.22-.47.65-.34.97-.7.43-.47.49-1.25,0-1.7-.81-.75-.96-.03-1.63.07-1.79.27-3.29-.31-4.8-.85s-2,.24-2.81.18-2.48-.64-3.62-.72c-1.3-.09-3.15.21-4.31,0-.63-.12-.97-.93-1.69-.95-.65.02-.97,1.13-1.68,1.2-1.04.11-4.51-2.1-5.29-.97l.14.72c-.78-.14-1.53.25-2.27.25-1.89,0-2.75-.36-4.27-1.03-.68-.3-6.03-.31-7.02-.19-.68.08-1.39.65-1.68.64-.45,0-.88-.81-2.17-.66-.75.09-.99.65-1.19.67-.26.02-.94-.63-1.46-.66s-.89.35-1.42.43c-.74.11-1.16-.32-1.63-.36-.83-.06-3.14-.28-3.68.14-.44.35-.09,1.07-.7.99-.51.02-.87-.87-1.2-.9-.17-.01-.46.32-.7.3-.88-.04-2.27.05-2.8,0-.11-.01-2.05-.6-2.21-.66-.48-.2-.64-1.18-1.75-1.14-1.04.03.19,1.67-1.42,1.65-.43,0-.83-.47-1.43-.47s-1.22.5-1.69.47c-.4-.02-.71-.53-1.43-.49-.9.04-.73.7-1,.77-.7.16-1.33-.56-1.93-.68s-1.28.06-1.82-.1c-.41-.12-.58-.65-.89-.79-.4-.18-1.86-.24-2.17-.02-.5.36.1,2.13-2.38,1.09.39-3.51-1.55-.5-2.64-.32-.5.08-.86-.42-1.56-.42-.76,0-1.1.52-1.67.53-.71.01-1.25-.61-1.94-.73-1.3-.21-5.59-.52-6.95-.52-.79,0-1.22.48-1.7.51s-.83-.42-1.41-.5c-2.26-.32-7.07-.5-9.38-.48-.61,0-1.04.5-1.43.48-.37-.01-.63-.51-1.18-.48-.88.04-1.58.73-3.13.47-.64-.11-.99-.65-1.47-.71-.55-.07-1.04.33-1.6.2s-1.54-1.16-2.23-1.15l-.49.21-.73,1.21c-1.61-.02-3.95-.58-5.48-.47-.75.05-2.51.57-3.59.74-1.17.19-2.44,1.51-3.86.23l.6-.96c-.65.04-1.18-.4-1.44-.96.82.07,1.49-.41,2.28-.48,1.28-.13,2.86.22,4,.11.68-.06,1.11-.51,1.75-.6,4.31-.58,10.63.93,15.12.75.75-.03,1.15-.56,1.74-.68,2.53-.54,3.38,1.43,6.17.9.55-.11.8-.63,1.4-.64,1.85-.03,4.63,1.51,6,1.08.56-.18.56-.87,1.72-.67,1.04.17.53,1.96,2.26,1.41l.42-1.18c3.03.11,6.07.12,9.1.24,1.47.06,6.36.75,7.38.44.33-.1.49-.52.82-.62,1.32-.42,1.56.73,2.6.9.64.1,2.98.13,3.58.01s.7-.73,1.44-.74c.87-.01,1.34.82,2.18.97,2.22.38,5.8.43,8.13.5,1.02.03,2.28-.41,2.65-.4.19,0,.98.55,1.68.63,1.27.15,4.28-.47,4.51-.44.29.05.5.48,1.24.46.57-.02,1.14-.44,1.91-.52,2.22-.23,5.53.68,7.66.43.4-.05.68-.5,1.04-.6,1.85-.49,2.36.78,4.03.9s1.54-.54,2.4-.71c1.07-.21,8.31.16,9.34.49,1.11.36,2.56,1.93,2.49-.69-.65-.32-1.28-.73-1.88-1.13-.28-.18-.62.06-.48-.59,2.8.4,6.28-.3,8.94.53.33.1.5.49.84.6,1.76.57,3.61,0,5.17.35.57.13.97.74,1.54.86,1.28.28,2.16-.23,3.35.98.97-.97,1.78-.48,2.78-.74,1.41-.37.61-.43,2.45-.41,1.64.01,3.28-.05,4.91,0l.35,1.44c.72.52,2.53-.16,3.14,1.19.44.97-.04,1.48,1.57,1.91v.48Z"/>
      <path class="cls-1" d="M182.1,35c.12.8-.67.26-1.03,1.02-.28.58.15,1.13-.03,1.38l-1.58.23v1.2c-.56.11-1.13-.37-1.67-.13-.43.2-2.09,1.83-2.53,2.28-.4.41-1.51,2.11-1.8,2.28-.46.28-1.19.01-1.75.17-.23.06-1.71,1.07-1.78,1.3-.08.29.23,1.06-.13,1.47-.17.2-.65.15-.85.35-.19.19-.15.64-.35.85-.28.28-1.51.79-1.99,1.25-.32.31-.25.73-.52.98-.37.34-1.69.66-2.03,1.05-.26.31.01.73-.09.86-.2.28-.97.23-1.21.7-.18.36-.21,2.78-.12,3.24.13.65.78.58.93.99.22.63-.13,1.61.08,2.31.13.44.76.65.82,1,.11.75-.4,1.97-.04,3.03.19.58.71.6.8.76.2.35-.09,1.06.4,1.41.37.3,1.48.3,1.94.21,1.22-.25,4.28-2.93,5.65-3.46.58-.23,1.15-.02,1.67-.25.86-.38,1.85-2.09,3.3-2.46.54-.14,1.4.08,1.76-.16.28-.19.15-.89.62-1.06.34-.12.88-.02,1.31-.14.5-.14.33-.59.8-.63,1.01-.09.38.46.76.75.51.41,1.54-.2,1.3-.98l-.96-.48c1.71.4,2.1-.52,3.28-1.16,1.45-.79,3.14-1.53,4.47-2.48.57-.41,3.69-3.2,4.02-3.66.43-.6.33-1.45,1.42-1.93.1-.23-1.3-.15-.96-.84.5-.01,1.01.07,1.5-.06.16-.04,2.68-1.39,2.81-1.51.34-.3.16-.79.36-1.08s.79-.2.97-.47.07-.81.24-1.2c.39-.89,1.46-.64,2.21-.91.19-.07,2.28-1.37,2.37-1.49.2-.29-.12-.74-.01-1.2.22-.99,1.23-.63,1.45-.95.21-.3-.01-.87.15-1.17.09-.17.78-.31.99-.52.27-.26,1.33-1.24,1.39-1.32.25-.32-.05-.68.2-.96.43-.47,1.76-.87,2.14-1.47.46-.73.13-2.03.3-2.22.06-.07.63-.09.95-.37.41-.36,1.29-1.81,1.92-2.4.88-.82,2.32-1.45,2.99-2.05.33-.29.23-.73.51-.99.52-.48,2.91-1.35,3.22-1.76.45-.59.34-1.55,1.49-2.47.63-.5,1.74-.87,2.46-1.26l.09-1.82,2.19-.21c.22-1.82,1.04-1.04,2.21-1.39.69-.21,2.72-1.87,3.28-2,.27-.06.54.32.86.37,1.72.23,2.09-.74,3.46-1.31.14-.06,2.41-.79,2.54-.82,1.29-.22,2.53.38,3.81.21.23,2.09,3.02,1.72,2.28,4.18l1.11.63-.12,1.53c.15.47,1.78.26,1.15,2.15-.42,1.26-2.16-.35-2.36-1.17-.82-.53-2.61,1.46-2.39,2.14.31.94,1.67-.32,2.14.51-1.2.4-1.15,1.3-1.9,1.93-1.24,1.04-2.14.8-3.38,1.18-.73.22-1.27,1.41-2.03.38l-.37.6.49,1.08c-1.5.33-2.11,2.16-3.61,2.75-.79.31-2.12-.25-2.28.85,2.3,1.24-.99,1.43-.59,3.11l-.72-.12.71-4.42-1.43-.15c-.12.31-.88,1.3-.88,1.45,0,.18.48.65.53,1.06.06.43-.44.81-.38,1.33.05.42.64.69.39,1.09-.6,1.22-3.44,1.32-4.69,1.21-.18.83,1.01.54,1.43.84.91.66-.45,1.06-.6,1.31-.23.38-.02.96-.15,1.17-.1.15-.74.14-.98.29-.21.13-.21.41-.48.54-.5.24-1.65.3-2.04.71s.09,1.21-.54,1.5c-2.54-.26-5.01.21-7.52-.34l-.88,1.41c.09.08,1.24-.42,1.19.12-.03.32-1.89,1.28-2.17,1.66-.29.4-.19,1.04-.56,1.36-.83.71-3.03-.69-3.76-.16l-.45,1.95-1.23.21-.52,1.18-2.8.18.22,1.17-1.65.28c.49,2.55-1.43,2.11-2.83,3.54-.43.08-2.62-2.84-4.11-1.36-1.26,1.26,1.13,1.77,2.11,1.73l-.07.8c-.93.02-1.85.63-2.72.75-1.13.17-2.11-.37-3.22.02l.68,1.88c-.61.05-.81.96-1.14,1.12s-1.51-.54-1.93.24c-.12.94,1.71.27,1.44.95-.39.99-1.92.8-2.34,1.14-.15.12-.28.72-.53,1.04-.18.23-.65.29-.7.38-.13.23.19.63.09.93-.14.38-1.34,1.09-1.61,1.73-.18.44-.12,1.15-.29,1.39-.09.13-2.07.79-2.24,1-.15.18,0,.72-.27,1.05-.25.31-.84.25-.94.38-.13.16,0,.63-.17.9-.21.36-.99.37-1.2.73-.16.27-.04.73-.17.9-.07.09-1.58.61-1.99,1-.39.37-.56,1.14-.62,1.18-.25.18-1.03-.2-1.48-.17-.19.02-2.37.53-2.52.59-.54.23-.38,1.08-.93,1.26-.63.2-2.28-.77-2.98.12-1.09,1.38.59,2.11.71,2.46.27.8-.5,2.49,1.31,1.96.88-.26.5-1.25.77-1.87.35-.81,1.67-.84,2.07-1.31.32-.39-.05-.81-.03-.84.07-.1,1.35-.27,1.67-.37.94-.3,1.69-.41,2.47-.64.56-.17.6-.97,1.04-1.12.47-.16,1.12.04,1.63-.05.82-.15,2.46-.55,3.31-.76.53-.13,1.31-.94,2.03-1.09,1.27-.26,3.28.35,3.97.15.8-.23.52-1.11.78-1.64.45-.94,1.81-.54,2.51-.85.51-.22.94-1.29,1.13-1.33.59-.13,1.29.45,1.85,0l.27-.23c-.1-2,3.07-1.85,4.19-2.75.63-.5.63-1.37,2.09-1.74,2.07-.53,1.64-.48,3.45-1.35.6-.29,2.64-1.28,2.85-.39-.91,0-1.2.82-1.68,1.44.07.05,1.58-.21,1.75-.29.4-.17.39-.63.83-.85,1.2-.61,2.83-1.18,4.14-1.37.9-1.23-.56-.5-.49-1.2.19-1.78,2.89-.35,3.48-.34.8.01,2.23-.61,2.02-1.59.75-.2,1.46.06,1.94-.71-.54-.43-.84-.83-.72-1.56.84.25,1.2-.6,1.8-.72.87-.17,3.46.25,3.97-.11.47-.47.02-1.36.33-1.82.14-.2,1.64-.71,1.92-1.2.26-.44.07-1.28.48-1.68.34-.32,1.03-.18,1.22-.46.23-.32-.01-1.02.13-1.19.06-.07,1.69-.72,1.78-.74.55-.1,2.27-.08,2.82.04.71.16.9.87,1.74.93s.57-.56.98-.71c2.26-.8,1.25,1.75,1.56,2.7.15.46.91.19.69.86-.92.35-1.82.75-2.62,1.34-.56.42-1.53,1.71-1.94,1.89-.94.42-2.6-.32-2.4,1.55-1.16-.08-2.87-.08-2.39,1.45-1.51-.29-1.74.81-2.42,1.31-1.61,1.19-2.33,1.15-4.13,1.63-.35.09-.63.51-1.06.61-.63.15-1.35,0-1.99.05l-.22,1.34-1.95.21c-.48,1.18.1,2.29-1.64,2.32-.02,1.55.11,2.83-.5,4.29,1.53.19,3.38.44,4.91.49s3.92-.46,5.42-.84c.63-.16,1.41-.89,2.08-1.03.75-.16,1.58.08,2.33-.26l.16-1.2c.67.09,1.16-.58,1.59-.69,1.28-.33,1.86.55,2.21-1.39.57-.22,1.18-.01,1.76-.16.67-.17,1.63-1.26,2.22-1.38.9-.17,1.73.37,2.52.14.21-.06,3.66-2.04,3.83-2.18.72-.64-.34-1.7,2.23-1.11,1.27-.71,2.84-2.05,4.03-2.7s3.35-.65,3.65-2.23c.56-.45,3.3-1.54,3.55-1.84.38-.45.17-1.28.21-1.82.59-.06,1.4.16,1.93-.11.42-.21.39-.8.62-1.06,1.32-1.47,2.49-.52,3.82-1.7.57.29.21,1.1.39,1.4.16.27,2.59.14,3.2,1.24.3.54.15,2.16-.16,2.71-.42.73-1.77,1.1-2.12,1.48-.32.35-.15.9-.48,1.2-.11.1-2.48,1.42-2.62,1.46-.6.16-1.59-.43-2.42.23-.32.26-.02.61-.14.84-.25.5-.79,1.21-1.05,1.8l-2.16-.13c.06,1.99.34,2.65-1.46,3.69-.28.16-.75.11-.94.26-.32.24-.16.8-.36,1.09s-1.18.21-1.32,1.33c-.09.73.76,1.55.12,1.77-.73.25-.56-.49-1-.67-1.09-.45-2.32-.11-3.44-.05.22,1.44,2.06.74,2.95,1.01.53.15.7,1.01,1.49.93.58-.06.48-.67.77-.74.82-.2,1.94-.58,2.6-.7.52-.1,1.18.11,1.64-.05.34-.12.31-.67.54-.71.47-.08,2.4.94,2.13-.47l-.97-.71c.41-.34,1.7-.71,1.98-1.01s.15-.89.55-1.25c.3-.26,3.54-2.05,4-2.23.42-.17,1.19,0,1.59-.27.25-.18.09-.75.69-1.05,1.07-.54,2.33.83,3.4.54.24-.07.51-.38.14-.59l-1.2-.35c1.08.12,1.84-1.06,2.4-1.32.7-.32,1.57,0,2.27-.13.52-.1.67-.57,1.01-.67.61-.18,1.45.08,2.09-.26.36-.26-.03-.95.17-1.19.08-.09,1.82-.74,2.1-.9.45-.25,1.54-1.14,1.88-1.24,1.07-.31,3.4.52,4.93.13.09-.02,1.55-.72,1.62-.78.35-.3.16-1,.46-1.22.32-.23,1.36-.02,1.95-.21s1.25-1.14,1.85-1.29,1.07.24,1.49.08c.16-.06,2.77-1.59,2.9-1.69.34-.26-.03-.7.2-.97.19-.23,1.77-.99,1.95-.82.1,1.17,1.42,2.19,2.54,2.38.53.09,1.86-.19,2,.4l-.22.81c.82.51,1.77.36,2.65.6.42.11.64.63,1.3.63.56,0,.96-.43,1.46-.49.87-.1,2.99-.14,3.83-.03.3.04,1.87,1.93,1.41,0l-1.06-.22c-.07-.31.45-.38.66-.42,1.23-.19,2.54.1,3.72-.12s2.88-1.65,3.9-1.85c1.36-.26,2.89.38,4.28.26l.36.37.06,1.01,2.93,1.21c.1.84,1.33,1.37,1.48,1.68.12.25-.32,1.59-.09,2.26.18.51,1.04.29,1.17.87-.87.04-2.25.11-3.03.46-.61.27-.58.88-1.18.99-1.29.25-1.36-.76-1.97-.93-1.38-.4-1.66,1.74-.08,1.65v.71c-.48-.09-1.81.55-2.15.84-.36.31-.13.88-.49,1.19-.24.21-1.97,1.18-2.42,1.43-.83.47-1.07-.24-1.15,1.46l-2.18.11c.41,1.97-.88,2.27-2.16,3.24,1.7,2.06.24,2.74-1.67,3.48l.1.72c.25.34,1.71.31,2.12.18,1.2-.37.21-.4,1.98-.42s1.59-1.21,2.19-1.41c.78-.27,2.26.25,3.04-.26.31-.2.26-.72.52-.97.29-.29,2.15-1.15,2.23-1.25.14-.18-.01-.65.16-.91.07-.1,1.63-.95,2.03-1.33.35-.33.33-.78.67-1.07,1.03-.92,2.05-.49,3.02-.76.39-.11,1.56-1.09,2-1.37l1.35.67c.94-.6,1.77-.82,2.09-2.01l2.17-.11c-.45-1.46,1.43-1.87,2.53-2.38l.1-1.7,2.16-.12c.56-.29.31-.93.64-1.34,1.02-1.28,5.81-2.9,7.2-4.25,1.51-.21,3.27-.35,4.7-.57.65-.1,1.36-1.16,2.26-1.34,1.88-.38,3.28-.57,5.21-.79.45-.05.86-.47,1.22-.47.45,0,.63.56,1,.67.69.21,1.65-.18,2.33.3.48.33.41.98.75,1.41.41.52,1.37.63,1.66.98.24.29.19.89.49,1.19.27.28.95.24,1.07.63l-.2,1.36c.18.7,1.12.6,1.17.65.1.11-.39.59-.03,1.08.44.61,1.5.64,2.19.59-.6,1.61,1.7,1.76,2.11,2.45.14.24.12,2.12-.05,2.36-.58.48-1.47.08-2.13.23-.2.04-.18.4-.33.48-1.7.9-.66.37-1.39,1.44-.19.27-1.72.81-2.03,1.08-.36.31-.13.88-.49,1.19-.57.5-2.9,1.7-3.77,2.23-.26.16-.92.21-.99.33-.19.28.07,1.5-.03,2.01s-1.47,1.15-2.05,1.34l-.96-.98-.59.59,1.16.64.04.92c-1.58.43-.61-1.52-2.17-.85-.27.19-.31.67-.21.95.2.57,1.18.08.94.86-.73-.19-2.5,1.39-2.8,1.4-.43.02-.7-.56-1.11-.73-.82-.36-2.03-.49-2.87-.17-.24.09-.2.4-.47.54-.43.22-1.66.06-1.27.89.66,1.25,2.8-.66,2.76.36-.02.51-2.94,1.33-2.66,2.48-.63.55-2.38-1.35-3.58-.57-.2.13-.21.97-.7.6-.03-.02-.04-.45-.38-.69-.97-.68-1.78.21-1.06.81.48.4,1.28.08,1.39.16.17.12.15.71.69.88s1.21,0,1.75.05c-.32.86-1.24,1.01-1.81,1.43-.65.48-.51,1.36-2.13.98l-.53-.96-3.45.23c-.33,1.56,2.66,2.5,3.24.96,1.11.11-.81,1.32-.97,1.68l-.38,4.64-1.31.87c.64,1.96-.81,1.52-1.19,2.15-.3.49.03,1.43-.15,1.65-.35.41-2.34.46-2.5,1.94-.03.33.69.78,0,.96-1.05.28-1.98-1.13-3.22-.71-.28.88.75.86.92,1.35.57,1.62-.5,2.67-1.56,3.64l-2.72.28c-.29.33.88,1.33.12,1.44-.98.13-2.06-1.41-3.24-.96-.25,1.4,1.33,1.69,2.4,1.92l-2.16.95c.56-1.06-1.06-1.87-1.93-1.32-.96.61,1.71,2,1.44,2.64-.11.36-2.91,1.53-3.41,1.82-.26.15-1.33.76-1.39.82-.31.27-.16.8-.36,1.08-.49.72-2.55.75-2.44,2.73.08,1.5,3.42.48,4.38.41,1.03-.08,1.51.78,2.25-.87,1.37.2,3.18-.7,2.98,1.34.58.88,2.51-1.12,3.39-1.21,1.47-.15,3.97.5,5.75.25.89-.12,1.14-.62,2.4-.51.93.08,1.04.48,1.73.67,1.92.55,5.44.83,7.36.53.66-.1.94-.62,1.68-.72,1.25-.16,2.45.41,3.59.24.67-.1,1.11-.61,1.93-.71,2.08-.26,4.93.58,7.22.26,2.01-.28,3.04-.53,5.26-.49s1.94-.28,3.6-.49c1.75-.22,3.62.51,5.27.23.75-.13.96-.67,1.92-.73,4.71-.27,11.39.79,16.31.99,2.79.11,4.73.26,7.32-.38,1.86-.46,3.64.3,5.42.38,3.47.15,8.67.59,12,.44.46-.02.8-.45,1.19-.44,1.05.03,2.36.62,4.08.47,4.72-.41,12.6-.61,17.27.25.55.1.95.72,1.45.7.29-.01.74-.41,1.42-.49,4.11-.44,9.47.69,13.7.51,1.69-1.19,3.43-.14,5.26-.49.58-.11.68-.69,1.44-.74,1.31-.09,1.93,1.44,3.55.93.36-.11.52-.61,1.02-.68,1.3-.18,4.24.44,6,.26,4.44-.45,7.38.11,11.52-.04.59-.02.88-.57,1.44-.68.63-.12,5.03,0,5.35.27.15.12.09,1.18.88,1.17.48,0,.61-.65.99-.94,1.98-1.48,1.71-.1,2.59-.05.57.03,1.22-.63,1.92-.72,1.75-.23,4.46.54,6.5.26.8-.11.94-.69,1.43-.74.86-.08,2.39.48,3.59.24.52-.1.66-.56,1.01-.67.68-.21,5.89.22,7.11.28,2.41.12,4.82.28,7.24.39.82.06.77,1.01.12,1.33-.57.28-1.46-.23-2.26-.12s-1.23.89-1.92.92c-1.15.05-2.65-.95-3.32-.88-.77.07-.73.84-1.12,1.04-1.21.6-2.99-.36-4.21-.38-.75-.01-1.41.31-2.15.27-.67-.04-1.36-.55-1.92-.49-.45.05-.72.52-1.06.6-.36.09-1.01-.19-1.57-.11-.41.06-.77.41-1.02.44-.42.04-.62-.62-1.17-.7-.71-.1-1.18.6-2.15.51-.88-.08-2.31-1.92-2.52.22-.83-.08-1.92-.62-2.74-.48-.63.1-.78.72-1.08.83s-1.03-.21-1.56-.12c-.5.09-.71.61-.96.64-1.35.16-3.19-.48-4.39-.82-1.91-.53-2.16,1.07-3.3,1.17-.61.05-1.14-.25-1.68-.26-3.25-.08-5.47-.38-8.65.22-1.54.29-1.8-.64-2.33-.65-1.14-.02-3.67.24-4.84.44-1.27.22-1.8.98-3.33.64-.51-.11-1-.65-1.49-.65-.4,0-.77.41-1.21.45-1.46.15-3.07-.09-4.55.01-2.32.16-3.82.79-6.47.24-.54-.11-.67-.56-1.01-.67-1.97-.58-3.04.32-4.75.43-1.13.07-2.54-.32-3.34-.24s-1.01.84-2.43.74c-1.02-.07-.92-.47-1.49-.68-.99-.36-2.97-.45-4-.29-.64.1-1.25.67-1.9.63-.79-.04-1.14-.77-1.72-.88-1.56-.3-3.98.17-5.52,0-.64-.07-1.08-.49-1.67-.5-.84-.01-1.32.6-1.94.72-1.66.3-3.49-.36-5.02-.23-1.17.1-2.85,1.44-3.72.25l1.44-.72c-1.21-.69-1.61.31-2.53.46-1.65.27-2.72-.34-3.87-.42-.28-.02-1.04.56-1.66.65-2.32.34-6.36-.28-8.9-.37s-4.85-.13-7.39-.35c-2.93-.25-5.92.81-8.63.49-.64-.07-.81-.8-1.2-.86-.59-.09-1.45.48-1.92.51-3.04.19-7.05-.12-10.07.37-.6.1-1.07.6-1.51.66-.51.07-1.18-.26-1.87-.21-.83.07-1.1.61-1.69.72-.67.12-1.47-.11-2.14.02-.52.1-.83.6-1.26.67-.93.15-3.2-.38-4.52-.21-.71.09-1.03.62-1.45.67-1.36.16-4.07-.44-5.51-.39-.68.03-.96.74-2.15.71-.5-.01-2.29-.23-2.82-.31-.62-.09-1.58-.68-2.19-.6-.94.11-1.32,1.54-2.7-.29-.94.8-2.32.94-3.52.66-.48-.11-.86-.67-1.25-.67-.28,0-.66.42-1.19.49-1.73.24-3.77-.42-5.29-.26-.85.09-1.13.63-1.9.74-1.72.25-3.73-.51-5.54-.26-.81.11-.9.69-1.66.76-1.49.12-3.74-.51-5.53-.27-.71.09-1.03.62-1.45.67-.55.06-3.03-.73-2.98.42,1.14,1.35-.73,1.69-1.07,2.29-.22.39-.04.95-.34,1.34-.41.54-1.55.2-2.03.55-.3.22-.3,1.42-1.57,1.24l-.05,1.15c-.44.23-1.01.18-1.46.35-.31.12-2.13,1.88-2.23,2.08-.17.38-.05.91-.24,1.2-.2.3-2.18.99-2.42,1.43-.42.8.93,1.64-1.28,1.95l-.05,1.15-1.15.29-.06,1.14c-2.09.24-2.66,2.89-4.75,2.92.33,1.56-.76,1.27-1.15,1.73-.16.19-.08.63-.4.91-.25.22-.83.22-.99.45-.24.36-.01,1.09-.12,1.2-.07.07-.65-.05-.95.13-.36.21-.3.9-.64,1.11-.52.32-2.52.47-3.09,1.17-.47.58.8.75.85,1.2-.59.03-1.49-.11-2,.22-.29.19-.29.78-.64,1.1-.25.23-.81.26-.91.41-.13.2.01.65-.16.91-.18.27-.8.23-1.1.59-.2.23-.2.66-.48.96-.98,1.04-2.52.63-2.17,2.27l-1.15.29-.05,1.15c-.47,0-2.33.94-2.5,1.22-.37.61.17,1.6-.34,2.3-.37.5-1.77,1.1-2.3,1.54-.78.65-1.29,1.59-1.91,2.16-.79.73-2.23,1.53-3.01,2.5-.69.86-.67,2.56-1.07,3.01-.13.15-2.29,1.1-2.76,1.56-.43.42-.31,1.18-.61,1.55-.39.46-2.37,1.25-2.75,1.57-.43.36-.3,1.19-.61,1.55s-1,.28-1.26.54c-.28.27-.27,1.23-.66,1.62-.44.45-2.66,1.43-2.87,1.69-.28.33-.21,1.1-.49,1.43-.32.38-1,.28-1.26.54-.28.27-.27,1.23-.66,1.62-.29.29-.88.31-1.22.7-.4.46-.27,1.11-.68,1.48-.33.3-.97.27-1.36.82-.24.34-.23,1.63-.44,1.93-.36.52-1.04.52-1.34.83-.37.39-.25,1.07-.49,1.43-.31.47-1.09.33-1.43.73-.42.5-.42,2.04-.83,2.53-.08.09-1.81,1.37-1.93,1.41-.29.1-.86-.18-1.32-.12-.98.14-.79,1.27-1.32,1.82-.37.37-.96.34-1.33.82-.29.37-.3,1.01-.58,1.33-.32.36-.91.33-1.23.69-.3.34-.28.97-.59,1.33-.36.42-1.36,1.36-1.91,1.93-1.33,1.4-2.26,1.64-4.21,1.43-.39-.92,1.33-1.24,1.2-1.79l-1.68-.6c-.34-.33,1.61-3.53-1.2-2.74-.55-.36-.07-2.14.49-2.43s2.2.73,2.76-.34c.78-1.49-1.33-1.22-2.28-.96v-.95c1.09.13,2.4-.54,3-1.46.5-.77.34-3.71,1.44-3.83,1.84-.19-.08,1.5-.24,1.94-.44,1.25.73,1.31.81,1.82.05.29-.51.61-.47,1.15.09,1.29,1.9.9,2.41.01l-.92-1.16c.8-.67.32-2.8,1.64-2.16l.4,1.01c.51.02,1.86.21,2.14-.19,1.05-1.5-1.89-1.5-1.99-2.78l2.68-4.45c.46-.36,1.01-.34,1.34.15-.48.78-1.01,2.06.33,1.96s.97-2.48,1.41-2.99c.26-.3,1.36-.18,1.59-.94.26-.85-.41-1.17-.47-1.87-.1-1.36,1.17-2.03,2.06-2.75.55.4.34,1.08.36,1.67,1.06.44,2.11-1.57,2.11-2.33,0-.53-1.11-.89-.56-1.75.38-.6.88.41,1.63.21.89-.24,1.02-1.76,1.17-1.85.43-.28,1.71.35,2.63-.38.65-.51.11-.94.25-1.63s1.07-1.29.68-2.34c2.5.45,3.18-.82,3.12-3.12h2.15s.24,1.09.24,1.09h.74s.47-.96.47-.96c-.11-.45-1.21-.17-.96-.72.28-.63,2.29-.19,2.41-.75.29-1.36-1.66-1.2-1.69-1.65.62-.7.79-1.32.74-2.25.88.02,2.93-1.88,3.55-1.45l.26.94c2.73-.3-.37-1.89,0-2.39l1.2-.24-.42-1.08,1.38-2.4c1.78-.45,2.24-1.27,4.22-.37.73.33.95,1.09,1.78.98l.48-2.88c-1.51.09-2.37.86-3.97.49-.42-.1-.7.22-.59-.49.86.16,2.75-.26,3.37-.84.42-.39-.08-.93.24-1.41.26-.4.88-.51,1.07-.88.14-.28.05-.77.16-.91.12-.15,1.04-.09,1.28-.52.21-.37,0-.98.15-1.16.32-.4,3.8-1.53,3.08.44,1.02.16,1.62-.84,2.53-1.19.34-1.47-2.12-.47-2.29-1.09-.24-.92,2.64-1.41,1.2-2.87l.38-.33,2.03-.13c.46-.32.03-1.37.33-1.82.13-.19,1.81-.89,2.17-1.18.43-.34,1.09-1.42,1.57-1.79.26-.2.75-.09,1.07-.37.62-.56.12-1.56.22-1.7.23-.3,2.2-.97,2.42-1.42.27-.53-.03-1.35.15-1.65.07-.11,2.05-.84,2.29-1.06.94-.84,1.08-1.14,2.35-2.09.33-.24.39-.79.89-1.03,1.22-.58,1.95.42,2.35.18.6-.37-.32-1.08-.47-1.44.02-.47,1.73-.17,1.88-.99.06-.31-.54-1.29-.79-1.54-.94-.95-4.82-.6-6.26-.7-3.18-.2-5.25-.24-8.2-1.15-2.17-.67-2.29.17-3.8.41-.95.15-2.05-.17-3,.12s-1.13,1.48-1.79,1.58c-.9.14-1.57-.74-2.16-.73-.5.01-.67.75-1.43.74-.7,0-1.38-.82-2.6-.52-.54,1.84-2.16,1-3.62,1.22-.6.09-1.19.61-1.75.65-.8.07-1.7-.5-2.59.27l-.58-1.07c-1.68-.58-.95.94-1.08,1.11-.19.26-.79.19-1.08.36-.32.19-.58.7-.85.74-.52.06-2.61-.5-3.55-.35s-2.1,1.49-2.93,1.41c-.68-.07-.84-1.05-1.68-.98-1,.09-.71,1.32-1.08,1.58-.08.06-1.68.5-1.87.53-.72.12-1.45-.05-2.09.07-.51.09-.83.6-1.26.67-.72.12-2.23-.4-3.31-.19-.65.13-1.84,1.37-2.63,1.41-1.3.05-4.05-2.4-3.97.27-.77.18-.41-.78-.83-1.21-.32-.33-3.45-.33-4.1-.25-.53.07-.91.49-1.19.49-.5,0-1.56-.99-3.37-.73-.53.08-.92.49-1.19.5-.43,0-.64-.61-1.2-.72-1.28-.25-3.3.07-4.75-.29-1.2-.3-3.04-1.29-4.43-1.57-1.48-.3-3.25-.07-4.49-.3-1.09-.21-1.32-1.4-3.6-.95-.6.12-.71.76-1.42.72-.56-.03-1.47-.77-2.24-.91-.68-.12-1.47.07-2.06-.1-.46-.14-.59-.78-1.25-.91-1.49-.29-9.65-.69-11.02-.47-.64.1-1.13.65-1.68.67-1.88.06-4.66-.53-6.49-.46-.81.03-1.09.61-1.69.73-1.51.29-3.12-.4-4.56-.24s-3.62,1.46-4.55-.47h-.35c-.38,1.87-2.95.56-4.18.72-.66.08-1,.7-1.7.74-1.04.06-1.6-1.17-2.87-.99-.49.07-1.93,1.3-2.66,1.44s-1.64-.12-2.38.02c-.55.1-.86.67-1.41.65-.88-.04-1.24-1.05-2.19-.91-.51.08-.68.64-1.22.73-.81.14-1.47-.35-2.29-.15-.48.12-.33.59-.81.64s-1.94.06-2.36-.07c-.48-.14-.72-.92-1.25-.92-.41,0-.64.64-1.43.74-.57.08-5-.12-5.48-.25-.3-.08-.24-1.17-1.6-.6s-.59.2-1.79.34c-.5.06-.64.64-1.44.74-.58.08-2.28.06-2.84-.06-1.08-.25-1.13-1.38-3.11-.85-1.58.42-.73.45-2.7.42-2.15-.03-3.1.22-5.02.49-2.1.29-4.9-.61-6.73-.25-.52.1-.67.56-1.01.67-.59.18-1.81-.18-2.13.28l.14.96c-1.18-.13-1.33,1.32-1.68,1.56-.28.19-.9.06-1.1.34-.21.3-.01.99-.22,1.45-.04.09-.9,1.59-.96,1.68-.2.29-.83.27-1.11.59-.22.25.15.71-.2.97-.26.2-.77.17-1.07.39-.61.44-.54.97-1.72,1.15-1.36.21-.88-.32-1.44-.68-1.71-1.11-2.57,1.69.35,1.21.55,1,.31,2.01-1,1.6-.32-.1-.49-.53-.82-.63-1.06-.33-1.7.56-2.7.69v.69s.95.38.95.38c.15.53-.43.33-.61.59-.16.23.19.69-.09.85-.48.27-2.22.59-2.88.97-.75.43-1.22,1.44-2.36,1.71-1.83.44-1.47-.61-2.2-.8-.94-.24-2.1.7-2.66-.33.71.13,1.03-.64,1.57-.73.63-.1,1.27.32,1.63.27.2-.03.26-.54.51-.74,1.16-.95,3-1.41,4.45-1.68l-.96-1.19c.74-.02,1.38.15,2.05-.23,1.51-.86.14-1.7.35-1.93,2.48.16,2.1-2.03,3.72-3.12.7-.47,1.47-.43,1.9-.73.4-.28.34-.78.62-1.06.39-.39,1.51-.19.84-1.32-.14-.23-1.07-.59-1.07-.84-.01-.73,2.07.37,2.76-.6-1.17-1.88.78-1.91,1.68-2.86.35-.37.45-.97.65-1.15.99-.94,2.89.13,4.02-.78l.22,1.1c2.26.49,1.73-1.5-.22-1.46.02-1,2.3-.32,1.58-1.57-.18-.25-1.19-.3-1.57-.35-.49-.05-1.5.31-1.68-.36.4.04,2.15-.76,2.29-.95.31-.47-.12-1.45.25-1.71l1.78-.45-.96,1.08c1,1.82,4.29-.78,1.44-1.32v-.35c1.03-.58,1.07-2.06,2.16-2.29v-.47s-.72-.6-.72-.6c1.93-.63.8-1.74,1.42-3.13.34-.24,2.69.05,3.19.19.18.05,2.36,1.04,2.47,1.13.49.4.54,1.37,1.55,1.21.16.78-.99.59-1.17,1.11-.43,1.21.94,1.8,1.96,1.48.1-.03,1.65-1.08,1.73-1.16.59-.61.02-2.08,1.32-2.16v-.35s-.95-.72-.95-.72c.21-.39.91-.32,1.09-.59.25-.38-.06-1.1.32-1.59.27-.35,1.75-.76,2.16-1.44.31-.52.16-1.25.37-1.55.28-.4,1.27.1.75-.96l-.85-.34c.53-.67,1.4-1.03,2.24-.84.07.02.68,1.18,1.12.12.23-.56-.87-.37-.97-.76-.07-.31.16-1.92.32-2.17.09-.14.55-.29.79-.53s.33-.67.6-.84c.48-.31,1.79-.24,2.04-.6l.33-1.82,2.65-.35c-.71-.97-.9-1.86.56-1.91.66-1.36-1.45-.9-2.33-.97l-.54,1.17c-1.21-.43-2.02.66-2.63.76-1.01.17-2.67-.8-3.78.22-.25.23-.15.6-.55.95-1.64,1.46-6.57,3.47-8.65,4.55-1.1.57-4.86,2.92-5.53,3.1-1.17.33-2.18-.49-2.25,1.47l-3.12.12c-.06,1.37-1,1.23-1.36,1.64-.13.15-.08.53-.3.76-.84.86-3.64,1.76-4.79,2.17-2.39.85-3.9,2.35-6.07,3.53-1.74.95-2.38.95-4.08,1.42-.14.04-2.28,1.26-2.45,1.39-.47.36-1.26,2.33-1.54,2.52-.4.27-1.23,0-1.76.16-1.49.44-3.92,2.68-5.46,3.18-.78.25-1.89-.12-2.27.62-.12.24.17.65-.1.83-1.04.68-2.6-.12-3.14.23-.71.7.54.76.73,1.32l-1.94.11c-.14,1.64-1.59,1.55-2.6,2.2-.62.4-1.15.98-1.72,1.4-1.1.8-2.09.62-2.15,2.53-.61.11-.76-.73-1.32-.73-.11,0-1.62.97-1.8,1.1-.31.23,0,.76-.29,1s-2.34.96-2.34,1.14l.95.6c.27.39-2.03,1.7-2.39,1.81-.67.2-1.3,0-1.94.22v1.09c-1.07.6-1.11-.55-2.15-.48-.3.77,1.22.56.84.96-.76.79-2.63,1.22-3.38,1.9-.38.35-.69,1.42-1.55,1.82-.68.31-1.86-.25-3.13.93-.4.37-.35.84-.52,1.03-.22.25-.8.19-1.02.55-.16.27-.01.63-.28.97-.45.57-2.53,1.34-3.23,1.76l.03,1.09c-1.07-.03-1.96.99-2.82,1.38-.35.16-.83-.04-1.4.28-.95.53-2.57,2.86-3.23,3.25-.82.49-.87-.49-1.18,1.46-.48.22-1.04,0-1.53.15-.55.16-.59.96-1.04,1.11-.53.18-1.39-.08-1.97.31l-.04,1.16c-1.48-.24-.93.77-1.43,1.33-.32.36-1.84.78-2.04,1.08-.53.79-.97,1.58-1.64,2.32-.46.5-1.35.47-.88,1.51-1.52-.05-1.15.75-1.57,1.43-.19.31-.78.39-.95.73-.28.57-.27,2.86-.21,3.61-1.87.52-1.13,1.68.06,2.5-.93.98-.18,2.39-.42,3.56-.27.35-2.71,1.31-3.14,1.72-.33.32-.21.84-.48,1.2-1.21,1.67-3.67,1.76-1.22,4.07-.16.41-1.05.48-1.15.64-.13.21.05.65-.08.87s-1.33.36-1.41.68c-.36,1.46,1.14,1.34,1.22,1.68.16.65-.26,1.87.11,2.48.11.19,2.94,2.38,3.25,2.52.83.38,3-.58,2.39-1.8.72.04,1.69.09,2.23-.47.24-.25.2-.6.56-.94.46-.44,1.73-.74,1.9-.99.19-.28.04-.87.35-1.09.47-.34,2.19-.76,2.74-1.09.5-.3.62-.91.87-1.07s1.06.18,1.55.15c.37-.02,3.51-2.04,3.72-2.3.38-.48.23-1.33.97-1.67.99-.45,1.34.41,2.27.38.64-.02,1.15-.54,1.8-.51v-.7s-.96-.26-.96-.26c.27-1.29,2.47-.11,3.85-.58.78-.26.67-1.06,1.3-1.58.14-.11,2.45-1.44,2.6-1.49,1.19-.38,1.55.86,2.7-.18,1.34-1.21-2-1.16-2.19-1.43.09-.75.01-1.86.14-2.53s1.6-1.06,1.2-2.28c.97-.11,1.73.45,2.52.9l.83-.8-.95-.94,1.19-.72c-1.31-.81-1.4-.78-1.16-2.49,1.14.06.96-.95,1.42-1.34.23-.2.74-.18.97-.47.29-.36.16-1.02.23-1.09.33-.33,2.55.49,3.11-.13.32-.35.14-.82.28-1.03.13-.19.81-.16,1.03-.54.16-.27.04-.73.16-.9.16-.24,1.03-.19,1.13-.32.12-.15-.04-.71.07-1,.23-.65,2.3-.98,2.96-.91.6.06.37.92,1.19.74,1.11-.25-.84-1.01-.84-1.09l.61-2.74c.63-.3.11,1.08,1.19.98.26-.02,1.87-.87,1.95-.97.2-.26-.4-.92.22-1.2.34-.07.87.77,1.49.91,2.09.48,2.58-1.17.31-1.15-.09-.96,1.09-.88,1.51-1.19.25-.19,1.26-1.43,1.49-1.44,1.12-.05-.77,1.81-1.32,1.68.97,1.8,5.48-1.35,2.44-1.96l-.04-1.16,1.93.13v-1.33c1.66-.04,2.85-2.23,4.25-2.58.53-.13,1.43.07,1.76-.16s.08-1.59,1.66-1.96c.69-.16,1,.81,1.82.86.72.04,1.54-.79,1.9-.72.66.14-.11,1.82.37,2.4-.66.26-1.31-.13-1.98.05-.3.08-.56.45-.89.56-.68.21-3.09.62-3.13,1.43-.03.52.59,1.22-.4,1.51-1.56.47-2.43-1.13-3.91-.55l-.42.73,1.13,1.19c-.71.92-1.49-.53-2.36.15.28,2.29-1.65,2.86-3.39,3.56-.15.71,1.39.73.48,1.32-.25.16-.96-.16-1.5-.09-1.19.17-1.96.86-1.62,2.12-1.06-.03-.94-1.16-2.4-.72.46,1.3-.26,1.06-.84,1.68-.28.3-.44.73-.72.96-1.43,1.17-3.29,1.57-4.6,2.85l-.56-.08-.59-.84c-2.21,1.25.9.75.2,2.33-.06.14-1.68,1.29-1.99,1.63-.47.52-.36,1.5-1.45,1.3-.08-1.11.54-1,.96-1.79-.41-.49-1.34-.85-1.92-.48-.08.05-1.33,1.38-1.2,1.55.41.08,1.81,1.12,1.89,1.36.06.18-.01,1.91-.08,1.99-.29.37-1.2.36-1.3.51-.16.25.11.93-.06,1.14-.08.1-.8.01-1.05.51-.43.83.38,2.25-.72,2.88l-.39-1.16-1.89.21c.97,1.37,1.83,1.63,1.44,3.59-.6.05-1.38-.15-1.93.12-.3.15-.35.62-.54.77-.28.23-.85.26-1.02.54-.23.39.05.99-.25,1.23s-1.13-.09-1.6.01c-.51.11-.75.6-1.49.69-1.23.16-2.34-.49-3.5-.14-.5.32.07.98-.02,1.4-.22,1.01-2.29.56-3.08.65l.67,1.32c-.32.68-1.03.51-1.62.73-.29.11-.51.44-.91.53-1.06.24-2.34-.19-3.43.29l.47.84-.23.24c-1.01.08-1.95,1.02-2.83,1.25-1.09.29-2.62-.35-2.46,1.49-2.86-.61-1.82,1.72-2.19,2.13-.07.08-.49.04-.65.17-.32.25-.59.6-.91.78-.59.35-3.02,1.22-3.11,1.82-.05.32.34.94.11,1.3-.06.09-1.68.86-1.97.77-.52-1.36-3.79-2.46-4.36-3.38-.38-.61.45-1.27-.1-1.8s-1.58-.2-1.94-.46c-.26-.18-.17-.78-.36-1.08-.24-.39-1.91-1.26-2.01-1.59-.27-.79,1.32-1.11,1.37-1.65,0-.6-.88-.83-1.02-1.07-.09-.15.22-1.26.12-1.8s-.77-.81-.7-1.17c.06-.34,1.18-1.27,1.66-1.11l-.49-1.31.5-.24-.49-1.18c.24-.69,2.06-.78,2.15-.86.2-.2.1-1.84-.7-1.68v-.34c.46-.33.69-1,1.07-1.33,1.27-1.11,3.9-1.12,1.09-3.47l1.17-.75c.15-.87.05-2.52.31-3.29.16-.46.95-.49,1.11-1.04.42-1.36-.57-2.71,1.16-3.88,1.23-.83.95-.91,1.63-1.49.26-.22.79-.19.98-.46.17-.25.07-.72.24-.96.2-.28.77-.2.96-.48s.02-.78.36-1.08c.29-.26,1.9-.85,2.04-1.07.29-.43-.07-1.26.22-1.7.25-.37,2.18-.88,2.26-.98.14-.17-.1-.82.14-1.18.3-.46,3.65-1.78,4.39-2.09.84-.35,3.59-1.12,4.23-1.52.52-.33.59-1.31,1.56-1.19l-.22-1.18c.96-.11,1.83-.54,2.51-1.22.24-.24.25-.72.43-.89.29-.27.98-.19,1.1-.34.14-.17-.08-.74.39-1.17.63-.58,3.34-1.84,4.27-2.4.46-.27,1.39-1.31,1.94-1.16.41.11.91,1.09,1.85.69-.06-.67-.28-2.08.12-2.64.19-.27.77-.19.97-.47s.02-.79.36-1.08c.21-.18.72-.16.99-.47.14-.15.19-2.5.96-.17l1,.04.4-.96-.82-.23-.14-.49c1.24-.05,1.11-1.47,2.52-1.46.93,0,3.21,1.62,2.97-.68l-.93-.39c1.34-1.21,3.02-.86,4.44-1.79l-.37-1.21,1.92-.24-.24-.95c1.5-.15,1.98,1.64,3.6,1.2v-2.4c.52-.15,1.24.3,1.67.13.61-.25.88-1.44,1.01-1.52.64-.42,2.22.35,2.26-1.51,1.93-.06,2.35.03,2.36-2.15.46-.29.95-.2,1.48-.44.8-.37,1.46-1.97,2.58-1.71.16.04.57,1.2,1.6.74l-.24-1.44c1.52.36,2.13-1.51,3.13-2.27.68-.52,1.7-.56,2.31-1.3l.43-.02c.44.79.64.82,1.57.71l-.96-1.07c1.22-.68,1.17.02,1.34-1.59l3.94-.21c.14-.75-.73-.26-.48-1.2.63-.06,1.39.13,1.99-.05.95-.28,2.8-2.01,2.97-2.06.23-.07,3.36.15,2.84-.52-2.48-2.02.53-1.43,1.54-1.81s1.12-1.94,2.6-2.22c.58-.11.88.42,1.33.38.26-.02,3.99-1.96,4.17-2.17.2-.24.04-.69.56-1,.72-.43,2.25-.78,3.1-.86l.04-1.16c1.08-.16,1.82-1.08,2.79-1.4,1.98-.66,4.04-1.44,6.03-2.37,1.1-.52,3.65-2.27,4.53-2.44.59-.12,1.12.32,1.57.17.36-.12.4-.67.64-.82.39-.24,1.59-.11,2.4-.48.59-.27,1-.93,1.37-1.04.92-.28,2.06.58,3.05-.02.34-.25-.01-.88.18-1.19.04-.06,1.25-.71,1.33-.73.44-.07.7.99,1.82.65,1.36-.71,4.12-2.98,5.56-3.03s1.24.74,2.17-1l.36.12c.23.9.9.58,1.67.6-.68-1.73,2-1.76,2.36-2.2.13-.16-.05-.66.28-1.04.89-1.02,3.65-.81,3.84-1.08-.09-.7-.9-1.08-.24-1.8.05-.06,1.28-.76,1.38-.78,1.26-.31,4.32.05,2.7-2.21.05-.08,1.39-.83,1.57-.96.24-.18.26-.56.52-.73.82-.53,2.49-.51,2.08-1.67,1.02,0,2.11-2.06,2.59-2.34.43-.24,1.54.18,2.22-.31.4-.29.29-.79.53-.96.34-.25,1.46-.21,1.71-.51s.15-1.51.52-1.76c.45-.31,1.45.18,1.96-.44.96-1.18-1.26-2.53-2.42-2.06-.45,1.01,1.23.81.96,1.31-.18.33-1.64.96-1.92.6.47-.81-.13-1.72-1.05-1.42-.75.24-.17,1.76-.42,2.11-.08.11-1.98.78-2.36,1.11-.36.32-.17.99-.47,1.21-.35.26-1.25,0-1.77.15-.41.12-.48.64-1.24.69-2.03.14-2.69-1.62-3.65-1.89-.47-.14-.97.04-1.51-.17-.21-.08-2.29-1.69-2.43-1.9-.28-.41.18-1.15.04-1.66l-1.11-.63.12-1.53c-2.07-.81-.82-1.68-.95-2.9-.03-.31-.39-.56-.39-.73,0-.18.53-.58.41-1.16-.03-.17-.66-.29-.94-.81-.4-.76.21-1.94-.08-2.78-.17-.48-1.08-.4-.93-1.23.1-.58,3.19-1.03,2.41-2.52.42,0,.85.05,1.27-.05,2.36-.59.61-1.57,1.49-2.82h3.84c.68,0,.52-1.67.7-1.93.2-.28,2.23-.32.91-1.12-.56-.34-.99-.17-.75-1.24l1.53-.76c.8.54,1.1,1.34,2.28,1.21l-.24-1.2,1.2-.36-.72-1.07c1.71-.5,2.41-2.16,4.32-2.16l-.72-1.43c1.08-.65,1.12-.12,1.81-.01,1.04.17,1.62-.17,1.07-1.19h4.32ZM243.95,19.36c.16-.15.22-1.75.16-1.87-.26-.64-3.37-.58-4.08-.48-.54.08-.81.42-1.2.48-1.1.18-2.37-.26-3.43.29l-.26,1.3-1.22.1.21,1.89c-1.25.47-2.63,1.18-3.79,1.85-.61.35-4.16,2.4-4.35,2.61-.31.34-.17.86-.48,1.2s-1.54.57-1.92.96c-.34.35-.3.91-.62,1.3-.28.35-1.22.67-1.27.77-.21.37.25.98.1,1.17-.25.31-2.55,1.32-3.24,2.04-.27.28-.28.81-.48.96-.39.28-1.39,0-1.99.17-.4.11-.82.69-1.37.67-.19,1.08,1.3.88.95,2.15-2.02.05-2.78,1.09-2.37,3.08,1.79,1.06,3.36-.12,5.24.03-.76-2.17,1.7-1.12,2.72-1.47.42-.14.81-1.44,1.84-1.16-.36-1.23-1.35-1.04-1.79-.02-1.65-.47.95-1.46,1.54-1.79.97-.54,1.66-.68,2.31-1.05.09-.05,1.51-1.29,1.56-1.38.22-.38.13-1.05.28-1.22.08-.1.54-.1.78-.28,1.12-.84,3.35-3.62,4.21-3.95.6-.24,1.38.03,1.82-.34.29-.24.27-.75.47-.97.27-.3.77-.23,1.05-.63.22-.31.1-.81.42-1.08,1.45-1.22,3.82-1.31,5.03-2.84.55-.1.81.95,1.15,1.2.97.71,1.63-.23,2.42-.73,0-.74-1.62-.41-1.72-1.07-.24-1.51.85-1.43,1.31-1.87ZM236,26.29c-.56.68-2.26,1.23-.28,2.17.92-.72,2.94-1.45,2.05-2.94s-1.42.34-1.77.77ZM212.27,40.56c-1.72.16-1.46,1.41.67,1.16,1.63-.19.53-1.27-.67-1.16ZM236,51.57c-.22.07-.45.31-.39.57.59.82,1.32.82,1.91,0-.36-.51-.89-.77-1.52-.57ZM285.39,58.25c-1.01-.29-3.26.21-4.44,0l.14.74,1.53.58-2.53.11c-2.15.29.22,1.78-.58,2.29-.99.55-1.56-.7-2.29-.84-1.52-.3-1.23.43-1.81.82-.64.43-1.73.27-2.61,1.23-.32.34-.33.98-.73,1.19-.6.31-3.37-.29-2.77.84.31.59,1.39.67.5,1.69-.63.73-1.69.51-2.07.81-.34.27-.13.79-.28,1.03-.08.12-2.38,1.4-2.52,1.44-1.55.46-2.2-.99-3.18-.55-.35.16-1.68,1.31-1.64,1.68.06.64,1.36.31,1.15,1.07-.95.04-1.78-.35-2.76-.25-1.17.12-2.12,1.12-3.55.68-.5-.15-1.38-1.37-1.66-1.47-.66-.24-2.52-.38-2.95-1.12-.22-.37,0-.92-.15-1.16-.1-.16-1.02-.18-1.12-.66.57-1.23-.42-.62-.97-1.45l.22-1.04c-.17-.25-2.77-.32-3.25-.26-.18.02-3.07,1.59-3.17,1.74-.17.25.06.89-.41,1.14-.71-1.07-2.79-1.15-2.04.48l-3.36.24.48,1.19c-1.9-.7-4.95.23-4.32,2.64-1.76.54-2.72-1.51-4.3-.34-.39.29-.45,1.05-1.09,1.06s-1.25-.77-1.74-.9-1.06.01-1.57-.11c-1.47-.33-3.96-2.12-5.38-2.54-.82-.24-1.92.18-2.7-.17-.12-.06-2.05-1.49-2.11-1.6-.25-.45.21-1.34-.27-2.01-1.47-2.04-5.38.86-7.04,1.63-1.87.87-3.76,1.55-5.68,2.24-1.37.49-2.63,1.87-4.1,2.14l-.24,1.33c-1.36-.09-4.13-.59-5.36-.2s.48.81.32,1.4c-1.52-.31-2.47.84-3.83,1.33-2.09.75-4.76,1.24-6.9,1.74-2.25.53-.99.33-2.37,1.22-.5.32-1.48.37-1.72.56s.06,1.19-.69,1.35c-.89.19-2.62-.72-3.98-.2l-.42,1.91c-.63-.04-.77-.6-1.54-.49-.62.09-.78.72-1.08.84-.65.25-2.37-.54-3.84.5-1,.71-.24,1.63-2.43,1.41-.19,2.13-1.61.91-2.39,1.45-.57.39-.33,1.91-2.6,1.36-.36.48-.13,1.53-.38,1.89-.15.21-.62.2-.83.38-.22.19-.28.54-.57.66-.5.2-1.02-.22-1.38.02-.74.5.57,1.23.13,1.81-1.63.49-2.31,1.94-3.33,2.8-.17.15-.54.14-.75.31-.5.42-1.37,1.51-1.98,1.64s-1.26-.79-1.62-.2c-.39.64.5.54.6.89.05.18.05.89-.04,1-.98-.02-.99.9-1.74,1.25-.51.23-1.31.19-1.61.56-.42.51-.04,1.32-.33,1.82-.35.6-1.67.6-1.29,2.24-1.73.23-.56,2.04-1.2,2.89-.21.27-.75.07-1,.25-.31.22-.16.81-.35,1.09-.37.54-2.31,1.11-3,1.08-.67.35.66.77.73,1.01.67,2.39-1.38,1.45-2.23,1.98-.25.16-.18.58-.41.83-.27.29-1.17.55-1.21.78-.25,1.3,1.23,1.78,2.24,1.47,1.36-.42,1.12-.76,3.18-.69,4.7.17,9.43.51,14.16.72.92.04,5.77.64,6.06.2.18-.27-.06-.99.53-1.28,2.2.32,4.23.33,5.89-1.3h.34c.72,1.84,1.42.49,2.1.28s1.62.08,2.34-.06c.55-.1.88-.67,1.47-.71.8-.06,1.16.73,1.9.74.55,0,1.03-.43,1.68-.51.59-.07,6.24.29,6.55.43,2.37,1.04,4.4,1.36,7.12,1.24.77-.03,1.38-.73,2.02-.82,2.17-.29,4.28-.73,6.41-1.07.96-.15,2.08.14,3.05-.07.79-.16,2.3-.98,3.18-1.13,1.45-.26,2.41.5,4-.08,1.8-.65,3.05-.62,4.8-1.2.39-.13.53-.56,1.03-.66.68-.13,1.39.07,2.03.24.16,1.02-1.47.02-1.91.84.03,1.14,3.74.05,4.42-.13.54-.14.85-.59,1.46-.7,1.49-.25,2.84.61,4.17-.15.43-.25.72-.89,1.15-1.01.35-.1,2.67-.74,2.82-.74,1.76-.09,2.67.38,4.03.99,1.58.71,3.05-1.26,4.13-1.28s2.59,1.68,3.12,1.7.94-.67,1.45-.71c.8-.07,2.7.33,3.34.25.68-.09.91-1.14,2.36-.68.49.15,1.49,1.6,1.85-.05h-.96s0-.72,0-.72c1.58-.02,2.59,1.83,3.74-.23.82.35,1.43.61,2.36.46.6-.1.95-.6,1.25-.64.35-.05.79.25,1.35.14.49-.1.75-.6,1.48-.69,2.14-.27,4.94,1.11,6.49-.46,1.28,1.82,2.4-.25,3.61-.47,1.27-.24,4.02.36,4.74.19.32-.08,1.51-1.13,2.08-1.29.62-.18,1.24,0,1.76-.16.34-.1.49-.56,1.01-.67,1.47-.29,3.19.5,4.55.23.56-.11.64-.62,1.43-.73,1.46-.2,3.13.4,4.34.27,1.05-.11.94-1.02,2.82-.68s.42,1.76,2.47,1.64c.89-.05.65-.64,1.29-1.12,1.05-.79,2.05,0,3.25-.09.63-.05,1.13-.41,1.7-.47.89-.1,1.83.19,2.62-.25l.24.47-1.32.84c1.3,1.21,2.13-.64,3.34-.97.59-.16,1.44-.19,2.04-.09.83.14.99.71,1.51.89,1.47.51,2.38.81,3.97,1.07.66.11,1.1.66,2.09.19-.15.74.49,1.55,1.07,1.93.36.23.81.2,1.07.37,1.15.75,1.91,1.83,3.49,1.53.12-.02,2.04-.8,2.22-.89,1.44-.73.74-1.89,1.06-2.41.07-.12,1.08-.27,1.16-.64.17-.7-1.55-.37-1.16-1.63.15-.5.97-.62,1.23-1.18.34-.73.13-1.66.16-2.43,2.22-.46.7-3.19,3.37-3.02-.54,1.86.85,1.2,1.94,1.54.8.25.82,1.18,2.21.8.13-.04,1.91-.83,1.99-.9.3-.27.12-.78.25-.96.39-.55,1.58-.58,1.05-1.67.87-.1,2.82-1.11,3.5-1.67.5-.41-.17-1.4,1.51-1.48l.06-1.74c.13-.54.86-.26,1.12-.43.28-.18.18-1.24.41-1.63.17-.29.78-.37.96-.72.28-.56-.02-1.71.14-1.9.11-.13,1.17-.03,1.38-.66l.28-5.36c2.06.26,2.81-.29,2.3-2.41l-1.83-.33c-.39-2.33-1.64-1.28-3.17-1.62-.7-.16-2.85-1.44-3.53-1.75-.47-.21-1.16-.02-1.46-.22-.28-.19-.16-.81-.34-1.1-.27-.41-3.69-1.27-3.71.13l-.36.13c-1.91-1.67-2.05-.02-3.35.95-.31.23-.74.19-1.08.37-.16.09-.18.44-.45.57-.6.3-1.64-.1-2.31,0-.63.1-.93.6-1.47.7-.6.11-2.68.09-3.24-.1-.42-.14-.71-.6-1.13-.79-1.54-.71-5.7-2.46-6.05-4.26-.09-.49-.01-4.87.13-5.16.17-.36.87-.51,1.09-.81.48-.67.87-2.12,1.77-3.02,1.11-1.1,2.66-1.33,3.25-1.78.31-.24.15-.84.47-1.21.64-.73,2.35-.52,2.31-2.06l1.77-.09c.59-.3.62-1.03.98-1.43.57-.62,2.54-.89,2.34-1.9-.04-.21-.63-.79-.85-.85-.62-.16-.76.51-1.2.65-2.05.64-3.24-2.51-4.39-1.28-.88.95.72,1.52,1.2,2.04-2.09-.48-1.88.57-2.74,1.22-.62.47-1.21-.02-1.93-.03-1.94-.03-3.81-.15-5.65.49.03-.6.04-.99-.54-1.26s-3.25-.41-2.95.3c.06.46,2.23,1.3,1.8,1.68l-2.41.11-.08,1.09-2.51,1.22-.03,1.17c-1.02.08-2.2-.15-3.19.05-1.4.29-3.17,2.44-4.25,2.73-.6.16-1.12-.26-1.53-.13-.51.16-.29,1.11-.72,1.45s-2.79.62-3.27,1.05c-.34.3-.13.8-.28,1.03-.49.76-6.31,2.16-2.61,3.43.43,1.09-.83,1.16-1.06,1.65-.35.73.27,2.13-1.25,2.36-1.02.16-1.85-1.25-2.47-1.52s-2.76-.37-2.89-1.44c-.05-.43.26-4.18.38-4.44.14-.32.66-.53.85-.83.27-.44.19-.93.58-1.34.49-.53,3-1.64,3.34-2.44s-.03-1.11-.02-1.72c0-.26.36-.56.35-.75,0-.11-.7-.81-.78-.84ZM369,52.5c-2.58-1.38-2.91,1.43-4.09,1.78-.99.29-2.41-.27-2.6,1.03-.15,1.06,1,.89,1.13,1.05.16.2-.1.8.08,1.12.03.06,1.09.85,1.15.88,2.13,1,1.34-.98,1.43-1.07.07-.07,1.5-.61,1.89-.87,1.29-.84.89-.75,2.49-1.35,2.28-.86-1.49-1.41-1.64-1.6l.14-.97ZM373.56,55.61l-1.45.11c-1.11.73,1.59,2.53,1.45-.11ZM289.59,58.01l-.11-.73-.29-.19c-.59-.07-1.34-.23-1.76.32.68.96,1.1.86,2.15.6ZM369.48,57.77l2.26.44c2.1-1.75-2.95-1.36-2.26-.44ZM365.81,60.72c-.14-.17-3.34-2.09-3.79-2.32-.52-.27-1-.26-1.47-.45-1.17-.47-1.42-1.61-2.11.66-.94.21-4.12,2.71-4.79,1.8,0-.77,1.3-1.54.07-1.88-.8-.22-1.22.6-1.88.92l.2,1.12c-.4,1-1.4.65-1.78,1.13-.27.35-.08.86-.37,1.13-.16.15-3.65,2.02-3.86,2.08-.94.24-2.19-.05-3.18.06.42,1.54-.82,1.28-1.09,1.66-.65.91.53,1.47,1.33,1.21v-1.2s.96.36.96.36c-.93.73.11,2.01-.27,3.09-.17.48-.98.31-1.15.78l.22,1.52-2.64-.72c-.28,1.06.9,1.63,1.8,1.69s1.36-.42,2.15-.5c1.44-.15,3.06.69,4.54.04l.14-1.23c1.67.64,2.71-1.09,3.77-1.39.65-.18,1.36.1,2.01-.15.4-.27.09-1.09.26-1.3.13-.16,1.96-.78,2.27-.99.4-.27.11-.91.39-1.15l8.37-4.72c.34-.37.2-.92-.1-1.27ZM291.98,58.01c-2.18-1-2.16,1.49-.39.92l.39-.92ZM296.28,61.82c.68-.96-1.4-1.89-1.37-.53.02.79,1.1.91,1.37.53ZM349.33,61.37h-1.56c-.51,1.07.74,1.03,1.56.96v-.96ZM345.73,62.8h-1.44v1.44h1.44v-1.44ZM332.09,69.96c3.3,2.65,3.5-1.6.07-.7l-.07.7ZM186.09,74.81c-.93.29-.12,1.72.82,1.06.63-.44.07-1.34-.82-1.06ZM354.28,76.02c-1,.34-.42,2.09,1.41,2,2.13-.1.75-2.72-1.41-2ZM349.5,78.91c-1.06.32-.84,2.17.39,2.06s1.37-2.59-.39-2.06ZM338.77,96.13l1.34-.22-.12-1.11h-.99s-.22,1.33-.22,1.33ZM339.9,97.39c-.4-.48-2.19-1.7-2.54-.64s.58.9,1.16,1.2c.54.27.78.85,1.7.58.03-.4-.05-.81-.31-1.13ZM142.95,97.6c-2.72-.33-2.06,1.81.28.92l-.28-.92ZM331.47,101.65c-.73.22-.22,1.11.47,1.19,1.42.16.7-1.54-.47-1.19ZM313.3,110.06c-1.05-.08-1.17-1.17-1.95-1.53-1.91-.89-3.75-.33-5.58-.41-3.84-.16-8.46-.87-12.24-.74-1.25.04-2.12.69-3.12.74-1.73.09-5.35-.18-7-.44-2.26-.35-2.21.91-3.6,1.34-.78.24-1.99-.35-3.05-.18-.46.07-2.94.64-3.33.75-.36.11-.52.63-1.01.68-.69.07-1.78-.41-2.86-.23-.6.1-1,.54-1.51.65-1.87.4-5.17-.58-7.12-.36-.84.09-1.15,1.21-1.95,1.37-.92.18-2.2-.17-3.11,0-.52.1-.66.56-1.01.67-.2.06-3.52.47-4.04.51-1.21.11-2.49-.05-3.7.01l.24,1.2c-1.02.59-1-.63-1.37-.72s-2.39-.07-2.84,0c-.72.1-1.04.65-1.9.5-.51-.09-.67-.57-1.02-.68-1.01-.31-2.38.13-3.73-.35-.34-.12-.53-.51-.83-.6-1.52-.46-5.51,1.68-8.06,1.1-.65-.15-.92-.81-1.5-.91-.52-.09-4.33-.3-4.8-.24-1.3.16-2.17,1.31-2.88,1.44-.96.18-2.57-.43-3.84-.25-.85.12-1.65,1.17-2.51.62-.91-.58.64-.62.48-1.32-2.28-1.27-2.92,1.04-3.77,1.39-.94.38-2.78.52-3.84.71-2.39.45-3.55.73-5.61,2.07-.42.28-1.28.2-1.18.75.22,1.29,2.62,1.71,3.67,1.51.76-.15,1.09-.8,2.22-.69.82.08,1.34,1.06,1.88.95.26-.05.47-.54.8-.64.92-.29,1.22.43,1.93.62,1.26.34,3.01.07,3.97.35.42.12.72.7,1.55.85,1.27.23,2.76-.12,4.01.07.74.12,1.34.76,1.99.89,2.58.52,5.97.72,8.53,1.3.46.1.74.53,1.26.66.9.21,5.65.62,6.48.51s1.01-.81,1.65-.75c.77.08,1.07,1.27,3.15.99.79-.11.87-.62,1.43-.73,1.41-.27,3.13.4,4.3.23.61-.09.88-.56,1.27-.66,1.15-.3,3.09-.37,4.16-.63.44-.11.43-.58.63-.62.81-.18,1.91.17,2.78-.06.41-.11.69-.6,1.28-.66.88-.09,1.87.47,3.05.19.44-.1.72-.52,1.06-.61,1-.26,3.12-.34,3.97-.57.32-.09.48-.58,1.02-.68.97-.19,2.36.15,3.37,0,.62-.09.91-.47,1.66-.52.9-.06,1.66.32,2.62.24,1.35-.11,3.26-1.2,4.36-1.41.8-.15,1.79.1,2.62-.02.37-.06.67-.47.97-.47.36,0,.65.54,1.18.49.15-.02,1.96-.5,2.31-.59.74-.2,1.18-1.03,2.48-.58.23.08,1.23,1.79,1.83-.04l-1.44-.36,3.24-1.8c1.02.45,2.39.03,3.31.29.46.13.75.89,1.45.85.54-.03,1.03-.58,1.71-.67,1.29-.17,2.83.31,3.84.24.59-.04.91-.6,1.46-.7,1.57-.3,3.42.33,4.78.25.78-.05,1.24-.61,1.94-.72,1.01-.16,2.23.27,3.11-.25.59-.58.14-2.67.32-3.57ZM137.72,107.87c-.39-.02-2.1-.18-1.92.6.84.86,2.14.98,1.92-.6ZM252.16,109.31c-.17,1.24,2.51,1.2,2.64.59.19-.91-2.18-.54-2.64-.59ZM316.21,111.72c-2.61-.96-2.63,1.55,0,.7v-.7ZM170.31,116.77c.21.35-.27,1.56.62,1.79,3.43-.38,6.9,0,10.31.33.86-.03,1.9-1.3.93-1.87-.66-.39-5.91-.63-6.9-.51-.57.07-.97.57-1.68.47-.62-.09-.86-.79-1.35-1.07-.59-.34-2.55-.73-2.86-.02-.36.84.79.64.93.87ZM168.36,117.01c-1.09.29-.39,1.85.78,1.28.96-.46.18-1.54-.78-1.28ZM123.32,119.37c.15-1.15-2.44-1.4-2.64-.59-.23.97,2.02.98,2.64.59ZM144.19,119.14c-.49-.11-.76-.43-1.31-.5-1.02-.13-4.42-.38-5.28-.22-.5.1-.79.55-1.26.66-.92.21-2.22-.41-2,1.11.17,1.15,2.6.99,3.49.86.59-.08,2.98-.44,3.3-.54.35-.11.5-.57,1.01-.67.71-.13,2.03.4,2.04-.72ZM283.85,144.81l-.15.71,1.11.6.7-.5c-.12-.8-.97-.96-1.66-.81ZM63.75,161.14c-.29.09-.46.35-.65.55-.14.7,2.46,1.13,2.62.21.14-.8-1.39-.94-1.97-.76ZM247.5,189.15c-.68.23-.43,2.14-.02,2.13.94-.4,1.69-2.7.02-2.13ZM246.88,191.05c-2.24-.54-2.01,2.49-.47,1.56l.47-1.56ZM241.57,196.35c-1.19-.75-2.18,1.34-1.89,2.37,1.26.69,2.66-1.88,1.89-2.37Z"/>
      <path class="cls-1" d="M451.65,66.88c.1.03.66.64.6.72l-3.45.03c-.51.16-.28.82-.51,1.16-.55.81-2.33.59-3.06.78s-2.48,1.17-3.22,1.34c-.66.15-1.36-.09-2.01.15-.22,1.71-.4,1.01-1.07,1.56-.37.31-.61.96-.83,1.09-.5.3-1.92.13-2.88.96-.36.31-.13.88-.49,1.19-.11.1-2.42,1.49-2.57,1.53-.61.16-1.06-.3-1.27-.81,1.99-1.25-.88-1.83-.69-.75l.44.52c-1,.38-.54.79-.77,1.38-.25.68-3.78,2.11-4.73,2.72-.3.19-.38.66-.76.92-1.01.72-2.83.63-1.84,2.71,1.82.26-.08,2.37,2,2.69l-.04.97c1.83.54.77,1.43,1.15,2.71.14.49.89.78,1.02,1.12.1.26-.19.66,0,.97.22.35.97.37,1.06.52.15.25-.07.85.14,1.17.7,1.05,2.66-1.1,3.39-1.22s1.53.45,2.33.2c.75-.23,2.49-1.85,3.22-2.06s3.11.14,3.41-.07l.12-1.19c.84.06,1.29-.86,1.49-.93.95-.33,2.04,1.38,3.19.92l.25-.58-1.19-.72c0-.4,2.01-.8,2.34-1.14.26-.26,0-.91.38-1.15.61-.4,3.15-.54,4-.81.65-.2,1.51-1.35,2.08-1.52.54-.16,1.32.05,1.83-.27.48-.31.08-1.66,1.66-2.23.72-.26,1.27-.09,1.91-.25,1.07-.27,3.27-1.59,4.63-1.84.86-.16,1.92.16,2.81-.07,1.13-.29,3.41-2.44,4.49-2.71.75-.19,1.53-.32,2.34-.53.56-.14,1.22.09,1.75-.17.39-.19.53-.98.96-1.2.57-.29,1.86-.51,2.69-.91.53-.25,1.62-1.2,2.03-1.32.61-.18,2.88.02,3.54.2.75.2,1.35,1.08,2.56.82.1-.02,1.69-.97,1.78-1.06.32-.33.36-.96.58-1.1.32-.21,1.11-.06,1.68-.24,1-.32,4-2.54,4.55-2.65.51-.1.98.26,1.53.1.17-.05,1.49-1.02,1.88-1.26.74-.44,1.16-.82,1.71-1.16.6-.36,1.71-.37,1.98-.91.15-.29.07-.89.13-.94.07-.07,1.32.04,1.74-.06.54-.13,1.91-.58,2.58-.78.62-.19,1.61-1.34,2.03-1.34s.8.69,1.31.86c.68.23,1.65.64,2.1.78.9.27,2.45-.28,1.72,1.82-.17.48-1.32.39-1.17.99,1.28.98,2.62,1.03,2.16,3-.8.01-2.24-.3-2.41.84-.09.64,1.28.42,1.21,1.19-.27.4-.97.37-1.22.7s-.13.9-.26,1.06c-.23.28-2.91.91-3.45,1.47-.83.86.37,1.44-1.96,2.11-.54.16-1.06-.09-1.64.28-.69.44-.48,1.53-1.06,1.82s-1.54,0-2.24.16c-.16.04-2.39.79-2.52.84-.58.27-.45.86-.78,1.14-1.15.99-4.04,1.76-5.5,2.66-.6.37-1.46,1.28-2.16,1.69-.35,1.98,5.6-.39,6.35-.86.54-1.9,3.28.47,2.51-1.92.7-.35,1.61-.1,2.23-.29.32-.1.49-.53.81-.63,1.02-.3,3.8-.9,4.77-1.01.7-.08,2.73,1.44,2.98-.23l-.72-.48c1.15.41,1.83-.5,2.57-.67.84-.19,1.84.27,2.34-.78.15-.31-.19-.81.36-1.06,1.25-.56,2,.34,2.48.31.15,0,1.42-.66,1.59-.8.83-.69.24-1.55.72-1.91.09-.07,1.9-.74,2.1-.78,1.33-.25,2.72-.24,4.11-.69.83-.27,1.06-.97,1.48-1.16.62-.27,1.23-.28,2.18-.7,3.19-1.4,6.9-3.98,9.99-5.84.27-.16.7-.15.88-.27.28-.19.04-1.09.61-1.34.25-.11.94.24,1.52.07.4-.12,1.51-1.09,2.03-1.34.67-.32,4.78-1.31,5.21-1.27.47.04.65.58,1.02.69.83.25,1.87-.21,2.78.29.14.08.18.39.34.48,1.77.96,2.37.7,2.02,3.09l2.36.63c-1.48.43-.96,1.3-1.69,2.14-.27.31-2.95,2.01-3.35,2.17-.16.06-2.61.81-2.76.84-.72.13-1.51-.3-2.01.39-.96,1.3,1,1.52.94,1.66-.29.39-.94.36-1.23.71-.22.25.12.67-.19.97-.23.22-.75.22-.92.42-.28.33-.25,1.38-.32,1.84l-1.09.24-.23,2.19c.38,0,2.26,1.64,2.3,1.79.15.65-1.12.65-1.21.99-.36,1.45.4,2.57,1.93,2.14.92-.25,3.45-2.06,4.63-2.59.84-.38,2.42-.57,3.27-1.05,1.2-.68,1.07-1.7,3.21-1.01.37.12.5.56,1.01.66.86.17,2.08-.11,3,0l-.14-.74-3.46-.46c-.4-.44,1.81-1.55,2.09-1.62.53-.13,1.08.03,1.57-.11.42-.12,1.65-1.26,2.02-1.36.56-.15,1.14.72,2.87.01,1.05-.43,1.69-1.46,2.16-1.74.41-.24,1.03-.15,1.5-.36.44-.2,2.68-1.5,2.99-1.75s.04-.72.18-.95c.06-.1,1.44-.45,1.82-.7.72-.47,1.32-1.43,2.39-1.69.51-.12,1.06.03,1.57-.11,2.83-.72,4.48-4.66,8.42-4.42.7.04,1.88.63,2.81.52.34.2-.2.77.2,1.22.26.3,1.72.81,1.9,1.11.16.28.21,2.94-.07,3.31-.22.28-.77.2-.96.48s-.02.78-.36,1.08c-.8.71-3,1.61-4.08,1.67l-.95,1.93c-.86.53-2.61-1.11-2.4,1.07-.24.26-2.71-1.06-2.4.71.08.12,1.19.06.96.6-.95,1.13-1.86,1.27-3.1,1.7-.29.1-.55.49-.91.55-.7.12-1.19-.81-1.89-.23-.66.55-.22,2.31-.34,3.14.87.26,1.4-.31,2.06-.46,2.63-.62,4.79-1.9,7.22-2.83.19-.07,1.9-1.27,1.99-1.39.31-.39.19-.87.48-1.19.15-.16,3.64-2.08,3.85-2.14,1.72-.55,3.99-.68,5.74-1.7.46-.27.35-.76.66-1.08.22-.22,3.17-2.27,3.37-2.33.25-.07.5-.12.76-.04l.29.91h1.37s.26-2.26.26-2.26c2.1.14,3.55-1.11,5.2-2.25.51-.09.88,1.23,1.86.92.67-.33.23-.88.15-1.42.29-.01.54-.2.83-.2.78,0,3.4.1,4.04.25.54.12.91.67,1.36.8.78.23,1.43-.04,2.26.38.46.23.81.87,1.23,1.17,1.03.73,2.1,1.41,3.12,2.15l.12,3.84c-.66.31-1.41.13-2.03.26-.37.08-.62.38-.98.46-.8.17-1.7-.33-2.26.61,0,.39,2.35,1.17,1.91,1.79-.96.86-1.83.51-2.71.77-.32.09-.51.55-.82.64-.62.18-1.17-.34-1.73-.09-1.34.57.46,2.59-1.69,2.28l.23-1.42h-1.4s.22,1.42.22,1.42c-3.09.13.98,1.96.48,2.4-1.17.12-2.22-.58-3.33.03-.12.53.11,1.14-.15,1.65s-1.13.39-1.29.87c-.21.61-.11,2.84-.38,3.22-.36.51-1.65-.25-1.29,1.49.15.74.87,1.3,1.52.66.47-.47.24-1.47.39-1.65.08-.1.58-.06.82-.25.36-.3.29-1.03.74-1.19.58-.2,1.65.08,2.35-.04.6-.11,1.03-.61,1.93-.7.41-.05,5.02.62,4.2-.48l-.96-.25c-.06-.33.08-.58.4-.67,1-.31,2.92-.27,3.97-.58.71-.21,1.32-1.19,1.79-1.33.84-.25,2.03.18,2.9-.21.46-.21.27-.91.76-1.17.77-.4,1.62.25,2.46.08,1.02-.2.8-1.06,1.13-1.29.36-.25,1.21-.02,1.75-.16.4-.1.67-.58,1.27-.66.27-.04,3.05.95,3.22,1.08.27.2.25.72.47.96.97,1.03,1.37.41,1,2.48l1.16.63c.02.71-5.16.79-5.58.89-.79.18-1.42,1.26-2.23,1.39-1.16.18-2.08-.96-2.83-.7l-.27.22c.27,2.34-2.85,1.42-3.36,2.39s.75.61.61,1.44c-.94.36-1.08-.62-1.37-.72-1.96-.62-2.81.46-2.47,2.4-1.13.37-2.2-.97-2.81-1.15-.43-.12-.91.02-1.34-.1-.57-.16-1.31-1.26-2.21-1.39s.18.83.12,1.07c-1.06.99-1.67,1.33-3.12.84l.72-.83c-.48-.6-1.28-1.13-1.93-.48-.41.41,0,.78-.12,1.09-.22.56-1.13.6-.11,1.67-.29,0-.54.2-.83.2-2.43,0-4.85-.46-7.03-1.34-.44-.18-.99-.91-1.64-1.01l.36-2.26c-.17-.51-1.03-.19-1.19-.99-.09-.47.08-3.38.28-3.68.1-.16.65-.12.88-.33.24-.22.03-.8.26-1.04.32-.32.96-.35,1.11-.58.23-.34.01-.99.23-1.45.24-.51,1.14-.58,1.27-.77s.03-.64.17-.9c.33-.6,1.29-.2,1.3-1.58l2.38-.37c.18-.48-.15-1.5.07-1.85.09-.14,2.51-1.32,2.92-1.52.25-.13.8-.16.85-.22.16-.19-.15-1.01.25-1.31l2.19-.21.07-1.71c.57-1.1,2.8.26,2.21-1.31l-.49-.24c-.82.48-1.72-.03-2.35.05-.37.05-3.15.75-3.36.9-.88.62-.38.45-1.67,1.03-.59.26-.77.89-1.7.67-.29-.07-.24-.94-1-.73-1.34,1.43,1.5.66.36,2.29-1.56-.62-2.52.69-3.73.82-1.13.12.13-.8.14-.86.16-.8-.88-1.9-1.62-1.6-1.16.48-1.29,3.61-3.21,3.82l-.24,2.7c-2.21.79-1.08-1.83-2.96-1.41-1.71.39-.14,1.95-.37,2.15l-2.16.24c-.04-1.95-1.62-1.8-1.93-.12l.5.24-.62,1.79c-.63,1.12-3.88.3-1.31,2.4l-2.18.11c-.41.29.23,1.65-1.6,2-.88.17-1.45-.21-2.05-.14-.86.11-2.29,1.08-3,1.33-.78.27-2.88.52-3.26.76-.33.21-.28.85-.53,1.2-.31.43-1.83,1.35-2.26.97l.48-1.44-1.52.03-.35.35c.48,1.87-3.11,2.38-4.46,2.22-1.73-.2-1.89-.95-3.04-1.52-.71-.35-2.04-.53-2.86-1.11l.27-1.87.93-.28c.15-.67-.75-.63-.92-1.11-.7-1.99,1.25-1.65,2.25-2.71.33-.35.33-.82.6-1.08.36-.36,1.09-.17,1.16-1.01.11-1.35-1.79-1.13-2.6-.91l-.25.72.73.61c-.23,0-.49.02-.7.14-.88.52-2.03.85-3.09,1.23-.67.24-2.52.63-3.02,1-.38.28.26,1.54-1.46,1.23-.69-.13-.75-.93-1.92-.72-.25.04-1.34.8-1.45.97-.17.28-.02.78-.27.97-.79.59-2.22-.13-3.08-.03-.72.09-1.44.95-2.28.98v1.8c-1.12.39-2.49,1.99-3.62,1.68-.5-.14-.97-.7-1.37-.8-.89-.22-1.59.15-2.55-.33-.13-.07-1.32-.96-1.37-1.03-.27-.38-.14-.86-.27-1.05-.12-.17-.64-.13-.86-.34-.46-.44.06-1.16-.16-1.62-.71-1.49-3.3,1.16-4.15,1.37-.64.16-1.45-.1-1.99.17-.46.23-.36.98-.87,1.29-.19.11-1.86.69-2.14.74-.56.1-1.67-.15-2.04.12-.3.22-.16,1.5-1.25,1.88-.42.15-.79-.12-1.19-.02-.7.18-2.36,1.15-2.99,1.34-.5.16-1.16-.03-1.7.21-.43.19-.28.74-.63,1.05-.11.1-2.41,1.48-2.55,1.53-2.38.95-3.38-.97-4.89-1.56-.48-.19-1.3-.14-1.58-.34-.24-.17-.25-.7-.47-.98-.44-.57-1.01-.19-.76-1.75l-1.05-.5.11-.95-1.37-.86c.12-.74.72-.81,1.38-.85.22-.87-.6-.8-.91-1.37-.54-1.01-.25-2.26,1-2.45.96-.71-2.07-1.65-2.58-1.62-1.01.05-.46.74-.67,1.08-.1.16-.82.14-1.05.53-.16.28,0,.78-.26.98-.54.41-2.05.09-2.8.27-.69.17-2.32,1.5-3.13,1.91-2.3,1.16-5.22,2.15-7.68,2.87-.38.11-.9.88-1.61.79l-.62,2.03c-1.88-1.03-2.77.91-3.62,1.17-.76.23-1.8-.09-2.58.06-.87.17-.99,1.15-1.25,1.21-.63.14-1.84-.69-2.19.64-.09.36.45.97-.4,1.02-1.22-1.32-3.29-.84-4.81-1.91l-.15-2.6-2.35-1.84,1.2-.6c.29-.89-1.22-1.36-1.2-2.03,0-.31.43-.61.47-.97.13-.98-.08-2.08.03-3.08l-.97-.51,1.09-.59c.67-1.59-.98-1.69-2.17-1.45-.92.18-.37,1.22-.99,1.42-.66.04-1.2-.28-1.88-.24-.78.05-1.21.61-1.74.7-.44.07-.83-.19-1.11-.15-.18.03-1.98,1.35-2.54,1.51-.61.18-1.28.02-1.88.27-.36.15-.46.72-.92,1.01-.79.5-2.06.56-2.9.94-.94.43-2.07,1.69-3.02,2.02-.62.22-1.68-.35-2.34.05s.57.93.01,1.21c-.54.24-1.12-.01-1.68.24-.61.27-1.36,1.47-1.8,1.8-2.08,1.6-4.17,2.25-6.61,2.99-.45.13-.62.54-1.31.62-1.44.17-1.81-.94-2.64-.73-1.07.26.88.96.6,1.44-1.61-.66-2.07,1.01-2.56,1.16s-1.09-.07-1.6.08c-.56.17-1.44.49-2.16.72-.76.24-.9.79-1.97.69-.37-.04-2.74-1.52-3-1.83-.3-.36.13-.72-.09-1.07-.17-.28-1.92-.99-2.18-1.44-.22-.39-.02-1-.16-1.16-.21-.26-2.15-.31-.69-1.83-1.54-.68-.89-.82-1.32-1.79-.24-.53-1.78-1.11-.65-1.63.24-.11,1.03.04,1.01-.65-.02-.6-1.79-.19-2.17-.46-.33-.24-.13-1.7-1.42-1.58l.48-1.07c-.2-1.05-3.62.4-4.14.83s-.54,1.35-.96,1.53-.9-.13-1.38,0c-.63.18-1.55,1.2-2.29,1.33-.41.08-1.69-.08-1.78.02-.05.05.05.7-.23,1.09-.36.5-1.8.84-2.18,1.18-.33.3-.16.84-.48,1.2-.5.57-3.86,2.13-4.74,2.67-.3.18-.39.6-.54.68-.83.43-2.52-.34-3,.62-.14.27-.04.73-.18.9s-3.34,1.42-3.68,1.48c-.69.12-1.67-.18-2.27.13-.55.28-.33.94-.64,1.34-.57.73-1.64.6-2.37.92s-3.41,2.57-3.63,2.62c-.49.13-1.03-.24-1.6-.2-1.99.12-3.35,1.91-4.6,2.14-1.95.36-2.83-.35-5.07.69-1.32.61-3.07,1.68-4.53,1.95-.72.13-1.53-.14-2.29.11-.69.23-.81,1.18-1.59,1.29-.26.04-1.95-.21-2.22-.32-.22-.09-3.23-2.23-3.36-2.4-.31-.4-.21-.86-.47-1.21-.19-.26-.72-.35-.87-.59-.22-.34.4-2.36.1-3.2-.24-.68-2.98-.73.51-1.95l-.48-.71c1.96-.58,1.09-1.72,1.72-2.83.27-.48.97-.55,1.11-1.05.14-.46-.08-1.22.08-1.48.05-.08,1.49-.92,1.57-.94.51-.16,1.39.05,1.83-.27.24-.17.16-.7.5-.99.14-.13,2.59-1.5,2.74-1.54.96-.21,4.8,2.37,5.51.43.8-2.17-2.72-.57-3.2-1.76.12-.17,3.46-2.05,3.66-2.1.55-.14,1.13.04,1.61-.07,1.2-.27,2.27-1.32,3.73-.95l-.13-.73c1.43-1.17,3.25-.7,4.75-1,.92-.18,1.52-1.16,2.26-1.33s2.71-.12,3.56-.06c.53.04,2.16.22,1.55.97-.04.05-1.15.25-1.32.24-.98-.02-3.19-1.32-3.48.24.78-.03,1.17.84,1.8.96,1.04.2,3.37-.12,4.07-.96.27-.33.14-.98.54-1.2,1.5-.81,5.98-.71,7.2-1.97.6-.62.21-1.56.06-2.23-.03-.14-.44-.45.12-.59.9-.22,1.1.67,1.69.73s1.12-.56,1.91-.51,1.49,1.07,2.52.74l-.24-1.44c2-.1,3.09,1.6,5.35.91.68-.21.57-1.07.88-1.28.4-.27,1.27.02,1.92-.24,1.22-.48,1.72-2.3,3.06-2.7.42-.13.91.02,1.33-.11s.76-.67,1.26-.66.69.73,1.19.72c.92-.01,2.7-1.66,3.42-1.87.87-.25,2.11.11,3.04-.08l.28-.2c-.06-1.71,1.32-.95,2.34-1.25.47-.14,1.39-.54,2.1-.78,1.12-.37,2.12-2.15,3.42-2.59.54-.18,1.99.38,2.3-.58.35-1.09-.9-.86-.93-1.76.69-.23,2.96.54,3.32-.04.13-.21-.04-.76.26-1.29.85-1.48,2.78-1.8,3.48-2.76s-.35-2.01,2.5-1.69l.65-1.4c.08-.02,1.43.48,1.49.53.4.34-.08,1.32,1.57.91.24-.06.29-.53.52-.72.99-.82,1.17-1.52,1.79-2.06.84-.72,4.07-1.34,2.92-3.06-2.89-1.09.67-2.64,1.3-4.22.88-2.21.24-5.17.87-7.41.85-.19,2.06.2,2.84-.16.95-.43,2.44-2.54,3.48-3.24.35-.24.8-.2,1.06-.38.87-.58,3.12-2.17,2.85-3.27-.08-.34-.7-.51-.09-.91.94-.61,1.63.04,2.42.02.88-.02,2.12-1.65,2.77-2.27.17-.16.59-.17.81-.39.53-.52.2-1.43.48-1.91.16-.26,1.27-.8,1.44-1.44,1.21.87,1.09,2.15,3.14,1.22.45-.38.65-2.3,1.18-2.9.48-.54,1.47-.39,1.69-.71.3-.43-.14-1.28.45-2.19.88-1.34,1.79-.89,2.77-1.31,1.53-.66,1.69-1.96,2.29-2.98.05-.08,1.24-1.27,1.31-1.32.54-.34,1.42.02,1.99-.12.23-.05.41-.75.76-.99.27-.19,2.53-.04,2.72.07.13.08.31.74.52.97.83.87,2.77,1.9,2.05,3.3-.32.62-1.65.29-1.29,1.51.09.32,2.07,1.4,2.43,2.39.16.43-.12.9-.02,1.43.15.78,1.01,1.4,1.14,2.23.16,1-.24,1.91-.03,2.89.31,1.42,1.97,2.22.88,3.69-.23.31-.72.42-.85.64-.28.47-.1,1.24-.44,1.66-.22.28-.72.24-.9.41-.44.41-2.63,2.32-2.74,2.48-.13.19-1.51,2.57-1.56,2.72-.16.49.18,1.16-.21,1.68-.37.42-1.14.03-1.83.58-.53.42-.95,1.62-1.77,2.31-.54.45-1.49.71-1.82,1.29-.44.78-.02,2.14-1.75,1.53-.44-.15-.49-1.03-.99-.92-.93.19.24,1.12.31,1.36.16.56,0,1.25.06,1.84-1.49.15-1.23,1.7-1.75,2.25-.3.32-2.15,1.16-2.7,1.5-.36.22-.58.78-1.01.91-1.65.49-3.6-.75-4.64,1.86l.73,1.54c-1.04-.25-.85,1-1.35,1.17-2.92.41-7-.47-9.76.09-.53.11-1.64,1.35-2.74,1.57-.63.13-2.15-.08-2.43.09-.16.1-.23,1.15-.92,1.35-.57.17-1.26-.08-1.83.09-.32.1-.5.53-.81.63-.44.13-3.17.58-3.5.48-.8-.25-.83-.99-2.44-.67-.52.11-.67.57-1.01.67-.55.16-1.55-.17-1.87.29l.24.48c1.03.18,2.95-.25,3.84,0ZM459.21,59.45h6.36c1.41,0,1.55-2.04,2.03-2.28.57-.28,1.25,0,1.76-.11.27-.06.3-.69.64-.85.5-.24,1.13,0,1.69-.24.38-.17.65-.89,1.14-1.04.95-.28,3.43.73,2.08-1.71l.28-.47c1.21-.33,2.22,1.1,2.85.94,1.03-.26-.4-1.25-.48-1.45-.48-1.07.68-1.19.96-1.67.21-.37.15-1.01.35-1.28.16-.23.62-.17.87-.38.3-.26.38-.82.75-.94.52-.16,1.09.14,1.66-.26s.44-1.25.71-1.68c.15-.23,1.74-1.49,2.16-1.93.27-.28.3-.72.34-.72h3.6c.57-1.07-.72-1.44-.91-2.09-.48-1.57.53-1.3,1.08-1.82.82-.77,2.57-3.37,3.3-3.78.44-.25,1.01.19,1.56-.34.78-.76-.06-1.8.58-2.29.48-.42,2.68-.02,2.8-.6.17-.83-1.04-1.62-1.3-2.53-.2-.71-.04-1.63-.28-2.12-.15-.31-.72-.44-.95-.72-.4-.49-.24-1.38-.97-1.44-1.8-.14-2.58,1.78-3.73,2.28-.55.24-1.18.03-1.77.39-.84.52-2.45,2.71-3.26,3.22-.44.27-.92-.13-1.37.04-.27.11-2.35,1.67-2.41,1.91-.15.56.14,1.09-.29,1.63-.27.33-2.57,1.76-3.05,1.99-.6.28-1.29.19-1.88.52-.4.23-1.98,2.48-2.58,3.06-.21.21-.59.17-.82.38-.31.28-1.68,1.97-1.8,2.04-.45.26-1.6-.18-2.12.16l-.94,2.16c-.78-.03-1.72-.3-2.49-.07-.52.15-1.73,1.64-2.17,2.03-.18.16-.6.13-.89.42-1.09,1.08,0,2.05-.01,2.9,0,.41-.41.77-.45,1.21-.07.75.15,2-.05,2.58-.03.09-1.25,1.32-1.33,1.37-.39.26-.88.05-1.24.63s.16,2.19-.03,2.95ZM443.31,62.6c-.27.08-.45.38-.65.56.45.65,1.33.92,1.91.24-.07-.62-.7-.96-1.27-.8ZM616.52,69.07c-.22.07-.45.31-.39.57,2.22,1.99,2.46-1.22.39-.57ZM613.36,69.62c-.95.04-1.1,1.02-.19,1.29,1.63.49,1.7-1.36.19-1.29ZM547.5,70c-.33-.31-2.5-.31-2.16.35s2.24.88,2.16-.35ZM501.23,75.06l3.58-1.1c.44-.45.02-1.26.46-1.7.39-.39,1.98-.42,2.41-1.2-2.06-3.12-5.82,1.15-8.72.4l-.51,1.17-.82-.02-.13-.95-.69-.21c-.94.25-.49,1.65-.66,1.86-.07.09-.88.06-1.18.38s-.17.83-.35,1.09c-.2.28-.76.2-.96.48s-.06.89-.34,1.1c-.34.25-1.41.02-2,.16s-1.66,1.24-2.24,1.31c-.73.09-1.73-.65-2.48-.3-.15.07-2.56,1.78-2.67,1.9-.35.42-.24,1.24-.5,1.66-.33.56-1.27.18-.92.99.21.49,3.12.48,3.67.36.22-.05,2.83-1.91,3.51-2.05.29-.06.46.35.73.26.53-.18,1.51-1.01,2.35-1.26.52-.15,1.07.03,1.56-.11.79-.22,2.65-1.84,3.47-2.05,1.73-.45,1.79,1.13,3.28.45l.17-2.63ZM421.3,75.51c-.31,1.29,1.94,1.56,2.16.59.18-.8-1.75-.82-2.16-.59ZM536.98,76.43c2.16.96,2.33-1.34-.04-.92l.04.92ZM618.67,75.54l-.39.57c.55.66,1.13.66,1.68,0l-1.29-.57ZM419.62,77.19l1.19-.6c-1.38-1.55-3.88,1.67-2.39,2.41.45.22,2.38-.27,2.39-.73-.3-.68-1.37-.33-1.19-1.08ZM475.53,77.19c-.95-.35-1.07.61-1.38.72-.26.09-1.43-.12-1.26.6.27,1.12,3.2-.18,2.64-1.31ZM533.13,78.6c4.02,1.27,3.37-1.78.08-.95l-.08.95ZM534.62,81.43l-1.61-2.59c-.44-.33-1.94-.37-2.19,0l-.14,1.3c-.41,1.33-5.76-.94-6.44.87l1.08.48c.07.8-.71.21-1.16.28-.87.13-2.2.85-3.66.93-.48.02-1.1-.32-1.4-.23-.64.18-.16,2.72-1.25,3.56-1.67,1.27-3.07-.81-4.66.39.24,1.37,2.16.3,2.4,1.67l-1.67.72c0,.35,1.65.58,1.43,1.32-.17.16-1.84-.66-2.29-.01v1.93c.31.51,2.14.67,2.55.37s.09-1.04.26-1.3c.11-.17,3.09-1.28,3.57-1.83.33-.38.11-.9.38-1.11.61-.3,1.14.12,1.78-.07,1.29-.38,2.78-2.24,4.46-2.28.68-.02,1.29.42,2.09.17.61-.19,1.14-1.36,2.21-1.41.76-.04,3.57.86,3.72.74.48-.39-.53-.41-.5-.83.08-1.21.98-2.04,2.18-2.05.16-.83-.89-.79-1.13-1.03ZM516.07,83.18l-.11-.73-.29-.19-2-.04.14.74,2.26.22ZM572.63,83.74c.17.12.1.55.67.65.46.08,1.02.05,1.32-.37.1-.49-2.12-1.94-2.73-1.33l-.15.62c.06.18.6.23.89.43ZM394.71,82.74c-1.2,2.99,3.67.6,1.72,0h-1.72ZM409.55,84.14c-.93-.14-2.06-.43-3-.24-.52.1-.66.56-1.01.67-.77.24-1.95-.07-2.82.06-2.99.45-6.44,1.9-9.62,2.37-1.19.18-1.5-.33-2.18-.41-.45-.05-1.05.41-1.65.43-.63.02-1.22-.31-1.91-.27-.83.05-1.1.62-1.69.73-.68.12-1.49-.11-2.15.01-.42.08-1.54.92-2.23,1.13-.65.2-1.23.05-2.02.37-.75.31-1.03,1.01-1.5,1.18-.91.34-.76-.5-1.57-.52l.49,1.52c-.52.24-1.08,1.06-1.59,1.13-.17.02-2.79-.24-3.06-.29-.41-.09-.7-.52-1-.56-.71-.1-1.42.4-1.93.49-.36.06-.84-.25-1.4-.08-.11.03-1.67,1.53-1.73,1.64-.19.38-.25,1.33.11,1.58,1.12.79,2.84-1.96,4.19-1.56l.39.58c-.05.2-3.14,1.87-3.62,2.13-.89.48-1.47.26-2.37,1.23-1.19,1.27-.56,1.81-.84,2.51-.35.88-1.69.92-1.83,1.11l-.34,4.17c1.6,1.19,3.74.25,5.41-.35l.23-.24-.48-.84c.89-.61,2.16-.52,2.93-.79.66-.23,1.68-1.02,2.23-1.12.8-.15,1.77.15,2.57-.07.35-.1.63-.51,1.07-.61,1.47-.34,2.7.14,4.01.67.43-.68.82-1.42,1.59-1.79.66-.31.81-.34,1.45-.69,1.68-.91,1.87-.55,3.32-1.01,1.33-.42,1.32-1.45,1.94-1.9,1.24-.89,4.58-1.6,5.51-2.4.35-.3.16-.99.46-1.22.35-.26,1.25,0,1.77-.15.32-.09.5-.54.75-.58.41-.06.92.36,1.58.03.44-.22.43-.92.7-1.22.36-.4.85-.73,1.45-1.42,1.28-1.46,1.56-.62,2.64-.93.8-.23,2.56-1.81,3.29-2.01.58-.16,1.64.12,2.01-.15.28-.21.15-.82.34-1.1.28-.39,1.36-.16,1.08-1.2ZM609.43,86.04c.67.47,2.02-.78,1.19-1.55l-1.18-.08c-.27.32-.28,1.44-.01,1.62ZM382.2,85.81l2,.21.37-1.02c-.28-.87-1.6-.05-2.06.28-.16.11-.68.13-.31.53ZM482.49,86.3c-.96-.46-2.08-.08-2.99-.25-.66-.12-.79-.77-1.25-.91-.57-.17-1.58.04-1.16.68l1.32,1.07c0,.42-1.41.42-1.19.96.23.57,2.21.93.59,2.75-.28.32-.67.37-1.04.52v.89c.16.27,1.85.35,2.24.27.52-.11.67-.57,1.01-.67.58-.17,1.23.07,1.82-.1.14-.04,2.45-1.42,2.56-1.51.36-.32.17-.99.47-1.21.37-.27,1.42.01,2.01-.15.34-.1.97-.82,1.5-.9.41-2.82-1.38-.89-2.17-.73-1.24.25-2.19-.61-3.36.49l-.55-.36.19-.84ZM528.07,89.89c.53-1.45-2.88-1.07-2.87-.6.67.97,1.86.52,2.87.6ZM365.12,94.49c-.47-.29-2.13-.94-2.36-.16s.66.71.72,1c.09.38-.06.87,0,1.27l1.58-.23.06-1.89Z"/>
      <path class="cls-1" d="M654.75,98.53l-2.09.9c-.6.25-2.3-.15-2.67.09-.11.07-.88,1.62-1.71,2-.59.27-1.2.02-1.78.13-.82.16-1.32.75-2.36.42-.35-.11-.5-.57-1.01-.67-.57-.11-1.24.09-1.87-.05s-1.12-.9-1.85-.91l.17-.47c1.18.12.93-1.31,1.04-1.43.09-.1,1.37.05,1.78-.02.67-.12,1.41-.98,1.99-1.13s1.14,0,1.75-.17c1.76-.49,3.84-3.02,6.22-1.93.08.04,1.28,1,1.32,1.07.39.66-.34,2.03,1.08,2.16Z"/>
    </g>
  </g>
</svg>